<svg width="20" height="27" viewBox="0 0 20 27" fill="none" xmlns="http://www.w3.org/2000/svg">
<path d="M9.99945 12.8419C4.47662 12.8419 0 17.3196 0 22.8425V26.6882H20V22.843C20 17.3196 15.5223 12.8419 9.99945 12.8419Z" fill="white"/>
<path d="M4.74906 9.0216L5.77432 8.65981C6.05118 9.12142 6.40746 9.53837 6.83102 9.89299L6.33576 10.9282L8.56001 11.9915L9.05416 10.9563C9.58526 11.0605 10.1202 11.0776 10.6425 11.0087L11.0186 12.0753L12.8778 11.4185L12.5061 10.3684C12.9826 10.0888 13.4083 9.72423 13.7734 9.28908L14.8075 9.78379L15.8681 7.56671L14.8329 7.07146C14.9404 6.52767 14.957 5.97781 14.8825 5.44395L15.9072 5.08271L15.2509 3.22356L14.2257 3.5848C13.9505 3.12484 13.5948 2.70955 13.1739 2.35548L13.6692 1.31919L11.435 0.250366L10.9398 1.28776C10.3877 1.18021 9.82793 1.16422 9.2869 1.24419L8.93944 0.259742L7.0792 0.916592L7.43272 1.91758C6.98489 2.18948 6.57898 2.53748 6.23263 2.95001L5.19634 2.45476L4.12916 4.68617L5.16601 5.18143C5.05956 5.72191 5.04412 6.26901 5.11858 6.80066L4.09332 7.1619L4.74906 9.0216ZM10 4.40324C10.9139 4.40324 11.6545 5.14393 11.6545 6.05778C11.6545 6.97163 10.9139 7.71231 10 7.71231C9.08615 7.71231 8.34547 6.97163 8.34547 6.05778C8.34547 5.14393 9.08615 4.40324 10 4.40324Z" fill="white"/>
</svg>
