<svg width="30" height="31" viewBox="0 0 30 31" fill="none" xmlns="http://www.w3.org/2000/svg">
<path d="M15.0297 29.8506C23.2727 29.8506 29.9549 23.1683 29.9549 14.9253C29.9549 6.68228 23.2727 0 15.0297 0C6.78664 0 0.104367 6.68228 0.104367 14.9253C0.104367 23.1683 6.78664 29.8506 15.0297 29.8506Z" fill="#13818D"/>
<path d="M15.0297 29.8506C23.2727 29.8506 29.9549 23.1683 29.9549 14.9253C29.9549 6.68228 23.2727 0 15.0297 0C6.78664 0 0.104367 6.68228 0.104367 14.9253C0.104367 23.1683 6.78664 29.8506 15.0297 29.8506Z" fill="#0D6963"/>
<path d="M29.4333 0.64391L28.7254 1.35182L29.2921 1.91848L30 1.21057L29.4333 0.64391Z" fill="#44C2C7"/>
<path d="M2.74959 28.4728L2.18472 27.908L3.65888 26.4338L4.22374 26.9987L2.74959 28.4728ZM5.6979 25.5245L5.13304 24.9597L6.6072 23.4855L7.17206 24.0504L5.6979 25.5245ZM8.64622 22.5624L8.08136 21.9976L9.55551 20.5234L10.1204 21.0883L8.64622 22.5624ZM11.5854 19.6141L11.0297 19.0584L12.5038 17.5728L13.071 18.14L11.5854 19.6141ZM14.5452 16.6658L13.9803 16.1009L15.4544 14.6268L16.0193 15.1916L14.5452 16.6658ZM17.4958 13.7152L16.9309 13.1503L18.4051 11.6762L18.9699 12.241L17.4958 13.7152ZM20.4441 10.7669L19.8792 10.202L21.3534 8.72555L21.9182 9.29271L20.4441 10.7669ZM23.3947 7.80707L22.8367 7.25139L24.3109 5.77723L24.8757 6.3421L23.3947 7.80707ZM26.343 4.86794L25.7782 4.30307L27.2523 2.82892L27.8172 3.39378L26.343 4.86794Z" fill="#44C2C7"/>
<path d="M0.707914 29.3689L0 30.0768L0.566655 30.6435L1.27457 29.9356L0.707914 29.3689Z" fill="#44C2C7"/>
<path d="M18.8344 13.7887L21.6886 11.1251C22.4647 10.3375 22.9446 8.99191 22.4142 8.47067L22.095 8.15609C21.5669 7.63486 20.2282 8.13772 19.4521 8.92532L16.6967 11.8093C14.7082 11.0057 11.3718 9.67158 9.77136 9.12968C9.15138 8.92302 6.86896 10.0573 7.4522 10.3329C9.15368 11.1549 12.6118 12.9896 14.5704 14.0321L10.0079 18.8059C9.37871 18.5556 8.66689 18.2777 8.26505 18.1423C8.04691 18.0688 7.24554 18.4683 7.4522 18.5671C7.89536 18.7806 8.68066 19.1916 9.33508 19.5383C8.8414 20.1514 8.62556 20.7255 9.04346 21.1457L9.36263 21.4603C9.78743 21.8782 10.3661 21.6394 10.97 21.1227C11.3351 21.7978 11.7989 22.652 12.0561 23.1135C12.1686 23.3133 12.5543 22.505 12.4671 22.2938C12.3041 21.8942 11.9803 21.0998 11.7071 20.4339L16.575 15.8966C17.5761 17.7542 19.5991 21.497 20.5819 23.2444C20.901 23.8139 21.9986 21.5177 21.7552 20.9115C21.1261 19.373 19.6427 15.7542 18.8344 13.7887Z" fill="white"/>
</svg>
