<svg width="34" height="40" viewBox="0 0 34 40" fill="none" xmlns="http://www.w3.org/2000/svg">
<path fill-rule="evenodd" clip-rule="evenodd" d="M27.9193 21.2554C27.8685 16.1883 32.0511 13.7579 32.2377 13.6357C29.8877 10.1986 26.2258 9.72696 24.922 9.67384C21.8088 9.35696 18.8434 11.5079 17.2634 11.5079C15.6873 11.5079 13.2466 9.71992 10.6647 9.76513C7.26725 9.81598 4.13667 11.7413 2.3883 14.7823C-1.13932 20.9015 1.48633 29.971 4.92354 34.9381C6.60436 37.3653 8.60833 40.0974 11.2372 39.9973C13.7716 39.8973 14.7284 38.3578 17.7914 38.3578C20.8545 38.3578 21.7153 39.9973 24.3958 39.9458C27.1206 39.8965 28.8483 37.4717 30.5157 35.0342C32.4444 32.214 33.2391 29.4835 33.2859 29.3446C33.227 29.3175 27.9739 27.3047 27.9193 21.2554ZM22.8823 6.38669C24.2765 4.69395 25.2213 2.34146 24.9649 0C22.9522 0.0817202 20.5163 1.33786 19.072 3.02904C17.7778 4.52964 16.6457 6.91866 16.9489 9.21795C19.1934 9.39191 21.4833 8.0763 22.8823 6.38669Z" fill="#1B1B1B"/>
</svg>
