<svg width="30" height="28" viewBox="0 0 30 28" fill="none" xmlns="http://www.w3.org/2000/svg">
<path d="M13.5573 27.1147C21.0448 27.1147 27.1147 21.0448 27.1147 13.5573C27.1147 6.06982 21.0448 0 13.5573 0C6.06982 0 0 6.06982 0 13.5573C0 21.0448 6.06982 27.1147 13.5573 27.1147Z" fill="#13818D"/>
<path d="M13.5573 27.1147C21.0448 27.1147 27.1147 21.0448 27.1147 13.5573C27.1147 6.06982 21.0448 0 13.5573 0C6.06982 0 0 6.06982 0 13.5573C0 21.0448 6.06982 27.1147 13.5573 27.1147Z" fill="#0D6963"/>
<path d="M6.49709 19.4892L11.8887 17.1031L6.4658 14.6002C6.4658 14.6002 5.19142 17.2887 6.35526 19.412L6.49709 19.4892Z" fill="#039CA3"/>
<path d="M16.5775 20.8324L11.8887 17.247L12.3059 23.2122C12.3059 23.2122 15.276 23.037 16.5796 20.9972L16.5775 20.8324Z" fill="#2FBEC1"/>
<path d="M13.5406 11.5905L11.8721 17.247L17.295 14.7233C17.295 14.7233 16.0602 12.0118 13.6908 11.5237L13.5406 11.5905Z" fill="#066D6A"/>
<path d="M11.895 17.8143C12.2083 17.8143 12.4623 17.5603 12.4623 17.247C12.4623 16.9337 12.2083 16.6797 11.895 16.6797C11.5817 16.6797 11.3277 16.9337 11.3277 17.247C11.3277 17.5603 11.5817 17.8143 11.895 17.8143Z" fill="#1A838E"/>
<path d="M29.872 8.01551C29.8235 7.95971 29.7636 7.91499 29.6963 7.8844C29.629 7.85381 29.5559 7.83806 29.482 7.83822H14.2853L14.911 4.73881H15.6285L15.3657 5.99026C15.3491 6.06563 15.3497 6.14377 15.3674 6.21889C15.3851 6.29401 15.4194 6.36419 15.4679 6.42426C15.5163 6.48433 15.5777 6.53274 15.6473 6.56592C15.717 6.59911 15.7932 6.61621 15.8704 6.61598H19.1054C19.1731 6.61598 19.2401 6.60265 19.3026 6.57676C19.3651 6.55087 19.4219 6.51292 19.4697 6.46509C19.5175 6.41725 19.5555 6.36045 19.5814 6.29795C19.6073 6.23545 19.6206 6.16845 19.6206 6.1008C19.6206 6.03315 19.6073 5.96615 19.5814 5.90365C19.5555 5.84114 19.5175 5.78435 19.4697 5.73651C19.4219 5.68867 19.3651 5.65073 19.3026 5.62484C19.2401 5.59895 19.1731 5.58562 19.1054 5.58562H16.5024L16.7652 4.33418C16.7818 4.2588 16.7812 4.18066 16.7635 4.10554C16.7458 4.03042 16.7115 3.96024 16.663 3.90017C16.6146 3.8401 16.5532 3.79169 16.4835 3.75851C16.4139 3.72532 16.3376 3.70822 16.2605 3.70845H14.0913C13.9741 3.70742 13.8601 3.74654 13.7682 3.81931C13.6763 3.89208 13.6121 3.9941 13.5863 4.10841C13.5605 4.22273 13.5745 4.34244 13.6262 4.44764C13.6778 4.55284 13.764 4.6372 13.8702 4.68667L12.6438 10.775C10.9723 10.5656 9.2846 11.0113 7.93443 12.0186C6.58425 13.026 5.67637 14.5169 5.40105 16.1788C5.12572 17.8407 5.50431 19.5447 6.45748 20.9336C7.41066 22.3226 8.86443 23.2887 10.5142 23.6296C12.1639 23.9705 13.8815 23.6596 15.3071 22.7621C16.7327 21.8646 17.7556 20.4502 18.1614 18.8152C18.5672 17.1803 18.3245 15.4517 17.4841 13.9917C16.6437 12.5318 15.2709 11.4537 13.6533 10.9835L14.0225 9.14807L27.7696 18.6674C27.8422 18.7179 27.9266 18.7489 28.0147 18.7573C28.1028 18.7658 28.1916 18.7514 28.2725 18.7155C28.3533 18.6797 28.4237 18.6236 28.4766 18.5527C28.5295 18.4818 28.5633 18.3985 28.5747 18.3107L29.9951 8.4264C30.0053 8.3531 29.9996 8.27845 29.9783 8.20754C29.9571 8.13664 29.9208 8.07114 29.872 8.01551ZM17.3576 17.247C17.3578 18.3577 17.0213 19.4424 16.3924 20.3579C15.7634 21.2734 14.8717 21.9766 13.8349 22.3749C12.798 22.7731 11.6648 22.8476 10.5847 22.5885C9.50464 22.3294 8.52853 21.7489 7.7852 20.9236C7.04186 20.0983 6.56624 19.067 6.42111 17.9658C6.27599 16.8647 6.46817 15.7454 6.9723 14.7556C7.47643 13.7659 8.2688 12.9524 9.24485 12.4223C10.2209 11.8922 11.3347 11.6705 12.4394 11.7865L11.5446 16.2333C11.3176 16.3033 11.1204 16.4467 10.984 16.641C10.8475 16.8354 10.7796 17.0696 10.7908 17.3068C10.8021 17.544 10.892 17.7707 11.0463 17.9512C11.2006 18.1317 11.4106 18.2557 11.6431 18.3038C11.8757 18.3518 12.1176 18.3211 12.3308 18.2166C12.544 18.112 12.7164 17.9395 12.8207 17.7262C12.9251 17.5129 12.9555 17.2709 12.9073 17.0384C12.859 16.8059 12.7347 16.596 12.5541 16.4419L13.4489 11.9951C14.5767 12.3365 15.5652 13.0312 16.2685 13.9767C16.9718 14.9222 17.3528 16.0686 17.3555 17.247H17.3576ZM11.8679 16.8299C11.9504 16.8299 12.031 16.8543 12.0996 16.9002C12.1682 16.946 12.2217 17.0112 12.2533 17.0874C12.2848 17.1636 12.2931 17.2475 12.277 17.3284C12.2609 17.4093 12.2212 17.4836 12.1629 17.542C12.1045 17.6003 12.0302 17.6401 11.9493 17.6561C11.8683 17.6722 11.7845 17.664 11.7082 17.6324C11.632 17.6008 11.5669 17.5474 11.521 17.4788C11.4752 17.4102 11.4507 17.3295 11.4507 17.247C11.4513 17.1371 11.4952 17.0318 11.5729 16.9541C11.6506 16.8764 11.7559 16.8325 11.8658 16.8319L11.8679 16.8299ZM27.6736 17.3367L15.4345 8.86858H28.8875L27.6736 17.3367Z" fill="white"/>
</svg>
