<svg width="20" height="21" viewBox="0 0 20 21" fill="none" xmlns="http://www.w3.org/2000/svg">
<path d="M19.0909 7.52309H16.3636V1.15946C16.3636 0.990629 16.3166 0.825135 16.2279 0.68152C16.1391 0.537906 16.0121 0.421845 15.8611 0.346342C15.7101 0.270839 15.5411 0.238878 15.3729 0.25404C15.2048 0.269202 15.0442 0.330887 14.9091 0.432185L13.0273 1.84128C10.1909 -0.276906 11 -0.276906 8.18182 1.84128C5.35455 -0.276906 6.15455 -0.276906 3.32727 1.84128L1.45455 0.432185C1.31948 0.330887 1.15888 0.269202 0.990732 0.25404C0.822586 0.238878 0.653538 0.270839 0.502533 0.346342C0.351528 0.421845 0.224531 0.537906 0.135772 0.68152C0.0470133 0.825135 0 0.990629 0 1.15946V17.5231C0 18.2464 0.287337 18.9401 0.7988 19.4516C1.31026 19.963 2.00396 20.2504 2.72727 20.2504H17.2727C17.996 20.2504 18.6897 19.963 19.2012 19.4516C19.7127 18.9401 20 18.2464 20 17.5231V8.43218C20 8.19108 19.9042 7.95985 19.7337 7.78936C19.5632 7.61887 19.332 7.52309 19.0909 7.52309ZM2.72727 18.4322C2.48617 18.4322 2.25494 18.3364 2.08445 18.1659C1.91396 17.9954 1.81818 17.7642 1.81818 17.5231V2.97764C3.63636 4.314 3.1 4.28673 5.75455 2.29582C8.57273 4.414 7.77273 4.414 10.6 2.29582C13.3273 4.33218 12.8 4.28673 14.5455 2.97764C14.5455 18.2049 14.4727 17.7958 14.7 18.4322H2.72727ZM18.1818 17.5231C18.1818 17.7642 18.086 17.9954 17.9156 18.1659C17.7451 18.3364 17.5138 18.4322 17.2727 18.4322C17.0316 18.4322 16.8004 18.3364 16.6299 18.1659C16.4594 17.9954 16.3636 17.7642 16.3636 17.5231V9.34128H18.1818V17.5231Z" fill="white"/>
<path d="M4.54545 8.43219H7.27273C7.51383 8.43219 7.74506 8.33641 7.91555 8.16592C8.08604 7.99543 8.18182 7.7642 8.18182 7.52309C8.18182 7.28199 8.08604 7.05076 7.91555 6.88027C7.74506 6.70978 7.51383 6.614 7.27273 6.614H4.54545C4.30435 6.614 4.07312 6.70978 3.90263 6.88027C3.73214 7.05076 3.63636 7.28199 3.63636 7.52309C3.63636 7.7642 3.73214 7.99543 3.90263 8.16592C4.07312 8.33641 4.30435 8.43219 4.54545 8.43219Z" fill="white"/>
<path d="M11.8182 10.2504H4.54545C4.30435 10.2504 4.07312 10.3461 3.90263 10.5166C3.73214 10.6871 3.63636 10.9184 3.63636 11.1595C3.63636 11.4006 3.73214 11.6318 3.90263 11.8023C4.07312 11.9728 4.30435 12.0685 4.54545 12.0685H11.8182C12.0593 12.0685 12.2905 11.9728 12.461 11.8023C12.6315 11.6318 12.7273 11.4006 12.7273 11.1595C12.7273 10.9184 12.6315 10.6871 12.461 10.5166C12.2905 10.3461 12.0593 10.2504 11.8182 10.2504Z" fill="white"/>
<path d="M11.8182 13.8867H4.54545C4.30435 13.8867 4.07312 13.9825 3.90263 14.153C3.73214 14.3235 3.63636 14.5547 3.63636 14.7958C3.63636 15.0369 3.73214 15.2682 3.90263 15.4386C4.07312 15.6091 4.30435 15.7049 4.54545 15.7049H11.8182C12.0593 15.7049 12.2905 15.6091 12.461 15.4386C12.6315 15.2682 12.7273 15.0369 12.7273 14.7958C12.7273 14.5547 12.6315 14.3235 12.461 14.153C12.2905 13.9825 12.0593 13.8867 11.8182 13.8867Z" fill="white"/>
</svg>
