<svg width="118" height="124" viewBox="0 0 118 124" fill="none" xmlns="http://www.w3.org/2000/svg">
<path d="M91.4 122.8V123.8H91.8638L92.1634 123.446L91.4 122.8ZM22.6 122.8L21.8366 123.446L22.1362 123.8H22.6V122.8ZM102.9 26.5L102.363 25.6563C102.011 25.8807 101.835 26.3005 101.922 26.7092C102.01 27.1178 102.342 27.429 102.755 27.4895L102.9 26.5ZM99.1 26.5L99.2448 27.4895C99.6582 27.429 99.9905 27.1178 100.078 26.7092C100.165 26.3005 99.9894 25.8807 99.6369 25.6563L99.1 26.5ZM95 36.8H94C94 37.3523 94.4477 37.8 95 37.8V36.8ZM107 36.8V37.8C107.552 37.8 108 37.3523 108 36.8H107ZM89.2 30L89.3414 30.9899C89.7557 30.9308 90.0893 30.6199 90.1775 30.2108C90.2657 29.8018 90.0899 29.381 89.7369 29.1563L89.2 30ZM85 36.8H84C84 37.3523 84.4477 37.8 85 37.8V36.8ZM112.8 30L112.263 29.1563C111.911 29.3807 111.735 29.8005 111.822 30.2092C111.91 30.6178 112.242 30.929 112.655 30.9895L112.8 30ZM116.9 36.8V37.8C117.452 37.8 117.9 37.3523 117.9 36.8H116.9ZM62.2 106.8V105.8H61.4286L61.2328 106.546L62.2 106.8ZM91 106.8L91.9701 107.043L92.2808 105.8H91V106.8ZM56.3 5.1L56.4104 6.09388L56.3 5.1ZM51 10.3L50.0108 10.1535L50.0081 10.1715L50.0061 10.1896L51 10.3ZM52.4 14.9L53.174 14.2668L53.1562 14.245L53.1372 14.2243L52.4 14.9ZM61.5 14.9L60.7929 14.1929L60.7576 14.2282L60.726 14.2668L61.5 14.9ZM44.9194 12.9961C45.0277 13.5377 45.5546 13.8889 46.0961 13.7806C46.6377 13.6723 46.9889 13.1454 46.8806 12.6039L44.9194 12.9961ZM46.8806 9.89612C46.9889 9.35456 46.6377 8.82773 46.0961 8.71942C45.5546 8.61111 45.0277 8.96232 44.9194 9.50388L46.8806 9.89612ZM49.4 1.8C48.9582 2.13137 48.8686 2.75817 49.2 3.2C49.5314 3.64183 50.1582 3.73137 50.6 3.4L49.4 1.8ZM53.0714 1.92848C53.5842 1.72336 53.8336 1.14139 53.6285 0.628609C53.4234 0.115826 52.8414 -0.13359 52.3286 0.0715233L53.0714 1.92848ZM61.2714 0.0715233C60.7586 -0.13359 60.1766 0.115826 59.9715 0.628609C59.7664 1.14139 60.0158 1.72336 60.5286 1.92848L61.2714 0.0715233ZM63 3.4C63.4418 3.73137 64.0686 3.64183 64.4 3.2C64.7314 2.75817 64.6418 2.13137 64.2 1.8L63 3.4ZM68.6806 9.50388C68.5723 8.96232 68.0454 8.61111 67.5039 8.71942C66.9623 8.82773 66.6111 9.35456 66.7194 9.89612L68.6806 9.50388ZM66.7194 12.6039C66.6111 13.1454 66.9623 13.6723 67.5039 13.7806C68.0454 13.8889 68.5723 13.5377 68.6806 12.9961L66.7194 12.6039ZM92.1634 123.446C98.9112 115.471 103 105.044 103 93.8H101C101 104.556 97.0888 114.529 90.6366 122.154L92.1634 123.446ZM103 93.8C103 68.3477 82.4523 47.8 57 47.8V49.8C81.3477 49.8 101 69.4523 101 93.8H103ZM57 47.8C31.5477 47.8 11 68.3477 11 93.8H13C13 69.4523 32.6523 49.8 57 49.8V47.8ZM11 93.8C11 105.145 15.0896 115.472 21.8366 123.446L23.3634 122.154C16.9104 114.528 13 104.655 13 93.8H11ZM22.6 123.8H91.4V121.8H22.6V123.8ZM66.9938 75.3229C67.6331 76.6929 68 78.2488 68 79.9H70C70 77.9512 69.5669 76.1071 68.8062 74.4771L66.9938 75.3229ZM68 79.9C68 85.9477 63.0477 90.9 57 90.9V92.9C64.1523 92.9 70 87.0523 70 79.9H68ZM57 90.9C50.9523 90.9 46 85.9477 46 79.9H44C44 87.0523 49.8477 92.9 57 92.9V90.9ZM46 79.9C46 78.2575 46.363 76.8012 47.0062 75.4229L45.1938 74.5771C44.437 76.1988 44 77.9425 44 79.9H46ZM76.1533 106.498C75.1376 103.29 73.3368 100.784 70.2077 99.1174C67.133 97.4794 62.8651 96.7 57 96.7V98.7C62.7349 98.7 66.617 99.4706 69.2673 100.883C71.8632 102.266 73.3624 104.31 74.2467 107.102L76.1533 106.498ZM57 96.7C47.1546 96.7 41.7863 98.8915 39.07 103.627C37.7483 105.932 37.1196 108.74 36.8093 111.947C36.499 115.156 36.5 118.865 36.5 123H38.5C38.5 118.835 38.501 115.232 38.8 112.14C39.0991 109.048 39.6892 106.568 40.805 104.623C42.9637 100.859 47.3454 98.7 57 98.7V96.7ZM60.4929 83.3929C58.5834 85.3024 55.5166 85.3024 53.6071 83.3929L52.1929 84.8071C54.8834 87.4976 59.2166 87.4976 61.9071 84.8071L60.4929 83.3929ZM103.437 27.3437C104.793 26.4806 105.7 25.0785 105.7 23.3H103.7C103.7 24.3215 103.207 25.1194 102.363 25.6563L103.437 27.3437ZM105.7 23.3C105.7 20.6302 103.535 18.6 101 18.6V20.6C102.465 20.6 103.7 21.7698 103.7 23.3H105.7ZM101 18.6C98.3302 18.6 96.3 20.7654 96.3 23.3H98.3C98.3 21.8346 99.4698 20.6 101 20.6V18.6ZM96.3 23.3C96.3 24.9639 97.1937 26.4722 98.5631 27.3437L99.6369 25.6563C98.8063 25.1278 98.3 24.2361 98.3 23.3H96.3ZM98.9552 25.5105C97.7047 25.6935 96.722 26.2414 95.9856 27.0616C95.2667 27.8623 94.8257 28.8732 94.5457 29.9318C93.9932 32.0207 94 34.5886 94 36.8H96C96 34.5114 96.0068 32.2293 96.4792 30.4432C96.7118 29.5642 97.0395 28.8814 97.4738 28.3978C97.8905 27.9336 98.4453 27.6065 99.2448 27.4895L98.9552 25.5105ZM95 37.8H107V35.8H95V37.8ZM108 36.8C108 34.5886 108.007 32.0207 107.454 29.9318C107.174 28.8732 106.733 27.8623 106.014 27.0616C105.278 26.2414 104.295 25.6935 103.045 25.5105L102.755 27.4895C103.555 27.6065 104.11 27.9336 104.526 28.3978C104.96 28.8814 105.288 29.5642 105.521 30.4432C105.993 32.2293 106 34.5114 106 36.8H108ZM95.8 26.8C95.8 24.1302 93.6346 22.1 91.1 22.1V24.1C92.5654 24.1 93.8 25.2698 93.8 26.8H95.8ZM91.1 22.1C88.4302 22.1 86.4 24.2654 86.4 26.8H88.4C88.4 25.3346 89.5698 24.1 91.1 24.1V22.1ZM86.4 26.8C86.4 28.4639 87.2937 29.9722 88.6631 30.8437L89.7369 29.1563C88.9063 28.6278 88.4 27.7361 88.4 26.8H86.4ZM89.0586 29.0101C86.8645 29.3235 85.3795 29.9747 84.6285 31.4945C84.2839 32.1918 84.1386 32.9913 84.069 33.8418C83.9993 34.6929 84 35.6886 84 36.8H86C86 35.6614 86.0007 34.7571 86.0623 34.005C86.1239 33.2525 86.2411 32.7457 86.4215 32.3805C86.7205 31.7753 87.3355 31.2765 89.3414 30.9899L89.0586 29.0101ZM85 37.8H97.1V35.8H85V37.8ZM108.2 26.8C108.2 25.2698 109.435 24.1 110.9 24.1V22.1C108.365 22.1 106.2 24.1302 106.2 26.8H108.2ZM110.9 24.1C112.43 24.1 113.6 25.3346 113.6 26.8H115.6C115.6 24.2654 113.57 22.1 110.9 22.1V24.1ZM113.6 26.8C113.6 27.7361 113.094 28.6278 112.263 29.1563L113.337 30.8437C114.706 29.9722 115.6 28.4639 115.6 26.8H113.6ZM112.655 30.9895C114.603 31.2744 115.195 31.7677 115.487 32.372C115.664 32.7394 115.779 33.249 115.839 34.0031C115.899 34.7563 115.9 35.6618 115.9 36.8H117.9C117.9 35.6882 117.901 34.6937 117.833 33.8438C117.765 32.9948 117.623 32.198 117.288 31.503C116.555 29.9823 115.097 29.3256 112.945 29.0105L112.655 30.9895ZM116.9 35.8H104.8V37.8H116.9V35.8ZM58.9672 123.054L63.1672 107.054L61.2328 106.546L57.0328 122.546L58.9672 123.054ZM62.2 107.8H91V105.8H62.2V107.8ZM90.0299 106.557L86.0299 122.557L87.9701 123.043L91.9701 107.043L90.0299 106.557ZM32.6071 55.8929L23.8071 47.0929L22.3929 48.5071L31.1929 57.3071L32.6071 55.8929ZM82.8071 57.3071L91.6071 48.5071L90.1929 47.0929L81.3929 55.8929L82.8071 57.3071ZM58 48.8V37.8H56V48.8H58ZM17 38.8H3V40.8H17V38.8ZM3 38.8C2.45228 38.8 2 38.3477 2 37.8H0C0 39.4523 1.34772 40.8 3 40.8V38.8ZM2 37.8V18.8H0V37.8H2ZM2 18.8C2 18.2523 2.45228 17.8 3 17.8V15.8C1.34772 15.8 0 17.1477 0 18.8H2ZM3 17.8H17V15.8H3V17.8ZM17 17.8C17.5477 17.8 18 18.2523 18 18.8H20C20 17.1477 18.6523 15.8 17 15.8V17.8ZM18 18.8V37.8H20V18.8H18ZM18 37.8C18 38.3477 17.5477 38.8 17 38.8V40.8C18.6523 40.8 20 39.4523 20 37.8H18ZM5 23.8H11V21.8H5V23.8ZM5 28.8H15V26.8H5V28.8ZM64 11.1C64 7.0185 60.3963 3.63871 56.1896 4.10612L56.4104 6.09388C59.4037 5.7613 62 8.1815 62 11.1H64ZM56.1896 4.10612C53.0191 4.45839 50.4745 7.02353 50.0108 10.1535L51.9892 10.4465C52.3255 8.17647 54.1809 6.34161 56.4104 6.09388L56.1896 4.10612ZM50.0061 10.1896C49.7773 12.2493 50.3501 14.1437 51.6628 15.5757L53.1372 14.2243C52.2499 13.2563 51.8227 11.9508 51.9939 10.4104L50.0061 10.1896ZM51.626 15.5332C52.4122 16.4941 52.9 17.6772 52.9 18.8H54.9C54.9 17.1228 54.1878 15.5059 53.174 14.2668L51.626 15.5332ZM52.9 18.8C52.9 19.4264 53.1479 19.9986 53.6942 20.3521C54.1539 20.6495 54.6934 20.7 55.1 20.7V18.7C54.9688 18.7 54.8772 18.6903 54.8174 18.6781C54.757 18.6657 54.7547 18.6561 54.7808 18.6729C54.7951 18.6822 54.8152 18.6978 54.8361 18.7208C54.8572 18.7442 54.874 18.7695 54.8859 18.7935C54.91 18.8424 54.9 18.8569 54.9 18.8H52.9ZM55.1 20.7H58.9V18.7H55.1V20.7ZM58.9 20.7C59.3066 20.7 59.8461 20.6495 60.3058 20.3521C60.8521 19.9986 61.1 19.4264 61.1 18.8H59.1C59.1 18.8569 59.09 18.8424 59.1141 18.7935C59.126 18.7695 59.1428 18.7442 59.1639 18.7208C59.1848 18.6978 59.2049 18.6822 59.2192 18.6729C59.2453 18.6561 59.243 18.6657 59.1826 18.6781C59.1228 18.6903 59.0312 18.7 58.9 18.7V20.7ZM61.1 18.8V18.6H59.1V18.8H61.1ZM61.1 18.6C61.1 17.4677 61.495 16.4853 62.274 15.5332L60.726 14.2668C59.705 15.5147 59.1 16.9323 59.1 18.6H61.1ZM62.2071 15.6071C63.3036 14.5106 64 12.8523 64 11.1H62C62 12.3477 61.4964 13.4894 60.7929 14.1929L62.2071 15.6071ZM58.6 22.2C58.6 23.0477 57.8477 23.8 57 23.8V25.8C58.9523 25.8 60.6 24.1523 60.6 22.2H58.6ZM57 23.8C56.1523 23.8 55.4 23.0477 55.4 22.2H53.4C53.4 24.1523 55.0477 25.8 57 25.8V23.8ZM46.8806 12.6039C46.8031 12.2167 46.8 11.8155 46.8 11.3H44.8C44.8 11.7845 44.7969 12.3833 44.9194 12.9961L46.8806 12.6039ZM46.8 11.3C46.8 10.7753 46.8037 10.2804 46.8806 9.89612L44.9194 9.50388C44.7963 10.1196 44.8 10.8247 44.8 11.3H46.8ZM50.6 3.4C51.0021 3.09843 51.3642 2.82765 51.8145 2.55749L50.7855 0.842507C50.2358 1.17235 49.7979 1.50157 49.4 1.8L50.6 3.4ZM51.8145 2.55749C52.2725 2.2827 52.6248 2.10712 53.0714 1.92848L52.3286 0.0715233C51.7752 0.292881 51.3275 0.517303 50.7855 0.842507L51.8145 2.55749ZM60.5286 1.92848C60.9752 2.10712 61.3275 2.2827 61.7855 2.55749L62.8145 0.842507C62.2725 0.517303 61.8248 0.292881 61.2714 0.0715233L60.5286 1.92848ZM61.7855 2.55749C62.2358 2.82765 62.5979 3.09843 63 3.4L64.2 1.8C63.8021 1.50157 63.3642 1.17235 62.8145 0.842507L61.7855 2.55749ZM66.7194 9.89612C66.7969 10.2833 66.8 10.6845 66.8 11.2H68.8C68.8 10.7155 68.8031 10.1167 68.6806 9.50388L66.7194 9.89612ZM66.8 11.2C66.8 11.7247 66.7963 12.2196 66.7194 12.6039L68.6806 12.9961C68.8037 12.3804 68.8 11.6753 68.8 11.2H66.8ZM47 76.4V75.1H45V76.4H47ZM47 75.1C47 70.8598 50.4447 67.5 54.6 67.5V65.5C49.3553 65.5 45 69.7402 45 75.1H47ZM54.6 67.5H59.3V65.5H54.6V67.5ZM59.3 67.5C63.5402 67.5 66.9 70.9447 66.9 75.1H68.9C68.9 69.8553 64.6598 65.5 59.3 65.5V67.5ZM66.9 75.1V76.4H68.9V75.1H66.9ZM46 76.8H79V74.8H46V76.8Z" fill="#0D6963"/>
</svg>
