<svg width="122" height="124" viewBox="0 0 122 124" fill="none" xmlns="http://www.w3.org/2000/svg">
<path d="M60 48.8C84.9 48.8 105 68.9 105 93.8C105 104.8 101 115 94.4 122.8H25.6C19 115 15 104.9 15 93.8C15 68.9 35.1 48.8 60 48.8ZM60 48.8V37.8M78.2 106.8C76.3 100.8 71.6 97.7 60 97.7C40.5 97.7 40.5 106.4 40.5 123M48 79.8V94.8H52M72 78.8V94.8H68M61.8 68C61.8 75.6 55.6 81.8 48 81.8M61 122.8L65.2 106.8H94L90 122.8M34.9 56.6L26.1 47.8M85.1 56.6L93.9 47.8M107 23.8V28.8M103 24.8L99.5 28.3M111 24.8L114.5 28.3M17 31.8H3C1.9 31.8 1 30.9 1 29.8V19.8C1 18.7 1.9 17.8 3 17.8H19C20.1 17.8 21 18.7 21 19.8V24.8M11.1 32.1V35.4M8 35.8H14M72 79.9C72 86.5274 66.6274 91.9 60 91.9C53.3726 91.9 48 86.5274 48 79.9C48 73.2726 53.3726 67.9 60 67.9C66.6274 67.9 72 73.2726 72 79.9ZM70.1 15.6L68.4 14.6C68.5 14 68.6 13.4 68.6 12.8C68.6 12.2 68.5 11.6 68.4 11L70.1 10C70.9 9.5 71.2 8.5 70.7 7.7L69.8 6.1C69.3 5.3 68.3 5 67.4 5.5L65.7 6.5C64.8 5.7 63.8 5.1 62.6 4.7V2.7C62.6 1.8 61.8 1 60.9 1H59C58.1 1 57.3 1.8 57.3 2.7V4.7C56.2 5.1 55.1 5.7 54.2 6.5L52.5 5.5C51.7 5 50.6 5.3 50.1 6.1L49.2 7.7C48.7 8.5 49 9.6 49.8 10L51.5 11C51.4 11.6 51.3 12.2 51.3 12.8C51.3 13.4 51.4 14 51.5 14.6L49.8 15.6C49 16.1 48.7 17.1 49.2 17.9L50.1 19.5C50.6 20.3 51.6 20.6 52.5 20.1L54.2 19.1C55.1 19.9 56.1 20.5 57.3 20.9V22.9C57.3 23.8 58.1 24.6 59 24.6H60.9C61.8 24.6 62.6 23.8 62.6 22.9V20.9C63.8 20.5 64.8 19.9 65.7 19.1L67.4 20.1C68.2 20.6 69.3 20.3 69.8 19.5L70.7 17.9C71.2 17.1 71 16 70.1 15.6ZM63 12.8C63 14.5 61.7 15.8 60 15.8C58.3 15.8 57 14.5 57 12.8C57 11.1 58.3 9.8 60 9.8C61.7 9.8 63 11.1 63 12.8ZM109 22.8H105C104.4 22.8 104 22.3 104 21.8V17.8C104 17.3 104.4 16.8 105 16.8H109C109.6 16.8 110 17.3 110 17.8V21.8C110 22.3 109.6 22.8 109 22.8ZM109 35.8H105C104.4 35.8 104 35.3 104 34.8V30.8C104 30.3 104.4 29.8 105 29.8H109C109.6 29.8 110 30.3 110 30.8V34.8C110 35.3 109.6 35.8 109 35.8ZM98 35.8H94C93.4 35.8 93 35.3 93 34.8V30.8C93 30.3 93.4 29.8 94 29.8H98C98.6 29.8 99 30.3 99 30.8V34.8C99 35.3 98.6 35.8 98 35.8ZM120 35.8H116C115.4 35.8 115 35.3 115 34.8V30.8C115 30.3 115.4 29.8 116 29.8H120C120.6 29.8 121 30.3 121 30.8V34.8C121 35.3 120.6 35.8 120 35.8ZM24 38.8H18C17.4 38.8 17 38.4 17 37.8V25.8C17 25.2 17.4 24.8 18 24.8H24C24.6 24.8 25 25.2 25 25.8V37.8C25 38.4 24.6 38.8 24 38.8Z" stroke="#0D6963" stroke-width="2" stroke-miterlimit="10"/>
</svg>
