<svg width="115" height="122" viewBox="0 0 115 122" fill="none" xmlns="http://www.w3.org/2000/svg">
<path d="M18.9 24.7L18.3631 23.8563C18.0106 24.0807 17.8347 24.5005 17.9221 24.9092C18.0095 25.3178 18.3418 25.629 18.7552 25.6895L18.9 24.7ZM15.1 24.7L15.2448 25.6895C15.6582 25.629 15.9905 25.3178 16.0779 24.9092C16.1653 24.5005 15.9894 24.0807 15.6369 23.8563L15.1 24.7ZM11 35H10C10 35.5523 10.4477 36 11 36V35ZM23 35V36C23.5523 36 24 35.5523 24 35H23ZM5.1 28.2L5.2448 29.1895C5.65825 29.129 5.99049 28.8178 6.07788 28.4092C6.16528 28.0005 5.9894 27.5807 5.63688 27.3563L5.1 28.2ZM1 35H0C0 35.5523 0.447715 36 1 36L1 35ZM28.8 28.2L28.2631 27.3563C27.9101 27.581 27.7343 28.0018 27.8225 28.4108C27.9107 28.8199 28.2443 29.1308 28.6586 29.19L28.8 28.2ZM33 35V36C33.5523 36 34 35.5523 34 35H33ZM95.4 121V122H95.8638L96.1634 121.646L95.4 121ZM26.6 121L25.8366 121.646L26.1362 122H26.6V121ZM74 105H73V105.031L73.0019 105.062L74 105ZM19.4369 25.5437C20.7931 24.6806 21.7 23.2785 21.7 21.5H19.7C19.7 22.5215 19.2069 23.3194 18.3631 23.8563L19.4369 25.5437ZM21.7 21.5C21.7 18.8302 19.5346 16.8 17 16.8V18.8C18.4654 18.8 19.7 19.9698 19.7 21.5H21.7ZM17 16.8C14.3302 16.8 12.3 18.9654 12.3 21.5H14.3C14.3 20.0346 15.4698 18.8 17 18.8V16.8ZM12.3 21.5C12.3 23.1639 13.1937 24.6722 14.5631 25.5437L15.6369 23.8563C14.8063 23.3278 14.3 22.4361 14.3 21.5H12.3ZM14.9552 23.7105C13.7047 23.8935 12.722 24.4414 11.9856 25.2616C11.2667 26.0623 10.8257 27.0733 10.5457 28.1318C9.99319 30.2207 10 32.7886 10 35H12C12 32.7114 12.0068 30.4293 12.4793 28.6432C12.7118 27.7643 13.0395 27.0814 13.4738 26.5978C13.8905 26.1336 14.4453 25.8065 15.2448 25.6895L14.9552 23.7105ZM11 36H23V34H11V36ZM24 35C24 32.7886 24.0068 30.2207 23.4543 28.1318C23.1743 27.0733 22.7333 26.0623 22.0144 25.2616C21.278 24.4414 20.2953 23.8935 19.0448 23.7105L18.7552 25.6895C19.5547 25.8065 20.1095 26.1336 20.5262 26.5978C20.9605 27.0814 21.2882 27.7643 21.5207 28.6432C21.9932 30.4293 22 32.7114 22 35H24ZM11.8 25C11.8 22.3302 9.63458 20.3 7.1 20.3V22.3C8.56542 22.3 9.8 23.4698 9.8 25H11.8ZM7.1 20.3C4.46509 20.3 2.3 22.4305 2.3 25H4.3C4.3 23.5695 5.53491 22.3 7.1 22.3V20.3ZM2.3 25C2.3 26.6639 3.19374 28.1722 4.56312 29.0437L5.63688 27.3563C4.80626 26.8278 4.3 25.9361 4.3 25H2.3ZM4.9552 27.2105C2.80255 27.5256 1.34535 28.1823 0.611806 29.703C0.276569 30.3981 0.135094 31.1948 0.0672411 32.0438C-0.000685859 32.8937 0 33.8882 0 35H2C2 33.8618 2.00069 32.9563 2.06088 32.2031C2.12116 31.449 2.23593 30.9395 2.41319 30.572C2.70466 29.9677 3.29745 29.4744 5.2448 29.1895L4.9552 27.2105ZM1 36H13.1V34H1V36ZM24.2 25C24.2 23.4698 25.4346 22.3 26.9 22.3V20.3C24.3654 20.3 22.2 22.3302 22.2 25H24.2ZM26.9 22.3C28.4302 22.3 29.6 23.5346 29.6 25H31.6C31.6 22.4654 29.5698 20.3 26.9 20.3V22.3ZM29.6 25C29.6 25.9361 29.0937 26.8278 28.2631 27.3563L29.3369 29.0437C30.7063 28.1722 31.6 26.6639 31.6 25H29.6ZM28.6586 29.19C30.6645 29.4765 31.2795 29.9753 31.5785 30.5805C31.7589 30.9457 31.8761 31.4525 31.9377 32.205C31.9993 32.9571 32 33.8614 32 35H34C34 33.8886 34.0007 32.8929 33.931 32.0418C33.8614 31.1913 33.7161 30.3918 33.3715 29.6945C32.6205 28.1747 31.1355 27.5235 28.9414 27.2101L28.6586 29.19ZM33 34H20.9V36H33V34ZM96.1634 121.646C102.911 113.671 107 103.244 107 92H105C105 102.756 101.089 112.729 94.6366 120.354L96.1634 121.646ZM107 92C107 66.5477 86.4523 46 61 46V48C85.3477 48 105 67.6523 105 92H107ZM61 46C35.5477 46 15 66.5477 15 92H17C17 67.6523 36.6523 48 61 48V46ZM15 92C15 103.345 19.0896 113.672 25.8366 121.646L27.3634 120.354C20.9104 112.728 17 102.855 17 92H15ZM26.6 122H95.4V120H26.6V122ZM36.6071 54.0929L27.8071 45.2929L26.3929 46.7071L35.1929 55.5071L36.6071 54.0929ZM86.8071 55.5071L95.6071 46.7071L94.1929 45.2929L85.3929 54.0929L86.8071 55.5071ZM62 47V36H60V47H62ZM47 107C45.8738 107 45 106.07 45 105H43C43 107.13 44.7262 109 47 109V107ZM45 105V99H43V105H45ZM45 99C45 97.8738 45.9305 97 47 97V95C44.8695 95 43 96.7262 43 99H45ZM47 97C48.1262 97 49 97.9305 49 99H51C51 96.8695 49.2738 95 47 95V97ZM49 99V105H51V99H49ZM49 105C49 106.048 48.0477 107 47 107V109C49.1523 109 51 107.152 51 105H49ZM59 107C57.8738 107 57 106.07 57 105H55C55 107.13 56.7262 109 59 109V107ZM57 105V88H55V105H57ZM57 88C57 86.8738 57.9305 86 59 86V84C56.8695 84 55 85.7262 55 88H57ZM59 86C60.1262 86 61 86.9305 61 88H63C63 85.8695 61.2738 84 59 84V86ZM61 88V105H63V88H61ZM61 105C61 106.07 60.1262 107 59 107V109C61.2738 109 63 107.13 63 105H61ZM71 107C69.8738 107 69 106.07 69 105H67C67 107.13 68.7262 109 71 109V107ZM69 105V73H67V105H69ZM69 73C69 71.8738 69.9305 71 71 71V69C68.8695 69 67 70.7262 67 73H69ZM71 71C72.1262 71 73 71.9305 73 73H75C75 70.8695 73.2738 69 71 69V71ZM73 73V105H75V73H73ZM73.0019 105.062C73.0622 106.027 72.1848 107 71 107V109C73.2152 109 75.1378 107.173 74.9981 104.938L73.0019 105.062ZM70 11C70 15.9706 65.9706 20 61 20V22C67.0751 22 72 17.0751 72 11H70ZM61 20C56.0294 20 52 15.9706 52 11H50C50 17.0751 54.9249 22 61 22V20ZM52 11C52 6.02944 56.0294 2 61 2V0C54.9249 0 50 4.92487 50 11H52ZM61 2C65.9706 2 70 6.02944 70 11H72C72 4.92487 67.0751 0 61 0V2ZM70 11C70 11.0402 69.9776 11.2306 69.5876 11.544C69.2068 11.8501 68.5945 12.17 67.7492 12.4574C66.0684 13.0289 63.6822 13.4 61 13.4V15.4C63.8407 15.4 66.4545 15.01 68.393 14.3509C69.3572 14.0231 70.2094 13.6103 70.8407 13.1028C71.4628 12.6028 72 11.8986 72 11H70ZM61 13.4C58.3178 13.4 55.9316 13.0289 54.2508 12.4574C53.4055 12.17 52.7932 11.8501 52.4124 11.544C52.0224 11.2306 52 11.0402 52 11H50C50 11.8986 50.5372 12.6028 51.1593 13.1028C51.7906 13.6103 52.6428 14.0231 53.607 14.3509C55.5455 15.01 58.1593 15.4 61 15.4V13.4ZM52 11C52 10.9598 52.0224 10.7694 52.4124 10.456C52.7932 10.1499 53.4055 9.83004 54.2508 9.54261C55.9316 8.97115 58.3178 8.6 61 8.6V6.6C58.1593 6.6 55.5455 6.98997 53.607 7.64906C52.6428 7.97692 51.7906 8.38973 51.1593 8.89716C50.5372 9.39725 50 10.1014 50 11H52ZM61 8.6C63.6822 8.6 66.0684 8.97115 67.7492 9.54261C68.5945 9.83004 69.2068 10.1499 69.5876 10.456C69.9776 10.7694 70 10.9598 70 11H72C72 10.1014 71.4628 9.39725 70.8407 8.89716C70.2094 8.38973 69.3572 7.97692 68.393 7.64906C66.4545 6.98997 63.8407 6.6 61 6.6V8.6ZM63.4 11C63.4 13.6822 63.0289 16.0684 62.4574 17.7492C62.17 18.5945 61.8501 19.2068 61.544 19.5876C61.2306 19.9776 61.0402 20 61 20V22C61.8986 22 62.6028 21.4628 63.1028 20.8407C63.6103 20.2094 64.0231 19.3572 64.3509 18.393C65.01 16.4545 65.4 13.8407 65.4 11H63.4ZM61 20C60.9598 20 60.7694 19.9776 60.456 19.5876C60.1499 19.2068 59.83 18.5945 59.5426 17.7492C58.9711 16.0684 58.6 13.6822 58.6 11H56.6C56.6 13.8407 56.99 16.4545 57.6491 18.393C57.9769 19.3572 58.3897 20.2094 58.8972 20.8407C59.3972 21.4628 60.1014 22 61 22V20ZM58.6 11C58.6 8.31783 58.9711 5.93161 59.5426 4.25084C59.83 3.40546 60.1499 2.79317 60.456 2.41237C60.7694 2.02243 60.9598 2 61 2V0C60.1014 0 59.3972 0.537217 58.8972 1.15933C58.3897 1.79058 57.9769 2.64276 57.6491 3.60703C56.99 5.54554 56.6 8.15933 56.6 11H58.6ZM61 2C61.0402 2 61.2306 2.02243 61.544 2.41237C61.8501 2.79317 62.17 3.40546 62.4574 4.25084C63.0289 5.93161 63.4 8.31783 63.4 11H65.4C65.4 8.15933 65.01 5.54554 64.3509 3.60703C64.0231 2.64276 63.6103 1.79058 63.1028 1.15933C62.6028 0.537217 61.8986 0 61 0V2ZM106 25C104.352 25 103 23.6477 103 22H101C101 24.7523 103.248 27 106 27V25ZM103 22C103 20.3523 104.352 19 106 19V17C103.248 17 101 19.2477 101 22H103ZM106 19H110V17H106V19ZM110 19C111.648 19 113 20.3523 113 22H115C115 19.2477 112.752 17 110 17V19ZM110 27C111.648 27 113 28.3523 113 30H115C115 27.2477 112.752 25 110 25V27ZM113 30C113 31.6477 111.648 33 110 33V35C112.752 35 115 32.7523 115 30H113ZM110 33H106V35H110V33ZM106 33C104.352 33 103 31.6477 103 30H101C101 32.7523 103.248 35 106 35V33ZM107 15V37H109V15H107ZM110 25H106V27H110V25Z" fill="#0D6963"/>
</svg>
