<svg width="182" height="182" viewBox="0 0 182 182" fill="none" xmlns="http://www.w3.org/2000/svg">
<path d="M179.7 73.6424C183.361 92.3754 180.999 111.787 172.951 129.094C164.903 146.402 151.583 160.718 134.899 169.989C118.216 179.26 99.0261 183.012 80.0799 180.705C61.1337 178.399 43.4039 170.154 29.4316 157.151L54.0589 130.683C62.4423 138.485 73.0802 143.432 84.4479 144.816C95.8157 146.2 107.33 143.949 117.34 138.386C127.35 132.823 135.342 124.234 140.17 113.849C144.999 103.465 146.417 91.818 144.22 80.5782L179.7 73.6424Z" fill="#308EFB"/>
<path d="M51.9011 172.472C38.1763 165.886 26.3374 155.939 17.4829 143.555L46.8897 122.526C52.2024 129.956 59.3058 135.924 67.5406 139.876L51.9011 172.472Z" fill="#FF9F40"/>
<path d="M74.7889 2.06227C86.465 -0.0667771 98.4462 0.125001 110.048 2.62665C121.65 5.12831 132.646 9.89084 142.408 16.6423C152.169 23.3938 160.506 32.0021 166.941 41.9756C173.376 51.9491 177.784 63.0925 179.913 74.7696L144.348 81.2545C143.07 74.2483 140.426 67.5622 136.564 61.5781C132.703 55.594 127.702 50.4291 121.845 46.3782C115.988 42.3273 109.39 39.4698 102.429 37.9688C95.4677 36.4678 88.279 36.3527 81.2733 37.6301L74.7889 2.06227Z" fill="#1C4A8E"/>
<path d="M18.1076 144.418C9.03441 132.039 3.26262 117.554 1.33634 102.327C-0.589941 87.0997 1.39274 71.6329 7.0975 57.3843C12.8023 43.1357 22.0412 30.5746 33.9433 20.8851C45.8455 11.1955 60.0189 4.6967 75.1275 2.00118L81.4765 37.5935C72.4114 39.2108 63.9073 43.1101 56.766 48.9238C49.6247 54.7376 44.0813 62.2742 40.6585 70.8234C37.2356 79.3725 36.046 88.6526 37.2018 97.7888C38.3576 106.925 41.8206 115.616 47.2646 123.044L18.1076 144.418Z" fill="#0D6963"/>
<path d="M18.1076 144.418C6.89104 129.115 0.774381 110.67 0.624435 91.6963C0.474489 72.7228 6.29886 54.1833 17.2722 38.7048L46.7633 59.6157C40.1793 68.9028 36.6847 80.0265 36.7747 91.4106C36.8646 102.795 40.5346 113.862 47.2646 123.044L18.1076 144.418Z" fill="#0FBD00"/>
</svg>
