<svg width="20" height="23" viewBox="0 0 20 23" fill="none" xmlns="http://www.w3.org/2000/svg">
<path d="M19.8755 9.1023L19.1212 4.20023C19.088 3.98468 18.9788 3.78811 18.8133 3.64607C18.6478 3.50404 18.437 3.42591 18.2189 3.42583C13.2264 3.42583 10.6676 0.974789 10.6457 0.953785C10.4746 0.7837 10.2432 0.688232 10.0019 0.688232C9.76064 0.688232 9.52919 0.7837 9.35809 0.953785C9.33252 0.974789 6.77372 3.42583 1.78123 3.42583C1.56315 3.42591 1.3523 3.50404 1.18682 3.64607C1.02133 3.78811 0.912138 3.98468 0.87899 4.20023L0.124683 9.1023C-0.213644 11.3291 0.140498 13.6061 1.13916 15.625C2.13782 17.6439 3.73275 19.3071 5.70801 20.3895L9.56173 22.4899C9.69591 22.5631 9.84631 22.6015 9.99916 22.6015C10.152 22.6015 10.3024 22.5631 10.4366 22.4899L14.2903 20.3895C16.2659 19.3074 17.8612 17.6443 18.8602 15.6254C19.8592 13.6065 20.2136 11.3293 19.8755 9.1023ZM13.4173 18.7823L10.0001 20.6498L6.58286 18.7859C4.9361 17.8844 3.60616 16.4987 2.77312 14.8163C1.94008 13.1339 1.64419 11.2361 1.92552 9.37992L2.56476 5.23306C5.23104 5.17336 7.81927 4.32174 10.0001 2.78659C12.18 4.32155 14.7672 5.17346 17.4326 5.23397L18.0719 9.37992C18.3535 11.2358 18.058 13.1333 17.2254 14.8157C16.3929 16.4981 15.0635 17.884 13.4173 18.7859V18.7823Z" fill="white"/>
<path d="M13.0073 8.25942L8.17366 13.093L6.99289 11.9122C6.90865 11.825 6.80788 11.7554 6.69647 11.7076C6.58505 11.6597 6.46522 11.6345 6.34397 11.6335C6.22271 11.6324 6.10246 11.6555 5.99023 11.7014C5.87801 11.7474 5.77604 11.8152 5.6903 11.9009C5.60456 11.9867 5.53675 12.0886 5.49083 12.2008C5.44492 12.3131 5.42181 12.4333 5.42286 12.5546C5.42392 12.6758 5.44911 12.7957 5.49697 12.9071C5.54483 13.0185 5.6144 13.1193 5.70162 13.2035L7.52803 15.0299C7.69928 15.2011 7.93151 15.2973 8.17366 15.2973C8.41581 15.2973 8.64805 15.2011 8.8193 15.0299L14.2985 9.55069C14.4649 9.37845 14.5569 9.14778 14.5548 8.90834C14.5528 8.6689 14.4567 8.43986 14.2874 8.27054C14.1181 8.10123 13.889 8.00519 13.6496 8.0031C13.4102 8.00102 13.1795 8.09307 13.0073 8.25942Z" fill="white"/>
</svg>
