<svg width="40" height="42" viewBox="0 0 40 42" fill="none" xmlns="http://www.w3.org/2000/svg">
<path d="M19.0102 0.0450439V3.59811H12.8049V7.64991H9.50319V20.2615H6.56872V16.2716H4.58921V20.2615H0V41.9549H40V20.2615H35.2793V16.2716H33.2998V20.2615H30.2455V7.64991H26.6924V3.59811H20.9897V0.0450439H19.0102ZM14.7845 5.57761H24.7129V7.64991H14.7845V5.57761ZM11.4827 9.63329H28.2621V39.9716H23.5917V32.618H16.157V39.9716H11.4866V20.2615H11.4826L11.4827 9.63329ZM1.97951 22.2449H9.50319V39.9716H1.97951V22.2449ZM30.2455 22.2449H38.0205V39.9716H30.2455V22.2449ZM18.1403 34.6014H21.6083V39.9716H18.1403V34.6014Z" fill="#9A7200"/>
<path d="M14.9552 12.4038C14.9552 14.4152 14.9552 16.4265 14.9552 18.4379C18.1507 18.4379 21.3463 18.4379 24.5419 18.4379C24.5419 16.4265 24.5419 14.4152 24.5419 12.4038C21.3463 12.4038 18.1507 12.4038 14.9552 12.4038ZM16.9379 14.3867C18.8116 14.3867 20.6854 14.3867 22.5592 14.3867C22.5592 15.0774 22.5592 15.768 22.5592 16.4587C20.6854 16.4587 18.8116 16.4587 16.9379 16.4587C16.9379 15.768 16.9379 15.0774 16.9379 14.3867Z" fill="#9A7200"/>
<path d="M14.9552 21.661C14.9552 23.6723 14.9552 25.6836 14.9552 27.695C18.1507 27.695 21.3463 27.695 24.5419 27.695C24.5419 25.6836 24.5419 23.6723 24.5419 21.661C21.3463 21.661 18.1507 21.661 14.9552 21.661ZM16.9379 23.6401C18.8116 23.6401 20.6854 23.6401 22.5592 23.6401C22.5592 24.3308 22.5592 25.0214 22.5592 25.7121C20.6854 25.7121 18.8116 25.7121 16.9379 25.7121C16.9379 25.0214 16.9379 24.3308 16.9379 23.6401Z" fill="#9A7200"/>
<path d="M3.80163 30.1182C3.80163 30.778 3.80163 31.4377 3.80163 32.0974C5.09496 32.0974 6.38828 32.0974 7.68161 32.0974C7.68161 31.4377 7.68161 30.778 7.68161 30.1182C6.38828 30.1182 5.09496 30.1182 3.80163 30.1182Z" fill="#9A7200"/>
<path d="M3.80163 25.8146C3.80163 26.4755 3.80163 27.1365 3.80163 27.7975C5.09496 27.7975 6.38828 27.7975 7.68161 27.7975C7.68161 27.1365 7.68161 26.4755 7.68161 25.8146C6.38828 25.8146 5.09496 25.8146 3.80163 25.8146Z" fill="#9A7200"/>
<path d="M3.80163 34.4182C3.80163 35.0779 3.80163 35.7376 3.80163 36.3973C5.09496 36.3973 6.38828 36.3973 7.68161 36.3973C7.68161 35.7376 7.68161 35.0779 7.68161 34.4182C6.38828 34.4182 5.09496 34.4182 3.80163 34.4182Z" fill="#9A7200"/>
<path d="M32.1904 30.1182C32.1904 30.778 32.1904 31.4377 32.1904 32.0974C33.4838 32.0974 34.7771 32.0974 36.0704 32.0974C36.0704 31.4377 36.0704 30.778 36.0704 30.1182C34.7771 30.1182 33.4838 30.1182 32.1904 30.1182Z" fill="#9A7200"/>
<path d="M32.1904 25.8146C32.1904 26.4755 32.1904 27.1365 32.1904 27.7975C33.4838 27.7975 34.7771 27.7975 36.0704 27.7975C36.0704 27.1365 36.0704 26.4755 36.0704 25.8146C34.7771 25.8146 33.4838 25.8146 32.1904 25.8146Z" fill="#9A7200"/>
<path d="M32.1904 34.4182C32.1904 35.0779 32.1904 35.7376 32.1904 36.3973C33.4838 36.3973 34.7771 36.3973 36.0704 36.3973C36.0704 35.7376 36.0704 35.0779 36.0704 34.4182C34.7771 34.4182 33.4838 34.4182 32.1904 34.4182Z" fill="#9A7200"/>
</svg>
