<svg width="20" height="21" viewBox="0 0 20 21" fill="none" xmlns="http://www.w3.org/2000/svg">
<path d="M19 0.0842285H4C3.46957 0.0842285 2.96086 0.294942 2.58579 0.670015C2.21071 1.04509 2 1.5538 2 2.08423V5.08423H0V7.08423H2V9.08423H0V11.0842H2V13.0842H0V15.0842H2V18.0842C2 18.6147 2.21071 19.1234 2.58579 19.4984C2.96086 19.8735 3.46957 20.0842 4 20.0842H19C19.2652 20.0842 19.5196 19.9789 19.7071 19.7913C19.8946 19.6038 20 19.3494 20 19.0842V1.08423C20 0.819012 19.8946 0.564658 19.7071 0.377122C19.5196 0.189585 19.2652 0.0842285 19 0.0842285ZM11 3.08323C12.648 3.08323 14 4.43423 14 6.08323C13.9971 6.87808 13.6801 7.63956 13.1182 8.2017C12.5562 8.76384 11.7948 9.08107 11 9.08423C9.353 9.08423 8 7.73123 8 6.08323C8 4.43423 9.353 3.08323 11 3.08323ZM17 16.0842H5V15.3342C5 13.1152 7.705 10.8342 11 10.8342C14.295 10.8342 17 13.1152 17 15.3342V16.0842Z" fill="white"/>
</svg>
