<svg width="20" height="21" viewBox="0 0 20 21" fill="none" xmlns="http://www.w3.org/2000/svg">
<path d="M19.2288 17.8951C19.7333 17.0366 19.9995 16.059 20 15.0632C20.0004 14.1382 19.7724 13.2274 19.3363 12.4116C18.9002 11.5959 18.2694 10.9004 17.5 10.387V1.93823H2.5V13.1882H9.07625C8.93186 13.5924 8.83455 14.0118 8.78625 14.4382H2.5L0 19.4382H10.8431C11.8422 20.2476 13.0892 20.6889 14.375 20.6882C15.6604 20.689 16.907 20.2477 17.9056 19.4382H20L19.2288 17.8951ZM3.75 11.9382V3.18823H16.25V9.76511C15.6483 9.54985 15.0141 9.43929 14.375 9.43823C13.4498 9.43749 12.5388 9.66532 11.7229 10.1015C10.907 10.5376 10.2115 11.1685 9.69812 11.9382H3.75ZM10.0719 15.0632C10.074 13.9226 10.5281 12.8294 11.3346 12.0228C12.1411 11.2163 13.2344 10.7623 14.375 10.7601C15.5154 10.7626 16.6083 11.2168 17.4146 12.0233C18.2208 12.8298 18.6747 13.9228 18.6769 15.0632C18.6744 16.2034 18.2204 17.2962 17.4141 18.1024C16.6079 18.9086 15.5152 19.3626 14.375 19.3651C13.2346 19.363 12.1415 18.9091 11.335 18.1028C10.5286 17.2966 10.0744 16.2036 10.0719 15.0632Z" fill="white"/>
<path d="M17.5 15.6882V14.4376H16.4606C16.4217 14.3068 16.3704 14.18 16.3075 14.0589L17.0494 13.317L16.1644 12.4326L15.4362 13.1614C15.2983 13.0842 15.1522 13.0226 15.0006 12.9776V11.9382H13.7506V12.977C13.6093 13.0188 13.4727 13.0754 13.3431 13.1457L12.63 12.4332L11.7456 13.3176L12.4581 14.0301C12.3879 14.16 12.3312 14.2968 12.2888 14.4382H11.25V15.6882H12.2888C12.3344 15.842 12.3963 15.9876 12.4731 16.1245L11.745 16.8514L12.6281 17.7364L13.3706 16.9945C13.4906 17.0576 13.6169 17.1082 13.7487 17.1476V18.1882H15V17.1476C15.1431 17.1051 15.2781 17.0489 15.4069 16.9789L16.1644 17.7364L17.0481 16.8514L16.2906 16.0951C16.36 15.9664 16.4163 15.8307 16.4594 15.6882H17.5ZM14.3744 16.0001C14.1258 15.9998 13.8874 15.9009 13.7116 15.7252C13.5358 15.5495 13.4367 15.3112 13.4362 15.0626C13.4369 14.814 13.536 14.5758 13.7117 14.4C13.8875 14.2242 14.1258 14.1251 14.3744 14.1245C14.623 14.125 14.8612 14.224 15.037 14.3998C15.2127 14.5757 15.3115 14.814 15.3119 15.0626C15.3115 15.3111 15.2127 15.5494 15.0369 15.7252C14.8612 15.9009 14.6229 15.9998 14.3744 16.0001Z" fill="white"/>
</svg>
