<svg width="20" height="24" viewBox="0 0 20 24" fill="none" xmlns="http://www.w3.org/2000/svg">
<path d="M14.4444 8.55745H12.963V13.7426H11.1111V22.2612H8.88889V13.7426H7.03704V8.55745H5.55556V15.2241H7.40741V23.7426H12.5926V15.2241H14.4444V8.55745Z" fill="white"/>
<path d="M7.40741 3.00189C7.40741 4.42782 8.57407 5.59449 10 5.59449C11.4259 5.59449 12.5926 4.42782 12.5926 3.00189C12.5926 1.57597 11.4259 0.409302 10 0.409302C8.57407 0.409302 7.40741 1.57597 7.40741 3.00189ZM11.1111 3.00189C11.1111 3.61301 10.6111 4.11301 10 4.11301C9.38889 4.11301 8.88889 3.61301 8.88889 3.00189C8.88889 2.39078 9.38889 1.89078 10 1.89078C10.6111 1.89078 11.1111 2.39078 11.1111 3.00189Z" fill="white"/>
<path d="M1.11111 4.85375C1.11111 6.27967 2.27778 7.44634 3.7037 7.44634C5.12963 7.44634 6.2963 6.27967 6.2963 4.85375C6.2963 3.42782 5.12963 2.26115 3.7037 2.26115C2.27778 2.26115 1.11111 3.42782 1.11111 4.85375ZM4.81481 4.85375C4.81481 5.46486 4.31481 5.96486 3.7037 5.96486C3.09259 5.96486 2.59259 5.46486 2.59259 4.85375C2.59259 4.24264 3.09259 3.74264 3.7037 3.74264C4.31481 3.74264 4.81481 4.24264 4.81481 4.85375Z" fill="white"/>
<path d="M18.5185 15.5945H16.6667V22.2612H13.7037V23.7426H18.1481V17.076H20V9.66856H18.5185V15.5945Z" fill="white"/>
<path d="M13.7037 4.85375C13.7037 6.27967 14.8704 7.44634 16.2963 7.44634C17.7222 7.44634 18.8889 6.27967 18.8889 4.85375C18.8889 3.42782 17.7222 2.26115 16.2963 2.26115C14.8704 2.26115 13.7037 3.42782 13.7037 4.85375ZM16.2963 3.74264C16.9074 3.74264 17.4074 4.24264 17.4074 4.85375C17.4074 5.46486 16.9074 5.96486 16.2963 5.96486C15.6852 5.96486 15.1852 5.46486 15.1852 4.85375C15.1852 4.24264 15.6852 3.74264 16.2963 3.74264Z" fill="white"/>
<path d="M3.33333 15.5945H1.48148V9.66856H0V17.076H1.85185V23.7426H6.2963V22.2612H3.33333V15.5945Z" fill="white"/>
</svg>
