<svg width="20" height="16" viewBox="0 0 20 16" fill="none" xmlns="http://www.w3.org/2000/svg">
<path d="M16.6667 0.5H3.33333C1.5 0.5 0 2 0 3.83333V12.1667C0 14 1.5 15.5 3.33333 15.5H16.6667C18.5 15.5 20 14 20 12.1667V3.83333C20 2 18.5 0.5 16.6667 0.5ZM18 5.33333L11.4167 9.75C11 10 10.5 10.1667 10 10.1667C9.5 10.1667 9 10 8.58333 9.75L2 5.33333C1.66667 5.08333 1.58333 4.58333 1.83333 4.16667C2.08333 3.83333 2.58333 3.75 3 4L9.58333 8.41667C9.83333 8.58333 10.25 8.58333 10.5 8.41667L17.0833 4C17.5 3.75 18 3.83333 18.25 4.25C18.4167 4.58333 18.3333 5.08333 18 5.33333Z" fill="white"/>
</svg>
