<svg width="20" height="21" viewBox="0 0 20 21" fill="none" xmlns="http://www.w3.org/2000/svg">
<path d="M18.4314 1.65286H17.2549V1.45678C17.2549 0.699954 16.6392 0.0842285 15.8824 0.0842285C15.1255 0.0842285 14.5098 0.699954 14.5098 1.45678V1.65286H13.3333V1.45678C13.3333 0.699954 12.7176 0.0842285 11.9608 0.0842285C11.204 0.0842285 10.5882 0.699954 10.5882 1.45678V1.65286H9.41177V1.45678C9.41177 0.699954 8.79604 0.0842285 8.03922 0.0842285C7.28239 0.0842285 6.66667 0.699954 6.66667 1.45678V1.65286H5.4902V1.45678C5.4902 0.699954 4.87447 0.0842285 4.11765 0.0842285C3.36082 0.0842285 2.7451 0.699954 2.7451 1.45678V1.65286H1.56863C0.703686 1.65286 0 2.35654 0 3.22148V18.5156C0 19.3805 0.703686 20.0842 1.56863 20.0842H18.4314C19.2963 20.0842 20 19.3805 20 18.5156V3.22148C20 2.35654 19.2963 1.65286 18.4314 1.65286ZM15.2941 1.45678C15.2941 1.13242 15.558 0.868542 15.8824 0.868542C16.2067 0.868542 16.4706 1.13242 16.4706 1.45678V2.63325C16.4706 2.9576 16.2067 3.22148 15.8824 3.22148C15.558 3.22148 15.2941 2.9576 15.2941 2.63325V1.45678ZM11.3725 1.45678C11.3725 1.13242 11.6364 0.868542 11.9608 0.868542C12.2851 0.868542 12.549 1.13242 12.549 1.45678V2.63325C12.549 2.9576 12.2851 3.22148 11.9608 3.22148C11.6364 3.22148 11.3725 2.9576 11.3725 2.63325V1.45678ZM7.45098 1.45678C7.45098 1.13242 7.71486 0.868542 8.03922 0.868542C8.36357 0.868542 8.62745 1.13242 8.62745 1.45678V2.63325C8.62745 2.9576 8.36357 3.22148 8.03922 3.22148C7.71486 3.22148 7.45098 2.9576 7.45098 2.63325V1.45678ZM3.52941 1.45678C3.52941 1.13242 3.79329 0.868542 4.11765 0.868542C4.442 0.868542 4.70588 1.13242 4.70588 1.45678V2.63325C4.70588 2.9576 4.442 3.22148 4.11765 3.22148C3.79329 3.22148 3.52941 2.9576 3.52941 2.63325V1.45678ZM1.56863 2.43717H2.7451V2.63325C2.7451 3.39007 3.36082 4.0058 4.11765 4.0058C4.87447 4.0058 5.4902 3.39007 5.4902 2.63325V2.43717H6.66667V2.63325C6.66667 3.39007 7.28239 4.0058 8.03922 4.0058C8.79604 4.0058 9.41177 3.39007 9.41177 2.63325V2.43717H10.5882V2.63325C10.5882 3.39007 11.204 4.0058 11.9608 4.0058C12.7176 4.0058 13.3333 3.39007 13.3333 2.63325V2.43717H14.5098V2.63325C14.5098 3.39007 15.1255 4.0058 15.8824 4.0058C16.6392 4.0058 17.2549 3.39007 17.2549 2.63325V2.43717H18.4314C18.8638 2.43717 19.2157 2.78901 19.2157 3.22148V6.7509H0.784314V3.22148C0.784314 2.78901 1.13616 2.43717 1.56863 2.43717ZM18.4314 19.2999H1.56863C1.13616 19.2999 0.784314 18.9481 0.784314 18.5156V7.53521H19.2157V18.5156C19.2157 18.9481 18.8638 19.2999 18.4314 19.2999Z" fill="white"/>
<path d="M13.3841 12.184C13.4852 11.8851 13.5385 11.5688 13.5385 11.2442C13.5385 8.81191 10.732 7.45223 8.8238 8.93137C8.31333 8.53454 7.68965 8.31952 7.03306 8.31952C4.45047 8.31952 3.11776 11.4647 4.96518 13.3121L8.54635 16.8937C8.69949 17.0469 8.94796 17.0467 9.10102 16.8936L9.8898 16.1045L12.186 18.4007C12.3392 18.5539 12.5875 18.5538 12.7407 18.4007L15.256 15.8854C16.8661 14.2738 15.2365 11.864 13.3841 12.184ZM14.7012 15.331L12.4633 17.5689L10.2255 15.331L10.2255 15.331C8.9309 14.0358 10.8865 12.0715 12.1862 13.3702C12.3394 13.5232 12.5876 13.5231 12.7407 13.3701C14.0404 12.0703 15.9831 14.0479 14.7012 15.331Z" fill="white"/>
</svg>
