<svg width="20" height="21" viewBox="0 0 20 21" fill="none" xmlns="http://www.w3.org/2000/svg">
<path d="M9.99012 5.87653C10.1416 5.87653 10.287 5.81634 10.3941 5.7092C10.5012 5.60206 10.5614 5.45675 10.5614 5.30523V3.82993C10.5614 3.67842 10.5012 3.53311 10.3941 3.42597C10.287 3.31883 10.1416 3.25864 9.99012 3.25864C9.83861 3.25864 9.6933 3.31883 9.58616 3.42597C9.47902 3.53311 9.41883 3.67842 9.41883 3.82993V5.30523C9.41883 5.45675 9.47902 5.60206 9.58616 5.7092C9.6933 5.81634 9.83861 5.87653 9.99012 5.87653Z" fill="white"/>
<path d="M4.87243 9.8516H3.39719C3.24568 9.8516 3.10037 9.91179 2.99323 10.0189C2.88609 10.1261 2.8259 10.2714 2.8259 10.4229C2.8259 10.5744 2.88609 10.7197 2.99323 10.8269C3.10037 10.934 3.24568 10.9942 3.39719 10.9942H4.87243C5.02395 10.9942 5.16926 10.934 5.2764 10.8269C5.38353 10.7197 5.44372 10.5744 5.44372 10.4229C5.44372 10.2714 5.38353 10.1261 5.2764 10.0189C5.16926 9.91179 5.02395 9.8516 4.87243 9.8516Z" fill="white"/>
<path d="M0.571291 3.96276C0.646315 3.96276 0.720603 3.94799 0.789915 3.91928C0.859228 3.89057 0.922206 3.84849 0.975256 3.79544C1.0283 3.74239 1.07039 3.67941 1.0991 3.6101C1.12781 3.54078 1.14258 3.4665 1.14258 3.39147V1.7439H2.79015C2.94167 1.7439 3.08698 1.68371 3.19412 1.57657C3.30126 1.46944 3.36145 1.32413 3.36145 1.17261C3.36145 1.02109 3.30126 0.875784 3.19412 0.768646C3.08698 0.661508 2.94167 0.601318 2.79015 0.601318H0.571291C0.419776 0.601318 0.274465 0.661508 0.167327 0.768646C0.0601895 0.875784 0 1.02109 0 1.17261V3.39147C0 3.54299 0.0601895 3.6883 0.167327 3.79544C0.274465 3.90258 0.419776 3.96276 0.571291 3.96276Z" fill="white"/>
<path d="M19.4287 0.601318H17.2095C17.058 0.601318 16.9127 0.661508 16.8056 0.768646C16.6984 0.875784 16.6382 1.02109 16.6382 1.17261C16.6382 1.32413 16.6984 1.46944 16.8056 1.57657C16.9127 1.68371 17.058 1.7439 17.2095 1.7439H18.8574V3.39147C18.8574 3.54299 18.9176 3.6883 19.0247 3.79544C19.1319 3.90258 19.2772 3.96276 19.4287 3.96276C19.5802 3.96276 19.7255 3.90258 19.8327 3.79544C19.9398 3.6883 20 3.54299 20 3.39147V1.17261C20 1.02109 19.9398 0.875784 19.8327 0.768646C19.7255 0.661508 19.5802 0.601318 19.4287 0.601318Z" fill="white"/>
<path d="M2.79015 19.2123H1.14258V17.5647C1.14258 17.4132 1.08239 17.2679 0.975256 17.1608C0.868118 17.0536 0.722807 16.9934 0.571291 16.9934C0.419776 16.9934 0.274465 17.0536 0.167327 17.1608C0.0601895 17.2679 0 17.4132 0 17.5647V19.7836C0 19.9351 0.0601895 20.0804 0.167327 20.1876C0.274465 20.2947 0.419776 20.3549 0.571291 20.3549H2.79015C2.94167 20.3549 3.08698 20.2947 3.19412 20.1876C3.30126 20.0804 3.36145 19.9351 3.36145 19.7836C3.36145 19.6321 3.30126 19.4868 3.19412 19.3796C3.08698 19.2725 2.94167 19.2123 2.79015 19.2123Z" fill="white"/>
<path d="M19.4287 16.9934C19.2772 16.9934 19.1319 17.0536 19.0247 17.1608C18.9176 17.2679 18.8574 17.4132 18.8574 17.5647V19.2123H17.2095C17.058 19.2123 16.9127 19.2725 16.8056 19.3796C16.6984 19.4868 16.6382 19.6321 16.6382 19.7836C16.6382 19.9351 16.6984 20.0804 16.8056 20.1876C16.9127 20.2947 17.058 20.3549 17.2095 20.3549H19.4287C19.5802 20.3549 19.7255 20.2947 19.8327 20.1876C19.9398 20.0804 20 19.9351 20 19.7836V17.5647C20 17.4132 19.9398 17.2679 19.8327 17.1608C19.7255 17.0536 19.5802 16.9934 19.4287 16.9934Z" fill="white"/>
<path d="M9.99012 14.9889C9.83861 14.9889 9.6933 15.0491 9.58616 15.1562C9.47902 15.2634 9.41883 15.4087 9.41883 15.5602V17.0354C9.41883 17.187 9.47902 17.3323 9.58616 17.4394C9.6933 17.5465 9.83861 17.6067 9.99012 17.6067C10.1416 17.6067 10.287 17.5465 10.3941 17.4394C10.5012 17.3323 10.5614 17.187 10.5614 17.0354V15.5602C10.5614 15.4087 10.5012 15.2634 10.3941 15.1562C10.287 15.0491 10.1416 14.9889 9.99012 14.9889Z" fill="white"/>
<path d="M9.99992 1.24505C8.18278 1.24505 6.40645 1.78389 4.89556 2.79344C3.38467 3.80298 2.20707 5.23789 1.51168 6.9167C0.81629 8.59552 0.634343 10.4428 0.988846 12.2251C1.34335 14.0073 2.21838 15.6444 3.50329 16.9293C4.78819 18.2142 6.42527 19.0892 8.20749 19.4437C9.9897 19.7982 11.837 19.6163 13.5158 18.9209C15.1947 18.2255 16.6296 17.0479 17.6391 15.537C18.6487 14.0262 19.1875 12.2498 19.1875 10.4327C19.1875 9.22615 18.9499 8.03143 18.4882 6.91673C18.0265 5.80203 17.3497 4.78919 16.4966 3.93604C15.6434 3.08289 14.6306 2.40613 13.5159 1.94441C12.4012 1.48269 11.2065 1.24505 9.99992 1.24505ZM16.6026 11.8103H15.6907C15.4371 12.8563 14.9005 13.8124 14.1397 14.5738C13.379 15.3352 12.4234 15.8726 11.3775 16.1271V17.0354C11.3775 17.4034 11.2314 17.7563 10.9712 18.0165C10.711 18.2767 10.3581 18.4229 9.99012 18.4229C9.62216 18.4229 9.26926 18.2767 9.00907 18.0165C8.74888 17.7563 8.6027 17.4034 8.6027 17.0354V16.1246C7.55901 15.8688 6.60568 15.331 5.84679 14.5702C5.08791 13.8094 4.55264 12.8547 4.29944 11.8103H3.39719C3.02923 11.8103 2.67633 11.6641 2.41614 11.404C2.15595 11.1438 2.00977 10.7909 2.00977 10.4229C2.00977 10.0549 2.15595 9.70203 2.41614 9.44184C2.67633 9.18165 3.02923 9.03547 3.39719 9.03547H4.3044C4.56036 7.99536 5.09628 7.0452 5.85402 6.28811C6.61176 5.53102 7.56237 4.9959 8.6027 4.74083V3.83003C8.6027 3.46206 8.74888 3.10917 9.00907 2.84897C9.26926 2.58878 9.62216 2.44261 9.99012 2.44261C10.3581 2.44261 10.711 2.58878 10.9712 2.84897C11.2314 3.10917 11.3775 3.46206 11.3775 3.83003V4.73842C12.42 4.99211 13.3729 5.52689 14.1325 6.28454C14.8921 7.04219 15.4293 7.99369 15.6857 9.03547H16.6026C16.9706 9.03547 17.3235 9.18165 17.5837 9.44184C17.8439 9.70203 17.9901 10.0549 17.9901 10.4229C17.9901 10.7909 17.8439 11.1438 17.5837 11.404C17.3235 11.6641 16.9706 11.8103 16.6026 11.8103Z" fill="white"/>
<path d="M16.6026 9.8516H15.1274C14.9759 9.8516 14.8306 9.91179 14.7234 10.0189C14.6163 10.1261 14.5561 10.2714 14.5561 10.4229C14.5561 10.5744 14.6163 10.7197 14.7234 10.8269C14.8306 10.934 14.9759 10.9942 15.1274 10.9942H16.6026C16.7542 10.9942 16.8995 10.934 17.0066 10.8269C17.1137 10.7197 17.1739 10.5744 17.1739 10.4229C17.1739 10.2714 17.1137 10.1261 17.0066 10.0189C16.8995 9.91179 16.7542 9.8516 16.6026 9.8516Z" fill="white"/>
<path d="M9.70973 8.76804H11.6299C11.7814 8.76804 11.9267 8.70785 12.0338 8.60072C12.141 8.49358 12.2012 8.34827 12.2012 8.19675C12.2012 8.04524 12.141 7.89993 12.0338 7.79279C11.9267 7.68565 11.7814 7.62546 11.6299 7.62546H10.6716V7.01911C10.6716 6.86759 10.6114 6.72228 10.5042 6.61514C10.3971 6.50801 10.2518 6.44782 10.1003 6.44782C9.94875 6.44782 9.80344 6.50801 9.69631 6.61514C9.58917 6.72228 9.52898 6.86759 9.52898 7.01911V7.64371C9.11739 7.68881 8.73878 7.89006 8.47114 8.20599C8.2035 8.52192 8.06724 8.92846 8.09041 9.34187C8.11358 9.75527 8.29443 10.144 8.59569 10.4281C8.89695 10.7121 9.29568 10.8698 9.70973 10.8686H10.5638C10.6174 10.8682 10.6705 10.8783 10.7202 10.8985C10.7698 10.9186 10.815 10.9484 10.853 10.9862C10.8911 11.0239 10.9213 11.0688 10.9419 11.1182C10.9625 11.1677 10.9731 11.2207 10.9731 11.2743C10.9731 11.3279 10.9625 11.3809 10.9419 11.4304C10.9213 11.4798 10.8911 11.5247 10.853 11.5624C10.815 11.6002 10.7698 11.63 10.7202 11.6501C10.6705 11.6703 10.6174 11.6804 10.5638 11.68H8.65928C8.50776 11.68 8.36245 11.7402 8.25531 11.8473C8.14818 11.9544 8.08799 12.0997 8.08799 12.2513C8.08799 12.4028 8.14818 12.5481 8.25531 12.6552C8.36245 12.7624 8.50776 12.8225 8.65928 12.8225H9.52898V13.4289C9.52898 13.5804 9.58917 13.7258 9.69631 13.8329C9.80344 13.94 9.94875 14.0002 10.1003 14.0002C10.2518 14.0002 10.3971 13.94 10.5042 13.8329C10.6114 13.7258 10.6716 13.5804 10.6716 13.4289V12.8116C11.0717 12.7847 11.4456 12.6032 11.7143 12.3056C11.983 12.0079 12.1254 11.6175 12.1114 11.2167C12.0974 10.8159 11.9281 10.4363 11.6393 10.1582C11.3505 9.87997 10.9648 9.72502 10.5638 9.72605H9.70973C9.5827 9.72605 9.46086 9.67558 9.37103 9.58575C9.2812 9.49592 9.23073 9.37409 9.23073 9.24705C9.23073 9.12001 9.2812 8.99817 9.37103 8.90834C9.46086 8.81851 9.5827 8.76804 9.70973 8.76804Z" fill="white"/>
</svg>
