<svg width="20" height="20" viewBox="0 0 20 20" fill="none" xmlns="http://www.w3.org/2000/svg">
<path d="M14.8934 9.7237C14.8934 7.02467 12.7147 4.84594 10.0157 4.84594C7.31665 4.84594 5.13791 7.02467 5.13791 9.7237C5.13791 11.9675 6.63376 13.821 8.68242 14.4064L10.0482 15.8697L11.414 14.4064C13.3976 13.821 14.8934 11.935 14.8934 9.7237Z" fill="#0D6963"/>
<path d="M18.6005 7.12223H18.3729C17.2348 3.48016 13.8528 0.943726 10.0157 0.943726C6.1785 0.943726 2.76407 3.48016 1.65844 7.12223H1.43081C0.650368 7.12223 0 7.77259 0 8.55304V11.122C0 11.9024 0.650368 12.5528 1.43081 12.5528H2.86162C3.05673 12.5528 3.21932 12.3902 3.21932 12.1951V7.47993C3.21932 7.28482 3.05673 7.12223 2.86162 7.12223H2.40636C3.51199 3.87038 6.56872 1.65913 10.0157 1.65913C13.4626 1.65913 16.5519 3.87038 17.625 7.12223H17.1697C16.9746 7.12223 16.812 7.28482 16.812 7.47993V12.2276C16.812 12.4227 16.9746 12.5853 17.1697 12.5853H17.5274C16.5194 15.1868 14.2106 17.1379 11.4465 17.6257C11.2514 17.0078 10.666 16.5851 10.0157 16.5851C9.1702 16.5851 8.48731 17.268 8.48731 18.1135C8.48731 18.9589 9.1702 19.6418 10.0157 19.6418C10.7961 19.6418 11.414 19.0565 11.5115 18.3411C14.6333 17.7883 17.2348 15.577 18.2754 12.5853H18.568C19.3485 12.5853 19.9988 11.935 19.9988 11.1545V8.58556C20.0314 7.7726 19.381 7.12223 18.6005 7.12223ZM2.50392 11.8699H1.43081C1.04059 11.8699 0.715405 11.5447 0.715405 11.1545V8.58556C0.715405 8.19533 1.04059 7.87015 1.43081 7.87015H2.50392V11.8699ZM10.0157 18.9589C9.56042 18.9589 9.20271 18.6012 9.20271 18.146C9.20271 17.6907 9.56042 17.333 10.0157 17.333C10.4709 17.333 10.8286 17.6907 10.8286 18.146C10.8286 18.5687 10.4709 18.9589 10.0157 18.9589ZM19.3159 11.1545C19.3159 11.5447 18.9908 11.8699 18.6005 11.8699H18.1453C18.0802 11.8699 18.0477 11.8699 17.9827 11.8699H17.5274V7.83763H18.6005C18.9908 7.83763 19.3159 8.16282 19.3159 8.55304V11.1545Z" fill="white"/>
<path d="M12.7147 9.7237C12.7147 9.52859 12.5521 9.366 12.357 9.366H7.67435C7.47924 9.366 7.31665 9.52859 7.31665 9.7237C7.31665 9.91881 7.47924 10.0814 7.67435 10.0814H12.3895C12.5846 10.0814 12.7147 9.91881 12.7147 9.7237Z" fill="white"/>
<path d="M11.3814 8.00023C11.5766 8.00023 11.7392 7.83763 11.7392 7.64252C11.7392 7.44741 11.5766 7.28482 11.3814 7.28482H8.61738C8.42227 7.28482 8.25968 7.44741 8.25968 7.64252C8.25968 7.83763 8.42227 8.00023 8.61738 8.00023H11.3814Z" fill="white"/>
<path d="M11.3814 12.1626C11.5766 12.1626 11.7392 12 11.7392 11.8049C11.7392 11.6098 11.5766 11.4472 11.3814 11.4472H8.61738C8.42227 11.4472 8.25968 11.6098 8.25968 11.8049C8.25968 12 8.42227 12.1626 8.61738 12.1626H11.3814Z" fill="white"/>
</svg>
