<svg width="40" height="40" viewBox="0 0 40 40" fill="none" xmlns="http://www.w3.org/2000/svg">
<path fill-rule="evenodd" clip-rule="evenodd" d="M8.62031 20C8.62031 18.7009 8.83594 17.4553 9.22125 16.2872L2.48063 11.14C1.16688 13.8072 0.426875 16.8128 0.426875 20C0.426875 23.1847 1.16625 26.1881 2.47781 28.8538L9.21469 23.6966C8.83313 22.5338 8.62031 21.2928 8.62031 20Z" fill="#FBBC05"/>
<path fill-rule="evenodd" clip-rule="evenodd" d="M20.4553 8.18188C23.2775 8.18188 25.8266 9.18188 27.8294 10.8181L33.6556 5C30.1053 1.90906 25.5534 0 20.4553 0C12.5403 0 5.73781 4.52625 2.48063 11.14L9.22125 16.2872C10.7744 11.5728 15.2013 8.18188 20.4553 8.18188Z" fill="#EA4335"/>
<path fill-rule="evenodd" clip-rule="evenodd" d="M20.4553 31.8181C15.2016 31.8181 10.7744 28.4272 9.22125 23.7128L2.48063 28.8591C5.73781 35.4738 12.5403 40 20.4553 40C25.3403 40 30.0044 38.2653 33.5047 35.0153L27.1066 30.0691C25.3012 31.2062 23.0278 31.8181 20.4553 31.8181Z" fill="#34A853"/>
<path fill-rule="evenodd" clip-rule="evenodd" d="M39.5731 20C39.5731 18.8181 39.3909 17.5453 39.1178 16.3638H20.4553V24.0909H31.1978C30.6606 26.7256 29.1987 28.7509 27.1066 30.0691L33.5047 35.0153C37.1816 31.6028 39.5731 26.5191 39.5731 20Z" fill="#4285F4"/>
</svg>
