<svg id="Layer_1" data-name="Layer 1" xmlns="http://www.w3.org/2000/svg" viewBox="0 0 110.67 32.81"><defs><style>.cls-1{fill:#fdfdfd;}</style></defs><path class="cls-1" d="M636.88,956.32l-3.89,3-.48-.52a4.92,4.92,0,0,0-6.15-1.16,5.15,5.15,0,0,0-2.51,4.43,5.5,5.5,0,0,0,1.33,4.16,4.8,4.8,0,0,0,6.75.38c.41-.35.76-.77,1.17-1.19l3.89,2.79c-1.15,2.9-6,4.94-10.1,4.31a9.93,9.93,0,0,1-8.49-9.16c-.31-5.07,2.49-9.3,7.15-10.63C630,951.46,634.66,952.8,636.88,956.32Z" transform="translate(-598.71 -945.53)"/><path class="cls-1" d="M672.44,955.57c-.44,1.14-.82,2.15-1.21,3.17-1.89,4.89-3.76,9.8-5.68,14.67a14.28,14.28,0,0,1-1.54,2.82,5.29,5.29,0,0,1-4.28,2.09,22.38,22.38,0,0,1-3.26-.2c-.13,0-.37-.27-.35-.39.14-1.28.33-2.56.49-3.79.76,0,1.47.1,2.19.08a1.83,1.83,0,0,0,1.6-1.08,16.92,16.92,0,0,0,.89-2.05.92.92,0,0,0-.09-.62l-5.85-13.79c-.12-.28-.22-.56-.36-.91,1.8,0,3.54,0,5.27,0,.14,0,.35.27.41.45,1,2.94,2,5.88,3.06,8.83.06.18.15.35.28.66.44-1.42.85-2.7,1.24-4,.57-1.82,1.14-3.65,1.68-5.48a.6.6,0,0,1,.69-.51C669.19,955.58,670.75,955.57,672.44,955.57Z" transform="translate(-598.71 -945.53)"/><path class="cls-1" d="M675.5,959.3h-2.39v-3.73c.59,0,1.2,0,1.81,0s.6-.14.59-.59c0-1.16,0-2.33,0-3.53h4.92v4h3.26v3.74h-2.51c-.73,0-.74,0-.73.75,0,2.34,0,4.67,0,7a1.79,1.79,0,0,0,2.3,1.87l1-.2c0,.94.08,1.86.08,2.78s.21.8-.82,1a8.07,8.07,0,0,1-4.74-.19,4.08,4.08,0,0,1-2.69-3.9c-.13-2.73-.08-5.47-.1-8.21Z" transform="translate(-598.71 -945.53)"/><path class="cls-1" d="M699.79,955.13v-3.19c0-.91,0-1.83,0-2.74a1,1,0,0,1,.27-.66c.9-.93,1.82-1.85,2.74-2.75a.83.83,0,0,1,.51-.25c2,0,4,0,6,0a4.6,4.6,0,0,1,0,.49c0,1.83,0,3.65,0,5.48a1.27,1.27,0,0,1-.32.75c-.83.87-1.69,1.72-2.55,2.56a.92.92,0,0,1-.54.3C703.94,955.14,701.91,955.13,699.79,955.13Z" transform="translate(-598.71 -945.53)"/><path class="cls-1" d="M654,962.65a12.28,12.28,0,0,0-2.28-1.57,3.85,3.85,0,0,0-.5-.25c.28-.2.46-.34.66-.47a5.37,5.37,0,0,0-.31-8.82,9,9,0,0,0-4.55-1.17c-2.67,0-5.33,0-8,0-.21,0-.42,0-.65,0v21.84c.2,0,.35,0,.49,0,2.92,0,5.84,0,8.76,0a11.47,11.47,0,0,0,4-.73C655.29,970.11,656.57,965.43,654,962.65Zm-10.86-7.93c.3-.27,1-.16,1.46-.14a22,22,0,0,1,3,.23,1.92,1.92,0,0,1,1.67,1.94,2,2,0,0,1-1.56,2.22,5.8,5.8,0,0,1-1.5.24c-1,0-2,0-3,0a1.18,1.18,0,0,1-.27-.07c0-1,0-2,0-3C643,955.64,642.86,954.94,643.11,954.72Zm7.25,11.76a2.51,2.51,0,0,1-2.46,1.59c-.76.07-1.53,0-2.29,0v0c-.71,0-1.42,0-2.13,0-.35,0-.49-.09-.48-.46,0-1.32,0-2.63,0-3.94,0-.16.18-.45.28-.45a46.43,46.43,0,0,1,5.28.22A2.15,2.15,0,0,1,650.36,966.48Z" transform="translate(-598.71 -945.53)"/><path class="cls-1" d="M615.58,956.77a9.87,9.87,0,0,0-7.88-4c-2.75-.15-5.51,0-8.27-.09-.54,0-.72.14-.72.7,0,3,0,6.07,0,9.1s0,6.1,0,9.15c0,.47.13.65.62.63,1,0,2,0,3,0,2,0,4.07,0,6.07-.18,4.51-.51,8.24-3.46,8.77-8.39A9.59,9.59,0,0,0,615.58,956.77Zm-3.73,6.14a4.76,4.76,0,0,1-4.87,4.63c-1,0-2,0-3,0V957.38c1.88,0,3.77-.22,5.5.76A4.66,4.66,0,0,1,611.85,962.91Z" transform="translate(-598.71 -945.53)"/><path class="cls-1" d="M700.93,964.89a27.69,27.69,0,0,0-.33-3.31,8,8,0,0,0-13.08-4.46,8.54,8.54,0,0,0-3,6,8.39,8.39,0,0,0,5,8.84,9.5,9.5,0,0,0,7.31.12,7.52,7.52,0,0,0,3.3-2.49l-2.69-2.41a5.32,5.32,0,0,1-6,1.34,3.69,3.69,0,0,1-2.22-3H690c3.43,0,6.86,0,10.29,0C700.77,965.57,701,965.39,700.93,964.89Zm-11.8-2.32a3.61,3.61,0,0,1,3.45-3.57c1.91-.07,3.4,1.18,3.66,3.57Z" transform="translate(-598.71 -945.53)"/></svg>