<svg id="Layer_1" data-name="Layer 1" xmlns="http://www.w3.org/2000/svg" viewBox="0 0 121 55"><defs><style>.cls-1{fill:#fff;}</style></defs><path class="cls-1" d="M18.81,39c0-4,0-7.91,0-11.8a1,1,0,0,0-.57-1C14.86,24.32,11.48,22.36,8,20.36l2.58-1.5c.89-.51,1.79-1,2.67-1.54a1.27,1.27,0,0,1,1.43,0q4.86,2.84,9.74,5.63a.75.75,0,0,1,.4.76q0,5.59,0,11.19a1,1,0,0,1-.44.92Z"/><path class="cls-1" d="M11,40.08c0-2.91,0-5.68,0-8.45a.9.9,0,0,0-.52-.89C8.12,29.38,5.73,28,3.26,26.56,4.75,25.7,6.2,24.92,7.58,24a1.76,1.76,0,0,1,2.13,0c2.06,1.26,4.16,2.44,6.26,3.62a.86.86,0,0,1,.49.9c0,2.5,0,5,0,7.5a1.33,1.33,0,0,1-.76,1.35C14.17,38.25,12.66,39.15,11,40.08Z"/><path class="cls-1" d="M110.39,39.26a6.07,6.07,0,0,1-3-.64,3.66,3.66,0,0,1-2-2.83c-.06-.36,0-.56.43-.52a4.57,4.57,0,0,0,.74,0c.65,0,1.26-.09,1.45.81.1.45.59.73,1,.88a4.43,4.43,0,0,0,2.9,0,1.31,1.31,0,0,0,1-1.25c0-.69-.48-1-1-1.16-1.09-.34-2.19-.63-3.29-.94a6.16,6.16,0,0,1-1.7-.75A2.86,2.86,0,0,1,107,28a6.42,6.42,0,0,1,4.45-.83,4.69,4.69,0,0,1,2.14.71A3.34,3.34,0,0,1,115,30.45c0,.37-.1.48-.44.45a6.32,6.32,0,0,0-.87,0c-.59.05-1,0-1.22-.72-.09-.44-.55-.7-1-.85a4.25,4.25,0,0,0-2.57,0,1.05,1.05,0,0,0-.87,1,1,1,0,0,0,.82,1c.64.21,1.29.35,1.94.53.84.24,1.69.44,2.5.74a2.88,2.88,0,0,1,2.19,2.74,3.4,3.4,0,0,1-2,3.25A6.55,6.55,0,0,1,110.39,39.26Z"/><path class="cls-1" d="M102.65,30.9c-.25,0-.5,0-.74,0a.38.38,0,0,1-.46-.35,1.71,1.71,0,0,0-1.39-1.29,4.11,4.11,0,0,0-2.5.16,1,1,0,0,0-.69.9,1,1,0,0,0,.58.91,11.24,11.24,0,0,0,2,.61c.87.27,1.77.46,2.63.76a2.9,2.9,0,0,1,2.18,2.68,3.14,3.14,0,0,1-1.68,3.12,6.65,6.65,0,0,1-6.77-.07,3.44,3.44,0,0,1-1.61-2.59c-.06-.34,0-.5.39-.47a4.45,4.45,0,0,0,.73,0c.7-.06,1.28,0,1.5.84a1.45,1.45,0,0,0,1.06.86,4.37,4.37,0,0,0,2.77,0c.78-.26,1.14-.68,1.12-1.31s-.54-1-1.12-1.16c-1.06-.32-2.14-.61-3.21-.91a5.85,5.85,0,0,1-1.76-.8,2.79,2.79,0,0,1,0-4.7,6.44,6.44,0,0,1,6.33-.39,3.12,3.12,0,0,1,1.77,2.46c.1.53,0,.81-.62.71A4.69,4.69,0,0,0,102.65,30.9Z"/><path class="cls-1" d="M46,28.7a3.24,3.24,0,0,1,3.14-1.53,6.2,6.2,0,0,1,.72.16c.33.08.49.27.36.63,0,.13-.06.26-.09.39a3.54,3.54,0,0,1-.28,1.3c-.29.43-.78,0-1.2,0-1.51.11-2.3.93-2.43,2.65-.15,2-.07,4-.07,6,0,.53-.11.73-.69.72-1.73,0-1.73,0-1.73-1.75,0-3.11,0-6.21,0-9.32,0-.51.11-.77.66-.67a2.67,2.67,0,0,0,.4,0C45.94,27.32,45.94,27.32,46,28.7Z"/><path class="cls-1" d="M77.92,28.57A3.23,3.23,0,0,1,81.6,27.3c.39.1.58.29.45.71a1.18,1.18,0,0,0,0,.2,3.75,3.75,0,0,1-.31,1.42c-.3.45-.86,0-1.33,0a2.24,2.24,0,0,0-2.19,1.89A10.19,10.19,0,0,0,78,34c0,1.5,0,3,0,4.49,0,.44-.1.66-.59.61s-1.39.25-1.73-.14-.11-1.1-.11-1.68c0-3.1,0-6.21,0-9.31,0-.44.09-.68.58-.6a1.93,1.93,0,0,0,.34,0C77.72,27.32,77.72,27.32,77.92,28.57Z"/><path class="cls-1" d="M3.25,35.55,8.3,32.63c.35-.21.37,0,.37.26,0,1.78,0,3.56,0,5.35,0,.35-.13.37-.39.21Z"/><path class="cls-1" d="M73.44,28.75c0-1.43,0-1.4-1.42-1.44-.64,0-1.06.06-.8,1a4.89,4.89,0,0,0-7.58,1.56,7.32,7.32,0,0,0,0,6.47,4.58,4.58,0,0,0,4.12,2.75,4.5,4.5,0,0,0,3.32-1.13v.83c-.07,2.45-1.45,3.53-3.84,3-.49-.1-1.07-.29-1.21-.75-.26-.84-.86-.73-1.47-.72a8.42,8.42,0,0,1-.87,0c-.35,0-.39.11-.33.43a3.53,3.53,0,0,0,1.88,2.62,6.35,6.35,0,0,0,3.79.55,4.46,4.46,0,0,0,4.29-4,13.12,13.12,0,0,0,.16-2.27Q73.44,33.21,73.44,28.75Zm-2.62,6.17a2.7,2.7,0,0,1-2.67,2,2.62,2.62,0,0,1-2.47-2,6,6,0,0,1-.08-3.5,2.75,2.75,0,0,1,2.85-2.23A2.92,2.92,0,0,1,71,31.94c0,.35,0,.71.07,1A6.65,6.65,0,0,1,70.82,34.92Z"/><path class="cls-1" d="M37.35,23.14c-2-.06-3.93,0-5.9,0-.46,0-.6.11-.6.59,0,2.45,0,4.91,0,7.36,0,2,0,4,0,6,0,.64-.22,1.51.11,1.88s1.26.07,1.92.14c.45,0,.56-.13.56-.56,0-1.72,0-3.44,0-5.16,0-.44.12-.57.56-.56a26.46,26.46,0,0,0,4.08-.1c1.79-.26,3.29-1,3.89-2.83C43,26.89,41.92,23.29,37.35,23.14Zm.52,7.13a25.14,25.14,0,0,1-4.07.14c-.33,0-.34-.19-.34-.43,0-.72,0-1.43,0-2.14v-2c0-.2,0-.42.29-.41a23.86,23.86,0,0,1,4.14.14c1.24.28,1.75,1,1.73,2.47A2,2,0,0,1,37.87,30.27Z"/><path class="cls-1" d="M85.48,33.93c2.34,0,4.69,0,7,0,.48,0,.66-.16.63-.6s0-1-.09-1.54a5.31,5.31,0,0,0-8.4-3.74,5.74,5.74,0,0,0-2.27,4.32C82,37,85,39.82,89.16,39.1A4.58,4.58,0,0,0,93,35.24c-.56,0-1.11,0-1.67,0s-.74.06-.9.55a1.82,1.82,0,0,1-1.12,1.1,3.11,3.11,0,0,1-4.38-2.2C84.78,34.17,84.83,33.92,85.48,33.93Zm2.38-4.73a2.76,2.76,0,0,1,2.69,2.25c0,.25.11.42-.26.42-1.78,0-3.56,0-5.35,0A2.81,2.81,0,0,1,87.86,29.2Z"/><path class="cls-1" d="M61.51,31.76a5.54,5.54,0,0,0-10.75-.84,8.21,8.21,0,0,0-.26,3.45A5.3,5.3,0,0,0,56,39.26,5.18,5.18,0,0,0,61.39,35,8.47,8.47,0,0,0,61.51,31.76Zm-3,4a2.86,2.86,0,0,1-4.87,0,5.25,5.25,0,0,1-.06-5.07A2.53,2.53,0,0,1,56,29.21,2.82,2.82,0,0,1,58.68,31a4.52,4.52,0,0,1,.42,2A5.08,5.08,0,0,1,58.46,35.79Z"/><path class="cls-1" d="M117.39,25.27a1.62,1.62,0,0,0-1.64,1.6,1.6,1.6,0,0,0,1.61,1.69,1.65,1.65,0,1,0,0-3.29Zm0,3a1.36,1.36,0,0,1,.08-2.71,1.29,1.29,0,0,1,1.33,1.35A1.31,1.31,0,0,1,117.34,28.25Z"/><path class="cls-1" d="M118,27a.52.52,0,0,0,0-.77,1.13,1.13,0,0,0-1.13-.18c-.32.08-.13.41-.17.63a1.85,1.85,0,0,0,0,.47c0,.21-.16.53.22.6s.17-.41.38-.53c.27.17.28.69.81.5C118.21,27.47,117.75,27.31,118,27Zm-.66-.22c-.06,0-.14-.05-.14-.19a.21.21,0,0,1,.22-.2c.17,0,.26.06.25.22S117.56,26.78,117.37,26.79Z"/></svg>