<svg id="Layer_1" data-name="Layer 1" xmlns="http://www.w3.org/2000/svg" viewBox="0 0 121 55"><defs><style>.cls-1{fill:#fff;}</style></defs><path class="cls-1" d="M39.9,17.93a10.6,10.6,0,0,1,4.79,20,10.31,10.31,0,0,1-9.29.19A19.54,19.54,0,0,1,30,34.35l-.62-.59c-.1-.09-.1-.14,0-.2l2.32-1.32c.15-.1.22,0,.31.09a18.3,18.3,0,0,0,3.48,2.59A8.45,8.45,0,0,0,40,36.09a7.44,7.44,0,0,0,.75-14.78,8.09,8.09,0,0,0-5.24,1.1,16.9,16.9,0,0,0-3.24,2.38.35.35,0,0,1-.49.07C31,24.41,30.2,24,29.4,23.55c-.14-.07-.2-.12-.06-.26a21.4,21.4,0,0,1,6.1-4.4A10.88,10.88,0,0,1,39.9,17.93Z"/><path class="cls-1" d="M18.26,34.36v3.32c0,.14-.11.17-.2.21a10.84,10.84,0,0,1-6,1.14,10.59,10.59,0,0,1-1.15-20.87,10.74,10.74,0,0,1,7.19,1c.1.05.21.08.2.24-.09,1.15,0,2.31-.05,3.46a.45.45,0,0,1,0,.08c-.12,0-.2-.09-.29-.15A9.24,9.24,0,0,0,14,21.29,7.18,7.18,0,0,0,7.43,24a7.42,7.42,0,0,0,4.28,12,7.87,7.87,0,0,0,5.45-1C17.51,34.82,17.85,34.6,18.26,34.36Z"/><path class="cls-1" d="M20.08,24.67c0-.84,0-1.67,0-2.51a1.16,1.16,0,0,1,1.79-.89L27,24.11l4.13,2.3c-.05.2-.23.24-.39.31-.66.25-1.31.53-2,.72a8.25,8.25,0,0,1-2.31.31,1.65,1.65,0,0,1-.68-.25c-.77-.38-1.56-.71-2.32-1.11l-.08-.05a10.94,10.94,0,0,0-1.41-.71c-.52-.22-1-.52-1.52-.72C20.28,24.85,20.14,24.81,20.08,24.67Z"/><path class="cls-1" d="M23.38,34.7v.13c-.52.32-1,.67-1.56,1a1.14,1.14,0,0,1-1.74-1q0-5.06,0-10.11v-.06l.31.15a20.9,20.9,0,0,1,1.8,1.28,4,4,0,0,1,.86.88,1.37,1.37,0,0,1,.21.42c0-.34-.16-.73.1-1.09h0a.57.57,0,0,1,.09.36c0,1.47,0,2.94,0,4.4,0,1.16,0,2.32-.06,3.47A.29.29,0,0,1,23.38,34.7Z"/><path class="cls-1" d="M112.39,34.09c.33-.66.65-1.28,1-1.89l4.26-8.45c.14-.28.38-.4.59-.27s.19.4.08.62q-1.66,3.34-3.32,6.69-1.08,2.15-2.14,4.31c-.09.18-.17.36-.42.37s-.34-.18-.43-.36q-2.81-5.5-5.6-11c-.17-.34-.13-.57.11-.69s.5,0,.68.33l4.72,9.35Z"/><path class="cls-1" d="M99.88,28.41c0-1.29,0-2.58,0-3.87,0-.21,0-.27-.26-.26H97.75c-.34,0-.53-.14-.5-.38s.25-.37.5-.37h1.91c.18,0,.23-.06.23-.23,0-.89,0-1.78,0-2.67,0-.37.27-.56.59-.42s.22.25.22.44c0,.83,0,1.65,0,2.48,0,.3,0,.41.39.4.9,0,1.8,0,2.7,0a1.62,1.62,0,0,1,.22,0c.22,0,.39.12.39.38s-.18.37-.42.37c-1,0-1.93,0-2.89,0-.34,0-.39.1-.39.4,0,2.32,0,4.64,0,7a6.22,6.22,0,0,0,.14,1.36,2.22,2.22,0,0,0,2.93,1.75,3.82,3.82,0,0,0,.74-.26c.24-.1.48-.11.61.15s0,.45-.27.56a3.69,3.69,0,0,1-3.45,0,2.86,2.86,0,0,1-1.34-2,7.64,7.64,0,0,1-.17-1.58Z"/><path class="cls-1" d="M76.53,29.55V24.06a1.62,1.62,0,0,1,0-.31.38.38,0,0,1,.37-.29.37.37,0,0,1,.41.27,1.12,1.12,0,0,1,0,.32V35a1,1,0,0,1,0,.25.38.38,0,0,1-.43.34.37.37,0,0,1-.38-.35,2.81,2.81,0,0,1,0-.29Z"/><path class="cls-1" d="M58.38,29.54V35a2.09,2.09,0,0,1,0,.25.37.37,0,0,1-.37.37.39.39,0,0,1-.44-.32.75.75,0,0,1,0-.26V24a1,1,0,0,1,0-.25.39.39,0,0,1,.44-.32.37.37,0,0,1,.37.36c0,.12,0,.24,0,.35Z"/><path class="cls-1" d="M57.53,21.32c0-.22,0-.44,0-.66a.36.36,0,0,1,.37-.39c.25,0,.48.05.49.33a11.21,11.21,0,0,1,0,1.42c0,.26-.23.33-.46.32a.37.37,0,0,1-.4-.39C57.53,21.74,57.54,21.53,57.53,21.32Z"/><path class="cls-1" d="M77.39,21.3c0,.21,0,.42,0,.63s-.18.41-.45.41a.39.39,0,0,1-.43-.43q0-.61,0-1.23a.38.38,0,0,1,.41-.41c.28,0,.45.11.47.4S77.39,21.09,77.39,21.3Z"/><path class="cls-1" d="M95.54,34.83a.54.54,0,0,1-.6.58.59.59,0,0,1-.61-.6.63.63,0,0,1,.61-.61A.58.58,0,0,1,95.54,34.83Z"/><path class="cls-1" d="M33.11,27.67a7.29,7.29,0,0,0-2-1.27h0a1,1,0,0,1-.38.22c-1,.5-2,1.16-3,1.73,0,0,0,0,0,.05l-3.16,1.92-.24.16-.16.13a2.65,2.65,0,0,0-.44.89A16,16,0,0,0,23.42,34c0,.23-.07.46-.08.7a.15.15,0,0,0,0,.14l.2-.1L28.28,32l4.44-2.58A1.12,1.12,0,0,0,33.11,27.67Z"/><path class="cls-1" d="M27.79,28.41l-1.41-.71a.24.24,0,0,1,.2-.05,9.5,9.5,0,0,0,3.85-.91.73.73,0,0,1,.29-.11C29.76,27.26,28.79,27.85,27.79,28.41Z"/><path class="cls-1" d="M23.36,26.31a12.26,12.26,0,0,0-.07,1.26c-.56-1.2-1.68-1.76-2.63-2.49-.1-.08-.24-.1-.27-.26l2.89,1.37A.12.12,0,0,1,23.36,26.31Z"/><path class="cls-1" d="M23.44,31.07a7.09,7.09,0,0,1,.95-.58,4.83,4.83,0,0,0-.76,2.44A9.76,9.76,0,0,0,23.5,34a.07.07,0,0,1-.08-.07C23.43,33,23.38,32,23.44,31.07Z"/><path class="cls-1" d="M23.44,31.07c0,.87,0,1.73,0,2.6,0,.11-.05.23.05.33a2.45,2.45,0,0,1-.12.7V31.07Z"/><path class="cls-1" d="M67.43,23.33a6,6,0,0,0-6.06,6.21,6.07,6.07,0,0,0,12.14,0A6,6,0,0,0,67.43,23.33Zm1.32,11.26a5.31,5.31,0,0,1-3.24-10.08A5.16,5.16,0,0,1,72.62,29,5,5,0,0,1,68.75,34.59Z"/><path class="cls-1" d="M86.42,23.33a5.94,5.94,0,0,0-6.07,6.19,6.07,6.07,0,0,0,12.13,0A6,6,0,0,0,86.42,23.33Zm0,11.42a5.14,5.14,0,0,1-5.18-5.24,5.22,5.22,0,1,1,10.43.06A5.1,5.1,0,0,1,86.39,34.75Z"/></svg>