<svg width="20" height="21" viewBox="0 0 20 21" fill="none" xmlns="http://www.w3.org/2000/svg">
<path d="M10.3226 11.5011L11.2594 10.3301C11.4874 10.0449 11.6129 9.68719 11.6129 9.32235V9.12977C11.6129 8.24042 10.8894 7.51687 10 7.51687C9.11065 7.51687 8.3871 8.24042 8.3871 9.12977V9.77493H9.03226V9.12977C9.03226 8.59622 9.46645 8.16203 10 8.16203C10.5335 8.16203 10.9677 8.59622 10.9677 9.12977V9.32235C10.9677 9.54139 10.8926 9.7559 10.7558 9.92719L9.67742 11.2746V12.3556H10.3226V11.5011Z" fill="white"/>
<path d="M10.3226 13.0007H9.67742V13.6459H10.3226V13.0007Z" fill="white"/>
<path d="M19.3548 9.49042V6.22655C19.3548 3.55848 17.1842 1.38784 14.5161 1.38784H11.2523C11.1455 1.01655 10.8068 0.742676 10.4019 0.742676H9.59839C9.19355 0.742676 8.85484 1.01655 8.74806 1.38784H5.48387C2.81581 1.38784 0.645161 3.55848 0.645161 6.22655V9.49042C0.273871 9.59719 0 9.9359 0 10.3407V11.1443C0 11.5491 0.273871 11.8878 0.645161 11.9946V15.2588C0.645161 17.9269 2.81581 20.0975 5.48387 20.0975H8.74774C8.85452 20.4688 9.19323 20.7427 9.59806 20.7427H10.4016C10.8065 20.7427 11.1452 20.4688 11.2519 20.0975H14.5161C17.1842 20.0975 19.3548 17.9269 19.3548 15.2588V11.9949C19.7261 11.8882 20 11.5494 20 11.1446V10.3411C20 9.9359 19.7261 9.59719 19.3548 9.49042ZM18.7097 6.22655V9.53171L18.3055 9.64719C17.8145 5.87493 14.8677 2.92816 11.0955 2.43719L11.211 2.033H14.5161C16.8284 2.033 18.7097 3.91429 18.7097 6.22655ZM17.6784 11.6591C17.5658 12.6159 17.2829 13.5156 16.8587 14.3301L15.1765 13.3588C15.5761 12.5714 15.8065 11.6843 15.8065 10.7427C15.8065 9.80106 15.5761 8.91397 15.1768 8.12655L16.859 7.15526C17.2832 7.96977 17.5661 8.86945 17.6787 9.82622L16.4516 10.1769V11.3088L17.6784 11.6591ZM2.32161 9.82622C2.43419 8.86945 2.7171 7.96977 3.14129 7.15526L4.82355 8.12655C4.42387 8.91397 4.19355 9.80106 4.19355 10.7427C4.19355 11.6843 4.42387 12.5714 4.82323 13.3588L3.14097 14.3301C2.71677 13.5156 2.43387 12.6159 2.32129 11.6591L3.54839 11.3085V10.1765L2.32161 9.82622ZM10 15.904C7.15419 15.904 4.83871 13.5885 4.83871 10.7427C4.83871 7.89687 7.15419 5.58139 10 5.58139C12.8458 5.58139 15.1613 7.89687 15.1613 10.7427C15.1613 13.5885 12.8458 15.904 10 15.904ZM13.1755 5.88751L14.1468 4.20526C15.1113 4.81526 15.9271 5.63139 16.5374 6.5959L14.8552 7.56719C14.4165 6.89848 13.8442 6.32622 13.1755 5.88751ZM12.6161 5.5659C11.8287 5.16655 10.9416 4.93622 10 4.93622C9.05839 4.93622 8.17129 5.16655 7.38387 5.5659L6.41258 3.88364C7.2271 3.45945 8.12677 3.17655 9.08355 3.06397L9.43419 4.29106H10.5661L10.9168 3.06429C11.8735 3.17687 12.7732 3.45977 13.5877 3.88397L12.6161 5.5659ZM5.85323 4.20526L6.82452 5.88751C6.15581 6.32622 5.58387 6.89848 5.14484 7.56719L3.46258 6.5959C4.0729 5.63139 4.88871 4.81558 5.85323 4.20526ZM5.14484 13.9182C5.58355 14.5869 6.15581 15.1588 6.82452 15.5978L5.85323 17.2801C4.88871 16.6701 4.0729 15.854 3.46258 14.8894L5.14484 13.9182ZM7.38387 15.9194C8.17129 16.3188 9.05839 16.5491 10 16.5491C10.9416 16.5491 11.8287 16.3188 12.6161 15.9194L13.5874 17.6017C12.7729 18.0259 11.8732 18.3088 10.9165 18.4214L10.5658 17.1943H9.43387L9.08323 18.4211C8.12645 18.3085 7.22677 18.0256 6.41226 17.6014L7.38387 15.9194ZM14.1468 17.2801L13.1755 15.5978C13.8442 15.1591 14.4161 14.5869 14.8552 13.9182L16.5374 14.8894C15.9271 15.854 15.1113 16.6698 14.1468 17.2801ZM9.59806 1.38784H10.4016C10.5361 1.38784 10.6452 1.49687 10.6452 1.63106C10.6452 1.65364 10.6419 1.67622 10.6358 1.69784L10.0794 3.6459H9.92097L9.36452 1.69848C9.35806 1.67655 9.35484 1.65364 9.35484 1.63106C9.35484 1.49687 9.46387 1.38784 9.59806 1.38784ZM5.48387 2.033H8.78903L8.90452 2.43719C5.13226 2.92816 2.18548 5.87493 1.69452 9.64719L1.29032 9.53171V6.22655C1.29032 3.91429 3.17161 2.033 5.48387 2.033ZM0.645161 10.3407C0.645161 10.2085 0.751613 10.1017 0.882903 10.0985L0.971613 10.1114L2.90323 10.6633V10.8217L0.969677 11.3743L0.939355 11.3788C0.79 11.4091 0.645161 11.2956 0.645161 11.1446V10.3407ZM1.29032 15.2588V11.9536L1.69452 11.8382C2.18516 15.6104 5.13194 18.5572 8.90419 19.0478L8.78903 19.4524H5.48387C3.17161 19.4524 1.29032 17.5711 1.29032 15.2588ZM10.4019 20.0975H9.59839C9.46387 20.0975 9.35484 19.9885 9.35484 19.8543C9.35484 19.8317 9.35806 19.8091 9.36419 19.7875L9.92064 17.8394H10.079L10.6355 19.7869C10.6419 19.8088 10.6452 19.8317 10.6452 19.8543C10.6452 19.9885 10.5361 20.0975 10.4019 20.0975ZM14.5161 19.4524H11.211L11.0955 19.0482C14.8677 18.5575 17.8145 15.6107 18.3052 11.8385L18.7097 11.9536V15.2588C18.7097 17.5711 16.8284 19.4524 14.5161 19.4524ZM19.3548 11.1446C19.3548 11.294 19.2087 11.4062 19.0655 11.3794L19.0284 11.374L17.0968 10.822V10.6636L19.0442 10.1072C19.199 10.0627 19.3548 10.1843 19.3548 10.3407V11.1446Z" fill="white"/>
<path d="M12.9358 8.22429C13.5387 8.92655 13.871 9.82106 13.871 10.7427C13.871 12.8772 12.1345 14.6136 10 14.6136C9.07839 14.6136 8.18387 14.2814 7.48161 13.6785L7.06129 14.1682C7.88064 14.8714 8.92419 15.2588 10 15.2588C12.4903 15.2588 14.5161 13.233 14.5161 10.7427C14.5161 9.66687 14.1287 8.62332 13.4252 7.80397L12.9358 8.22429Z" fill="white"/>
<path d="M6.12903 10.7427C6.12903 8.60816 7.86548 6.87171 10 6.87171C10.9216 6.87171 11.8161 7.20397 12.5184 7.80687L12.9387 7.31719C12.1194 6.61397 11.0758 6.22655 10 6.22655C7.50968 6.22655 5.48387 8.25235 5.48387 10.7427C5.48387 11.8185 5.87129 12.862 6.57484 13.6814L7.06452 13.2611C6.46129 12.5588 6.12903 11.6643 6.12903 10.7427Z" fill="white"/>
</svg>
