<svg width="20" height="17" viewBox="0 0 20 17" fill="none" xmlns="http://www.w3.org/2000/svg">
<path d="M10.4082 0.802626C10.2899 0.71924 10.1441 0.67395 9.99397 0.67395C9.84387 0.67395 9.69807 0.71924 9.57973 0.802626L0 7.54849L0.828467 8.49466L2 7.66979V15.1221C2.00072 15.4412 2.14143 15.7471 2.39132 15.9728C2.64121 16.1984 2.97993 16.3255 3.33333 16.3261H16.6667C17.0201 16.3255 17.3588 16.1985 17.6088 15.9728C17.8587 15.7472 17.9993 15.4413 18 15.1221V7.67527L19.1715 8.50002L20 7.55378L10.4082 0.802626ZM11.3333 15.1221H8.66667V10.306H11.3333V15.1221ZM12.6667 15.1221V10.306C12.6663 9.98683 12.5257 9.6808 12.2757 9.45508C12.0257 9.22936 11.6868 9.1024 11.3333 9.10203H8.66667C8.31315 9.10235 7.97422 9.2293 7.72425 9.45503C7.47428 9.68076 7.33369 9.98682 7.33333 10.306V15.1221H3.33333V6.73102L10 2.04138L16.6667 6.73734V15.1221H12.6667Z" fill="white"/>
</svg>
