<svg width="20" height="22" viewBox="0 0 20 22" fill="none" xmlns="http://www.w3.org/2000/svg">
<path d="M8.92928 9.15181C8.92942 9.14806 8.92977 9.14437 8.92992 9.14062C8.93194 9.08629 8.93509 9.03211 8.93948 8.97793C8.94027 8.96856 8.94106 8.9592 8.9419 8.94983C8.94629 8.89999 8.95166 8.85025 8.95807 8.8006C8.96009 8.78483 8.96231 8.769 8.96453 8.75328C8.97049 8.71127 8.977 8.66942 8.98439 8.62761C8.98873 8.60296 8.99346 8.57836 8.99825 8.55381C9.00465 8.52137 9.01126 8.48903 9.01861 8.45679C9.0263 8.42238 9.03468 8.38822 9.04326 8.3541C9.04902 8.33152 9.05474 8.30899 9.06095 8.28656C9.07288 8.24288 9.0858 8.1996 9.09936 8.15646C9.10355 8.14305 9.10759 8.12969 9.11198 8.11633C9.12884 8.06457 9.14688 8.0134 9.16601 7.96252C9.16808 7.95695 9.17005 7.95138 9.17217 7.94581C9.23961 7.76868 9.32027 7.59697 9.41413 7.43206C9.24011 7.35097 9.0506 7.30882 8.85622 7.30882H5.34731C4.60714 7.30882 4.0049 7.90755 4.0049 8.64349V10.3719H9.08896C9.07047 10.3113 9.05371 10.2501 9.03838 10.1885C9.03793 10.1868 9.03754 10.1851 9.03714 10.1834C9.02329 10.1274 9.01067 10.071 8.99943 10.0143C8.99687 10.0013 8.9945 9.98836 8.99208 9.97535C8.9838 9.93103 8.97606 9.88656 8.96941 9.8419C8.96561 9.81695 8.96231 9.79201 8.95905 9.76701C8.95491 9.73482 8.95092 9.70258 8.94767 9.67024C8.94382 9.63371 8.94066 9.59718 8.9379 9.56055C8.93642 9.53969 8.9349 9.51884 8.93371 9.49789C8.931 9.45135 8.92923 9.40476 8.92824 9.35817C8.92804 9.34629 8.9278 9.33451 8.92765 9.32263C8.92706 9.26939 8.92765 9.21624 8.92923 9.1631C8.92928 9.15935 8.92913 9.15561 8.92928 9.15181ZM7.31483 9.28102H6.42923V8.39961H7.31483V9.28102Z" fill="white"/>
<path d="M7.09397 5.52464C7.9431 5.52464 8.63383 4.83756 8.63383 3.99307C8.63383 3.14867 7.94305 2.46164 7.09397 2.46164C6.2449 2.46164 5.55412 3.14867 5.55412 3.99307C5.55407 4.83761 6.2449 5.52464 7.09397 5.52464Z" fill="white"/>
<path d="M9.41147 9.66679C9.41635 9.70844 9.42227 9.74986 9.42872 9.79117C9.4307 9.80364 9.43237 9.81611 9.43449 9.82859C9.4407 9.86576 9.44795 9.90263 9.45544 9.93951C9.46062 9.96485 9.46609 9.99024 9.47191 10.0155C9.47413 10.0252 9.47659 10.0348 9.47886 10.0444C9.49237 10.1007 9.50716 10.1569 9.52372 10.2127C9.52397 10.2136 9.52427 10.2145 9.52456 10.2154C9.55291 10.3105 9.58559 10.4048 9.62281 10.4979C9.62834 10.5088 9.63277 10.5204 9.63657 10.5322C9.78664 10.8954 10.0023 11.2326 10.2796 11.5282C10.9034 12.1931 11.7857 12.5745 12.7005 12.5745C13.2745 12.5745 13.8302 12.4277 14.3209 12.153C14.3293 12.1482 14.3378 12.1434 14.3463 12.1386C14.3846 12.1167 14.4226 12.0942 14.46 12.0708C14.4623 12.0693 14.4647 12.0679 14.467 12.0665C14.5055 12.0423 14.5435 12.0169 14.5811 11.991C14.5909 11.9842 14.6007 11.9774 14.6104 11.9704C14.6444 11.9467 14.6778 11.9222 14.7108 11.8972C14.7148 11.8941 14.7188 11.8912 14.7228 11.8881C14.7584 11.8607 14.7932 11.8324 14.8278 11.8036C14.8374 11.7954 14.8471 11.7873 14.8567 11.7791C14.8914 11.7493 14.9258 11.7192 14.9595 11.6879C14.9596 11.6878 14.9597 11.6877 14.9599 11.6876V11.6876C14.9955 11.6545 15.0299 11.6205 15.0637 11.5861C15.0725 11.5773 15.0812 11.5685 15.0898 11.5595C15.1217 11.5264 15.1531 11.4929 15.1835 11.4588C15.1919 11.4493 15.2 11.4394 15.2083 11.4299C15.2299 11.4051 15.251 11.3799 15.2718 11.3545C15.2846 11.3388 15.2974 11.3231 15.3099 11.3072C15.3286 11.2834 15.3468 11.2592 15.3649 11.235C15.3857 11.207 15.406 11.1786 15.4258 11.1499C15.4347 11.1374 15.4433 11.1247 15.4519 11.1119C15.4681 11.0878 15.4843 11.0636 15.4998 11.0391C15.5002 11.0385 15.5006 11.0381 15.5009 11.0377C15.8116 10.5492 15.9882 9.98565 16.0085 9.39249C16.0386 8.51344 15.723 7.67535 15.1199 7.03245C14.496 6.3674 13.6135 5.98598 12.6988 5.98598C11.8573 5.98598 11.055 6.30095 10.4398 6.87287C10.2436 7.05527 10.073 7.25769 9.92916 7.47545C9.92876 7.47609 9.92857 7.47673 9.92812 7.47737C9.91269 7.50089 9.89766 7.5246 9.88287 7.54841C9.8773 7.55738 9.87177 7.56635 9.8663 7.57533C9.81774 7.6549 9.77283 7.73619 9.73157 7.81886C9.72866 7.82463 9.72595 7.8305 9.72309 7.83632C9.69938 7.88473 9.6769 7.93368 9.65565 7.98298C9.65101 7.99378 9.64633 8.00457 9.64179 8.01542C9.6309 8.04135 9.62025 8.06733 9.6101 8.09351C9.59782 8.12526 9.58594 8.1571 9.5747 8.18915C9.5675 8.20971 9.5607 8.23036 9.55389 8.25102C9.54463 8.27917 9.53565 8.30742 9.52713 8.33586C9.52289 8.35001 9.51845 8.36416 9.51436 8.37836C9.50213 8.4214 9.49084 8.46473 9.48039 8.50836C9.47837 8.51659 9.4764 8.52483 9.47447 8.53306C9.4267 8.73923 9.39836 8.95146 9.39091 9.16759C9.38529 9.33101 9.39175 9.49296 9.40965 9.65259C9.41024 9.65737 9.41088 9.66205 9.41147 9.66679Z" fill="white"/>
<path d="M18.5063 17.4563C18.5028 17.4585 18.499 17.4598 18.4954 17.4618C18.4859 17.4669 18.4764 17.472 18.4664 17.4757C18.4615 17.4775 18.4565 17.4784 18.4515 17.4799C18.4425 17.4826 18.4336 17.4854 18.4244 17.4869C18.4187 17.4879 18.413 17.488 18.4072 17.4885C18.4001 17.4892 18.3929 17.4905 18.3856 17.4905C18.3843 17.4905 18.3829 17.4901 18.3816 17.49C18.3732 17.4899 18.365 17.4886 18.3567 17.4876C18.3501 17.4867 18.3434 17.4864 18.3368 17.485C18.3282 17.4831 18.3198 17.4799 18.3115 17.4771C18.3055 17.4751 18.2993 17.4737 18.2936 17.4712C18.2843 17.4672 18.2758 17.4618 18.2671 17.4566C18.2625 17.4539 18.2577 17.4517 18.2531 17.4487C18.2403 17.4397 18.2282 17.4294 18.2172 17.4175L15.1957 14.1966C15.1537 14.1518 15.1311 14.0921 15.1333 14.0306C15.1354 13.9692 15.1619 13.9111 15.2069 13.8693L15.3603 13.7268L14.3553 12.6554C13.8449 12.904 13.281 13.0364 12.7005 13.0364C11.6585 13.0364 10.6534 12.6019 9.94262 11.8442C9.6586 11.5414 9.43149 11.2002 9.26397 10.8338H3.77384C3.6463 10.8338 3.54282 10.7304 3.54282 10.6028V8.64344C3.54282 7.65278 4.35226 6.84679 5.34726 6.84679H8.85617C9.14116 6.84679 9.41788 6.91497 9.66881 7.04359C9.80419 6.86261 9.95607 6.69184 10.1254 6.53458C10.8263 5.88299 11.7403 5.52414 12.6988 5.52414C13.7408 5.52414 14.746 5.95871 15.4569 6.71649C16.1447 7.44966 16.5047 8.40562 16.4703 9.40841C16.4492 10.0242 16.2804 10.6119 15.9832 11.1327L16.9933 12.2095L17.1485 12.0653C17.195 12.0219 17.2546 12.0016 17.3136 12.0036C17.3725 12.0056 17.4306 12.0301 17.4742 12.0765L18.5693 13.2438V0.258423H2.2329V19.1848H18.5693V17.4042L18.5429 17.4288C18.5314 17.4393 18.5192 17.4485 18.5063 17.4563ZM7.09397 1.99966C8.19783 1.99966 9.09581 2.8939 9.09581 3.99307C9.09581 5.09229 8.19778 5.98662 7.09397 5.98662C5.99017 5.98662 5.09214 5.09229 5.09214 3.99307C5.09209 2.8939 5.99012 1.99966 7.09397 1.99966ZM4.21551 13.8969H9.0857C9.21329 13.8969 9.31672 14.0004 9.31672 14.128C9.31672 14.2555 9.21329 14.359 9.0857 14.359H4.21551C4.08797 14.359 3.98454 14.2555 3.98454 14.128C3.98454 14.0004 4.08797 13.8969 4.21551 13.8969ZM13.0701 17.0028H4.21551C4.08797 17.0028 3.98454 16.8994 3.98454 16.7718C3.98454 16.6442 4.08797 16.5408 4.21551 16.5408H13.0701C13.1977 16.5408 13.3011 16.6442 13.3011 16.7718C13.3011 16.8994 13.1977 17.0028 13.0701 17.0028ZM13.0701 15.6811H4.21551C4.08797 15.6811 3.98454 15.5776 3.98454 15.45C3.98454 15.3224 4.08797 15.219 4.21551 15.219H13.0701C13.1977 15.219 13.3011 15.3224 13.3011 15.45C13.3011 15.5777 13.1977 15.6811 13.0701 15.6811Z" fill="white"/>
<path d="M16.6547 12.5238L15.722 11.5294C15.7152 11.5384 15.708 11.547 15.7011 11.5558C15.6781 11.5858 15.6548 11.6158 15.6308 11.6452C15.615 11.6646 15.5987 11.6835 15.5825 11.7026C15.562 11.7267 15.5415 11.7509 15.5203 11.7747C15.4969 11.8008 15.4727 11.8263 15.4487 11.8518C15.433 11.8684 15.4177 11.8853 15.4016 11.9017C15.3601 11.9441 15.3177 11.9856 15.2742 12.026C15.2327 12.0644 15.1905 12.1018 15.1475 12.1383C15.1308 12.1524 15.1137 12.1659 15.0969 12.1797C15.0701 12.2017 15.0433 12.2237 15.016 12.2449C14.9965 12.2601 14.9765 12.2746 14.9567 12.2893C14.9311 12.3084 14.9056 12.3273 14.8797 12.3457C14.8591 12.3603 14.8382 12.3743 14.8173 12.3883C14.8013 12.3993 14.7855 12.4107 14.7692 12.4214L15.6988 13.4123L16.6547 12.5238Z" fill="white"/>
<path d="M18.633 13.9869C18.6326 13.9865 18.6322 13.9862 18.6319 13.9858L17.2945 12.5602L15.845 13.9073C15.8446 13.9076 15.8442 13.9079 15.8439 13.9082L15.6915 14.0499L18.3967 16.9338L18.643 16.7049C18.6431 16.7048 18.6432 16.7047 18.6433 16.7046L20 15.4438L18.633 13.9869ZM18.383 15.8908C18.1384 15.8908 17.9402 15.6932 17.9402 15.4501C17.9402 15.2066 18.1384 15.0094 18.383 15.0094C18.6273 15.0094 18.8258 15.2066 18.8258 15.4501C18.8258 15.6932 18.6273 15.8908 18.383 15.8908Z" fill="white"/>
<path d="M14.3981 20.9473H0.46203V6.79419C0.46203 6.6666 0.358601 6.56317 0.231015 6.56317C0.103479 6.56317 0 6.6666 0 6.79419V21.1783C0 21.3059 0.103429 21.4093 0.231015 21.4093H14.3981C14.5257 21.4093 14.6291 21.3059 14.6291 21.1783C14.6291 21.0507 14.5257 20.9473 14.3981 20.9473Z" fill="white"/>
</svg>
