<svg width="182" height="141" viewBox="0 0 182 141" fill="none" xmlns="http://www.w3.org/2000/svg">
<path d="M86.527 81.142L77.883 81.13C77.7695 81.1299 77.657 81.1074 77.5522 81.0638C77.4474 81.0201 77.3521 80.9563 77.272 80.8759C77.1918 80.7954 77.1283 80.7 77.0851 80.595C77.0419 80.49 77.0197 80.3775 77.02 80.264C77.0201 80.1505 77.0426 80.038 77.0862 79.9332C77.1298 79.8284 77.1937 79.7331 77.2741 79.653C77.3545 79.5728 77.45 79.5093 77.555 79.4661C77.66 79.4229 77.7725 79.4007 77.886 79.401L86.53 79.413C86.7592 79.4138 86.9787 79.5054 87.1404 79.6677C87.3022 79.83 87.393 80.0498 87.393 80.279C87.3933 80.3927 87.371 80.5052 87.3276 80.6103C87.2841 80.7153 87.2203 80.8107 87.1398 80.8909C87.0593 80.9711 86.9637 81.0346 86.8585 81.0777C86.7533 81.1208 86.6407 81.1427 86.527 81.142ZM105.542 81.172L96.898 81.158C96.7845 81.1579 96.672 81.1354 96.5672 81.0918C96.4624 81.0481 96.3671 80.9843 96.287 80.9039C96.2068 80.8234 96.1433 80.728 96.1001 80.623C96.0569 80.518 96.0347 80.4055 96.035 80.292C96.0351 80.1785 96.0576 80.066 96.1012 79.9612C96.1449 79.8564 96.2087 79.7611 96.2891 79.681C96.3696 79.6008 96.465 79.5373 96.57 79.4941C96.675 79.4509 96.7875 79.4287 96.901 79.429L105.545 79.443C105.658 79.443 105.771 79.4654 105.875 79.5088C105.98 79.5522 106.075 79.6159 106.156 79.6961C106.236 79.7764 106.299 79.8716 106.343 79.9764C106.386 80.0813 106.408 80.1936 106.408 80.307C106.408 80.4207 106.386 80.5333 106.342 80.6384C106.299 80.7435 106.235 80.8389 106.155 80.9193C106.074 80.9997 105.979 81.0633 105.873 81.1067C105.768 81.1501 105.656 81.1723 105.542 81.172ZM70.938 94.95C70.7111 94.9496 70.4865 94.9045 70.277 94.8173C70.0675 94.7301 69.8772 94.6025 69.717 94.4418C69.5568 94.281 69.4299 94.0903 69.3434 93.8805C69.2569 93.6707 69.2126 93.4459 69.213 93.219L69.218 89.761C69.2177 89.4223 69.3168 89.0909 69.503 88.808C69.1516 88.0646 68.9538 87.2578 68.9215 86.4362C68.8892 85.6145 69.023 84.7947 69.315 84.026C69.865 82.385 69.28 81.841 66.742 80.401C65.7862 79.8985 64.8819 79.3037 64.042 78.625C63.2015 79.3003 62.2972 79.8921 61.342 80.392C58.801 81.825 58.214 82.368 58.759 84.012C59.0491 84.7812 59.1808 85.601 59.1465 86.4224C59.1121 87.2437 58.9123 88.0497 58.559 88.792C58.746 89.0746 58.8452 89.4062 58.844 89.745L58.839 94.932C58.8379 95.3906 58.655 95.83 58.3302 96.1538C58.0055 96.4776 57.5656 96.6593 57.107 96.659C56.88 96.6586 56.6553 96.6135 56.4457 96.5262C56.2362 96.439 56.0458 96.3113 55.8856 96.1504C55.7255 95.9896 55.5985 95.7987 55.5121 95.5888C55.4257 95.3789 55.3815 95.154 55.382 94.927V91.469C54.9945 91.4685 54.6183 91.3376 54.3142 91.0975C54.01 90.8573 53.7954 90.5218 53.705 90.145C53.6135 89.7684 53.6515 89.3719 53.813 89.0195C53.9744 88.6672 54.25 88.3795 54.595 88.203C54.955 88.003 56.156 87.14 55.48 85.103C53.98 80.575 57.39 78.653 59.648 77.38C60.891 76.68 62.067 76.016 62.502 75.148C62.6616 74.8801 62.888 74.6582 63.1591 74.5041C63.4302 74.3501 63.7367 74.2691 64.0485 74.2691C64.3603 74.2691 64.6668 74.3501 64.9379 74.5041C65.209 74.6582 65.4354 74.8801 65.595 75.148C66.029 76.019 67.203 76.685 68.444 77.39C70.698 78.668 74.104 80.6 72.59 85.123C71.855 87.323 73.299 88.142 73.465 88.228C73.8101 88.4051 74.0854 88.6935 74.2464 89.0464C74.4073 89.3994 74.4445 89.7963 74.352 90.173C74.2602 90.5497 74.0445 90.8845 73.7394 91.1238C73.4343 91.363 73.0577 91.4927 72.67 91.492L72.77 95.429C72.769 96.388 71.892 94.952 70.938 94.95Z" fill="#0D6963"/>
<path d="M100.317 107.095C100.09 107.095 99.8655 107.05 99.656 106.962C99.4465 106.875 99.2562 106.747 99.096 106.587C98.9358 106.426 98.8089 106.235 98.7224 106.026C98.6359 105.816 98.5916 105.591 98.592 105.364L98.609 93.264C98.6085 92.8476 98.7596 92.4452 99.034 92.132L99.012 92.096C98.623 91.4048 98.3941 90.6351 98.3422 89.8436C98.2903 89.0521 98.4166 88.2591 98.712 87.523C99.386 85.54 98.512 84.606 95.851 82.445C94.2851 81.2825 92.8937 79.9018 91.719 78.345C90.5393 79.8998 89.1432 81.2778 87.573 82.437C84.904 84.589 84.029 85.521 84.698 87.508C84.99 88.2452 85.1132 89.0384 85.0585 89.8293C85.0038 90.6203 84.7727 91.389 84.382 92.079L84.36 92.114C84.6327 92.4288 84.7826 92.8315 84.782 93.248L84.765 105.348C84.7647 105.575 84.7197 105.8 84.6325 106.009C84.5453 106.219 84.4176 106.409 84.2567 106.57C84.0958 106.73 83.9049 106.857 83.695 106.943C83.485 107.03 83.26 107.074 83.033 107.073C82.806 107.073 82.5813 107.028 82.3716 106.941C82.162 106.854 81.9716 106.726 81.8114 106.565C81.6512 106.405 81.5242 106.214 81.4379 106.004C81.3515 105.794 81.3073 105.569 81.308 105.342L81.324 94.969H79.595C79.162 94.9683 78.7451 94.8051 78.4266 94.5118C78.1082 94.2185 77.9113 93.8164 77.875 93.385C77.838 92.9535 77.9644 92.5238 78.2293 92.1812C78.4942 91.8385 78.8781 91.6079 79.305 91.535C80.1346 91.3871 80.8841 90.9481 81.419 90.297C81.5521 90.0356 81.6219 89.7465 81.6228 89.4531C81.6237 89.1597 81.5556 88.8702 81.424 88.608C79.924 84.163 82.964 81.715 85.406 79.746C87.361 78.169 89.384 76.539 90.048 73.828C90.1398 73.4515 90.3557 73.1169 90.6608 72.878C90.9659 72.6391 91.3425 72.5098 91.73 72.511C92.1175 72.5111 92.4937 72.6417 92.7979 72.8817C93.1021 73.1217 93.3167 73.4572 93.407 73.834C94.062 76.547 96.08 78.182 98.032 79.766C100.468 81.74 103.499 84.199 101.988 88.64C101.854 88.9034 101.784 89.195 101.785 89.4906C101.786 89.7862 101.857 90.0774 101.993 90.34C102.529 90.9853 103.274 91.4226 104.099 91.576C104.525 91.6505 104.908 91.8821 105.172 92.2252C105.436 92.5683 105.561 92.9978 105.524 93.429C105.486 93.8601 105.288 94.2615 104.969 94.5537C104.65 94.8459 104.233 95.0076 103.8 95.007H102.071L102.055 105.38C102.052 105.838 101.867 106.275 101.541 106.597C101.215 106.919 100.775 107.098 100.317 107.095Z" fill="#0D6963"/>
<path d="M105.522 97.177C105.079 97.1908 104.648 97.0285 104.325 96.7256C104.001 96.4227 103.811 96.004 103.795 95.561L103.821 77.861C103.071 77.3288 102.469 76.6148 102.071 75.786C101.826 75.2215 101.717 74.6069 101.754 73.9925C101.791 73.378 101.973 72.781 102.284 72.25C104.206 68.673 103.342 68.268 100.126 66.761C97.244 65.409 93.38 63.599 92.049 58.437H91.449C90.104 63.594 86.235 65.394 83.349 66.737C80.13 68.237 79.264 68.637 81.178 72.219C81.487 72.7514 81.6661 73.3491 81.7008 73.9636C81.7356 74.5781 81.625 75.1922 81.378 75.756C80.9766 76.583 80.3721 77.2949 79.621 77.825L79.595 95.525C79.5788 95.968 79.3874 96.3865 79.0628 96.6884C78.7382 96.9903 78.307 97.1509 77.864 97.135C77.4211 97.1488 76.9908 96.9866 76.6672 96.684C76.3435 96.3813 76.1529 95.9628 76.137 95.52L76.161 79.386C75.7637 79.3942 75.3761 79.2629 75.0656 79.015C74.755 78.7671 74.5411 78.4182 74.461 78.029C74.4027 77.6407 74.4887 77.2445 74.7029 76.9154C74.917 76.5862 75.2444 76.347 75.623 76.243C76.304 76.027 77.834 75.318 78.19 74.514C78.2461 74.374 78.2659 74.2222 78.2475 74.0725C78.2292 73.9228 78.1733 73.7802 78.085 73.658C74.631 67.189 78.612 65.337 81.811 63.85C84.662 62.522 87.611 61.15 88.32 56.589C88.3955 56.1933 88.609 55.8372 88.9226 55.5843C89.2361 55.3314 89.6293 55.198 90.032 55.208L93.49 55.213C93.8932 55.2038 94.2866 55.3382 94.5999 55.5923C94.9131 55.8463 95.1258 56.2035 95.2 56.6C95.9 61.164 98.841 62.544 101.688 63.88C104.881 65.38 108.856 67.239 105.383 73.698C105.295 73.8208 105.239 73.9642 105.222 74.1145C105.204 74.2648 105.225 74.4171 105.283 74.557C105.639 75.366 107.19 76.085 107.842 76.289C108.22 76.3945 108.547 76.635 108.76 76.965C108.973 77.295 109.058 77.6916 108.999 78.08C108.918 78.4697 108.702 78.8184 108.39 79.0655C108.078 79.3126 107.689 79.4423 107.291 79.432L107.267 95.564C107.259 95.7848 107.208 96.0018 107.116 96.2026C107.023 96.4033 106.893 96.5839 106.73 96.7338C106.568 96.8838 106.378 97.0001 106.17 97.0762C105.963 97.1522 105.743 97.1865 105.522 97.177ZM136.576 139.997L46.676 139.866C46.4489 139.866 46.224 139.821 46.0143 139.734C45.8045 139.646 45.614 139.519 45.4536 139.358C45.2933 139.197 45.1661 139.006 45.0796 138.796C44.993 138.586 44.9486 138.361 44.949 138.134L44.994 107.015C44.9951 106.557 45.1781 106.117 45.5029 105.794C45.8277 105.47 46.2676 105.289 46.726 105.29L136.626 105.421C136.853 105.421 137.078 105.466 137.287 105.554C137.497 105.641 137.687 105.768 137.847 105.929C138.007 106.09 138.134 106.281 138.221 106.49C138.307 106.7 138.351 106.925 138.351 107.152L138.306 138.271C138.306 138.498 138.261 138.723 138.174 138.932C138.087 139.142 137.959 139.332 137.798 139.492C137.638 139.653 137.447 139.78 137.237 139.866C137.028 139.953 136.803 139.997 136.576 139.997ZM48.41 136.41L134.851 136.536L134.893 108.874L48.45 108.748L48.41 136.41Z" fill="#0D6963"/>
<path d="M84.711 139.921C84.4839 139.921 84.259 139.876 84.0493 139.789C83.8395 139.701 83.649 139.574 83.4887 139.413C83.3283 139.252 83.2012 139.061 83.1146 138.851C83.028 138.641 82.9836 138.416 82.984 138.189L83.027 108.798C83.0274 108.571 83.0725 108.346 83.1597 108.137C83.2469 107.927 83.3745 107.737 83.5352 107.577C83.696 107.417 83.8867 107.29 84.0965 107.203C84.3063 107.117 84.5311 107.073 84.758 107.073C84.9851 107.073 85.2099 107.118 85.4197 107.205C85.6294 107.292 85.8199 107.42 85.9803 107.581C86.1407 107.741 86.2678 107.932 86.3544 108.142C86.441 108.352 86.4854 108.577 86.485 108.804L86.442 138.194C86.4419 138.421 86.397 138.646 86.3099 138.856C86.2228 139.065 86.0952 139.256 85.9345 139.416C85.7737 139.577 85.5829 139.704 85.373 139.79C85.163 139.877 84.9381 139.921 84.711 139.921ZM98.543 139.942C98.3159 139.942 98.091 139.897 97.8813 139.81C97.6715 139.722 97.481 139.595 97.3206 139.434C97.1603 139.273 97.0332 139.082 96.9466 138.872C96.86 138.662 96.8156 138.437 96.816 138.21L96.859 108.82C96.8593 108.593 96.9043 108.368 96.9914 108.159C97.0786 107.949 97.2062 107.759 97.367 107.599C97.5277 107.439 97.7185 107.312 97.9283 107.225C98.1382 107.139 98.363 107.094 98.59 107.095C98.8172 107.095 99.0421 107.14 99.252 107.227C99.4618 107.314 99.6524 107.441 99.8129 107.602C99.9733 107.763 100.1 107.954 100.187 108.164C100.273 108.374 100.318 108.599 100.317 108.826L100.274 138.216C100.273 138.674 100.09 139.114 99.7658 139.437C99.4412 139.761 99.0014 139.943 98.543 139.942Z" fill="#0D6963"/>
<path d="M136.603 122.709L46.703 122.578C46.4738 122.577 46.2543 122.486 46.0926 122.323C45.9308 122.161 45.84 121.941 45.84 121.712C45.84 121.598 45.8624 121.486 45.906 121.381C45.9495 121.276 46.0134 121.181 46.0938 121.101C46.1743 121.021 46.2698 120.957 46.3748 120.914C46.4799 120.871 46.5924 120.849 46.706 120.849L136.606 120.98C136.72 120.98 136.832 121.003 136.937 121.046C137.042 121.09 137.137 121.154 137.217 121.234C137.297 121.315 137.361 121.41 137.404 121.515C137.447 121.62 137.469 121.732 137.469 121.846C137.468 122.075 137.377 122.295 137.215 122.457C137.052 122.619 136.832 122.709 136.603 122.709Z" fill="#0D6963"/>
<path d="M59.648 133.834C59.4188 133.833 59.1993 133.742 59.0376 133.579C58.8758 133.417 58.785 133.197 58.785 132.968L58.835 98.391C58.8355 98.1618 58.927 97.9421 59.0894 97.7803C59.2518 97.6185 59.4718 97.5277 59.701 97.528C59.8145 97.5279 59.9268 97.5501 60.0316 97.5935C60.1365 97.6369 60.2317 97.7006 60.3119 97.7808C60.3921 97.8611 60.4556 97.9564 60.4989 98.0613C60.5421 98.1662 60.5643 98.2785 60.564 98.392L60.514 132.969C60.5141 133.083 60.4918 133.195 60.4483 133.3C60.4048 133.405 60.341 133.501 60.2606 133.581C60.1801 133.662 60.0846 133.725 59.9795 133.769C59.8744 133.812 59.7617 133.834 59.648 133.834ZM71.75 133.851C71.6365 133.851 71.524 133.828 71.4192 133.785C71.3144 133.741 71.2191 133.677 71.139 133.597C71.0588 133.516 70.9953 133.421 70.9521 133.316C70.9089 133.211 70.8867 133.099 70.887 132.985L70.937 98.408C70.9378 98.1788 71.0294 97.9593 71.1917 97.7976C71.354 97.6358 71.5738 97.545 71.803 97.545C71.9166 97.545 72.029 97.5674 72.1339 97.611C72.2388 97.6545 72.3341 97.7184 72.4143 97.7988C72.4945 97.8793 72.558 97.9748 72.6012 98.0798C72.6444 98.1849 72.6664 98.2974 72.666 98.411L72.616 132.988C72.6159 133.102 72.5934 133.214 72.5498 133.319C72.5061 133.424 72.4423 133.519 72.3619 133.599C72.2814 133.679 72.186 133.743 72.081 133.786C71.976 133.829 71.8635 133.851 71.75 133.851Z" fill="#0D6963"/>
<path d="M138.351 108.88L44.993 108.743C44.7659 108.743 44.5412 108.698 44.3315 108.611C44.1218 108.523 43.9314 108.396 43.771 108.235C43.6106 108.074 43.4835 107.884 43.3969 107.674C43.3102 107.464 43.2657 107.239 43.266 107.012C43.2668 106.553 43.4497 106.114 43.7745 105.79C44.0993 105.466 44.5394 105.284 44.998 105.285L138.356 105.422C138.583 105.422 138.808 105.468 139.017 105.555C139.227 105.642 139.417 105.77 139.577 105.931C139.738 106.091 139.864 106.282 139.951 106.492C140.037 106.702 140.082 106.927 140.081 107.154C140.081 107.381 140.036 107.606 139.949 107.815C139.862 108.025 139.734 108.215 139.574 108.376C139.413 108.536 139.222 108.663 139.013 108.749C138.803 108.836 138.578 108.88 138.351 108.88Z" fill="#0D6963"/>
<path d="M72.655 107.053L49.315 107.018C49.2016 107.018 49.0893 106.996 48.9845 106.952C48.8797 106.909 48.7846 106.845 48.7044 106.765C48.6243 106.685 48.5607 106.589 48.5174 106.485C48.4741 106.38 48.4519 106.267 48.452 106.154V104.496C48.452 104.306 48.5147 104.121 48.6305 103.971C48.7462 103.82 48.9084 103.712 49.092 103.663L51.912 102.904V101.837C51.9114 101.666 51.9619 101.5 52.057 101.358L53.644 98.984V97.516C53.644 96.062 55.167 94.924 57.107 94.928C57.9255 94.8859 58.7306 95.1489 59.3664 95.6662C60.0022 96.1834 60.4236 96.918 60.549 97.728C61.1311 97.7964 61.7202 97.7782 62.297 97.674C62.3974 96.4299 62.9737 95.2725 63.906 94.4427C64.8383 93.6128 66.0547 93.1745 67.302 93.219H67.663C68.3056 93.1967 68.9461 93.3029 69.5472 93.5313C70.1482 93.7596 70.6976 94.1056 71.1633 94.549C71.6289 94.9924 72.0014 95.5242 72.2589 96.1134C72.5164 96.7025 72.6538 97.3371 72.663 97.98V98.412C72.6625 98.6413 72.571 98.8611 72.4086 99.0231C72.2463 99.185 72.0263 99.276 71.797 99.276C71.5678 99.2755 71.3481 99.184 71.1863 99.0216C71.0245 98.8592 70.9337 98.6392 70.934 98.41V97.978C70.9269 97.5613 70.8356 97.1503 70.6655 96.7698C70.4954 96.3894 70.2501 96.0472 69.9443 95.7641C69.6385 95.4809 69.2786 95.2625 68.8862 95.1221C68.4938 94.9817 68.077 94.9221 67.661 94.947H67.3C66.8842 94.921 66.4675 94.9794 66.0749 95.1186C65.6823 95.2579 65.3219 95.4751 65.0154 95.7572C64.7089 96.0393 64.4626 96.3805 64.2914 96.7603C64.1201 97.14 64.0275 97.5505 64.019 97.967V98.399C64.0182 98.5961 63.9503 98.7871 63.8265 98.9404C63.7028 99.0938 63.5305 99.2005 63.338 99.243C62.456 99.435 60.299 99.801 59.35 99.037C59.1875 98.9087 59.0564 98.745 58.9668 98.5584C58.8772 98.3717 58.8314 98.167 58.833 97.96C58.833 97.26 58.043 96.66 57.106 96.66C56.051 96.66 55.377 97.17 55.375 97.523V99.252C55.3743 99.4224 55.3239 99.5888 55.23 99.731L53.643 102.105V103.571C53.643 103.761 53.5803 103.946 53.4646 104.096C53.3488 104.247 53.1866 104.355 53.003 104.404L50.183 105.163V105.294L72.658 105.327C72.8872 105.328 73.1069 105.419 73.2687 105.581C73.4305 105.744 73.5213 105.964 73.521 106.193C73.5206 106.306 73.4979 106.418 73.4542 106.523C73.4104 106.628 73.3465 106.722 73.2661 106.802C73.1857 106.882 73.0903 106.945 72.9855 106.988C72.8806 107.031 72.7683 107.053 72.655 107.053Z" fill="#0D6963"/>
<path d="M112.43 96.679C112.657 96.6786 112.882 96.6335 113.091 96.5463C113.301 96.4591 113.491 96.3315 113.651 96.1708C113.811 96.01 113.938 95.8193 114.025 95.6095C114.111 95.3997 114.155 95.1749 114.155 94.948L114.15 91.49C114.151 91.151 114.051 90.8194 113.863 90.537C114.215 89.7937 114.413 88.9871 114.446 88.1654C114.478 87.3437 114.345 86.5239 114.053 85.755C113.503 84.114 114.088 83.57 116.626 82.13C117.582 81.6271 118.486 81.0323 119.326 80.354C120.166 81.0293 121.071 81.6211 122.026 82.121C124.569 83.554 125.155 84.097 124.611 85.741C124.321 86.5102 124.189 87.33 124.224 88.1514C124.258 88.9727 124.458 89.7787 124.811 90.521C124.625 90.804 124.526 91.1354 124.527 91.474L124.532 96.661C124.533 97.1197 124.716 97.5592 125.04 97.8831C125.365 98.2069 125.805 98.3885 126.264 98.388C126.491 98.3876 126.716 98.3425 126.925 98.2552C127.135 98.168 127.325 98.0403 127.485 97.8794C127.646 97.7186 127.772 97.5277 127.859 97.3178C127.945 97.1079 127.99 96.883 127.989 96.656V93.198C128.377 93.1973 128.753 93.0664 129.057 92.8263C129.361 92.5861 129.575 92.2508 129.666 91.874C129.757 91.4972 129.718 91.1007 129.556 90.7485C129.395 90.3962 129.119 90.1086 128.774 89.932C128.416 89.732 127.215 88.869 127.891 86.832C129.391 82.304 125.981 80.382 123.723 79.109C122.478 78.409 121.303 77.745 120.867 76.877C120.707 76.6091 120.481 76.3872 120.21 76.2331C119.939 76.0791 119.632 75.9981 119.321 75.9981C119.009 75.9981 118.702 76.0791 118.431 76.2331C118.16 76.3872 117.934 76.6091 117.774 76.877C117.34 77.748 116.168 78.414 114.925 79.119C112.672 80.397 109.266 82.329 110.781 86.852C111.516 89.052 110.072 89.871 109.904 89.957C109.559 90.1346 109.285 90.4231 109.124 90.776C108.964 91.1288 108.926 91.5255 109.019 91.902C109.111 92.2787 109.327 92.6135 109.632 92.8528C109.937 93.092 110.313 93.2217 110.701 93.221L110.601 97.158C110.6 98.117 111.475 96.681 112.43 96.679Z" fill="#0D6963"/>
<path d="M110.71 108.781L134.05 108.746C134.279 108.746 134.499 108.655 134.661 108.493C134.823 108.331 134.914 108.111 134.914 107.882V106.224C134.914 106.034 134.851 105.849 134.736 105.699C134.62 105.548 134.458 105.44 134.274 105.391L131.454 104.632V103.565C131.454 103.395 131.403 103.228 131.309 103.086L129.722 100.712V99.244C129.722 97.79 128.201 96.652 126.261 96.656C125.442 96.6139 124.637 96.8768 124.001 97.394C123.365 97.9112 122.943 98.6459 122.817 99.456C122.236 99.5244 121.647 99.5062 121.071 99.402C120.97 98.158 120.394 97.0008 119.462 96.171C118.53 95.3412 117.313 94.9028 116.066 94.947H115.705C115.062 94.9244 114.422 95.0304 113.821 95.2587C113.219 95.487 112.67 95.833 112.204 96.2764C111.738 96.7198 111.366 97.2518 111.109 97.841C110.851 98.4303 110.714 99.065 110.705 99.708V100.14C110.705 100.254 110.727 100.366 110.771 100.471C110.815 100.576 110.878 100.671 110.959 100.752C111.039 100.832 111.135 100.896 111.24 100.939C111.345 100.982 111.457 101.004 111.571 101.004C111.8 101.003 112.02 100.912 112.181 100.749C112.343 100.587 112.434 100.367 112.434 100.138V99.706C112.441 99.2893 112.532 98.8783 112.702 98.4978C112.873 98.1174 113.118 97.7752 113.424 97.4921C113.729 97.2089 114.089 96.9905 114.482 96.8501C114.874 96.7097 115.291 96.6501 115.707 96.675H116.068C116.484 96.649 116.9 96.7074 117.293 96.8466C117.686 96.9859 118.046 97.2031 118.353 97.4852C118.659 97.7673 118.905 98.1085 119.077 98.4883C119.248 98.8681 119.341 99.2785 119.349 99.695V100.127C119.35 100.324 119.417 100.515 119.54 100.668C119.664 100.821 119.836 100.928 120.028 100.971C120.911 101.163 123.069 101.529 124.018 100.765C124.181 100.637 124.312 100.473 124.401 100.286C124.491 100.1 124.537 99.8951 124.535 99.688C124.535 98.988 125.325 98.388 126.262 98.388C127.317 98.388 127.991 98.898 127.991 99.251V100.98C127.991 101.151 128.041 101.317 128.136 101.459L129.723 103.833V105.299C129.723 105.489 129.786 105.674 129.902 105.824C130.018 105.975 130.18 106.083 130.364 106.132L133.184 106.891V107.022L110.709 107.055C110.48 107.056 110.26 107.147 110.098 107.309C109.936 107.472 109.846 107.692 109.846 107.921C109.846 108.034 109.869 108.146 109.912 108.251C109.956 108.355 110.02 108.45 110.1 108.53C110.18 108.61 110.275 108.673 110.38 108.716C110.485 108.759 110.597 108.781 110.71 108.781Z" fill="#0D6963"/>
<path d="M125.345 132.199C125.116 132.198 124.896 132.107 124.734 131.945C124.572 131.782 124.482 131.562 124.482 131.333L124.532 96.756C124.533 96.5268 124.624 96.3071 124.786 96.1453C124.949 95.9835 125.169 95.8927 125.398 95.893C125.512 95.893 125.624 95.9154 125.729 95.959C125.834 96.0025 125.929 96.0664 126.009 96.1468C126.089 96.2273 126.153 96.3228 126.196 96.4278C126.239 96.5329 126.261 96.6454 126.261 96.759L126.211 131.336C126.211 131.45 126.188 131.562 126.145 131.667C126.101 131.772 126.037 131.867 125.957 131.947C125.876 132.027 125.781 132.091 125.676 132.134C125.571 132.177 125.459 132.199 125.345 132.199ZM111.515 132.181C111.286 132.18 111.066 132.089 110.905 131.926C110.743 131.764 110.652 131.544 110.652 131.315L110.702 96.738C110.702 96.6245 110.725 96.5121 110.768 96.4072C110.812 96.3024 110.876 96.2072 110.956 96.127C111.037 96.0469 111.132 95.9833 111.237 95.9401C111.342 95.8969 111.454 95.8747 111.568 95.875C111.681 95.8749 111.794 95.8971 111.899 95.9405C112.003 95.9839 112.099 96.0476 112.179 96.1278C112.259 96.2081 112.323 96.3034 112.366 96.4083C112.409 96.5132 112.431 96.6256 112.431 96.739L112.381 131.316C112.381 131.43 112.359 131.542 112.315 131.647C112.272 131.752 112.208 131.848 112.128 131.928C112.047 132.009 111.952 132.072 111.846 132.116C111.741 132.159 111.629 132.181 111.515 132.181ZM95.133 106.225C94.9038 106.224 94.6841 106.133 94.5223 105.971C94.3605 105.808 94.2697 105.588 94.27 105.359C94.27 104.671 93.9975 104.011 93.512 103.524C93.0266 103.037 92.3678 102.762 91.68 102.759C90.9922 102.759 90.3324 103.032 89.8451 103.517C89.3577 104.002 89.0827 104.661 89.08 105.349C89.0792 105.578 88.9876 105.798 88.8253 105.959C88.663 106.121 88.4432 106.212 88.214 106.212C88.1005 106.212 87.9881 106.189 87.8832 106.146C87.7784 106.102 87.6832 106.038 87.603 105.958C87.5229 105.877 87.4593 105.782 87.4161 105.677C87.3729 105.572 87.3507 105.46 87.351 105.346C87.3539 104.2 87.8111 103.103 88.6223 102.294C89.4335 101.485 90.5324 101.031 91.678 101.031C92.8239 101.034 93.9219 101.491 94.7312 102.302C95.5405 103.113 95.995 104.212 95.995 105.358C95.9953 105.587 95.9047 105.807 95.7431 105.97C95.5816 106.132 95.3622 106.224 95.133 106.225Z" fill="#0D6963"/>
<path d="M100.339 94.994L83.05 94.968C82.8209 94.968 82.6011 94.877 82.4391 94.7149C82.277 94.5529 82.186 94.3331 82.186 94.104C82.1865 93.8747 82.278 93.6549 82.4404 93.4929C82.6027 93.331 82.8227 93.24 83.052 93.24L100.341 93.266C100.455 93.2661 100.567 93.2886 100.672 93.3322C100.777 93.3758 100.872 93.4397 100.952 93.5201C101.032 93.6005 101.096 93.696 101.139 93.801C101.182 93.906 101.204 94.0185 101.204 94.132C101.204 94.2455 101.182 94.3578 101.138 94.4626C101.095 94.5673 101.031 94.6625 100.95 94.7426C100.87 94.8227 100.775 94.8861 100.67 94.9292C100.565 94.9724 100.452 94.9944 100.339 94.994ZM91.743 58.676C91.516 58.6756 91.2913 58.6305 91.0817 58.5432C90.8722 58.456 90.6818 58.3283 90.5216 58.1674C90.3615 58.0066 90.2345 57.8157 90.1481 57.6058C90.0617 57.3959 90.0175 57.171 90.018 56.944L90.034 46.571C90.0343 46.344 90.0793 46.1194 90.1664 45.9098C90.2536 45.7002 90.3812 45.5099 90.5419 45.3497C90.7027 45.1895 90.8935 45.0626 91.1033 44.9761C91.3132 44.8897 91.538 44.8455 91.765 44.846C92.2234 44.8471 92.6627 45.0299 92.9864 45.3544C93.3102 45.6789 93.492 46.1186 93.492 46.577L93.476 56.95C93.4756 57.1771 93.4305 57.402 93.3431 57.6117C93.2558 57.8214 93.1281 58.0118 92.9671 58.1721C92.8062 58.3324 92.6152 58.4594 92.4052 58.5458C92.1952 58.6323 91.9701 58.6765 91.743 58.676Z" fill="#0D6963"/>
<path d="M95.213 51.761L88.298 51.751C88.071 51.7506 87.8463 51.7055 87.6367 51.6182C87.4272 51.531 87.2368 51.4033 87.0766 51.2424C86.9165 51.0816 86.7895 50.8907 86.7031 50.6808C86.6167 50.4709 86.5725 50.246 86.573 50.019C86.5733 49.792 86.6183 49.5674 86.7054 49.3578C86.7926 49.1482 86.9202 48.9579 87.0809 48.7977C87.2417 48.6375 87.4325 48.5106 87.6423 48.4241C87.8522 48.3377 88.077 48.2935 88.304 48.294L95.219 48.304C95.6774 48.3051 96.1167 48.4879 96.4404 48.8124C96.7642 49.1369 96.946 49.5766 96.946 50.035C96.9449 50.4937 96.7618 50.9331 96.4368 51.2568C96.1118 51.5804 95.6716 51.7618 95.213 51.761ZM76.129 96.688L72.671 96.683C72.4418 96.6825 72.2221 96.591 72.0603 96.4286C71.8985 96.2662 71.8077 96.0462 71.808 95.817C71.808 95.7034 71.8304 95.591 71.874 95.4861C71.9175 95.3812 71.9814 95.2859 72.0618 95.2057C72.1423 95.1255 72.2378 95.062 72.3428 95.0188C72.4479 94.9756 72.5604 94.9536 72.674 94.954L76.132 94.959C76.2454 94.959 76.3577 94.9814 76.4625 95.0248C76.5673 95.0682 76.6624 95.1319 76.7426 95.2121C76.8227 95.2924 76.8863 95.3876 76.9296 95.4924C76.9729 95.5973 76.9951 95.7096 76.995 95.823C76.995 95.9367 76.9726 96.0492 76.9291 96.1543C76.8855 96.2593 76.8217 96.3547 76.7413 96.435C76.6609 96.5153 76.5654 96.579 76.4603 96.6224C76.3553 96.6659 76.2427 96.6881 76.129 96.688ZM110.707 96.738L107.249 96.733C107.135 96.733 107.023 96.7106 106.918 96.667C106.813 96.6235 106.718 96.5596 106.638 96.4792C106.558 96.3987 106.494 96.3032 106.451 96.1982C106.408 96.0931 106.386 95.9806 106.386 95.867C106.386 95.7535 106.409 95.641 106.452 95.5362C106.496 95.4314 106.56 95.3361 106.64 95.256C106.721 95.1758 106.816 95.1123 106.921 95.0691C107.026 95.0259 107.138 95.0037 107.252 95.004L110.71 95.009C110.824 95.0091 110.936 95.0316 111.041 95.0752C111.146 95.1189 111.241 95.1827 111.321 95.2631C111.401 95.3436 111.465 95.439 111.508 95.544C111.551 95.649 111.573 95.7615 111.573 95.875C111.572 96.1042 111.481 96.3239 111.319 96.4857C111.156 96.6475 110.936 96.7383 110.707 96.738Z" fill="#0D6963"/>
<path d="M95.161 94.121C95.0937 94.1205 95.0266 94.1125 94.961 94.097C94.561 94.004 92.606 93.297 93.448 88.606C94.0213 86.1122 93.5991 83.4932 92.271 81.306C92.0803 80.9311 91.896 80.5531 91.718 80.172C91.536 80.564 91.348 80.936 91.161 81.304C89.8268 83.4864 89.3962 86.1032 89.961 88.598C90.789 93.298 88.834 93.992 88.433 94.084C88.3223 94.11 88.2075 94.1138 88.0953 94.0951C87.9831 94.0765 87.8757 94.0357 87.7793 93.9753C87.683 93.9148 87.5996 93.8358 87.5339 93.7429C87.4683 93.65 87.4218 93.545 87.397 93.434C87.3458 93.2114 87.3849 92.9775 87.5058 92.7837C87.6267 92.5899 87.8195 92.4519 88.042 92.4C88 92.4 88.777 91.843 88.26 88.9C87.6295 86.0374 88.1148 83.0421 89.617 80.525C90.1478 79.5524 90.5732 78.5259 90.886 77.463C90.9533 77.297 91.0687 77.1549 91.2172 77.0548C91.3658 76.9548 91.5409 76.9013 91.72 76.9013C91.8991 76.9013 92.0742 76.9548 92.2228 77.0548C92.3713 77.1549 92.4867 77.297 92.554 77.463C92.8627 78.5266 93.2851 79.5539 93.814 80.527C95.3082 83.0491 95.7849 86.0458 95.147 88.907C94.609 91.907 95.427 92.429 95.436 92.434C95.5437 92.4602 95.645 92.5078 95.7339 92.574C95.8227 92.6402 95.8974 92.7236 95.9534 92.8193C96.0094 92.9149 96.0455 93.0208 96.0597 93.1307C96.0739 93.2406 96.0659 93.3523 96.036 93.459C95.9849 93.6512 95.8711 93.8207 95.7125 93.9407C95.5539 94.0606 95.3598 94.1241 95.161 94.121Z" fill="#0D6963"/>
<path d="M98.635 80.297C98.5718 80.2968 98.5087 80.2898 98.447 80.276C98.158 80.1949 97.889 80.0548 97.657 79.8644C97.4249 79.674 97.2349 79.4376 97.099 79.17C96.38 77.904 96.478 75.883 97.388 73.164C98.98 68.408 96.973 66.276 94.43 63.579C93.4472 62.591 92.5491 61.5222 91.745 60.384C90.9353 61.52 90.0322 62.5864 89.045 63.572C86.495 66.26 84.481 68.387 86.059 73.146C86.959 75.869 87.053 77.89 86.33 79.154C86.1932 79.4211 86.0024 79.6568 85.7696 79.8461C85.5369 80.0355 85.2673 80.1744 84.978 80.254C84.8672 80.2783 84.7527 80.2804 84.6411 80.2604C84.5295 80.2403 84.4229 80.1984 84.3275 80.1371C84.2321 80.0758 84.1498 79.9963 84.0852 79.9031C84.0205 79.8099 83.9749 79.7049 83.951 79.594C83.9026 79.37 83.9452 79.136 84.0693 78.9434C84.1935 78.7508 84.389 78.6154 84.613 78.567C84.922 78.439 85.607 77.284 84.413 73.69C82.513 67.947 85.193 65.117 87.788 62.38C89.0428 61.1797 90.1136 59.8008 90.966 58.288C91.0458 58.1539 91.159 58.0429 91.2946 57.9658C91.4302 57.8887 91.5835 57.8481 91.7395 57.8481C91.8955 57.8481 92.0488 57.8887 92.1844 57.9658C92.32 58.0429 92.4333 58.1539 92.513 58.288C93.3612 59.8028 94.428 61.1843 95.679 62.388C98.267 65.132 100.942 67.97 99.021 73.707C97.821 77.298 98.501 78.454 98.864 78.596C98.9733 78.6206 99.0766 78.6667 99.1679 78.7317C99.2591 78.7967 99.3365 78.8792 99.3955 78.9745C99.4544 79.0698 99.4938 79.1758 99.5112 79.2865C99.5286 79.3972 99.5238 79.5102 99.497 79.619C99.4509 79.8127 99.3407 79.9852 99.1842 80.1083C99.0277 80.2314 98.8341 80.2979 98.635 80.297Z" fill="#0D6963"/>
<path d="M53.594 138.147C53.367 138.147 53.1423 138.101 52.9327 138.014C52.7232 137.927 52.5328 137.799 52.3726 137.638C52.2125 137.478 52.0855 137.287 51.9991 137.077C51.9127 136.867 51.8685 136.642 51.869 136.415V132.957C51.8694 132.73 51.9145 132.505 52.0018 132.296C52.089 132.086 52.2168 131.896 52.3776 131.736C52.5384 131.575 52.7293 131.449 52.9392 131.362C53.1491 131.276 53.374 131.231 53.601 131.232C53.828 131.232 54.0527 131.277 54.2624 131.364C54.472 131.451 54.6624 131.579 54.8226 131.74C54.9828 131.9 55.1098 132.091 55.1962 132.301C55.2825 132.511 55.3267 132.736 55.326 132.963V136.421C55.3247 136.879 55.1416 137.319 54.8169 137.642C54.4922 137.966 54.0524 138.147 53.594 138.147ZM105.459 138.222C105.232 138.222 105.007 138.177 104.797 138.09C104.588 138.003 104.397 137.875 104.237 137.714C104.076 137.554 103.949 137.363 103.863 137.153C103.776 136.943 103.732 136.718 103.732 136.491L103.737 133.033C103.738 132.574 103.921 132.135 104.246 131.811C104.57 131.487 105.01 131.306 105.469 131.306C105.696 131.306 105.921 131.352 106.13 131.439C106.34 131.526 106.53 131.654 106.69 131.815C106.851 131.975 106.977 132.166 107.064 132.376C107.15 132.586 107.195 132.811 107.194 133.038L107.189 136.496C107.189 136.723 107.144 136.948 107.057 137.157C106.97 137.367 106.843 137.558 106.682 137.718C106.521 137.878 106.331 138.005 106.121 138.092C105.911 138.178 105.686 138.223 105.459 138.222ZM77.797 138.182C77.3386 138.181 76.8993 137.998 76.5756 137.674C76.2518 137.349 76.07 136.909 76.07 136.451L76.075 132.993C76.0758 132.534 76.2587 132.095 76.5835 131.771C76.9083 131.447 77.3483 131.265 77.807 131.266C78.034 131.266 78.2587 131.312 78.4683 131.399C78.6778 131.486 78.8682 131.614 79.0284 131.775C79.1886 131.935 79.3155 132.126 79.4019 132.336C79.4883 132.546 79.5325 132.771 79.532 132.998L79.527 136.456C79.5269 136.683 79.482 136.908 79.395 137.117C79.3079 137.327 79.1804 137.517 79.0198 137.678C78.8591 137.838 78.6684 137.965 78.4586 138.051C78.2488 138.138 78.024 138.182 77.797 138.182ZM129.665 138.258C129.207 138.257 128.767 138.074 128.444 137.75C128.12 137.425 127.938 136.985 127.938 136.527L127.943 133.069C127.944 132.61 128.127 132.171 128.451 131.847C128.776 131.523 129.216 131.341 129.675 131.342C129.902 131.342 130.127 131.387 130.336 131.475C130.546 131.562 130.736 131.689 130.896 131.85C131.056 132.011 131.183 132.202 131.27 132.411C131.356 132.621 131.4 132.846 131.4 133.073L131.395 136.531C131.395 136.758 131.35 136.983 131.263 137.193C131.176 137.402 131.049 137.593 130.888 137.753C130.727 137.914 130.537 138.041 130.327 138.127C130.117 138.214 129.892 138.258 129.665 138.258Z" fill="#0D6963"/>
<path d="M94.221 139.071C94.1075 139.071 93.995 139.048 93.8902 139.005C93.7854 138.961 93.6902 138.897 93.61 138.817C93.5299 138.736 93.4663 138.641 93.4231 138.536C93.3799 138.431 93.3577 138.319 93.358 138.205L93.374 128.095L92.05 126.102H91.25L89.921 128.092L89.905 138.202C89.905 138.316 89.8826 138.428 89.839 138.533C89.7955 138.638 89.7317 138.733 89.6512 138.814C89.5708 138.894 89.4753 138.958 89.3703 139.001C89.2652 139.044 89.1526 139.066 89.039 139.066C88.8098 139.065 88.5903 138.974 88.4286 138.811C88.2668 138.649 88.176 138.429 88.176 138.2L88.192 127.827C88.1916 127.656 88.2421 127.49 88.337 127.348L90.069 124.756C90.1487 124.638 90.2561 124.541 90.3818 124.474C90.5074 124.407 90.6476 124.372 90.79 124.372H92.519C92.6611 124.372 92.8009 124.408 92.926 124.475C93.0511 124.542 93.1576 124.639 93.236 124.758L94.961 127.358C95.056 127.5 95.1064 127.668 95.106 127.839L95.09 138.212C95.0893 138.325 95.0663 138.438 95.0223 138.542C94.9783 138.647 94.9141 138.742 94.8334 138.821C94.7527 138.901 94.6571 138.964 94.552 139.007C94.4469 139.05 94.3345 139.072 94.221 139.071Z" fill="#0D6963"/>
<path d="M39.762 140.065L1.727 140.01C1.49991 140.01 1.27507 139.965 1.06534 139.878C0.855608 139.791 0.6651 139.663 0.504707 139.502C0.344314 139.342 0.217182 139.151 0.130581 138.941C0.0439803 138.731 -0.000391691 138.506 2.6049e-06 138.279L0.0260026 120.99C0.026002 120.763 0.0708044 120.538 0.157844 120.328C0.244884 120.118 0.372452 119.928 0.533243 119.767C0.694033 119.607 0.884889 119.48 1.09488 119.393C1.30487 119.307 1.52987 119.262 1.757 119.263L39.792 119.318C40.2506 119.319 40.69 119.502 41.0138 119.827C41.3376 120.152 41.5193 120.591 41.519 121.05L41.493 138.339C41.4927 138.566 41.4478 138.791 41.3606 139C41.2735 139.21 41.1459 139.4 40.9851 139.561C40.8244 139.721 40.6336 139.848 40.4237 139.935C40.2139 140.021 39.989 140.065 39.762 140.065ZM3.462 136.555L38.039 136.605L38.06 122.774L3.483 122.724L3.462 136.555ZM39.795 117.59L1.76 117.535C1.53291 117.535 1.30807 117.49 1.09834 117.403C0.888608 117.316 0.6981 117.188 0.537707 117.027C0.377314 116.867 0.250182 116.676 0.163581 116.466C0.0769803 116.256 0.0326083 116.031 0.0330026 115.804L0.0640026 95.058C0.064002 94.8309 0.108804 94.606 0.195844 94.3962C0.282884 94.1864 0.410452 93.9958 0.571243 93.8354C0.732033 93.675 0.922889 93.5479 1.13288 93.4613C1.34287 93.3748 1.56787 93.3305 1.795 93.331L39.83 93.386C40.2886 93.3871 40.728 93.57 41.0518 93.8948C41.3756 94.2195 41.5573 94.6594 41.557 95.118L41.526 115.864C41.5257 116.091 41.4808 116.316 41.3936 116.525C41.3065 116.735 41.1789 116.925 41.0181 117.086C40.8574 117.246 40.6666 117.373 40.4567 117.46C40.2469 117.546 40.022 117.59 39.795 117.59ZM3.495 114.08L38.072 114.13L38.098 96.841L3.521 96.791L3.495 114.08ZM36.372 91.652L5.253 91.607C5.02608 91.6066 4.80145 91.5615 4.59195 91.4743C4.38245 91.3871 4.19218 91.2595 4.032 91.0988C3.87182 90.938 3.74487 90.7473 3.65839 90.5375C3.57191 90.3277 3.52761 90.1029 3.528 89.876L3.561 67.401C3.56113 67.1739 3.60603 66.9491 3.69311 66.7393C3.7802 66.5296 3.90777 66.3391 4.06854 66.1787C4.2293 66.0183 4.4201 65.8912 4.63003 65.8046C4.83997 65.718 5.06491 65.6736 5.292 65.674L36.411 65.719C36.6381 65.7193 36.863 65.7643 37.0727 65.8515C37.2825 65.9387 37.473 66.0663 37.6334 66.2272C37.7937 66.388 37.9209 66.5789 38.0074 66.7889C38.094 66.9989 38.1384 67.2239 38.138 67.451L38.105 89.926C38.1049 90.1532 38.0599 90.3782 37.9727 90.588C37.8855 90.7978 37.7577 90.9883 37.5967 91.1487C37.4357 91.309 37.2447 91.436 37.0345 91.5224C36.8244 91.6087 36.5992 91.6528 36.372 91.652ZM6.987 88.152L34.649 88.192L34.677 69.175L7.017 69.135L6.987 88.152ZM32.955 63.984L8.755 63.948C8.29661 63.9469 7.85735 63.7641 7.53359 63.4396C7.20982 63.1151 7.028 62.6754 7.028 62.217L7.075 31.098C7.07513 30.8709 7.12003 30.6461 7.20711 30.4363C7.2942 30.2266 7.42177 30.0361 7.58254 29.8757C7.7433 29.7153 7.9341 29.5882 8.14404 29.5016C8.35397 29.415 8.57891 29.3706 8.806 29.371L33.006 29.407C33.2331 29.4071 33.4579 29.452 33.6677 29.5391C33.8774 29.6262 34.0679 29.7538 34.2283 29.9145C34.3887 30.0753 34.5158 30.2661 34.6024 30.476C34.689 30.686 34.7334 30.9109 34.733 31.138L34.686 62.257C34.6859 62.4841 34.641 62.7089 34.5539 62.9187C34.4668 63.1284 34.3392 63.3189 34.1785 63.4793C34.0177 63.6397 33.8269 63.7668 33.617 63.8534C33.407 63.94 33.1821 63.9844 32.955 63.984ZM10.485 60.492L31.231 60.523L31.271 32.861L10.525 32.832L10.485 60.492Z" fill="#0D6963"/>
<path d="M31.276 31.13C31.0489 31.1299 30.8241 31.085 30.6143 30.9979C30.4046 30.9108 30.2141 30.7832 30.0537 30.6225C29.8933 30.4617 29.7662 30.2709 29.6796 30.061C29.593 29.851 29.5486 29.6261 29.549 29.399C29.554 26.505 28.105 25.224 26.103 23.45C24.0089 21.8502 22.3775 19.7226 21.376 17.285H20.468C19.4592 19.7198 17.8213 21.8426 15.722 23.436C13.715 25.205 12.264 26.481 12.259 29.375C12.2582 29.8335 12.0755 30.2729 11.7509 30.5967C11.4263 30.9205 10.9865 31.1023 10.528 31.102C10.0701 31.1009 9.63139 30.9183 9.308 30.5942C8.98461 30.27 8.803 29.8309 8.803 29.373C8.81 24.921 11.27 22.755 13.44 20.845C15.186 19.308 16.84 17.856 17.52 15.136C17.6143 14.7616 17.8313 14.4295 18.1363 14.1928C18.4414 13.9561 18.8169 13.8284 19.203 13.83L22.661 13.835C23.0466 13.8353 23.421 13.9647 23.7245 14.2024C24.0281 14.4402 24.2433 14.7727 24.336 15.147C25.014 17.868 26.658 19.326 28.401 20.868C30.566 22.784 33.019 24.957 33.012 29.41C33.011 29.6369 32.9652 29.8614 32.8774 30.0707C32.7896 30.2799 32.6614 30.4698 32.5002 30.6295C32.339 30.7893 32.1479 30.9157 31.9379 31.0015C31.7278 31.0874 31.5029 31.1311 31.276 31.13Z" fill="#0D6963"/>
<path d="M20.922 17.289C20.695 17.2887 20.4704 17.2437 20.2608 17.1566C20.0512 17.0694 19.8609 16.9418 19.7007 16.7811C19.5405 16.6203 19.4136 16.4295 19.3271 16.2197C19.2407 16.0098 19.1965 15.785 19.197 15.558L19.218 1.727C19.2181 1.49991 19.263 1.27507 19.3501 1.06534C19.4372 0.855608 19.5648 0.6651 19.7255 0.504707C19.8863 0.344314 20.0771 0.217182 20.287 0.130581C20.497 0.0439803 20.7219 -0.000391691 20.949 2.6049e-06C21.4076 0.00106219 21.847 0.18404 22.1708 0.508767C22.4946 0.833494 22.6763 1.27343 22.676 1.732L22.655 15.563C22.6547 15.7902 22.6097 16.0151 22.5224 16.2248C22.4351 16.4346 22.3074 16.625 22.1464 16.7854C21.9854 16.9457 21.7945 17.0727 21.5844 17.1591C21.3743 17.2455 21.1492 17.2897 20.922 17.289Z" fill="#0D6963"/>
<path d="M22.661 12.106L19.203 12.101C18.7443 12.1002 18.3048 11.9173 17.9809 11.5925C17.6571 11.2677 17.4755 10.8277 17.476 10.369C17.4771 9.91062 17.6601 9.47141 17.9849 9.14794C18.3097 8.82447 18.7496 8.64321 19.208 8.644L22.666 8.649C22.8929 8.6494 23.1176 8.69448 23.3271 8.78169C23.5366 8.86889 23.7268 8.9965 23.887 9.15724C24.0472 9.31798 24.1741 9.50869 24.2606 9.7185C24.3471 9.9283 24.3914 10.1531 24.391 10.38C24.3907 10.6069 24.3458 10.8316 24.2587 11.0411C24.1716 11.2507 24.0441 11.441 23.8835 11.6013C23.7228 11.7616 23.5322 11.8886 23.3224 11.9752C23.1127 12.0618 22.8879 12.1063 22.661 12.106ZM24.395 6.921L17.48 6.911C17.253 6.91087 17.0283 6.86597 16.8186 6.77885C16.609 6.69174 16.4186 6.56414 16.2584 6.40335C16.0982 6.24256 15.9712 6.05174 15.8849 5.84182C15.7985 5.6319 15.7543 5.407 15.755 5.18C15.7551 4.95291 15.8 4.72807 15.8871 4.51834C15.9742 4.30861 16.1018 4.1181 16.2625 3.95771C16.4233 3.79731 16.6141 3.67018 16.824 3.58358C17.034 3.49698 17.2589 3.45261 17.486 3.453L24.401 3.463C24.8596 3.46406 25.299 3.64704 25.6228 3.97177C25.9466 4.29649 26.1283 4.73643 26.128 5.195C26.1276 5.42214 26.0825 5.64698 25.9951 5.85667C25.9078 6.06635 25.7801 6.25678 25.6191 6.41707C25.4582 6.57735 25.2672 6.70436 25.0572 6.79083C24.8472 6.87729 24.6221 6.92153 24.395 6.921ZM39.095 96.846L2.326 96.786C1.89418 96.7575 1.49116 96.5594 1.20475 96.2349C0.918346 95.9105 0.771783 95.486 0.797003 95.054C0.772936 94.6221 0.920764 94.1983 1.20819 93.8751C1.49562 93.5519 1.89929 93.3556 2.331 93.329L39.1 93.389C39.5318 93.4176 39.9349 93.6154 40.2216 93.9396C40.5083 94.2637 40.6554 94.688 40.631 95.12C40.6545 95.5522 40.5063 95.9761 40.2186 96.2994C39.9308 96.6227 39.527 96.8192 39.095 96.846ZM36.559 69.18L5.097 69.13C4.65915 69.108 4.24787 68.9134 3.95323 68.5887C3.65859 68.2641 3.50461 67.8359 3.525 67.398C3.50573 66.9606 3.6607 66.5333 3.95594 66.2099C4.25119 65.8866 4.66261 65.6935 5.1 65.673L36.564 65.723C37.0017 65.745 37.4128 65.9395 37.7074 66.2639C38.002 66.5883 38.1561 67.0163 38.136 67.454C38.155 67.8918 37.9997 68.3193 37.7041 68.6428C37.4085 68.9663 36.9967 69.1595 36.559 69.18Z" fill="#0D6963"/>
<path d="M36.442 69.177C36.4304 69.1752 36.4186 69.1752 36.407 69.177L5.289 69.132C4.9464 69.133 4.61126 69.032 4.3263 68.8417C4.04135 68.6515 3.81949 68.3808 3.689 68.064C3.55806 67.748 3.52399 67.4001 3.59112 67.0647C3.65824 66.7292 3.82353 66.4213 4.066 66.18L9.259 61C9.58514 60.6785 10.025 60.4988 10.483 60.5L31.229 60.531C31.456 60.531 31.6807 60.5759 31.8902 60.6631C32.0998 60.7503 32.29 60.878 32.45 61.039L37.441 66.044C37.6663 66.2041 37.8499 66.4159 37.9766 66.6616C38.1032 66.9072 38.1692 67.1796 38.169 67.456C38.1674 67.913 37.9848 68.3507 37.6611 68.6733C37.3374 68.9959 36.899 69.177 36.442 69.177ZM9.468 65.677L32.239 65.71L30.514 63.978L11.199 63.95L9.468 65.677ZM39.858 96.844C39.8464 96.8431 39.8347 96.8431 39.823 96.844L1.788 96.789C1.44543 96.7899 1.11035 96.6888 0.825418 96.4986C0.540489 96.3084 0.318601 96.0377 0.188003 95.721C0.0577148 95.4047 0.0241815 95.0569 0.091646 94.7215C0.159111 94.3861 0.324541 94.0783 0.567003 93.837L5.76 88.659C5.92065 88.4992 6.11133 88.3727 6.32105 88.2869C6.53078 88.2011 6.75541 88.1576 6.982 88.159L34.644 88.199C34.8711 88.1991 35.0959 88.2441 35.3056 88.3312C35.5153 88.4184 35.7058 88.5461 35.866 88.707L40.857 93.712C41.0823 93.8721 41.2659 94.0839 41.3926 94.3296C41.5192 94.5752 41.5852 94.8476 41.585 95.124C41.5829 95.5807 41.4 96.0181 41.0764 96.3404C40.7528 96.6627 40.3147 96.8437 39.858 96.844ZM5.967 93.338L35.655 93.381L33.928 91.649L7.7 91.611L5.967 93.338ZM39.785 122.777L1.75 122.722C1.52308 122.722 1.29845 122.677 1.08895 122.589C0.879454 122.502 0.689181 122.374 0.529 122.214C0.368819 122.053 0.241866 121.862 0.15539 121.653C0.068914 121.443 0.0246083 121.218 0.0250026 120.991L0.0320026 115.804C0.0321337 115.577 0.0770259 115.352 0.164112 115.142C0.251199 114.933 0.378771 114.742 0.539536 114.582C0.7003 114.421 0.891104 114.294 1.10104 114.208C1.31097 114.121 1.53591 114.077 1.763 114.077L39.798 114.132C40.0251 114.132 40.25 114.177 40.4597 114.264C40.6695 114.352 40.86 114.479 41.0204 114.64C41.1807 114.801 41.3079 114.992 41.3944 115.202C41.481 115.412 41.5254 115.637 41.525 115.864L41.518 121.051C41.5169 121.51 41.3338 121.949 41.0088 122.273C40.6839 122.596 40.2437 122.778 39.785 122.777ZM3.485 119.267L38.062 119.317V117.588L3.485 117.538V119.267ZM33.048 32.869L8.562 32.829C8.13062 32.7999 7.7282 32.6016 7.44238 32.2772C7.15655 31.9528 7.01049 31.5286 7.036 31.097C7.01165 30.6654 7.15912 30.2417 7.44617 29.9185C7.73323 29.5953 8.13655 29.3988 8.568 29.372L33.054 29.412C33.4855 29.4408 33.8883 29.6388 34.1746 29.963C34.4609 30.2871 34.6077 30.7112 34.583 31.143C34.6068 31.5751 34.4588 31.999 34.1712 32.3224C33.8837 32.6457 33.4799 32.8422 33.048 32.869ZM33.04 39.784L8.554 39.744C8.12244 39.7152 7.71977 39.517 7.43373 39.1925C7.1477 38.8681 7.0015 38.4438 7.027 38.012C7.00265 37.5804 7.15012 37.1567 7.43717 36.8335C7.72423 36.5103 8.12755 36.3138 8.559 36.287L33.045 36.327C33.4766 36.3556 33.8795 36.5535 34.1659 36.8777C34.4523 37.2019 34.599 37.6261 34.574 38.058C34.5981 38.49 34.4503 38.9139 34.1629 39.2373C33.8755 39.5607 33.4718 39.7572 33.04 39.784Z" fill="#0D6963"/>
<path d="M39.066 122.779L1.62 122.718C1.18425 122.694 0.775842 122.498 0.484074 122.173C0.192305 121.849 0.0409145 121.422 0.0630026 120.986C0.0423199 120.55 0.195065 120.124 0.487808 119.801C0.780551 119.478 1.18945 119.284 1.625 119.261L39.071 119.321C39.5067 119.345 39.9152 119.541 40.2072 119.865C40.4993 120.189 40.6513 120.616 40.63 121.052C40.6507 121.488 40.4977 121.915 40.2046 122.238C39.9115 122.562 39.5021 122.756 39.066 122.779Z" fill="#0D6963"/>
<path d="M36.754 84.738L5.087 84.69C4.86768 84.6801 4.66126 84.5836 4.51311 84.4216C4.36497 84.2595 4.28724 84.0453 4.297 83.826C4.28779 83.6063 4.36611 83.392 4.51479 83.23C4.66346 83.068 4.87034 82.9716 5.09 82.962L36.756 83.01C36.9754 83.0209 37.1816 83.118 37.3297 83.2802C37.4779 83.4424 37.556 83.6565 37.547 83.876C37.5557 84.0953 37.4771 84.3092 37.3285 84.4707C37.1799 84.6323 36.9733 84.7284 36.754 84.738ZM33.118 57.072L8.806 57.034C8.59086 57.0199 8.39011 56.921 8.24781 56.759C8.10552 56.597 8.0333 56.3852 8.047 56.17C8.03411 55.9549 8.10674 55.7433 8.24909 55.5815C8.39144 55.4197 8.59197 55.3207 8.807 55.306L33.121 55.344C33.336 55.3594 33.5363 55.459 33.6784 55.6211C33.8205 55.7832 33.8929 55.9948 33.88 56.21C33.8926 56.4252 33.8195 56.6366 33.6768 56.7981C33.534 56.9597 33.3331 57.0581 33.118 57.072ZM16.458 115.83L9.543 115.82C9.42942 115.82 9.31695 115.798 9.21205 115.754C9.10715 115.71 9.01188 115.647 8.93171 115.566C8.85153 115.486 8.78803 115.39 8.74483 115.285C8.70164 115.18 8.67961 115.068 8.68 114.954L8.708 95.937C8.70813 95.8235 8.73065 95.711 8.77425 95.6062C8.81785 95.5014 8.88169 95.4061 8.96212 95.326C9.04255 95.2458 9.13799 95.1823 9.24298 95.1391C9.34797 95.0959 9.46046 95.0737 9.574 95.074L16.489 95.084C16.6025 95.0841 16.715 95.1066 16.8198 95.1502C16.9246 95.1938 17.0199 95.2577 17.1 95.3381C17.1802 95.4185 17.2437 95.514 17.2869 95.619C17.3301 95.724 17.3523 95.8365 17.352 95.95L17.324 114.967C17.3232 115.196 17.2316 115.416 17.0693 115.577C16.907 115.739 16.6872 115.83 16.458 115.83ZM10.409 114.092L15.596 114.099L15.622 96.81L10.435 96.803L10.409 114.092ZM32.016 115.847L25.101 115.837C24.9876 115.837 24.8752 115.815 24.7704 115.771C24.6655 115.728 24.5703 115.664 24.4901 115.584C24.4099 115.504 24.3464 115.409 24.3031 115.304C24.2599 115.199 24.2377 115.086 24.238 114.973L24.266 95.956C24.266 95.8424 24.2884 95.7299 24.332 95.6249C24.3755 95.5199 24.4393 95.4246 24.5198 95.3444C24.6002 95.2641 24.6957 95.2005 24.8008 95.1572C24.9058 95.1139 25.0184 95.0917 25.132 95.092L32.047 95.102C32.2762 95.1028 32.4957 95.1944 32.6574 95.3567C32.8192 95.519 32.91 95.7388 32.91 95.968L32.882 114.985C32.8812 115.214 32.7896 115.433 32.6272 115.595C32.4649 115.757 32.2451 115.847 32.016 115.847ZM25.967 114.109L31.154 114.118L31.18 96.829L25.993 96.82L25.967 114.109ZM16.571 37.166C16.3417 37.1655 16.1219 37.074 15.9599 36.9117C15.798 36.7493 15.707 36.5293 15.707 36.3L15.713 32.842C15.7135 32.6128 15.805 32.3931 15.9674 32.2313C16.1298 32.0695 16.3498 31.9787 16.579 31.979C16.6925 31.9789 16.8048 32.0011 16.9096 32.0445C17.0145 32.0879 17.1097 32.1516 17.1899 32.2318C17.2701 32.3121 17.3336 32.4074 17.3769 32.5123C17.4201 32.6172 17.4423 32.7296 17.442 32.843L17.437 36.301C17.4371 36.4147 17.4148 36.5273 17.3713 36.6324C17.3278 36.7375 17.264 36.8329 17.1836 36.9133C17.1031 36.9937 17.0076 37.0574 16.9025 37.1007C16.7974 37.1441 16.6847 37.1663 16.571 37.166ZM25.216 37.178C25.1024 37.178 24.9899 37.1556 24.8849 37.112C24.7799 37.0685 24.6846 37.0047 24.6044 36.9242C24.5241 36.8438 24.4605 36.7483 24.4172 36.6433C24.3739 36.5382 24.3517 36.4256 24.352 36.312L24.357 32.854C24.3578 32.6248 24.4494 32.4053 24.6117 32.2436C24.774 32.0818 24.9938 31.991 25.223 31.991C25.3366 31.991 25.4491 32.0134 25.554 32.057C25.6589 32.1005 25.7541 32.1644 25.8343 32.2448C25.9145 32.3253 25.978 32.4208 26.0212 32.5258C26.0644 32.6309 26.0864 32.7434 26.086 32.857L26.081 36.315C26.081 36.4285 26.0586 36.5409 26.0151 36.6457C25.9716 36.7506 25.9079 36.8458 25.8275 36.9259C25.7472 37.0061 25.6518 37.0696 25.5469 37.1129C25.4419 37.1561 25.3295 37.1783 25.216 37.178Z" fill="#0D6963"/>
<path d="M20.745 140.035C20.5179 140.035 20.2931 139.99 20.0833 139.903C19.8736 139.816 19.6831 139.688 19.5227 139.527C19.3623 139.367 19.2352 139.176 19.1486 138.966C19.062 138.756 19.0176 138.531 19.018 138.304L19.03 129.66C19.0308 129.201 19.2137 128.762 19.5385 128.438C19.8633 128.114 20.3033 127.932 20.762 127.933C20.989 127.933 21.2137 127.979 21.4233 128.066C21.6328 128.153 21.8232 128.281 21.9834 128.442C22.1436 128.602 22.2705 128.793 22.3569 129.003C22.4433 129.213 22.4875 129.438 22.487 129.665L22.475 138.309C22.4747 138.536 22.4298 138.761 22.3427 138.97C22.2556 139.18 22.1281 139.37 21.9675 139.53C21.8068 139.691 21.6162 139.818 21.4064 139.904C21.1967 139.991 20.9719 140.035 20.745 140.035ZM34.575 140.058C34.3479 140.058 34.123 140.013 33.9133 139.926C33.7035 139.838 33.513 139.711 33.3526 139.55C33.1923 139.389 33.0652 139.198 32.9786 138.988C32.892 138.778 32.8476 138.553 32.848 138.326L32.86 129.682C32.8613 129.224 33.0445 128.785 33.3692 128.461C33.6939 128.138 34.1337 127.956 34.592 127.957C34.8189 127.957 35.0436 128.002 35.2531 128.09C35.4626 128.177 35.6528 128.305 35.813 128.465C35.9732 128.626 36.1001 128.817 36.1866 129.026C36.2731 129.236 36.3174 129.461 36.317 129.688L36.305 138.332C36.3047 138.559 36.2598 138.784 36.1727 138.993C36.0856 139.203 35.9581 139.393 35.7975 139.553C35.6368 139.714 35.4462 139.841 35.2364 139.927C35.0267 140.014 34.8019 140.058 34.575 140.058ZM6.915 140.018C6.68786 140.018 6.463 139.973 6.25326 139.886C6.04353 139.798 5.85303 139.671 5.69265 139.51C5.53227 139.349 5.40515 139.158 5.31856 138.948C5.23197 138.738 5.18761 138.513 5.188 138.286L5.2 129.642C5.2004 129.415 5.24552 129.19 5.33278 128.981C5.42005 128.771 5.54775 128.581 5.7086 128.421C5.86944 128.26 6.06027 128.134 6.27019 128.047C6.48011 127.961 6.70499 127.916 6.932 127.917C7.159 127.917 7.38375 127.962 7.59336 128.049C7.80298 128.136 7.99336 128.264 8.15359 128.425C8.31383 128.585 8.44077 128.776 8.52715 128.986C8.61353 129.196 8.65766 129.421 8.657 129.648L8.645 138.292C8.64394 138.75 8.46121 139.189 8.13689 139.513C7.81256 139.836 7.37314 140.018 6.915 140.018Z" fill="#0D6963"/>
<path d="M17.445 30.898C17.3315 30.8983 17.2191 30.8761 17.1142 30.8328C17.0093 30.7894 16.914 30.7258 16.8338 30.6455C16.7536 30.5652 16.6901 30.4698 16.6469 30.3649C16.6037 30.2599 16.5816 30.1475 16.582 30.034C16.5014 27.487 16.9832 24.9536 17.993 22.614C18.8356 20.6243 19.3399 18.5079 19.485 16.352C19.5029 16.1356 19.6016 15.934 19.7616 15.7872C19.9215 15.6404 20.1309 15.5593 20.348 15.56H21.503C21.7207 15.5604 21.9302 15.6431 22.0895 15.7915C22.2488 15.9398 22.3461 16.1429 22.362 16.36C22.4924 18.4863 22.9915 20.5737 23.837 22.529C24.8486 24.8252 25.3239 27.3217 25.227 29.829C25.2265 30.0582 25.135 30.2779 24.9726 30.4397C24.8102 30.6015 24.5902 30.6923 24.361 30.692C24.2474 30.692 24.135 30.6696 24.0301 30.626C23.9252 30.5825 23.8299 30.5186 23.7497 30.4382C23.6695 30.3577 23.606 30.2622 23.5628 30.1572C23.5196 30.0521 23.4976 29.9396 23.498 29.826C23.593 27.5389 23.1598 25.2606 22.232 23.168C21.6253 21.7573 21.1853 20.2807 20.921 18.768C20.648 20.3033 20.2064 21.8037 19.604 23.242C18.6731 25.382 18.2314 27.7027 18.311 30.035C18.3109 30.1485 18.2884 30.261 18.2448 30.3658C18.2012 30.4706 18.1373 30.5659 18.0569 30.646C17.9765 30.7262 17.881 30.7897 17.776 30.8329C17.671 30.8761 17.5585 30.8983 17.445 30.898Z" fill="#0D6963"/>
<path d="M172.965 140.153L141.846 140.108C141.587 140.107 141.332 140.049 141.098 139.936C140.865 139.824 140.659 139.662 140.497 139.46C140.336 139.257 140.222 139.021 140.164 138.768C140.106 138.516 140.106 138.254 140.162 138.001L143.642 122.447C143.728 122.063 143.942 121.721 144.249 121.475C144.556 121.23 144.938 121.096 145.331 121.097L169.531 121.132C169.925 121.133 170.306 121.267 170.613 121.514C170.919 121.761 171.132 122.105 171.217 122.489L174.652 138.054C174.708 138.307 174.707 138.569 174.647 138.821C174.588 139.073 174.473 139.308 174.311 139.51C174.149 139.711 173.943 139.872 173.711 139.984C173.478 140.095 173.223 140.153 172.965 140.153ZM144.007 136.653L170.816 136.691L168.143 124.586L146.714 124.555L144.007 136.653Z" fill="#0D6963"/>
<path d="M166.077 124.586L148.788 124.562C148.561 124.562 148.336 124.516 148.127 124.429C147.917 124.342 147.727 124.214 147.567 124.053C147.406 123.893 147.28 123.702 147.193 123.492C147.107 123.282 147.062 123.057 147.063 122.83L147.07 117.643C147.07 117.416 147.116 117.191 147.203 116.982C147.29 116.772 147.418 116.582 147.579 116.422C147.739 116.261 147.93 116.135 148.14 116.048C148.35 115.962 148.575 115.917 148.802 115.918L166.091 115.942C166.318 115.942 166.543 115.988 166.752 116.075C166.962 116.162 167.152 116.29 167.312 116.451C167.473 116.611 167.599 116.802 167.686 117.012C167.772 117.222 167.817 117.447 167.816 117.674L167.809 122.861C167.809 123.088 167.763 123.313 167.676 123.522C167.589 123.732 167.461 123.922 167.3 124.082C167.14 124.243 166.949 124.369 166.739 124.456C166.529 124.542 166.304 124.587 166.077 124.586ZM150.523 121.106L164.354 121.127V119.398L150.523 119.377V121.106ZM138.528 46.748C138.301 46.7476 138.076 46.7025 137.867 46.6152C137.657 46.528 137.467 46.4003 137.307 46.2394C137.146 46.0786 137.02 45.8877 136.933 45.6778C136.847 45.4679 136.802 45.243 136.803 45.016L136.831 25.999C136.831 25.7717 136.876 25.5466 136.964 25.3367C137.051 25.1268 137.179 24.9363 137.34 24.7759C137.501 24.6156 137.693 24.4886 137.903 24.4023C138.113 24.316 138.339 24.2721 138.566 24.273C138.793 24.2733 139.018 24.3182 139.228 24.4054C139.437 24.4925 139.628 24.6201 139.788 24.7808C139.948 24.9416 140.076 25.1323 140.162 25.3422C140.249 25.5521 140.293 25.7769 140.293 26.004L140.265 45.021C140.265 45.2485 140.219 45.4737 140.132 45.6837C140.044 45.8938 139.916 46.0844 139.755 46.2448C139.593 46.4053 139.402 46.5323 139.191 46.6186C138.981 46.705 138.756 46.7489 138.528 46.748Z" fill="#0D6963"/>
<path d="M141.985 46.753L135.07 46.743C134.841 46.7425 134.621 46.651 134.459 46.4886C134.297 46.3262 134.207 46.1062 134.207 45.877C134.207 45.7634 134.229 45.651 134.273 45.5461C134.317 45.4412 134.38 45.3459 134.461 45.2657C134.541 45.1855 134.637 45.122 134.742 45.0788C134.847 45.0356 134.959 45.0136 135.073 45.014L141.988 45.024C142.101 45.024 142.214 45.0464 142.318 45.0898C142.423 45.1332 142.518 45.1969 142.599 45.2771C142.679 45.3574 142.742 45.4526 142.786 45.5574C142.829 45.6623 142.851 45.7746 142.851 45.888C142.851 46.0017 142.829 46.1143 142.785 46.2194C142.742 46.3245 142.678 46.4199 142.598 46.5003C142.517 46.5807 142.422 46.6443 142.316 46.6877C142.211 46.7311 142.099 46.7533 141.985 46.753ZM164.354 119.398L150.523 119.377C150.296 119.377 150.071 119.332 149.861 119.245C149.652 119.157 149.461 119.03 149.301 118.869C149.141 118.708 149.013 118.518 148.927 118.308C148.84 118.098 148.796 117.873 148.796 117.646L148.825 97.616L147.604 96.392C147.282 96.066 147.102 95.626 147.104 95.168L147.123 82.053L145.899 80.834C145.578 80.5086 145.398 80.0694 145.399 79.612L145.411 71.683L142.465 68.727C142.254 68.5162 142.101 68.2541 142.021 67.9664C141.942 67.6787 141.939 67.3753 142.012 67.086L143.751 60.172C143.808 59.9402 143.913 59.7228 144.058 59.5334C144.204 59.3441 144.387 59.187 144.596 59.072C144.805 58.9575 145.036 58.8876 145.273 58.8668C145.511 58.846 145.75 58.8746 145.976 58.951C146.19 59.022 150.725 60.573 153.128 63.797L153.776 62.507C152.803 60.8894 152.307 59.0294 152.346 57.142C152.347 56.6836 152.53 56.2443 152.854 55.92L154.586 54.193C154.911 53.8716 155.351 53.6919 155.808 53.693L159.266 53.698C159.724 53.6998 160.163 53.8823 160.488 54.206L162.213 55.938C162.373 56.0987 162.499 56.2893 162.585 56.4991C162.671 56.7088 162.714 56.9334 162.713 57.16C162.747 59.048 162.246 60.9071 161.269 62.523L161.98 63.946C163.744 63.388 165.352 62.4234 166.674 61.13C166.999 60.8081 167.439 60.6282 167.896 60.63C170.904 60.63 171.347 64.968 171.343 67.551C171.341 67.7366 171.311 67.9208 171.253 68.097L169.605 73.014L169.598 77.92C169.597 78.3786 169.414 78.8182 169.09 79.1421C168.765 79.4659 168.325 79.6475 167.866 79.647L167.847 93.478C167.845 93.9361 167.663 94.375 167.339 94.699L166.115 95.92L166.082 117.679C166.08 118.136 165.897 118.573 165.573 118.895C165.249 119.217 164.811 119.398 164.354 119.398ZM152.254 115.921L162.627 115.937L162.656 95.191C162.658 94.7329 162.84 94.294 163.164 93.97L164.388 92.749L164.41 77.905C164.41 77.6779 164.455 77.4531 164.542 77.2433C164.629 77.0336 164.757 76.8431 164.918 76.6827C165.078 76.5223 165.269 76.3952 165.479 76.3086C165.689 76.222 165.914 76.1776 166.141 76.178L166.146 72.72C166.147 72.5344 166.177 72.35 166.236 72.174L167.88 67.266C167.862 66.457 167.776 65.6508 167.624 64.856C165.741 66.4233 163.412 67.3579 160.968 67.527C160.647 67.5265 160.332 67.4366 160.059 67.2674C159.786 67.0982 159.565 66.8564 159.422 66.569L157.698 63.108C157.535 62.7826 157.479 62.4142 157.538 62.0551C157.596 61.696 157.767 61.3646 158.025 61.108C158.757 60.1688 159.177 59.0239 159.225 57.834L158.537 57.146H156.512L155.822 57.832C155.867 59.0318 156.29 60.1867 157.03 61.132C157.274 61.3926 157.433 61.7208 157.486 62.0735C157.54 62.4262 157.485 62.7869 157.33 63.108L155.596 66.564C155.452 66.8508 155.231 67.0919 154.958 67.2603C154.685 67.4286 154.37 67.5175 154.049 67.517H152.32C151.999 67.5165 151.684 67.4266 151.411 67.2574C151.138 67.0882 150.917 66.8464 150.774 66.559C149.768 64.9763 148.314 63.7281 146.597 62.973L145.591 66.973L148.352 69.743C148.674 70.069 148.854 70.509 148.852 70.967L148.84 78.894L150.061 80.12C150.383 80.445 150.563 80.8845 150.561 81.342L150.542 94.457L151.763 95.681C152.084 96.0064 152.264 96.4456 152.263 96.903L152.254 115.921Z" fill="#0D6963"/>
<path d="M145.421 62.319C144.963 62.3177 144.523 62.135 144.199 61.811C142.038 59.6157 140.187 57.1346 138.699 54.437C138.381 53.799 136.794 50.509 136.799 48.474C136.799 48.2471 136.844 48.0225 136.932 47.813C137.019 47.6035 137.146 47.4132 137.307 47.253C137.468 47.0928 137.659 46.9659 137.868 46.8794C138.078 46.7929 138.303 46.7486 138.53 46.749C138.757 46.7493 138.982 46.7942 139.192 46.8814C139.401 46.9685 139.592 47.0961 139.752 47.2568C139.912 47.4176 140.04 47.6083 140.126 47.8182C140.213 48.0281 140.257 48.2529 140.257 48.48C140.541 50.0218 141.061 51.5108 141.797 52.895C143.121 55.2586 144.753 57.436 146.65 59.37C146.81 59.5308 146.937 59.7216 147.024 59.9316C147.11 60.1415 147.155 60.3665 147.154 60.5935C147.154 60.8206 147.109 61.0454 147.021 61.255C146.934 61.4645 146.806 61.6548 146.645 61.815C146.484 61.9753 146.293 62.1024 146.083 62.1889C145.873 62.2753 145.648 62.3196 145.421 62.319ZM174.81 62.361C174.469 62.3599 174.136 62.2583 173.852 62.069C173.608 61.906 167.901 58.02 167.91 51.978L167.92 45.063C167.92 44.7417 168.01 44.4269 168.179 44.1538C168.348 43.8807 168.59 43.6602 168.878 43.517C169.516 43.199 172.806 41.612 174.841 41.617C176.876 41.622 180.159 43.217 180.797 43.536C181.084 43.6801 181.325 43.901 181.493 44.1742C181.662 44.4474 181.751 44.7621 181.751 45.083L181.741 51.998C181.732 58.04 176.013 61.911 175.77 62.072C175.486 62.261 175.152 62.3615 174.81 62.361ZM171.377 46.161L171.368 51.979C171.363 54.909 173.517 57.266 174.815 58.421C176.115 57.27 178.278 54.921 178.283 51.988L178.292 46.174C177.201 45.6376 176.036 45.2668 174.836 45.074C173.636 45.2634 172.471 45.6311 171.379 46.165L171.377 46.161Z" fill="#0D6963"/>
<path d="M167.895 64.08C167.437 64.0792 166.998 63.8964 166.674 63.572C166.513 63.4116 166.386 63.221 166.299 63.0113C166.212 62.8015 166.167 62.5766 166.167 62.3495C166.167 62.1224 166.212 61.8975 166.299 61.6877C166.386 61.478 166.513 61.2874 166.674 61.127C168.142 59.659 169.553 57.757 169.632 57.137C169.633 56.9107 169.678 56.6868 169.765 56.4781C169.853 56.2693 169.98 56.08 170.141 55.9209C170.302 55.7617 170.493 55.636 170.703 55.5509C170.912 55.4658 171.137 55.423 171.363 55.425C171.823 55.4287 172.263 55.6145 172.586 55.9417C172.909 56.269 173.09 56.711 173.088 57.171C173.088 59.377 170.31 62.383 169.115 63.571C168.792 63.8957 168.353 64.0787 167.895 64.08ZM143.681 69.231C143.454 69.2306 143.229 69.1855 143.02 69.0983C142.81 69.0111 142.62 68.8835 142.46 68.7228C142.3 68.562 142.173 68.3713 142.086 68.1615C142 67.9517 141.956 67.7269 141.956 67.5C141.956 66.366 140.926 60.742 140.276 57.464C140.232 57.2413 140.232 57.012 140.276 56.7892C140.32 56.5664 140.408 56.3546 140.534 56.1658C140.66 55.977 140.822 55.8149 141.011 55.6888C141.2 55.5627 141.412 55.4751 141.635 55.431C141.858 55.3858 142.087 55.3851 142.31 55.4291C142.533 55.473 142.745 55.5607 142.934 55.6871C143.123 55.8135 143.285 55.976 143.41 56.1653C143.536 56.3546 143.623 56.5669 143.666 56.79C143.958 58.263 145.416 65.697 145.414 67.505C145.413 67.9636 145.23 68.4031 144.905 68.7268C144.58 69.0504 144.14 69.2318 143.681 69.231Z" fill="#0D6963"/>
<path d="M169.62 65.811C169.393 65.8106 169.168 65.7655 168.959 65.6783C168.749 65.5911 168.559 65.4635 168.399 65.3028C168.239 65.142 168.112 64.9513 168.025 64.7415C167.939 64.5317 167.895 64.3069 167.895 64.08C167.895 62.045 169.495 58.76 169.814 58.122C170.02 57.7129 170.38 57.4022 170.815 57.2581C171.25 57.1139 171.724 57.1481 172.134 57.353C172.544 57.5585 172.855 57.9183 173 58.3534C173.144 58.7884 173.11 59.2631 172.905 59.673C172.165 61.0558 171.641 62.5437 171.352 64.085C171.352 64.3121 171.306 64.5368 171.219 64.7464C171.132 64.9561 171.004 65.1464 170.843 65.3067C170.683 65.467 170.492 65.594 170.282 65.6805C170.072 65.7671 169.847 65.8114 169.62 65.811Z" fill="#0D6963"/>
</svg>
