<svg width="304" height="143" viewBox="0 0 304 143" fill="none" xmlns="http://www.w3.org/2000/svg">
<path d="M270.701 140.675H164.828C164.571 140.675 164.316 140.625 164.079 140.527C163.841 140.429 163.625 140.285 163.443 140.104C163.261 139.922 163.117 139.707 163.018 139.47C162.919 139.232 162.868 138.978 162.868 138.721V107.345C162.868 107.088 162.918 106.833 163.016 106.595C163.115 106.358 163.259 106.142 163.44 105.96C163.622 105.778 163.838 105.633 164.076 105.535C164.313 105.436 164.568 105.385 164.825 105.385H270.701C271.22 105.386 271.719 105.592 272.086 105.959C272.453 106.327 272.66 106.825 272.661 107.344V138.711C272.661 138.968 272.611 139.223 272.513 139.461C272.414 139.698 272.27 139.914 272.089 140.096C271.907 140.278 271.691 140.423 271.453 140.521C271.216 140.62 270.961 140.671 270.704 140.671L270.701 140.675ZM166.788 136.753H268.73V109.304H166.788V136.753Z" fill="#0D6963"/>
<path d="M243.255 109.304H192.271C192.014 109.304 191.759 109.254 191.522 109.156C191.284 109.058 191.068 108.914 190.886 108.733C190.704 108.551 190.56 108.336 190.461 108.099C190.362 107.861 190.311 107.607 190.311 107.35V81.855C190.311 81.5978 190.361 81.343 190.459 81.1053C190.558 80.8676 190.702 80.6516 190.883 80.4695C191.065 80.2875 191.281 80.1431 191.519 80.0445C191.756 79.9459 192.011 79.8951 192.268 79.895H243.247C243.767 79.8955 244.265 80.1022 244.632 80.4697C245 80.8371 245.206 81.3353 245.207 81.855V107.344C245.207 107.863 245.002 108.36 244.636 108.727C244.27 109.095 243.774 109.302 243.255 109.304ZM194.241 105.384H241.295V83.815H194.239L194.241 105.384ZM180.516 109.303H164.828C164.571 109.303 164.316 109.253 164.079 109.155C163.841 109.057 163.625 108.913 163.443 108.732C163.261 108.55 163.117 108.335 163.018 108.098C162.919 107.86 162.868 107.606 162.868 107.349V87.737C162.868 87.4798 162.918 87.225 163.016 86.9873C163.115 86.7496 163.259 86.5336 163.44 86.3515C163.622 86.1695 163.838 86.0251 164.076 85.9265C164.313 85.8279 164.568 85.7771 164.825 85.777H180.516C181.035 85.7778 181.533 85.9844 181.901 86.3516C182.268 86.7188 182.475 87.2166 182.476 87.736V107.346C182.476 107.865 182.27 108.363 181.904 108.73C181.537 109.098 181.039 109.304 180.52 109.305L180.516 109.303ZM166.791 105.983H178.555V88.722H166.788L166.791 105.983ZM270.343 109.303H254.658C254.401 109.303 254.146 109.253 253.909 109.155C253.671 109.057 253.455 108.913 253.273 108.732C253.091 108.55 252.947 108.335 252.848 108.098C252.749 107.86 252.698 107.606 252.698 107.349V87.737C252.698 87.4798 252.748 87.225 252.846 86.9873C252.945 86.7496 253.089 86.5336 253.27 86.3515C253.452 86.1695 253.668 86.0251 253.906 85.9265C254.143 85.8279 254.398 85.7771 254.655 85.777H270.343C270.862 85.7778 271.36 85.9844 271.728 86.3516C272.095 86.7188 272.302 87.2166 272.303 87.736V107.346C272.303 107.865 272.097 108.363 271.731 108.73C271.364 109.098 270.866 109.304 270.347 109.305L270.343 109.303ZM256.622 105.982H268.386V88.722H256.622V105.982Z" fill="#0D6963"/>
<path d="M241.29 83.815C241.033 83.8154 240.778 83.7652 240.541 83.6672C240.303 83.5692 240.087 83.4254 239.905 83.2439C239.723 83.0625 239.579 82.847 239.48 82.6097C239.381 82.3724 239.33 82.118 239.33 81.861C239.33 66.602 231.687 56.199 217.797 52.525C207.82 55.509 196.197 63.03 196.197 81.861C196.197 82.1187 196.146 82.3738 196.048 82.6118C195.949 82.8499 195.805 83.0662 195.622 83.2483C195.44 83.4305 195.224 83.5751 194.986 83.6737C194.748 83.7723 194.493 83.823 194.235 83.823C193.977 83.8229 193.723 83.772 193.485 83.6733C193.247 83.5747 193.031 83.4301 192.849 83.2479C192.667 83.0657 192.522 82.8495 192.424 82.6115C192.325 82.3735 192.275 82.1185 192.275 81.861C192.275 65.014 201.137 53.203 217.218 48.606C217.548 48.5124 217.897 48.5072 218.23 48.591C234.119 52.563 243.243 64.691 243.243 81.861C243.243 82.1182 243.193 82.373 243.095 82.6107C242.996 82.8484 242.852 83.0644 242.671 83.2465C242.489 83.4285 242.273 83.5729 242.035 83.6715C241.798 83.7701 241.543 83.8209 241.286 83.821L241.29 83.815ZM217.419 41.658C217.29 41.6585 217.163 41.6336 217.044 41.5848C216.925 41.5359 216.817 41.464 216.726 41.3732C216.635 41.2824 216.563 41.1745 216.513 41.0557C216.464 40.9369 216.439 40.8096 216.439 40.681V30.881C216.258 30.6207 216.188 30.2996 216.243 29.9877C216.299 29.6758 216.475 29.3984 216.734 29.216C216.995 29.036 217.316 28.9665 217.628 29.0227C217.94 29.0789 218.217 29.2562 218.399 29.516C218.539 29.7167 218.615 29.9556 218.615 30.2005C218.615 30.4454 218.539 30.6844 218.399 30.885V40.685C218.399 40.9449 218.296 41.1942 218.112 41.378C217.928 41.5617 217.679 41.665 217.419 41.665V41.658ZM172.978 65.49C172.294 65.49 171.741 65.148 171.741 64.724V57.067C171.741 56.644 172.941 55.372 172.981 55.386C173.021 55.4 174.218 56.643 174.218 57.067V64.724C174.218 65.147 173.662 65.49 172.981 65.49H172.978Z" fill="#0D6963"/>
<path d="M220.36 34.801H214.477C213.936 34.801 213.024 33.767 212.989 33.821C212.954 33.875 213.935 32.839 214.477 32.839H220.359C220.9 32.839 221.933 33.839 221.933 33.821C221.933 33.803 220.908 34.801 220.36 34.801ZM213.836 52.447C213.316 52.447 212.818 52.2405 212.45 51.8729C212.083 51.5054 211.876 51.0068 211.876 50.487V46.565C211.876 46.1776 211.991 45.7991 212.208 45.478L216.128 39.596C216.451 39.1635 216.932 38.8768 217.466 38.799C218 38.7212 218.543 38.8586 218.976 39.181C219.133 39.2996 219.272 39.4393 219.391 39.596L223.313 45.478C223.527 45.8003 223.641 46.1782 223.643 46.565V50.487C223.643 50.7442 223.593 50.999 223.495 51.2367C223.396 51.4744 223.252 51.6904 223.071 51.8725C222.889 52.0545 222.673 52.1989 222.435 52.2975C222.198 52.3961 221.943 52.4469 221.686 52.447H213.836ZM215.802 48.525H219.723V47.159L217.763 44.225L215.803 47.159L215.802 48.525Z" fill="#0D6963"/>
<path d="M239.332 75.972H196.196C196.067 75.9724 195.94 75.9474 195.82 75.8983C195.701 75.8493 195.593 75.7773 195.502 75.6863C195.411 75.5954 195.338 75.4873 195.289 75.3683C195.239 75.2494 195.214 75.1218 195.214 74.993C195.214 74.8642 195.239 74.7366 195.288 74.6176C195.337 74.4985 195.409 74.3903 195.5 74.2991C195.591 74.2079 195.699 74.1355 195.818 74.0861C195.937 74.0366 196.064 74.0111 196.193 74.011H239.333C239.593 74.0118 239.842 74.1156 240.025 74.2997C240.209 74.4838 240.312 74.7331 240.312 74.993C240.312 75.1216 240.287 75.249 240.237 75.3679C240.188 75.4867 240.116 75.5947 240.025 75.6856C239.934 75.7765 239.826 75.8486 239.707 75.8978C239.588 75.9469 239.461 75.9721 239.332 75.972ZM200.117 130.871C199.576 130.871 199.137 129.998 199.137 128.917V109.304C199.137 108.221 199.576 107.344 200.117 107.344C200.658 107.344 201.097 108.221 201.097 109.304V128.911C201.097 129.994 200.659 130.871 200.117 130.871ZM192.276 130.871C191.735 130.871 191.296 129.998 191.294 128.917V109.304C191.294 108.221 191.734 107.344 192.277 107.344C192.82 107.344 193.259 108.221 193.259 109.304V128.911C193.259 129.994 192.82 130.871 192.279 130.871H192.276ZM243.246 130.871C242.706 130.871 242.267 129.998 242.266 128.917V109.304C242.266 108.221 242.705 107.344 243.246 107.344C243.787 107.344 244.228 108.221 244.228 109.304V128.911C244.228 129.994 243.789 130.871 243.249 130.871H243.246ZM235.401 130.871C234.86 130.871 234.419 129.998 234.419 128.917V109.304C234.419 108.221 234.858 107.344 235.401 107.344C235.944 107.344 236.384 108.221 236.384 109.304V128.911C236.384 129.994 235.944 130.871 235.401 130.871Z" fill="#0D6963"/>
<path d="M234.963 97.515C235.108 97.518 235.251 97.5495 235.383 97.6078C235.516 97.6662 235.636 97.7501 235.736 97.8548C235.836 97.9595 235.914 98.0829 235.966 98.218C236.019 98.3531 236.044 98.4972 236.04 98.642V105.742C236.052 106.25 235.862 106.741 235.512 107.109C235.162 107.476 234.68 107.69 234.172 107.702H200.472C199.965 107.691 199.483 107.479 199.132 107.112C198.781 106.746 198.59 106.255 198.601 105.748V99.366C198.589 98.8588 198.78 98.3679 199.13 98.0009C199.48 97.634 199.962 97.4211 200.469 97.409H211.701V95.226C211.698 94.8652 211.793 94.5104 211.976 94.1996C212.159 93.8888 212.424 93.6338 212.741 93.462L216.48 91.505C216.739 91.3684 217.027 91.297 217.32 91.297C217.613 91.297 217.901 91.3684 218.16 91.505L221.904 93.465C222.219 93.6355 222.482 93.8888 222.664 94.1975C222.846 94.5062 222.94 94.8587 222.937 95.217V97.512L234.963 97.515ZM201.542 105.393H233.752V99.863H222.11C221.602 99.8509 221.12 99.6377 220.769 99.2702C220.418 98.9027 220.227 98.4109 220.239 97.903V95.193L217.321 94.213L214.521 95.193V97.903C214.562 99.125 214.012 99.863 213.306 99.863H201.542V105.393Z" fill="#0D6963"/>
<path d="M203.055 98.522C202.926 98.5224 202.799 98.4974 202.68 98.4485C202.561 98.3996 202.453 98.3277 202.362 98.2369C202.271 98.1461 202.199 98.0383 202.15 97.9196C202.1 97.8008 202.075 97.6736 202.075 97.545V83.815C202.075 83.6862 202.101 83.5587 202.15 83.4398C202.2 83.3209 202.272 83.2129 202.363 83.122C202.454 83.031 202.563 82.959 202.682 82.9099C202.801 82.8609 202.928 82.8357 203.057 82.836C203.316 82.8365 203.565 82.9398 203.749 83.1233C203.932 83.3068 204.035 83.5555 204.036 83.815V97.539C204.036 97.799 203.933 98.0485 203.75 98.2326C203.566 98.4167 203.317 98.5205 203.057 98.521L203.055 98.522ZM208.941 98.522C208.812 98.5223 208.685 98.4971 208.566 98.448C208.447 98.3989 208.339 98.3268 208.248 98.2358C208.157 98.1449 208.085 98.0369 208.036 97.918C207.987 97.7991 207.962 97.6716 207.962 97.543V83.815C207.962 83.6862 207.987 83.5587 208.036 83.4396C208.085 83.3205 208.157 83.2123 208.248 83.1211C208.339 83.0299 208.447 82.9575 208.566 82.9081C208.685 82.8586 208.812 82.8331 208.941 82.833C209.201 82.8327 209.45 82.9357 209.635 83.1193C209.819 83.3028 209.922 83.552 209.923 83.812V97.539C209.923 97.799 209.82 98.0485 209.637 98.2326C209.453 98.4167 209.204 98.5205 208.944 98.521L208.941 98.522ZM232.468 98.522C232.339 98.5224 232.212 98.4974 232.093 98.4485C231.974 98.3996 231.866 98.3277 231.775 98.2369C231.684 98.1461 231.612 98.0383 231.563 97.9196C231.513 97.8008 231.488 97.6736 231.488 97.545V83.815C231.488 83.5553 231.592 83.3063 231.775 83.1227C231.959 82.9391 232.208 82.836 232.468 82.836C232.728 82.8365 232.976 82.9398 233.16 83.1233C233.344 83.3067 233.447 83.5554 233.448 83.815V97.539C233.448 97.799 233.345 98.0485 233.162 98.2326C232.978 98.4167 232.729 98.5205 232.469 98.521L232.468 98.522ZM226.582 98.522C226.453 98.5224 226.326 98.4974 226.207 98.4485C226.088 98.3996 225.98 98.3277 225.889 98.2369C225.798 98.1461 225.726 98.0383 225.677 97.9196C225.627 97.8008 225.602 97.6736 225.602 97.545V83.815C225.602 83.6862 225.628 83.5587 225.677 83.4398C225.727 83.3209 225.799 83.2129 225.89 83.122C225.981 83.031 226.09 82.959 226.209 82.9099C226.328 82.8609 226.455 82.8357 226.584 82.836C226.843 82.8365 227.092 82.9398 227.276 83.1233C227.459 83.3068 227.562 83.5555 227.563 83.815V97.539C227.563 97.799 227.46 98.0485 227.277 98.2326C227.093 98.4167 226.844 98.5205 226.584 98.521L226.582 98.522Z" fill="#0D6963"/>
<path d="M227.572 74.868C227.323 74.878 227.08 74.789 226.896 74.6203C226.713 74.4516 226.603 74.2171 226.592 73.968C226.592 62.478 223.392 54.319 217.792 51.468C213.65 53.821 208.94 59.649 208.94 73.968C208.94 74.0915 208.916 74.2138 208.869 74.3279C208.822 74.442 208.753 74.5457 208.665 74.6329C208.578 74.7202 208.474 74.7893 208.36 74.8363C208.246 74.8834 208.123 74.9074 208 74.907C207.75 74.9247 207.503 74.8434 207.313 74.6806C207.122 74.5178 207.003 74.2866 206.982 74.037V73.968C206.982 58.233 212.582 52.048 217.282 49.624C217.422 49.553 217.575 49.5142 217.732 49.5102C217.888 49.5062 218.044 49.5372 218.187 49.601C224.866 52.609 228.541 61.26 228.541 73.964C228.532 74.2137 228.425 74.4497 228.242 74.6203C228.059 74.7909 227.817 74.8821 227.567 74.874L227.572 74.868Z" fill="#0D6963"/>
<path d="M228.551 140.675H206.981C206.852 140.675 206.725 140.65 206.606 140.602C206.487 140.553 206.379 140.481 206.288 140.39C206.196 140.299 206.124 140.191 206.074 140.073C206.025 139.954 205.999 139.827 205.999 139.698V124.008C205.999 116.981 211.281 111.264 217.763 111.264C224.245 111.264 229.528 116.983 229.528 124.008V139.695C229.528 139.824 229.502 139.951 229.453 140.07C229.404 140.189 229.331 140.297 229.24 140.388C229.149 140.479 229.041 140.552 228.921 140.601C228.802 140.65 228.675 140.675 228.546 140.675H228.551ZM207.964 138.719H227.569V124.009C227.569 118.064 223.169 113.225 217.769 113.225C212.369 113.225 207.969 118.067 207.969 124.009L207.964 138.719Z" fill="#0D6963"/>
<path d="M180.51 140.195C180.384 140.198 180.259 140.176 180.142 140.131C180.024 140.086 179.917 140.018 179.826 139.931C179.735 139.844 179.662 139.74 179.611 139.625C179.56 139.51 179.533 139.386 179.53 139.26V109.26C179.533 109.134 179.561 109.01 179.612 108.895C179.663 108.78 179.736 108.675 179.827 108.589C179.918 108.502 180.026 108.434 180.143 108.388C180.261 108.343 180.386 108.321 180.512 108.324C180.766 108.319 181.011 108.415 181.194 108.59C181.378 108.766 181.484 109.006 181.491 109.26V139.26C181.485 139.514 181.379 139.756 181.195 139.932C181.012 140.108 180.766 140.204 180.512 140.199L180.51 140.195ZM255.015 138.728C254.767 138.74 254.524 138.652 254.341 138.485C254.157 138.318 254.047 138.085 254.035 137.837V109.219C254.047 108.971 254.157 108.737 254.34 108.57C254.524 108.402 254.767 108.314 255.015 108.325C255.263 108.315 255.505 108.403 255.689 108.57C255.873 108.738 255.983 108.971 255.995 109.219V137.834C255.984 138.083 255.875 138.318 255.691 138.486C255.508 138.655 255.265 138.744 255.016 138.734L255.015 138.728Z" fill="#0D6963"/>
<path d="M189.331 139.455C189.094 139.476 188.858 139.402 188.674 139.25C188.491 139.098 188.375 138.88 188.351 138.643V130.495C188.375 130.258 188.491 130.04 188.675 129.888C188.858 129.735 189.094 129.661 189.331 129.681H203.055C203.292 129.662 203.528 129.736 203.711 129.889C203.894 130.041 204.01 130.258 204.035 130.495V138.636C204.013 138.873 203.898 139.092 203.716 139.245C203.534 139.399 203.298 139.474 203.061 139.455H189.331ZM190.314 137.826H202.078V131.305H190.314V137.826ZM232.445 139.455C232.208 139.476 231.972 139.402 231.788 139.25C231.605 139.098 231.489 138.88 231.465 138.643V130.495C231.489 130.258 231.605 130.04 231.789 129.888C231.972 129.735 232.208 129.661 232.445 129.681H246.169C246.406 129.662 246.642 129.736 246.825 129.889C247.008 130.041 247.124 130.258 247.149 130.495V138.636C247.127 138.873 247.012 139.092 246.83 139.245C246.648 139.399 246.412 139.474 246.175 139.455H232.445ZM233.428 137.826H245.192V131.305H233.428V137.826Z" fill="#0D6963"/>
<path d="M181.492 88.721C181.363 88.7214 181.236 88.6964 181.117 88.6475C180.998 88.5986 180.89 88.5267 180.799 88.4359C180.708 88.3451 180.636 88.2373 180.587 88.1186C180.537 87.9998 180.512 87.8726 180.512 87.744V81.855C180.512 81.5953 180.616 81.3463 180.799 81.1627C180.983 80.9791 181.232 80.876 181.492 80.876C181.752 80.8765 182 80.9798 182.184 81.1633C182.368 81.3467 182.471 81.5954 182.472 81.855V87.737C182.472 87.8658 182.446 87.9934 182.397 88.1123C182.348 88.2313 182.275 88.3394 182.184 88.4304C182.093 88.5214 181.985 88.5935 181.865 88.6427C181.746 88.6919 181.619 88.7171 181.49 88.717L181.492 88.721Z" fill="#045676"/>
<path d="M254.036 88.721C253.907 88.7214 253.78 88.6964 253.661 88.6475C253.542 88.5986 253.434 88.5267 253.343 88.4359C253.252 88.3451 253.18 88.2373 253.131 88.1186C253.081 87.9998 253.056 87.8726 253.056 87.744V81.855C253.056 81.7262 253.082 81.5987 253.131 81.4798C253.181 81.3609 253.253 81.2529 253.344 81.162C253.435 81.0711 253.544 80.999 253.663 80.9499C253.782 80.9009 253.909 80.8757 254.038 80.876C254.297 80.8765 254.546 80.9798 254.73 81.1633C254.913 81.3468 255.016 81.5955 255.017 81.855V87.737C255.017 87.9969 254.914 88.2462 254.73 88.43C254.546 88.6137 254.297 88.717 254.037 88.717L254.036 88.721ZM271.68 88.721C271.551 88.7214 271.424 88.6964 271.305 88.6475C271.186 88.5986 271.078 88.5267 270.987 88.4359C270.896 88.3451 270.824 88.2373 270.775 88.1186C270.725 87.9998 270.7 87.8726 270.7 87.744V81.855C270.7 81.5953 270.804 81.3463 270.987 81.1627C271.171 80.9791 271.42 80.876 271.68 80.876C271.94 80.8765 272.188 80.9798 272.372 81.1633C272.556 81.3467 272.659 81.5954 272.66 81.855V87.737C272.66 87.8658 272.634 87.9934 272.585 88.1123C272.536 88.2313 272.463 88.3394 272.372 88.4304C272.281 88.5214 272.173 88.5935 272.053 88.6427C271.934 88.6919 271.807 88.7171 271.678 88.717L271.68 88.721Z" fill="#0D6963"/>
<path d="M175.609 87.627H169.727C169.598 87.6274 169.471 87.6024 169.352 87.5535C169.233 87.5046 169.125 87.4327 169.034 87.3419C168.943 87.2511 168.871 87.1433 168.822 87.0246C168.772 86.9058 168.747 86.7786 168.747 86.65V72.927C168.747 72.7976 168.773 72.6696 168.823 72.5504C168.874 72.4312 168.947 72.3233 169.04 72.233L171.974 69.299C172.065 69.208 172.173 69.1358 172.292 69.0866C172.411 69.0374 172.538 69.012 172.667 69.012C172.795 69.012 172.922 69.0374 173.041 69.0866C173.16 69.1358 173.268 69.208 173.359 69.299L176.293 72.233C176.385 72.3237 176.458 72.4317 176.509 72.5508C176.559 72.6699 176.585 72.7977 176.586 72.927V86.647C176.586 86.9069 176.483 87.1562 176.299 87.34C176.115 87.5238 175.866 87.627 175.606 87.627H175.609ZM170.709 85.667H174.629V73.327L172.669 71.367L170.709 73.327V85.667ZM265.644 86.306H259.76C259.631 86.3064 259.504 86.2814 259.385 86.2325C259.266 86.1836 259.158 86.1117 259.067 86.0209C258.976 85.9301 258.904 85.8223 258.855 85.7036C258.805 85.5848 258.78 85.4576 258.78 85.329V71.601C258.78 71.4715 258.806 71.3434 258.857 71.2242C258.907 71.105 258.981 70.9972 259.074 70.907L262.008 67.973C262.099 67.8819 262.207 67.8096 262.326 67.7603C262.444 67.711 262.572 67.6856 262.701 67.6856C262.829 67.6856 262.957 67.711 263.075 67.7603C263.194 67.8096 263.302 67.8819 263.393 67.973L266.327 70.907C266.419 70.9977 266.493 71.1057 266.543 71.2248C266.593 71.3439 266.619 71.4717 266.62 71.601V85.321C266.62 85.5809 266.517 85.8302 266.333 86.014C266.149 86.1977 265.9 86.301 265.64 86.301L265.644 86.306ZM260.744 84.346H264.664V72.006L262.704 70.046L260.744 72.006V84.346ZM207.963 124.988C207.834 124.988 207.707 124.963 207.587 124.914C207.468 124.865 207.36 124.793 207.269 124.702C207.178 124.611 207.105 124.503 207.056 124.384C207.006 124.265 206.981 124.138 206.981 124.009C206.981 123.88 207.006 123.753 207.055 123.634C207.104 123.515 207.176 123.406 207.267 123.315C207.358 123.224 207.466 123.152 207.585 123.102C207.704 123.053 207.831 123.027 207.96 123.027H227.572C227.832 123.028 228.081 123.132 228.264 123.316C228.448 123.5 228.551 123.749 228.551 124.009C228.551 124.269 228.448 124.518 228.264 124.701C228.081 124.885 227.832 124.988 227.572 124.988H207.963Z" fill="#0D6963"/>
<path d="M212.859 137.733C212.73 137.734 212.603 137.709 212.484 137.66C212.365 137.611 212.257 137.539 212.166 137.448C212.075 137.357 212.003 137.25 211.953 137.131C211.904 137.012 211.879 136.885 211.879 136.756V124.992C211.879 124.863 211.905 124.736 211.954 124.617C212.004 124.498 212.076 124.39 212.167 124.299C212.258 124.208 212.367 124.136 212.486 124.087C212.605 124.038 212.732 124.013 212.861 124.013C213.12 124.014 213.369 124.117 213.553 124.3C213.736 124.484 213.839 124.733 213.84 124.992V136.756C213.84 137.016 213.737 137.265 213.553 137.449C213.369 137.633 213.12 137.736 212.86 137.736L212.859 137.733ZM222.662 137.733C222.533 137.734 222.406 137.709 222.287 137.66C222.168 137.611 222.06 137.539 221.969 137.448C221.878 137.357 221.806 137.25 221.756 137.131C221.707 137.012 221.682 136.885 221.682 136.756V124.992C221.682 124.863 221.708 124.736 221.757 124.617C221.807 124.498 221.879 124.39 221.97 124.299C222.061 124.208 222.17 124.136 222.289 124.087C222.408 124.038 222.535 124.013 222.664 124.013C222.923 124.014 223.172 124.117 223.356 124.3C223.539 124.484 223.642 124.733 223.643 124.992V136.756C223.643 137.016 223.54 137.265 223.356 137.449C223.172 137.633 222.923 137.736 222.663 137.736L222.662 137.733Z" fill="#0D6963"/>
<path d="M217.762 138.713C217.242 138.713 216.744 138.507 216.376 138.139C216.008 137.771 215.802 137.273 215.802 136.753V130.865C215.802 130.345 216.008 129.847 216.376 129.479C216.744 129.111 217.242 128.905 217.762 128.905C218.02 128.905 218.275 128.955 218.513 129.054C218.75 129.152 218.967 129.297 219.149 129.479C219.331 129.661 219.476 129.877 219.574 130.115C219.673 130.353 219.724 130.607 219.724 130.865V136.747C219.725 137.004 219.675 137.259 219.578 137.497C219.48 137.735 219.337 137.952 219.155 138.135C218.974 138.317 218.759 138.462 218.521 138.561C218.284 138.661 218.029 138.712 217.772 138.713H217.762ZM181.547 89.217H163.389C163.187 89.2135 162.987 89.1702 162.802 89.0895C162.616 89.0089 162.448 88.8924 162.308 88.7469C162.167 88.6014 162.057 88.4296 161.983 88.2414C161.909 88.0532 161.872 87.8522 161.876 87.65V65.689C161.869 65.2803 162.024 64.8854 162.308 64.591C162.591 64.2966 162.98 64.1269 163.389 64.119H181.547C181.955 64.1271 182.344 64.2967 182.627 64.5906C182.911 64.8844 183.066 65.2787 183.06 65.687V87.643C183.067 88.0512 182.912 88.4456 182.629 88.7396C182.346 89.0336 181.957 89.2031 181.549 89.211L181.547 89.217ZM164.9 86.082H180.032V67.256H164.9V86.082ZM271.578 87.009H253.42C253.221 87.0091 253.024 86.9701 252.841 86.8941C252.657 86.8181 252.49 86.7067 252.35 86.5661C252.209 86.4256 252.098 86.2588 252.022 86.0752C251.946 85.8915 251.907 85.6947 251.907 85.496V64.308C251.907 63.9067 252.067 63.5219 252.35 63.2381C252.634 62.9542 253.019 62.7945 253.42 62.794H271.578C271.979 62.7945 272.364 62.9541 272.647 63.2377C272.931 63.5214 273.09 63.9059 273.091 64.307V85.489C273.091 85.8901 272.932 86.2749 272.649 86.5588C272.366 86.8427 271.981 87.0025 271.58 87.003L271.578 87.009ZM254.932 83.984H270.069V65.819H254.932V83.984Z" fill="#0D6963"/>
<path d="M262.858 64.166C262.174 64.166 261.621 63.824 261.621 63.4V55.742C261.621 55.319 262.821 54.047 262.861 54.061C262.901 54.075 264.098 55.318 264.098 55.742V63.4C264.098 63.823 263.542 64.166 262.861 64.166H262.858ZM107.053 14.412H93.653C93.4326 14.4121 93.2143 14.3688 93.0107 14.2845C92.8071 14.2003 92.622 14.0767 92.4662 13.9208C92.3103 13.765 92.1867 13.5799 92.1025 13.3763C92.0182 13.1727 91.9749 12.9544 91.975 12.734V2.678C91.975 2.45764 92.0184 2.23944 92.1027 2.03586C92.1871 1.83227 92.3107 1.64729 92.4665 1.49147C92.6223 1.33566 92.8073 1.21206 93.0109 1.12773C93.2144 1.0434 93.4326 1 93.653 1H107.053C107.498 1.00026 107.925 1.17714 108.239 1.49177C108.554 1.8064 108.731 2.23305 108.731 2.678V12.734C108.731 13.179 108.554 13.6058 108.24 13.9205C107.925 14.2352 107.498 14.412 107.053 14.412ZM95.324 11.057H105.377V4.357H95.328L95.324 11.057Z" fill="#0D6963"/>
<path d="M93.651 22.789C93.4306 22.7891 93.2123 22.7458 93.0087 22.6615C92.8051 22.5773 92.62 22.4537 92.4642 22.2978C92.3083 22.142 92.1847 21.9569 92.1005 21.7533C92.0162 21.5497 91.9729 21.3314 91.973 21.111V11.055C91.9737 10.8347 92.0177 10.6167 92.1027 10.4134C92.1876 10.2101 92.3118 10.0256 92.4681 9.87029C92.6244 9.71502 92.8097 9.59206 93.0135 9.50845C93.2174 9.42484 93.4357 9.38221 93.656 9.383C94.0993 9.38405 94.5242 9.56049 94.8378 9.87376C95.1515 10.187 95.3284 10.6117 95.33 11.055V21.111C95.33 21.556 95.1532 21.9828 94.8385 22.2975C94.5238 22.6122 94.096 22.789 93.651 22.789Z" fill="#0D6963"/>
<path d="M53.612 19.36H34.067C33.7004 19.3599 33.3373 19.432 32.9985 19.5721C32.6597 19.7123 32.3518 19.9179 32.0925 20.1771C31.8331 20.4362 31.6273 20.7439 31.4869 21.0826C31.3465 21.4213 31.2741 21.7843 31.274 22.151V27.736C30.9071 27.7276 30.5422 27.7916 30.2001 27.9243C29.858 28.057 29.5453 28.2557 29.28 28.5092C29.0147 28.7627 28.802 29.066 28.6539 29.4018C28.5058 29.7375 28.4253 30.0991 28.417 30.466C28.4001 31.2065 28.678 31.9233 29.1896 32.4589C29.7012 32.9945 30.4045 33.305 31.145 33.322H31.273V44.492H29.873C29.5027 44.492 29.1475 44.6387 28.8852 44.8999C28.6228 45.1612 28.4746 45.5157 28.473 45.886V51.475C28.4722 51.6586 28.5077 51.8405 28.5774 52.0103C28.6471 52.1801 28.7496 52.3345 28.8792 52.4646C29.0087 52.5947 29.1626 52.6979 29.3321 52.7683C29.5017 52.8387 29.6834 52.875 29.867 52.875H31.267V58.46C30.8971 58.4621 30.543 58.6105 30.2822 58.8729C30.0214 59.1352 29.875 59.4901 29.875 59.86C29.8771 60.2285 30.0244 60.5814 30.285 60.842C30.5456 61.1026 30.8985 61.2499 31.267 61.252V80.801C30.8971 80.8031 30.543 80.9515 30.2822 81.2139C30.0214 81.4762 29.875 81.8311 29.875 82.201C29.8771 82.5695 30.0244 82.9224 30.285 83.183C30.5456 83.4436 30.8985 83.5909 31.267 83.593V122.688C30.8971 122.69 30.543 122.839 30.2822 123.101C30.0214 123.363 29.875 123.718 29.875 124.088C29.875 124.458 30.0214 124.813 30.2822 125.075C30.543 125.337 30.8971 125.486 31.267 125.488V139.439C31.2666 139.806 31.3385 140.169 31.4786 140.508C31.6187 140.847 31.8242 141.155 32.0835 141.414C32.3427 141.674 32.6505 141.879 32.9893 142.02C33.3281 142.16 33.6913 142.232 34.058 142.232H156.958C157.325 142.232 157.688 142.16 158.027 142.02C158.365 141.88 158.673 141.674 158.933 141.415C159.192 141.156 159.398 140.848 159.538 140.509C159.679 140.171 159.751 139.808 159.751 139.441V125.481C160.121 125.479 160.475 125.33 160.736 125.068C160.997 124.806 161.143 124.451 161.143 124.081C161.141 123.712 160.994 123.358 160.732 123.097C160.471 122.836 160.117 122.689 159.748 122.688V83.588C160.118 83.5859 160.472 83.4375 160.733 83.1751C160.994 82.9128 161.14 82.5579 161.14 82.188C161.138 81.8195 160.991 81.4666 160.73 81.206C160.469 80.9454 160.117 80.7981 159.748 80.796V61.249C160.118 61.2469 160.472 61.0985 160.733 60.8361C160.994 60.5738 161.14 60.2189 161.14 59.849C161.138 59.4805 160.991 59.1276 160.73 58.867C160.469 58.6064 160.117 58.4591 159.748 58.457V52.872H161.148C161.518 52.872 161.873 52.7253 162.136 52.4641C162.398 52.2028 162.546 51.8483 162.548 51.478V45.888C162.546 45.5177 162.398 45.1632 162.136 44.9019C161.873 44.6407 161.518 44.494 161.148 44.494H159.736V33.324C160.103 33.3322 160.467 33.2681 160.809 33.1354C161.151 33.0026 161.464 32.8038 161.729 32.5503C161.994 32.2968 162.206 31.9935 162.354 31.6578C162.502 31.3222 162.582 30.9607 162.59 30.594C162.598 30.2273 162.534 29.8626 162.401 29.5207C162.269 29.1788 162.07 28.8664 161.816 28.6014C161.563 28.3364 161.26 28.1239 160.924 27.9761C160.588 27.8283 160.227 27.7481 159.86 27.74H159.735V22.155C159.735 21.4146 159.441 20.7045 158.918 20.1808C158.394 19.657 157.684 19.3625 156.944 19.362H151.358M57.193 19.279L70.369 19.362H56.404M87.122 19.362H73.16ZM101.086 19.362H89.916ZM117.843 19.279V19.362H103.879M134.599 19.279V19.362H120.634M148.561 19.362H137.391ZM154.145 24.946C153.775 24.9476 153.42 25.0958 153.159 25.3582C152.898 25.6205 152.751 25.9757 152.751 26.346C152.751 27.114 154.145 27.739 154.145 27.739H129.013C129.384 27.739 129.74 27.5915 130.003 27.3289C130.265 27.0664 130.413 26.7103 130.413 26.339C130.413 25.9677 130.265 25.6116 130.003 25.3491C129.74 25.0865 129.384 24.939 129.013 24.939L154.145 24.946ZM126.213 24.946C125.842 24.946 125.486 25.0935 125.223 25.3561C124.961 25.6186 124.813 25.9747 124.813 26.346C124.813 26.7173 124.961 27.0734 125.223 27.3359C125.486 27.5985 125.842 27.746 126.213 27.746H98.293C98.6643 27.746 99.0204 27.5985 99.2829 27.3359C99.5455 27.0734 99.693 26.7173 99.693 26.346C99.693 25.9747 99.5455 25.6186 99.2829 25.3561C99.0204 25.0935 98.6643 24.946 98.293 24.946H126.213ZM92.701 24.946C92.3297 24.946 91.9736 25.0935 91.7111 25.3561C91.4485 25.6186 91.301 25.9747 91.301 26.346C91.301 26.7173 91.4485 27.0734 91.7111 27.3359C91.9736 27.5985 92.3297 27.746 92.701 27.746H64.767C64.9508 27.746 65.1329 27.7098 65.3028 27.6394C65.4726 27.5691 65.6269 27.466 65.757 27.3359C65.887 27.2059 65.9901 27.0516 66.0604 26.8818C66.1308 26.7119 66.167 26.5299 66.167 26.346C66.167 26.1622 66.1308 25.9801 66.0604 25.8102C65.9901 25.6404 65.887 25.4861 65.757 25.3561C65.6269 25.226 65.4726 25.1229 65.3028 25.0526C65.1329 24.9822 64.9508 24.946 64.767 24.946H92.701ZM61.982 24.946C61.6107 24.946 61.2546 25.0935 60.9921 25.3561C60.7295 25.6186 60.582 25.9747 60.582 26.346C60.582 26.7173 60.7295 27.0734 60.9921 27.3359C61.2546 27.5985 61.6107 27.746 61.982 27.746H36.855C37.2263 27.746 37.5824 27.5985 37.8449 27.3359C38.1075 27.0734 38.255 26.7173 38.255 26.346C38.255 25.9747 38.1075 25.6186 37.8449 25.3561C37.5824 25.0935 37.2263 24.946 36.855 24.946H61.982ZM36.83 30.427H154.146L154.158 44.488H36.837L36.83 30.427ZM36.848 61.251H70.361V80.8H36.855L36.848 61.251ZM117.84 74.451V80.805H115.04C114.92 72.231 106.497 65.42 98.284 64.116C98.284 64.093 98.298 64.072 98.298 64.049V61.256H117.847L117.837 66.84L117.847 69.886L117.84 74.451ZM117.839 69.626V71.804ZM142.967 122.688H140.174V114.308C140.19 113.567 139.911 112.851 139.399 112.316C138.887 111.78 138.184 111.471 137.443 111.454C137.076 111.446 136.712 111.51 136.37 111.643C136.028 111.775 135.715 111.974 135.45 112.228C135.185 112.481 134.973 112.784 134.825 113.12C134.677 113.456 134.597 113.817 134.589 114.184V122.688H131.797V101.4C131.797 101 133.183 100.352 134.764 100.352H141.049C141.626 100.352 142.967 100.452 142.967 101.4V122.688ZM142.967 125.481V136.65H131.797V125.48L142.967 125.481ZM129.006 136.65H120.627V125.48H129.005L129.006 136.65ZM117.836 125.48V136.65H115.044V83.588H117.836V122.688C117.466 122.69 117.112 122.839 116.851 123.101C116.59 123.363 116.444 123.718 116.444 124.088C116.446 124.457 116.593 124.809 116.854 125.07C117.115 125.331 117.467 125.478 117.836 125.48ZM78.741 136.65V83.588C79.1107 83.588 79.4655 83.4417 79.7278 83.1811C79.9901 82.9205 80.1386 82.5667 80.141 82.197C80.141 81.8272 79.9947 81.4725 79.7341 81.2102C79.4735 80.9479 79.1197 80.7994 78.75 80.797C78.87 73.056 87.276 67.041 94.8 66.69C95.0204 66.7832 95.2572 66.8312 95.4965 66.8312C95.7358 66.8312 95.9726 66.7832 96.193 66.69C103.718 67.041 112.118 73.057 112.243 80.797C111.873 80.7994 111.519 80.9479 111.259 81.2102C110.998 81.4725 110.852 81.8272 110.852 82.197C110.854 82.5667 111.003 82.9205 111.265 83.1811C111.528 83.4417 111.882 83.588 112.252 83.588V136.649L78.741 136.65ZM59.201 122.688H56.408V114.308C56.4241 113.567 56.1455 112.851 55.6333 112.316C55.1212 111.78 54.4175 111.471 53.677 111.454C53.3103 111.446 52.9456 111.51 52.6037 111.643C52.2618 111.775 51.9494 111.974 51.6844 112.228C51.4194 112.481 51.2069 112.784 51.0591 113.12C50.9113 113.456 50.8311 113.817 50.823 114.184V122.688H48.031V101.4C48.031 100.452 49.374 100.352 49.949 100.352H56.234C57.813 100.352 59.202 101.009 59.202 101.4L59.201 122.688ZM59.201 125.481V136.65H48.031V125.48L59.201 125.481ZM61.994 125.481H70.372V136.65H61.994V125.481ZM73.164 125.481C73.5339 125.479 73.888 125.33 74.1488 125.068C74.4096 124.806 74.556 124.451 74.556 124.081C74.5542 123.713 74.4074 123.36 74.1474 123.099C73.8874 122.839 73.5352 122.691 73.167 122.688V83.588H75.96V136.649H73.167L73.164 125.481ZM73.156 66.822V61.237H92.707V64.03C92.701 64.0563 92.701 64.0837 92.707 64.11L92.73 64.102C84.503 65.402 76.082 72.217 75.974 80.79H73.167L73.159 69.615L73.156 66.822ZM36.857 83.588H70.367V122.688H61.989V101.4C61.989 98.883 59.089 97.564 56.228 97.564H49.943C47.125 97.564 45.229 99.107 45.229 101.4V122.694H36.851L36.857 83.588ZM36.857 125.478H45.235V136.644H36.857V125.478ZM154.157 136.648H145.779V125.474H154.157V136.648ZM154.157 122.684H145.779V101.4C145.779 99.1 143.885 97.564 141.067 97.564H134.782C131.918 97.564 129.019 98.883 129.019 101.4V122.694H120.641V83.594H154.152L154.157 122.684ZM154.157 80.794H120.643V61.243H154.154L154.157 80.794ZM92.716 58.45L110.877 57.058L120.634 58.45H140.192H131.814M36.867 58.45V52.865H154.167L154.161 58.45H36.867ZM159.741 50.072H31.252V47.279H39.63C39.6374 47.648 39.7873 47.9998 40.0483 48.2607C40.3092 48.5217 40.661 48.6716 41.03 48.679C41.216 48.6789 41.4002 48.6419 41.5719 48.5702C41.7435 48.4984 41.8992 48.3933 42.03 48.261C42.2842 47.9995 42.4256 47.6487 42.424 47.284H48.009C47.999 47.654 48.136 48.0129 48.3899 48.2822C48.6438 48.5515 48.9941 48.7092 49.364 48.721C49.734 48.731 50.0929 48.594 50.3622 48.3401C50.6315 48.0862 50.7892 47.7359 50.801 47.366V47.283H56.386C56.4052 47.653 56.5702 48.0004 56.845 48.2489C57.1198 48.4975 57.4819 48.627 57.852 48.609C58.1979 48.5912 58.5249 48.4457 58.7698 48.2008C59.0147 47.9559 59.1602 47.6289 59.178 47.283H64.767C64.7641 47.4645 64.7971 47.6447 64.864 47.8134C64.931 47.9821 65.0306 48.1359 65.1571 48.266C65.2837 48.3961 65.4347 48.4999 65.6015 48.5714C65.7682 48.643 65.9475 48.6809 66.129 48.683H66.165C66.3477 48.683 66.5284 48.646 66.6964 48.5742C66.8643 48.5023 67.0159 48.3971 67.142 48.265C67.2756 48.14 67.3818 47.9887 67.4537 47.8205C67.5257 47.6523 67.5619 47.4709 67.56 47.288H73.145C73.1459 47.4721 73.1831 47.6542 73.2545 47.8239C73.3259 47.9936 73.4301 48.1476 73.5611 48.277C73.692 48.4064 73.8472 48.5087 74.0178 48.578C74.1883 48.6473 74.3709 48.6823 74.555 48.681C74.7389 48.68 74.9209 48.6427 75.0904 48.5713C75.2599 48.4999 75.4137 48.3958 75.543 48.265C75.7925 48.0005 75.9328 47.6516 75.936 47.288H81.521C81.5369 47.6582 81.6988 48.0069 81.9713 48.2579C82.2439 48.5089 82.6048 48.6416 82.975 48.627C83.3253 48.612 83.6573 48.4662 83.9052 48.2182C84.1532 47.9703 84.299 47.6383 84.314 47.288H89.899C89.896 47.4692 89.9287 47.6493 89.9954 47.8179C90.0622 47.9864 90.1615 48.1402 90.2878 48.2702C90.414 48.4003 90.5647 48.5042 90.7312 48.5759C90.8977 48.6475 91.0767 48.6857 91.258 48.688H91.294C91.6622 48.6781 92.0126 48.5275 92.273 48.267C92.5335 48.0066 92.6841 47.6562 92.694 47.288H98.286C98.2852 47.4711 98.3205 47.6527 98.3899 47.8222C98.4593 47.9916 98.5614 48.1458 98.6904 48.2758C98.8194 48.4058 98.9727 48.5092 99.1417 48.5799C99.3106 48.6506 99.4919 48.6873 99.675 48.688C99.863 48.6891 100.049 48.6521 100.222 48.5792C100.396 48.5063 100.552 48.3991 100.683 48.264C100.932 47.9994 101.072 47.6504 101.075 47.287H106.66C106.66 47.6583 106.808 48.0144 107.07 48.277C107.333 48.5395 107.689 48.687 108.06 48.687C108.431 48.687 108.787 48.5395 109.05 48.277C109.312 48.0144 109.46 47.6583 109.46 47.287H115.045C115.046 47.4711 115.083 47.6532 115.155 47.8229C115.226 47.9926 115.33 48.1466 115.461 48.276C115.592 48.4054 115.747 48.5077 115.918 48.577C116.088 48.6463 116.271 48.6813 116.455 48.68C116.639 48.679 116.821 48.6417 116.99 48.5703C117.16 48.4989 117.314 48.3948 117.443 48.264C117.698 48.0028 117.839 47.6517 117.836 47.287H123.421C123.437 47.6572 123.599 48.0059 123.871 48.2569C124.144 48.5079 124.505 48.6406 124.875 48.626C125.225 48.611 125.557 48.4652 125.805 48.2172C126.053 47.9693 126.199 47.6373 126.214 47.287H131.799C131.789 47.657 131.926 48.0159 132.18 48.2852C132.434 48.5545 132.784 48.7122 133.154 48.724C133.524 48.734 133.883 48.597 134.152 48.3431C134.421 48.0892 134.579 47.7389 134.591 47.369V47.286H140.167C140.168 47.4701 140.205 47.6522 140.277 47.8219C140.348 47.9916 140.452 48.1456 140.583 48.275C140.714 48.4044 140.869 48.5067 141.04 48.576C141.21 48.6453 141.393 48.6803 141.577 48.679C141.761 48.678 141.943 48.6407 142.112 48.5693C142.282 48.4979 142.436 48.3938 142.565 48.263C142.82 48.0018 142.961 47.6507 142.958 47.286H148.543C148.55 47.655 148.7 48.0068 148.961 48.2677C149.222 48.5287 149.574 48.6786 149.943 48.686C150.129 48.6859 150.313 48.6489 150.485 48.5772C150.657 48.5054 150.812 48.4003 150.943 48.268C151.197 48.0065 151.339 47.6557 151.337 47.291H159.715L159.741 50.072Z" fill="#0D6963"/>
<path d="M43.821 34.717C43.6376 34.7162 43.4558 34.7516 43.2862 34.8212C43.1165 34.8908 42.9622 34.9931 42.8321 35.1225C42.7021 35.2518 42.5988 35.4055 42.5283 35.5748C42.4577 35.7441 42.4213 35.9256 42.421 36.109V38.909C42.421 39.2803 42.5685 39.6364 42.8311 39.8989C43.0936 40.1615 43.4497 40.309 43.821 40.309C44.1923 40.309 44.5484 40.1615 44.811 39.8989C45.0735 39.6364 45.221 39.2803 45.221 38.909V36.116C45.221 35.7459 45.0745 35.3909 44.8134 35.1285C44.5524 34.8662 44.1981 34.7179 43.828 34.716L43.821 34.717ZM64.247 34.717C63.8771 34.717 63.5222 34.8634 63.2599 35.1242C62.9975 35.385 62.8491 35.7391 62.847 36.109V38.909C62.847 39.2803 62.9945 39.6364 63.257 39.8989C63.5196 40.1615 63.8757 40.309 64.247 40.309C64.6183 40.309 64.9744 40.1615 65.2369 39.8989C65.4995 39.6364 65.647 39.2803 65.647 38.909V36.116C65.647 35.7459 65.5005 35.3909 65.2394 35.1285C64.9784 34.8662 64.6241 34.7179 64.254 34.716L64.247 34.717ZM84.675 34.717C84.3051 34.717 83.9502 34.8634 83.6879 35.1242C83.4255 35.385 83.2771 35.7391 83.275 36.109V38.909C83.275 39.2803 83.4225 39.6364 83.6851 39.8989C83.9476 40.1615 84.3037 40.309 84.675 40.309C84.8589 40.309 85.0409 40.2728 85.2108 40.2024C85.3806 40.1321 85.5349 40.029 85.6649 39.8989C85.7949 39.7689 85.8981 39.6146 85.9684 39.4448C86.0388 39.2749 86.075 39.0929 86.075 38.909V36.116C86.075 35.7459 85.9285 35.3909 85.6674 35.1285C85.4064 34.8662 85.0521 34.7179 84.682 34.716L84.675 34.717ZM105.1 34.717C104.73 34.717 104.375 34.8634 104.113 35.1242C103.851 35.385 103.702 35.7391 103.7 36.109V38.909C103.7 39.2803 103.848 39.6364 104.11 39.8989C104.373 40.1615 104.729 40.309 105.1 40.309C105.471 40.309 105.827 40.1615 106.09 39.8989C106.353 39.6364 106.5 39.2803 106.5 38.909V36.116C106.5 35.7459 106.353 35.3909 106.092 35.1285C105.831 34.8662 105.477 34.7179 105.107 34.716L105.1 34.717ZM125.527 34.717C125.344 34.7162 125.162 34.7516 124.992 34.8212C124.822 34.8908 124.668 34.9931 124.538 35.1225C124.408 35.2518 124.305 35.4055 124.234 35.5748C124.164 35.7441 124.127 35.9256 124.127 36.109V38.909C124.127 39.0929 124.163 39.2749 124.234 39.4448C124.304 39.6146 124.407 39.7689 124.537 39.8989C124.667 40.029 124.821 40.1321 124.991 40.2024C125.161 40.2728 125.343 40.309 125.527 40.309C125.898 40.309 126.254 40.1615 126.517 39.8989C126.78 39.6364 126.927 39.2803 126.927 38.909V36.116C126.927 35.7459 126.78 35.3909 126.519 35.1285C126.258 34.8662 125.904 34.7179 125.534 34.716L125.527 34.717ZM145.956 34.717C145.773 34.7162 145.591 34.7516 145.421 34.8212C145.251 34.8908 145.097 34.9931 144.967 35.1225C144.837 35.2518 144.734 35.4055 144.663 35.5748C144.593 35.7441 144.556 35.9256 144.556 36.109V38.909C144.546 39.279 144.683 39.6379 144.937 39.9072C145.191 40.1765 145.541 40.3342 145.911 40.346C146.281 40.356 146.64 40.219 146.909 39.9651C147.178 39.7112 147.336 39.3609 147.348 38.991V36.115C147.348 35.7449 147.201 35.3899 146.94 35.1275C146.679 34.8652 146.325 34.7169 145.955 34.715L145.956 34.717ZM43.823 66.837C43.6396 66.8362 43.4578 66.8716 43.2882 66.9412C43.1185 67.0108 42.9642 67.1132 42.8341 67.2425C42.7041 67.3718 42.6008 67.5255 42.5303 67.6948C42.4597 67.8641 42.4233 68.0456 42.423 68.229V76.61C42.4219 76.7932 42.4571 76.9748 42.5264 77.1445C42.5957 77.3141 42.6978 77.4683 42.8268 77.5984C42.9559 77.7285 43.1093 77.8318 43.2784 77.9024C43.4474 77.9731 43.6288 78.0096 43.812 78.01H63.371C63.5541 78.0108 63.7357 77.9755 63.9052 77.9061C64.0746 77.8367 64.2288 77.7346 64.3588 77.6056C64.4888 77.4766 64.5922 77.3233 64.6629 77.1543C64.7336 76.9854 64.7703 76.8041 64.771 76.621V68.237C64.771 67.8669 64.6245 67.5119 64.3634 67.2495C64.1024 66.9872 63.7481 66.8388 63.378 66.837H43.823ZM56.391 69.63H61.976V75.215H59.183V72.422C59.193 72.052 59.056 71.6931 58.8021 71.4238C58.5482 71.1545 58.1979 70.9968 57.828 70.985C57.458 70.975 57.0991 71.112 56.8298 71.3659C56.5605 71.6198 56.4028 71.9701 56.391 72.34V75.216H50.806V72.423C50.806 72.0517 50.6585 71.6956 50.396 71.4331C50.1334 71.1705 49.7773 71.023 49.406 71.023C49.0347 71.023 48.6786 71.1705 48.416 71.4331C48.1535 71.6956 48.006 72.0517 48.006 72.423V75.216H45.213V69.631H50.798M147.159 78.008C147.529 78.008 147.883 77.8613 148.144 77.6001C148.406 77.3389 148.553 76.9845 148.553 76.615V68.235C148.553 67.8649 148.406 67.5099 148.145 67.2475C147.884 66.9852 147.53 66.8368 147.16 66.835H127.61C127.427 66.8342 127.245 66.8696 127.075 66.9392C126.905 67.0088 126.751 67.1112 126.621 67.2405C126.491 67.3698 126.388 67.5235 126.317 67.6928C126.247 67.8621 126.21 68.0436 126.21 68.227V76.608C126.209 76.7912 126.244 76.9728 126.313 77.1425C126.383 77.3121 126.485 77.4663 126.614 77.5964C126.743 77.7265 126.896 77.8298 127.065 77.9004C127.234 77.9711 127.416 78.0076 127.599 78.008H147.159ZM140.178 69.688V69.629H145.763V75.214H142.971V72.422C142.971 72.2381 142.935 72.0561 142.864 71.8862C142.794 71.7164 142.691 71.5621 142.561 71.4321C142.431 71.3021 142.277 71.1989 142.107 71.1286C141.937 71.0582 141.755 71.022 141.571 71.022C141.387 71.022 141.205 71.0582 141.035 71.1286C140.865 71.1989 140.711 71.3021 140.581 71.4321C140.451 71.5621 140.348 71.7164 140.278 71.8862C140.207 72.0561 140.171 72.2381 140.171 72.422V75.214H134.586V72.422C134.596 72.052 134.459 71.6931 134.205 71.4238C133.951 71.1545 133.601 70.9968 133.231 70.985C132.861 70.975 132.502 71.112 132.233 71.3659C131.964 71.6198 131.806 71.9701 131.794 72.34V75.215H129.001V69.63H134.586" fill="#0D6963"/>
<path d="M292.252 140.205C292.031 140.207 291.812 140.165 291.608 140.082C291.403 140 291.217 139.877 291.06 139.723C290.902 139.568 290.777 139.383 290.691 139.18C290.605 138.977 290.56 138.759 290.558 138.538V123.313C290.592 122.865 290.803 122.449 291.145 122.157C291.486 121.864 291.929 121.72 292.377 121.754C292.778 121.786 293.155 121.959 293.44 122.243C293.726 122.526 293.902 122.902 293.936 123.303V138.515C293.938 138.736 293.896 138.955 293.813 139.16C293.729 139.364 293.607 139.551 293.452 139.708C293.297 139.865 293.112 139.99 292.909 140.076C292.705 140.162 292.487 140.207 292.266 140.209L292.252 140.205ZM11.026 140.205C10.8053 140.207 10.5864 140.165 10.3818 140.082C10.1772 140 9.99091 139.877 9.83359 139.723C9.67627 139.568 9.551 139.383 9.46494 139.18C9.37887 138.977 9.3337 138.759 9.332 138.538V123.313C9.36648 122.865 9.57749 122.449 9.91862 122.157C10.2598 121.864 10.703 121.72 11.151 121.754C11.5522 121.786 11.929 121.959 12.2145 122.243C12.4999 122.526 12.6755 122.902 12.71 123.303V138.515C12.7116 138.736 12.6696 138.955 12.5866 139.16C12.5035 139.364 12.3809 139.551 12.2259 139.708C12.0708 139.865 11.8862 139.99 11.6828 140.076C11.4793 140.162 11.2609 140.207 11.04 140.209L11.026 140.205Z" fill="#0D6963"/>
<path d="M292.252 130.073C287.452 130.073 281.728 127.729 281.728 116.559C281.728 110.444 283.619 94.599 292.252 94.599C300.885 94.599 302.776 110.449 302.776 116.559C302.776 127.726 297.059 130.073 292.252 130.073ZM292.252 97.973C287.588 97.973 285.105 108.765 285.105 116.554C285.105 125.641 289.183 126.69 292.252 126.69C295.321 126.69 299.399 125.64 299.399 116.554C299.399 108.771 296.916 97.978 292.252 97.978V97.973ZM11.024 130.073C6.224 130.073 0.5 127.729 0.5 116.559C0.5 110.444 2.391 94.599 11.024 94.599C19.657 94.599 21.548 110.449 21.548 116.559C21.548 127.726 15.831 130.073 11.024 130.073ZM11.024 97.973C6.36 97.973 3.877 108.765 3.877 116.554C3.877 125.641 7.955 126.69 11.024 126.69C14.093 126.69 18.171 125.64 18.171 116.554C18.171 108.771 15.688 97.978 11.024 97.978V97.973Z" fill="#0D6963"/>
<path d="M53.612 19.36H34.067C33.7004 19.3599 33.3373 19.432 32.9985 19.5721C32.6597 19.7123 32.3518 19.9179 32.0925 20.1771C31.8331 20.4362 31.6273 20.7439 31.4869 21.0826C31.3465 21.4213 31.2741 21.7843 31.274 22.151V27.736C30.9071 27.7276 30.5422 27.7916 30.2001 27.9243C29.858 28.057 29.5453 28.2557 29.28 28.5092C29.0147 28.7627 28.802 29.066 28.6539 29.4018C28.5058 29.7375 28.4253 30.0991 28.417 30.466C28.4001 31.2065 28.678 31.9233 29.1896 32.4589C29.7012 32.9945 30.4045 33.305 31.145 33.322H31.273V44.492H29.873C29.5027 44.492 29.1475 44.6387 28.8852 44.8999C28.6228 45.1612 28.4746 45.5157 28.473 45.886V51.475C28.4722 51.6586 28.5077 51.8405 28.5774 52.0103C28.6471 52.1801 28.7496 52.3345 28.8792 52.4646C29.0087 52.5947 29.1626 52.6979 29.3321 52.7683C29.5017 52.8387 29.6834 52.875 29.867 52.875H31.267V58.46C30.8971 58.4621 30.543 58.6105 30.2822 58.8729C30.0214 59.1352 29.875 59.4901 29.875 59.86C29.8771 60.2285 30.0244 60.5814 30.285 60.842C30.5456 61.1026 30.8985 61.2499 31.267 61.252V80.801C30.8971 80.8031 30.543 80.9515 30.2822 81.2139C30.0214 81.4762 29.875 81.8311 29.875 82.201C29.8771 82.5695 30.0244 82.9224 30.285 83.183C30.5456 83.4436 30.8985 83.5909 31.267 83.593V122.688C30.8971 122.69 30.543 122.839 30.2822 123.101C30.0214 123.363 29.875 123.718 29.875 124.088C29.875 124.458 30.0214 124.813 30.2822 125.075C30.543 125.337 30.8971 125.486 31.267 125.488V139.439C31.2666 139.806 31.3385 140.169 31.4786 140.508C31.6187 140.847 31.8242 141.155 32.0835 141.414C32.3427 141.674 32.6505 141.879 32.9893 142.02C33.3281 142.16 33.6913 142.232 34.058 142.232H156.958C157.325 142.232 157.688 142.16 158.027 142.02C158.365 141.88 158.673 141.674 158.933 141.415C159.192 141.156 159.398 140.848 159.538 140.509C159.679 140.171 159.751 139.808 159.751 139.441V125.481C160.121 125.479 160.475 125.33 160.736 125.068C160.997 124.806 161.143 124.451 161.143 124.081C161.141 123.712 160.994 123.358 160.732 123.097C160.471 122.836 160.117 122.689 159.748 122.688V83.588C160.118 83.5859 160.472 83.4375 160.733 83.1751C160.994 82.9128 161.14 82.5579 161.14 82.188C161.138 81.8195 160.991 81.4666 160.73 81.206C160.469 80.9454 160.117 80.7981 159.748 80.796V61.249C160.118 61.2469 160.472 61.0985 160.733 60.8361C160.994 60.5738 161.14 60.2189 161.14 59.849C161.138 59.4805 160.991 59.1276 160.73 58.867C160.469 58.6064 160.117 58.4591 159.748 58.457V52.872H161.148C161.518 52.872 161.873 52.7253 162.136 52.4641C162.398 52.2028 162.546 51.8483 162.548 51.478V45.888C162.546 45.5177 162.398 45.1632 162.136 44.9019C161.873 44.6407 161.518 44.494 161.148 44.494H159.736V33.324C160.103 33.3322 160.467 33.2681 160.809 33.1354C161.151 33.0026 161.464 32.8038 161.729 32.5503C161.994 32.2968 162.206 31.9935 162.354 31.6578C162.502 31.3222 162.582 30.9607 162.59 30.594C162.598 30.2273 162.534 29.8626 162.401 29.5207C162.269 29.1788 162.07 28.8664 161.816 28.6014C161.563 28.3364 161.26 28.1239 160.924 27.9761C160.588 27.8283 160.227 27.7481 159.86 27.74H159.735V22.155C159.735 21.4146 159.441 20.7045 158.918 20.1808C158.394 19.657 157.684 19.3625 156.944 19.362H151.358M57.193 19.279L70.369 19.362H56.404M87.122 19.362H73.16M101.086 19.362H89.916M117.843 19.279V19.362H103.879M134.599 19.279V19.362H120.634M148.561 19.362H137.391M117.839 69.626V71.804M92.716 58.45L110.877 57.058L120.634 58.45H140.192H131.814M56.391 69.63H61.976V75.215H59.183V72.422C59.193 72.052 59.056 71.6931 58.8021 71.4238C58.5482 71.1545 58.1979 70.9968 57.828 70.985C57.458 70.975 57.0991 71.112 56.8298 71.3659C56.5605 71.6198 56.4028 71.9701 56.391 72.34V75.216H50.806V72.423C50.806 72.0517 50.6585 71.6956 50.396 71.4331C50.1334 71.1705 49.7773 71.023 49.406 71.023C49.0347 71.023 48.6786 71.1705 48.416 71.4331C48.1535 71.6956 48.006 72.0517 48.006 72.423V75.216H45.213V69.631H50.798M140.178 69.688V69.629H145.763V75.214H142.971V72.422C142.971 72.2381 142.935 72.0561 142.864 71.8862C142.794 71.7164 142.691 71.5621 142.561 71.4321C142.431 71.3021 142.277 71.1989 142.107 71.1286C141.937 71.0582 141.755 71.022 141.571 71.022C141.387 71.022 141.205 71.0582 141.035 71.1286C140.865 71.1989 140.711 71.3021 140.581 71.4321C140.451 71.5621 140.348 71.7164 140.278 71.8862C140.207 72.0561 140.171 72.2381 140.171 72.422V75.214H134.586V72.422C134.596 72.052 134.459 71.6931 134.205 71.4238C133.951 71.1545 133.601 70.9968 133.231 70.985C132.861 70.975 132.502 71.112 132.233 71.3659C131.964 71.6198 131.806 71.9701 131.794 72.34V75.215H129.001V69.63H134.586M270.701 140.675H164.828C164.571 140.675 164.316 140.625 164.079 140.527C163.841 140.429 163.625 140.285 163.443 140.104C163.261 139.922 163.117 139.707 163.018 139.47C162.919 139.232 162.868 138.978 162.868 138.721V107.345C162.868 107.088 162.918 106.833 163.016 106.595C163.115 106.358 163.259 106.142 163.44 105.96C163.622 105.778 163.838 105.633 164.076 105.535C164.313 105.436 164.568 105.385 164.825 105.385H270.701C271.22 105.386 271.719 105.592 272.086 105.959C272.453 106.327 272.66 106.825 272.661 107.344V138.711C272.661 138.968 272.611 139.223 272.513 139.461C272.414 139.698 272.27 139.914 272.089 140.096C271.907 140.278 271.691 140.423 271.453 140.521C271.216 140.62 270.961 140.671 270.704 140.671L270.701 140.675ZM166.788 136.753H268.73V109.304H166.788V136.753ZM243.255 109.304H192.271C192.014 109.304 191.759 109.254 191.522 109.156C191.284 109.058 191.068 108.914 190.886 108.733C190.704 108.551 190.56 108.336 190.461 108.099C190.362 107.861 190.311 107.607 190.311 107.35V81.855C190.311 81.5978 190.361 81.343 190.459 81.1053C190.558 80.8676 190.702 80.6516 190.883 80.4695C191.065 80.2875 191.281 80.1431 191.519 80.0445C191.756 79.9459 192.011 79.8951 192.268 79.895H243.247C243.767 79.8955 244.265 80.1022 244.632 80.4697C245 80.8371 245.206 81.3353 245.207 81.855V107.344C245.207 107.863 245.002 108.36 244.636 108.727C244.27 109.095 243.774 109.302 243.255 109.304ZM194.241 105.384H241.295V83.815H194.239L194.241 105.384ZM180.516 109.303H164.828C164.571 109.303 164.316 109.253 164.079 109.155C163.841 109.057 163.625 108.913 163.443 108.732C163.261 108.55 163.117 108.335 163.018 108.098C162.919 107.86 162.868 107.606 162.868 107.349V87.737C162.868 87.4798 162.918 87.225 163.016 86.9873C163.115 86.7496 163.259 86.5336 163.44 86.3515C163.622 86.1695 163.838 86.0251 164.076 85.9265C164.313 85.8279 164.568 85.7771 164.825 85.777H180.516C181.035 85.7778 181.533 85.9844 181.901 86.3516C182.268 86.7188 182.475 87.2166 182.476 87.736V107.346C182.476 107.865 182.27 108.363 181.904 108.73C181.537 109.098 181.039 109.304 180.52 109.305L180.516 109.303ZM166.791 105.983H178.555V88.722H166.788L166.791 105.983ZM270.343 109.303H254.658C254.401 109.303 254.146 109.253 253.909 109.155C253.671 109.057 253.455 108.913 253.273 108.732C253.091 108.55 252.947 108.335 252.848 108.098C252.749 107.86 252.698 107.606 252.698 107.349V87.737C252.698 87.4798 252.748 87.225 252.846 86.9873C252.945 86.7496 253.089 86.5336 253.27 86.3515C253.452 86.1695 253.668 86.0251 253.906 85.9265C254.143 85.8279 254.398 85.7771 254.655 85.777H270.343C270.862 85.7778 271.36 85.9844 271.728 86.3516C272.095 86.7188 272.302 87.2166 272.303 87.736V107.346C272.303 107.865 272.097 108.363 271.731 108.73C271.364 109.098 270.866 109.304 270.347 109.305L270.343 109.303ZM256.622 105.982H268.386V88.722H256.622V105.982ZM241.29 83.815C241.033 83.8154 240.778 83.7652 240.541 83.6672C240.303 83.5692 240.087 83.4254 239.905 83.2439C239.723 83.0625 239.579 82.847 239.48 82.6097C239.381 82.3724 239.33 82.118 239.33 81.861C239.33 66.602 231.687 56.199 217.797 52.525C207.82 55.509 196.197 63.03 196.197 81.861C196.197 82.1187 196.146 82.3738 196.048 82.6118C195.949 82.8499 195.805 83.0662 195.622 83.2483C195.44 83.4305 195.224 83.5751 194.986 83.6737C194.748 83.7723 194.493 83.823 194.235 83.823C193.977 83.8229 193.723 83.772 193.485 83.6733C193.247 83.5747 193.031 83.4301 192.849 83.2479C192.667 83.0657 192.522 82.8495 192.424 82.6115C192.325 82.3735 192.275 82.1185 192.275 81.861C192.275 65.014 201.137 53.203 217.218 48.606C217.548 48.5124 217.897 48.5072 218.23 48.591C234.119 52.563 243.243 64.691 243.243 81.861C243.243 82.1182 243.193 82.373 243.095 82.6107C242.996 82.8484 242.852 83.0644 242.671 83.2465C242.489 83.4285 242.273 83.5729 242.035 83.6715C241.798 83.7701 241.543 83.8209 241.286 83.821L241.29 83.815ZM217.419 41.658C217.29 41.6585 217.163 41.6336 217.044 41.5848C216.925 41.5359 216.817 41.464 216.726 41.3732C216.635 41.2824 216.563 41.1745 216.513 41.0557C216.464 40.9369 216.439 40.8096 216.439 40.681V30.881C216.258 30.6207 216.188 30.2996 216.243 29.9877C216.299 29.6758 216.475 29.3984 216.734 29.216C216.995 29.036 217.316 28.9665 217.628 29.0227C217.94 29.0789 218.217 29.2562 218.399 29.516C218.539 29.7167 218.615 29.9556 218.615 30.2005C218.615 30.4454 218.539 30.6844 218.399 30.885V40.685C218.399 40.9449 218.296 41.1942 218.112 41.378C217.928 41.5617 217.679 41.665 217.419 41.665V41.658ZM172.978 65.49C172.294 65.49 171.741 65.148 171.741 64.724V57.067C171.741 56.644 172.941 55.372 172.981 55.386C173.021 55.4 174.218 56.643 174.218 57.067V64.724C174.218 65.147 173.662 65.49 172.981 65.49H172.978ZM220.36 34.801H214.477C213.936 34.801 213.024 33.767 212.989 33.821C212.954 33.875 213.935 32.839 214.477 32.839H220.359C220.9 32.839 221.933 33.839 221.933 33.821C221.933 33.803 220.908 34.801 220.36 34.801ZM213.836 52.447C213.316 52.447 212.818 52.2405 212.45 51.8729C212.083 51.5054 211.876 51.0068 211.876 50.487V46.565C211.876 46.1776 211.991 45.7991 212.208 45.478L216.128 39.596C216.451 39.1635 216.932 38.8768 217.466 38.799C218 38.7212 218.543 38.8586 218.976 39.181C219.133 39.2996 219.272 39.4393 219.391 39.596L223.313 45.478C223.527 45.8003 223.641 46.1782 223.643 46.565V50.487C223.643 50.7442 223.593 50.999 223.495 51.2367C223.396 51.4744 223.252 51.6904 223.071 51.8725C222.889 52.0545 222.673 52.1989 222.435 52.2975C222.198 52.3961 221.943 52.4469 221.686 52.447H213.836ZM215.802 48.525H219.723V47.159L217.763 44.225L215.803 47.159L215.802 48.525ZM239.332 75.972H196.196C196.067 75.9724 195.94 75.9474 195.82 75.8983C195.701 75.8493 195.593 75.7773 195.502 75.6863C195.411 75.5954 195.338 75.4873 195.289 75.3683C195.239 75.2494 195.214 75.1218 195.214 74.993C195.214 74.8642 195.239 74.7366 195.288 74.6176C195.337 74.4985 195.409 74.3903 195.5 74.2991C195.591 74.2079 195.699 74.1355 195.818 74.0861C195.937 74.0366 196.064 74.0111 196.193 74.011H239.333C239.593 74.0118 239.842 74.1156 240.025 74.2997C240.209 74.4838 240.312 74.7331 240.312 74.993C240.312 75.1216 240.287 75.249 240.237 75.3679C240.188 75.4867 240.116 75.5947 240.025 75.6856C239.934 75.7765 239.826 75.8486 239.707 75.8978C239.588 75.9469 239.461 75.9721 239.332 75.972ZM200.117 130.871C199.576 130.871 199.137 129.998 199.137 128.917V109.304C199.137 108.221 199.576 107.344 200.117 107.344C200.658 107.344 201.097 108.221 201.097 109.304V128.911C201.097 129.994 200.659 130.871 200.117 130.871ZM192.276 130.871C191.735 130.871 191.296 129.998 191.294 128.917V109.304C191.294 108.221 191.734 107.344 192.277 107.344C192.82 107.344 193.259 108.221 193.259 109.304V128.911C193.259 129.994 192.82 130.871 192.279 130.871H192.276ZM243.246 130.871C242.706 130.871 242.267 129.998 242.266 128.917V109.304C242.266 108.221 242.705 107.344 243.246 107.344C243.787 107.344 244.228 108.221 244.228 109.304V128.911C244.228 129.994 243.789 130.871 243.249 130.871H243.246ZM235.401 130.871C234.86 130.871 234.419 129.998 234.419 128.917V109.304C234.419 108.221 234.858 107.344 235.401 107.344C235.944 107.344 236.384 108.221 236.384 109.304V128.911C236.384 129.994 235.944 130.871 235.401 130.871ZM234.963 97.515C235.108 97.518 235.251 97.5495 235.383 97.6078C235.516 97.6662 235.636 97.7501 235.736 97.8548C235.836 97.9595 235.914 98.0829 235.966 98.218C236.019 98.3531 236.044 98.4972 236.04 98.642V105.742C236.052 106.25 235.862 106.741 235.512 107.109C235.162 107.476 234.68 107.69 234.172 107.702H200.472C199.965 107.691 199.483 107.479 199.132 107.112C198.781 106.746 198.59 106.255 198.601 105.748V99.366C198.589 98.8588 198.78 98.3679 199.13 98.0009C199.48 97.634 199.962 97.4211 200.469 97.409H211.701V95.226C211.698 94.8652 211.793 94.5104 211.976 94.1996C212.159 93.8888 212.424 93.6338 212.741 93.462L216.48 91.505C216.739 91.3684 217.027 91.297 217.32 91.297C217.613 91.297 217.901 91.3684 218.16 91.505L221.904 93.465C222.219 93.6355 222.482 93.8888 222.664 94.1975C222.846 94.5062 222.94 94.8587 222.937 95.217V97.512L234.963 97.515ZM201.542 105.393H233.752V99.863H222.11C221.602 99.8509 221.12 99.6377 220.769 99.2702C220.418 98.9027 220.227 98.4109 220.239 97.903V95.193L217.321 94.213L214.521 95.193V97.903C214.562 99.125 214.012 99.863 213.306 99.863H201.542V105.393ZM203.055 98.522C202.926 98.5224 202.799 98.4974 202.68 98.4485C202.561 98.3996 202.453 98.3277 202.362 98.2369C202.271 98.1461 202.199 98.0383 202.15 97.9196C202.1 97.8008 202.075 97.6736 202.075 97.545V83.815C202.075 83.6862 202.101 83.5587 202.15 83.4398C202.2 83.3209 202.272 83.2129 202.363 83.122C202.454 83.031 202.563 82.959 202.682 82.9099C202.801 82.8609 202.928 82.8357 203.057 82.836C203.316 82.8365 203.565 82.9398 203.749 83.1233C203.932 83.3068 204.035 83.5555 204.036 83.815V97.539C204.036 97.799 203.933 98.0485 203.75 98.2326C203.566 98.4167 203.317 98.5205 203.057 98.521L203.055 98.522ZM208.941 98.522C208.812 98.5223 208.685 98.4971 208.566 98.448C208.447 98.3989 208.339 98.3268 208.248 98.2358C208.157 98.1449 208.085 98.0369 208.036 97.918C207.987 97.7991 207.962 97.6716 207.962 97.543V83.815C207.962 83.6862 207.987 83.5587 208.036 83.4396C208.085 83.3205 208.157 83.2123 208.248 83.1211C208.339 83.0299 208.447 82.9575 208.566 82.9081C208.685 82.8586 208.812 82.8331 208.941 82.833C209.201 82.8327 209.45 82.9357 209.635 83.1193C209.819 83.3028 209.922 83.552 209.923 83.812V97.539C209.923 97.799 209.82 98.0485 209.637 98.2326C209.453 98.4167 209.204 98.5205 208.944 98.521L208.941 98.522ZM232.468 98.522C232.339 98.5224 232.212 98.4974 232.093 98.4485C231.974 98.3996 231.866 98.3277 231.775 98.2369C231.684 98.1461 231.612 98.0383 231.563 97.9196C231.513 97.8008 231.488 97.6736 231.488 97.545V83.815C231.488 83.5553 231.592 83.3063 231.775 83.1227C231.959 82.9391 232.208 82.836 232.468 82.836C232.728 82.8365 232.976 82.9398 233.16 83.1233C233.344 83.3067 233.447 83.5554 233.448 83.815V97.539C233.448 97.799 233.345 98.0485 233.162 98.2326C232.978 98.4167 232.729 98.5205 232.469 98.521L232.468 98.522ZM226.582 98.522C226.453 98.5224 226.326 98.4974 226.207 98.4485C226.088 98.3996 225.98 98.3277 225.889 98.2369C225.798 98.1461 225.726 98.0383 225.677 97.9196C225.627 97.8008 225.602 97.6736 225.602 97.545V83.815C225.602 83.6862 225.628 83.5587 225.677 83.4398C225.727 83.3209 225.799 83.2129 225.89 83.122C225.981 83.031 226.09 82.959 226.209 82.9099C226.328 82.8609 226.455 82.8357 226.584 82.836C226.843 82.8365 227.092 82.9398 227.276 83.1233C227.459 83.3068 227.562 83.5555 227.563 83.815V97.539C227.563 97.799 227.46 98.0485 227.277 98.2326C227.093 98.4167 226.844 98.5205 226.584 98.521L226.582 98.522ZM227.572 74.868C227.323 74.878 227.08 74.789 226.896 74.6203C226.713 74.4516 226.603 74.2171 226.592 73.968C226.592 62.478 223.392 54.319 217.792 51.468C213.65 53.821 208.94 59.649 208.94 73.968C208.94 74.0915 208.916 74.2138 208.869 74.3279C208.822 74.442 208.753 74.5457 208.665 74.6329C208.578 74.7202 208.474 74.7893 208.36 74.8363C208.246 74.8834 208.123 74.9074 208 74.907C207.75 74.9247 207.503 74.8434 207.313 74.6806C207.122 74.5178 207.003 74.2866 206.982 74.037V73.968C206.982 58.233 212.582 52.048 217.282 49.624C217.422 49.553 217.575 49.5142 217.732 49.5102C217.888 49.5062 218.044 49.5372 218.187 49.601C224.866 52.609 228.541 61.26 228.541 73.964C228.532 74.2137 228.425 74.4497 228.242 74.6203C228.059 74.7909 227.817 74.8821 227.567 74.874L227.572 74.868ZM228.551 140.675H206.981C206.852 140.675 206.725 140.65 206.606 140.602C206.487 140.553 206.379 140.481 206.288 140.39C206.196 140.299 206.124 140.191 206.074 140.073C206.025 139.954 205.999 139.827 205.999 139.698V124.008C205.999 116.981 211.281 111.264 217.763 111.264C224.245 111.264 229.528 116.983 229.528 124.008V139.695C229.528 139.824 229.502 139.951 229.453 140.07C229.404 140.189 229.331 140.297 229.24 140.388C229.149 140.479 229.041 140.552 228.921 140.601C228.802 140.65 228.675 140.675 228.546 140.675H228.551ZM207.964 138.719H227.569V124.009C227.569 118.064 223.169 113.225 217.769 113.225C212.369 113.225 207.969 118.067 207.969 124.009L207.964 138.719ZM180.51 140.195C180.384 140.198 180.259 140.176 180.142 140.131C180.024 140.086 179.917 140.018 179.826 139.931C179.735 139.844 179.662 139.74 179.611 139.625C179.56 139.51 179.533 139.386 179.53 139.26V109.26C179.533 109.134 179.561 109.01 179.612 108.895C179.663 108.78 179.736 108.675 179.827 108.589C179.918 108.502 180.026 108.434 180.143 108.388C180.261 108.343 180.386 108.321 180.512 108.324C180.766 108.319 181.011 108.415 181.194 108.59C181.378 108.766 181.484 109.006 181.491 109.26V139.26C181.485 139.514 181.379 139.756 181.195 139.932C181.012 140.108 180.766 140.204 180.512 140.199L180.51 140.195ZM255.015 138.728C254.767 138.74 254.524 138.652 254.341 138.485C254.157 138.318 254.047 138.085 254.035 137.837V109.219C254.047 108.971 254.157 108.737 254.34 108.57C254.524 108.402 254.767 108.314 255.015 108.325C255.263 108.315 255.505 108.403 255.689 108.57C255.873 108.738 255.983 108.971 255.995 109.219V137.834C255.984 138.083 255.875 138.318 255.691 138.486C255.508 138.655 255.265 138.744 255.016 138.734L255.015 138.728ZM189.331 139.455C189.094 139.476 188.858 139.402 188.674 139.25C188.491 139.098 188.375 138.88 188.351 138.643V130.495C188.375 130.258 188.491 130.04 188.675 129.888C188.858 129.735 189.094 129.661 189.331 129.681H203.055C203.292 129.662 203.528 129.736 203.711 129.889C203.894 130.041 204.01 130.258 204.035 130.495V138.636C204.013 138.873 203.898 139.092 203.716 139.245C203.534 139.399 203.298 139.474 203.061 139.455H189.331ZM190.314 137.826H202.078V131.305H190.314V137.826ZM232.445 139.455C232.208 139.476 231.972 139.402 231.788 139.25C231.605 139.098 231.489 138.88 231.465 138.643V130.495C231.489 130.258 231.605 130.04 231.789 129.888C231.972 129.735 232.208 129.661 232.445 129.681H246.169C246.406 129.662 246.642 129.736 246.825 129.889C247.008 130.041 247.124 130.258 247.149 130.495V138.636C247.127 138.873 247.012 139.092 246.83 139.245C246.648 139.399 246.412 139.474 246.175 139.455H232.445ZM233.428 137.826H245.192V131.305H233.428V137.826ZM181.492 88.721C181.363 88.7214 181.236 88.6964 181.117 88.6475C180.998 88.5986 180.89 88.5267 180.799 88.4359C180.708 88.3451 180.636 88.2373 180.587 88.1186C180.537 87.9998 180.512 87.8726 180.512 87.744V81.855C180.512 81.5953 180.616 81.3463 180.799 81.1627C180.983 80.9791 181.232 80.876 181.492 80.876C181.752 80.8765 182 80.9798 182.184 81.1633C182.368 81.3467 182.471 81.5954 182.472 81.855V87.737C182.472 87.8658 182.446 87.9934 182.397 88.1123C182.348 88.2313 182.275 88.3394 182.184 88.4304C182.093 88.5214 181.985 88.5935 181.865 88.6427C181.746 88.6919 181.619 88.7171 181.49 88.717L181.492 88.721ZM254.036 88.721C253.907 88.7214 253.78 88.6964 253.661 88.6475C253.542 88.5986 253.434 88.5267 253.343 88.4359C253.252 88.3451 253.18 88.2373 253.131 88.1186C253.081 87.9998 253.056 87.8726 253.056 87.744V81.855C253.056 81.7262 253.082 81.5987 253.131 81.4798C253.181 81.3609 253.253 81.2529 253.344 81.162C253.435 81.0711 253.544 80.999 253.663 80.9499C253.782 80.9009 253.909 80.8757 254.038 80.876C254.297 80.8765 254.546 80.9798 254.73 81.1633C254.913 81.3468 255.016 81.5955 255.017 81.855V87.737C255.017 87.9969 254.914 88.2462 254.73 88.43C254.546 88.6137 254.297 88.717 254.037 88.717L254.036 88.721ZM271.68 88.721C271.551 88.7214 271.424 88.6964 271.305 88.6475C271.186 88.5986 271.078 88.5267 270.987 88.4359C270.896 88.3451 270.824 88.2373 270.775 88.1186C270.725 87.9998 270.7 87.8726 270.7 87.744V81.855C270.7 81.5953 270.804 81.3463 270.987 81.1627C271.171 80.9791 271.42 80.876 271.68 80.876C271.94 80.8765 272.188 80.9798 272.372 81.1633C272.556 81.3467 272.659 81.5954 272.66 81.855V87.737C272.66 87.8658 272.634 87.9934 272.585 88.1123C272.536 88.2313 272.463 88.3394 272.372 88.4304C272.281 88.5214 272.173 88.5935 272.053 88.6427C271.934 88.6919 271.807 88.7171 271.678 88.717L271.68 88.721ZM175.609 87.627H169.727C169.598 87.6274 169.471 87.6024 169.352 87.5535C169.233 87.5046 169.125 87.4327 169.034 87.3419C168.943 87.2511 168.871 87.1433 168.822 87.0246C168.772 86.9058 168.747 86.7786 168.747 86.65V72.927C168.747 72.7976 168.773 72.6696 168.823 72.5504C168.874 72.4312 168.947 72.3233 169.04 72.233L171.974 69.299C172.065 69.208 172.173 69.1358 172.292 69.0866C172.411 69.0374 172.538 69.012 172.667 69.012C172.795 69.012 172.922 69.0374 173.041 69.0866C173.16 69.1358 173.268 69.208 173.359 69.299L176.293 72.233C176.385 72.3237 176.458 72.4317 176.509 72.5508C176.559 72.6699 176.585 72.7977 176.586 72.927V86.647C176.586 86.9069 176.483 87.1562 176.299 87.34C176.115 87.5238 175.866 87.627 175.606 87.627H175.609ZM170.709 85.667H174.629V73.327L172.669 71.367L170.709 73.327V85.667ZM265.644 86.306H259.76C259.631 86.3064 259.504 86.2814 259.385 86.2325C259.266 86.1836 259.158 86.1117 259.067 86.0209C258.976 85.9301 258.904 85.8223 258.855 85.7036C258.805 85.5848 258.78 85.4576 258.78 85.329V71.601C258.78 71.4715 258.806 71.3434 258.857 71.2242C258.907 71.105 258.981 70.9972 259.074 70.907L262.008 67.973C262.099 67.8819 262.207 67.8096 262.326 67.7603C262.444 67.711 262.572 67.6856 262.701 67.6856C262.829 67.6856 262.957 67.711 263.075 67.7603C263.194 67.8096 263.302 67.8819 263.393 67.973L266.327 70.907C266.419 70.9977 266.493 71.1057 266.543 71.2248C266.593 71.3439 266.619 71.4717 266.62 71.601V85.321C266.62 85.5809 266.517 85.8302 266.333 86.014C266.149 86.1977 265.9 86.301 265.64 86.301L265.644 86.306ZM260.744 84.346H264.664V72.006L262.704 70.046L260.744 72.006V84.346ZM207.963 124.988C207.834 124.988 207.707 124.963 207.587 124.914C207.468 124.865 207.36 124.793 207.269 124.702C207.178 124.611 207.105 124.503 207.056 124.384C207.006 124.265 206.981 124.138 206.981 124.009C206.981 123.88 207.006 123.753 207.055 123.634C207.104 123.515 207.176 123.406 207.267 123.315C207.358 123.224 207.466 123.152 207.585 123.102C207.704 123.053 207.831 123.027 207.96 123.027H227.572C227.832 123.028 228.081 123.132 228.264 123.316C228.448 123.5 228.551 123.749 228.551 124.009C228.551 124.269 228.448 124.518 228.264 124.701C228.081 124.885 227.832 124.988 227.572 124.988H207.963ZM212.859 137.733C212.73 137.734 212.603 137.709 212.484 137.66C212.365 137.611 212.257 137.539 212.166 137.448C212.075 137.357 212.003 137.25 211.953 137.131C211.904 137.012 211.879 136.885 211.879 136.756V124.992C211.879 124.863 211.905 124.736 211.954 124.617C212.004 124.498 212.076 124.39 212.167 124.299C212.258 124.208 212.367 124.136 212.486 124.087C212.605 124.038 212.732 124.013 212.861 124.013C213.12 124.014 213.369 124.117 213.553 124.3C213.736 124.484 213.839 124.733 213.84 124.992V136.756C213.84 137.016 213.737 137.265 213.553 137.449C213.369 137.633 213.12 137.736 212.86 137.736L212.859 137.733ZM222.662 137.733C222.533 137.734 222.406 137.709 222.287 137.66C222.168 137.611 222.06 137.539 221.969 137.448C221.878 137.357 221.806 137.25 221.756 137.131C221.707 137.012 221.682 136.885 221.682 136.756V124.992C221.682 124.863 221.708 124.736 221.757 124.617C221.807 124.498 221.879 124.39 221.97 124.299C222.061 124.208 222.17 124.136 222.289 124.087C222.408 124.038 222.535 124.013 222.664 124.013C222.923 124.014 223.172 124.117 223.356 124.3C223.539 124.484 223.642 124.733 223.643 124.992V136.756C223.643 137.016 223.54 137.265 223.356 137.449C223.172 137.633 222.923 137.736 222.663 137.736L222.662 137.733ZM217.762 138.713C217.242 138.713 216.744 138.507 216.376 138.139C216.008 137.771 215.802 137.273 215.802 136.753V130.865C215.802 130.345 216.008 129.847 216.376 129.479C216.744 129.111 217.242 128.905 217.762 128.905C218.02 128.905 218.275 128.955 218.513 129.054C218.75 129.152 218.967 129.297 219.149 129.479C219.331 129.661 219.476 129.877 219.574 130.115C219.673 130.353 219.724 130.607 219.724 130.865V136.747C219.725 137.004 219.675 137.259 219.578 137.497C219.48 137.735 219.337 137.952 219.155 138.135C218.974 138.317 218.759 138.462 218.521 138.561C218.284 138.661 218.029 138.712 217.772 138.713H217.762ZM181.547 89.217H163.389C163.187 89.2135 162.987 89.1702 162.802 89.0895C162.616 89.0089 162.448 88.8924 162.308 88.7469C162.167 88.6014 162.057 88.4296 161.983 88.2414C161.909 88.0532 161.872 87.8522 161.876 87.65V65.689C161.869 65.2803 162.024 64.8854 162.308 64.591C162.591 64.2966 162.98 64.1269 163.389 64.119H181.547C181.955 64.1271 182.344 64.2967 182.627 64.5906C182.911 64.8844 183.066 65.2787 183.06 65.687V87.643C183.067 88.0512 182.912 88.4456 182.629 88.7396C182.346 89.0336 181.957 89.2031 181.549 89.211L181.547 89.217ZM164.9 86.082H180.032V67.256H164.9V86.082ZM271.578 87.009H253.42C253.221 87.0091 253.024 86.9701 252.841 86.8941C252.657 86.8181 252.49 86.7067 252.35 86.5661C252.209 86.4256 252.098 86.2588 252.022 86.0752C251.946 85.8915 251.907 85.6947 251.907 85.496V64.308C251.907 63.9067 252.067 63.5219 252.35 63.2381C252.634 62.9542 253.019 62.7945 253.42 62.794H271.578C271.979 62.7945 272.364 62.9541 272.647 63.2377C272.931 63.5214 273.09 63.9059 273.091 64.307V85.489C273.091 85.8901 272.932 86.2749 272.649 86.5588C272.366 86.8427 271.981 87.0025 271.58 87.003L271.578 87.009ZM254.932 83.984H270.069V65.819H254.932V83.984ZM262.858 64.166C262.174 64.166 261.621 63.824 261.621 63.4V55.742C261.621 55.319 262.821 54.047 262.861 54.061C262.901 54.075 264.098 55.318 264.098 55.742V63.4C264.098 63.823 263.542 64.166 262.861 64.166H262.858ZM107.053 14.412H93.653C93.4326 14.4121 93.2143 14.3688 93.0107 14.2845C92.8071 14.2003 92.622 14.0767 92.4662 13.9208C92.3103 13.765 92.1867 13.5799 92.1025 13.3763C92.0182 13.1727 91.9749 12.9544 91.975 12.734V2.678C91.975 2.45764 92.0184 2.23944 92.1027 2.03586C92.1871 1.83227 92.3107 1.64729 92.4665 1.49147C92.6223 1.33566 92.8073 1.21206 93.0109 1.12773C93.2144 1.0434 93.4326 1 93.653 1H107.053C107.498 1.00026 107.925 1.17714 108.239 1.49177C108.554 1.8064 108.731 2.23305 108.731 2.678V12.734C108.731 13.179 108.554 13.6058 108.24 13.9205C107.925 14.2352 107.498 14.412 107.053 14.412ZM95.324 11.057H105.377V4.357H95.328L95.324 11.057ZM93.651 22.789C93.4306 22.7891 93.2123 22.7458 93.0087 22.6615C92.8051 22.5773 92.62 22.4537 92.4642 22.2978C92.3083 22.142 92.1847 21.9569 92.1005 21.7533C92.0162 21.5497 91.9729 21.3314 91.973 21.111V11.055C91.9737 10.8347 92.0177 10.6167 92.1027 10.4134C92.1876 10.2101 92.3118 10.0256 92.4681 9.87029C92.6244 9.71502 92.8097 9.59206 93.0135 9.50845C93.2174 9.42484 93.4357 9.38221 93.656 9.383C94.0993 9.38405 94.5242 9.56049 94.8378 9.87376C95.1515 10.187 95.3284 10.6117 95.33 11.055V21.111C95.33 21.556 95.1532 21.9828 94.8385 22.2975C94.5238 22.6122 94.096 22.789 93.651 22.789ZM31.253 47.287H159.728V50.08H31.253V47.287ZM112.247 139.455V80.973C112.247 72.301 102.763 65.262 94.092 65.262C85.421 65.262 75.939 72.301 75.939 80.973V139.455H112.247ZM117.832 61.255V139.455H70.36V61.249L117.832 61.255ZM120.629 61.249V133.861H131.799V125.484H142.968V133.862H154.138V61.249H120.629ZM36.839 133.869H48.009V125.486H56.387V133.864H70.351V61.264H36.839V133.869ZM36.837 52.873H154.142V58.458H36.837V52.873ZM36.837 24.943H154.142V44.493H36.837V24.943ZM131.797 125.49H142.97V133.87H131.797V125.49ZM129.005 69.631H145.763V75.216H129.005V69.631ZM48.008 125.49H59.181V133.87H48.008V125.49ZM45.217 69.631H61.975V75.216H45.217V69.631ZM154.145 24.946C153.775 24.9476 153.42 25.0958 153.159 25.3582C152.898 25.6205 152.751 25.9757 152.751 26.346C152.751 27.114 154.145 27.739 154.145 27.739H129.013C129.384 27.739 129.74 27.5915 130.003 27.3289C130.265 27.0664 130.413 26.7103 130.413 26.339C130.413 25.9677 130.265 25.6116 130.003 25.3491C129.74 25.0865 129.384 24.939 129.013 24.939L154.145 24.946ZM126.213 24.946C125.842 24.946 125.486 25.0935 125.223 25.3561C124.961 25.6186 124.813 25.9747 124.813 26.346C124.813 26.7173 124.961 27.0734 125.223 27.3359C125.486 27.5985 125.842 27.746 126.213 27.746H98.293C98.6643 27.746 99.0204 27.5985 99.2829 27.3359C99.5455 27.0734 99.693 26.7173 99.693 26.346C99.693 25.9747 99.5455 25.6186 99.2829 25.3561C99.0204 25.0935 98.6643 24.946 98.293 24.946H126.213ZM92.701 24.946C92.3297 24.946 91.9736 25.0935 91.7111 25.3561C91.4485 25.6186 91.301 25.9747 91.301 26.346C91.301 26.7173 91.4485 27.0734 91.7111 27.3359C91.9736 27.5985 92.3297 27.746 92.701 27.746H64.767C64.9508 27.746 65.1329 27.7098 65.3028 27.6394C65.4726 27.5691 65.6269 27.466 65.757 27.3359C65.887 27.2059 65.9901 27.0516 66.0604 26.8818C66.1308 26.7119 66.167 26.5299 66.167 26.346C66.167 26.1622 66.1308 25.9801 66.0604 25.8102C65.9901 25.6404 65.887 25.4861 65.757 25.3561C65.6269 25.226 65.4726 25.1229 65.3028 25.0526C65.1329 24.9822 64.9508 24.946 64.767 24.946H92.701ZM61.982 24.946C61.6107 24.946 61.2546 25.0935 60.9921 25.3561C60.7295 25.6186 60.582 25.9747 60.582 26.346C60.582 26.7173 60.7295 27.0734 60.9921 27.3359C61.2546 27.5985 61.6107 27.746 61.982 27.746H36.855C37.2263 27.746 37.5824 27.5985 37.8449 27.3359C38.1075 27.0734 38.255 26.7173 38.255 26.346C38.255 25.9747 38.1075 25.6186 37.8449 25.3561C37.5824 25.0935 37.2263 24.946 36.855 24.946H61.982ZM36.83 30.427H154.146L154.158 44.488H36.837L36.83 30.427ZM36.848 61.251H70.361V80.8H36.855L36.848 61.251ZM117.84 74.451V80.805H115.04C114.92 72.231 106.497 65.42 98.284 64.116C98.284 64.093 98.298 64.072 98.298 64.049V61.256H117.847L117.837 66.84L117.847 69.886L117.84 74.451ZM142.967 122.688H140.174V114.308C140.19 113.567 139.911 112.851 139.399 112.316C138.887 111.78 138.184 111.471 137.443 111.454C137.076 111.446 136.712 111.51 136.37 111.643C136.028 111.775 135.715 111.974 135.45 112.228C135.185 112.481 134.973 112.784 134.825 113.12C134.677 113.456 134.597 113.817 134.589 114.184V122.688H131.797V101.4C131.797 101 133.183 100.352 134.764 100.352H141.049C141.626 100.352 142.967 100.452 142.967 101.4V122.688ZM142.967 125.481V136.65H131.797V125.48L142.967 125.481ZM129.006 136.65H120.627V125.48H129.005L129.006 136.65ZM117.836 125.48V136.65H115.044V83.588H117.836V122.688C117.466 122.69 117.112 122.839 116.851 123.101C116.59 123.363 116.444 123.718 116.444 124.088C116.446 124.457 116.593 124.809 116.854 125.07C117.115 125.331 117.467 125.478 117.836 125.48ZM78.741 136.65V83.588C79.1107 83.588 79.4655 83.4417 79.7278 83.1811C79.9901 82.9205 80.1386 82.5667 80.141 82.197C80.141 81.8272 79.9947 81.4725 79.7341 81.2102C79.4735 80.9479 79.1197 80.7994 78.75 80.797C78.87 73.056 87.276 67.041 94.8 66.69C95.0204 66.7832 95.2572 66.8312 95.4965 66.8312C95.7358 66.8312 95.9726 66.7832 96.193 66.69C103.718 67.041 112.118 73.057 112.243 80.797C111.873 80.7994 111.519 80.9479 111.259 81.2102C110.998 81.4725 110.852 81.8272 110.852 82.197C110.854 82.5667 111.003 82.9205 111.265 83.1811C111.528 83.4417 111.882 83.588 112.252 83.588V136.649L78.741 136.65ZM59.201 122.688H56.408V114.308C56.4241 113.567 56.1455 112.851 55.6333 112.316C55.1212 111.78 54.4175 111.471 53.677 111.454C53.3103 111.446 52.9456 111.51 52.6037 111.643C52.2618 111.775 51.9494 111.974 51.6844 112.228C51.4194 112.481 51.2069 112.784 51.0591 113.12C50.9113 113.456 50.8311 113.817 50.823 114.184V122.688H48.031V101.4C48.031 100.452 49.374 100.352 49.949 100.352H56.234C57.813 100.352 59.202 101.009 59.202 101.4L59.201 122.688ZM59.201 125.481V136.65H48.031V125.48L59.201 125.481ZM61.994 125.481H70.372V136.65H61.994V125.481ZM73.164 125.481C73.5339 125.479 73.888 125.33 74.1488 125.068C74.4096 124.806 74.556 124.451 74.556 124.081C74.5542 123.713 74.4074 123.36 74.1474 123.099C73.8874 122.839 73.5352 122.691 73.167 122.688V83.588H75.96V136.649H73.167L73.164 125.481ZM73.156 66.822V61.237H92.707V64.03C92.701 64.0563 92.701 64.0837 92.707 64.11L92.73 64.102C84.503 65.402 76.082 72.217 75.974 80.79H73.167L73.159 69.615L73.156 66.822ZM36.857 83.588H70.367V122.688H61.989V101.4C61.989 98.883 59.089 97.564 56.228 97.564H49.943C47.125 97.564 45.229 99.107 45.229 101.4V122.694H36.851L36.857 83.588ZM36.857 125.478H45.235V136.644H36.857V125.478ZM154.157 136.648H145.779V125.474H154.157V136.648ZM154.157 122.684H145.779V101.4C145.779 99.1 143.885 97.564 141.067 97.564H134.782C131.918 97.564 129.019 98.883 129.019 101.4V122.694H120.641V83.594H154.152L154.157 122.684ZM154.157 80.794H120.643V61.243H154.154L154.157 80.794ZM36.867 58.45V52.865H154.167L154.161 58.45H36.867ZM159.741 50.072H31.252V47.279H39.63C39.6374 47.648 39.7873 47.9998 40.0483 48.2607C40.3092 48.5217 40.661 48.6716 41.03 48.679C41.216 48.6789 41.4002 48.6419 41.5719 48.5702C41.7435 48.4984 41.8992 48.3933 42.03 48.261C42.2842 47.9995 42.4256 47.6487 42.424 47.284H48.009C47.999 47.654 48.136 48.0129 48.3899 48.2822C48.6438 48.5515 48.9941 48.7092 49.364 48.721C49.734 48.731 50.0929 48.594 50.3622 48.3401C50.6315 48.0862 50.7892 47.7359 50.801 47.366V47.283H56.386C56.4052 47.653 56.5702 48.0004 56.845 48.2489C57.1198 48.4975 57.4819 48.627 57.852 48.609C58.1979 48.5912 58.5249 48.4457 58.7698 48.2008C59.0147 47.9559 59.1602 47.6289 59.178 47.283H64.767C64.7641 47.4645 64.7971 47.6447 64.864 47.8134C64.931 47.9821 65.0306 48.1359 65.1571 48.266C65.2837 48.3961 65.4347 48.4999 65.6015 48.5714C65.7682 48.643 65.9475 48.6809 66.129 48.683H66.165C66.3477 48.683 66.5284 48.646 66.6964 48.5742C66.8643 48.5023 67.0159 48.3971 67.142 48.265C67.2756 48.14 67.3818 47.9887 67.4537 47.8205C67.5257 47.6523 67.5619 47.4709 67.56 47.288H73.145C73.1459 47.4721 73.1831 47.6542 73.2545 47.8239C73.3259 47.9936 73.4301 48.1476 73.5611 48.277C73.692 48.4064 73.8472 48.5087 74.0178 48.578C74.1883 48.6473 74.3709 48.6823 74.555 48.681C74.7389 48.68 74.9209 48.6427 75.0904 48.5713C75.2599 48.4999 75.4137 48.3958 75.543 48.265C75.7925 48.0005 75.9328 47.6516 75.936 47.288H81.521C81.5369 47.6582 81.6988 48.0069 81.9713 48.2579C82.2439 48.5089 82.6048 48.6416 82.975 48.627C83.3253 48.612 83.6573 48.4662 83.9052 48.2182C84.1532 47.9703 84.299 47.6383 84.314 47.288H89.899C89.896 47.4692 89.9287 47.6493 89.9954 47.8179C90.0622 47.9864 90.1615 48.1402 90.2878 48.2702C90.414 48.4003 90.5647 48.5042 90.7312 48.5759C90.8977 48.6475 91.0767 48.6857 91.258 48.688H91.294C91.6622 48.6781 92.0126 48.5275 92.273 48.267C92.5335 48.0066 92.6841 47.6562 92.694 47.288H98.286C98.2852 47.4711 98.3205 47.6527 98.3899 47.8222C98.4593 47.9916 98.5614 48.1458 98.6904 48.2758C98.8194 48.4058 98.9727 48.5092 99.1417 48.5799C99.3106 48.6506 99.4919 48.6873 99.675 48.688C99.863 48.6891 100.049 48.6521 100.222 48.5792C100.396 48.5063 100.552 48.3991 100.683 48.264C100.932 47.9994 101.072 47.6504 101.075 47.287H106.66C106.66 47.6583 106.808 48.0144 107.07 48.277C107.333 48.5395 107.689 48.687 108.06 48.687C108.431 48.687 108.787 48.5395 109.05 48.277C109.312 48.0144 109.46 47.6583 109.46 47.287H115.045C115.046 47.4711 115.083 47.6532 115.155 47.8229C115.226 47.9926 115.33 48.1466 115.461 48.276C115.592 48.4054 115.747 48.5077 115.918 48.577C116.088 48.6463 116.271 48.6813 116.455 48.68C116.639 48.679 116.821 48.6417 116.99 48.5703C117.16 48.4989 117.314 48.3948 117.443 48.264C117.698 48.0028 117.839 47.6517 117.836 47.287H123.421C123.437 47.6572 123.599 48.0059 123.871 48.2569C124.144 48.5079 124.505 48.6406 124.875 48.626C125.225 48.611 125.557 48.4652 125.805 48.2172C126.053 47.9693 126.199 47.6373 126.214 47.287H131.799C131.789 47.657 131.926 48.0159 132.18 48.2852C132.434 48.5545 132.784 48.7122 133.154 48.724C133.524 48.734 133.883 48.597 134.152 48.3431C134.421 48.0892 134.579 47.7389 134.591 47.369V47.286H140.167C140.168 47.4701 140.205 47.6522 140.277 47.8219C140.348 47.9916 140.452 48.1456 140.583 48.275C140.714 48.4044 140.869 48.5067 141.04 48.576C141.21 48.6453 141.393 48.6803 141.577 48.679C141.761 48.678 141.943 48.6407 142.112 48.5693C142.282 48.4979 142.436 48.3938 142.565 48.263C142.82 48.0018 142.961 47.6507 142.958 47.286H148.543C148.55 47.655 148.7 48.0068 148.961 48.2677C149.222 48.5287 149.574 48.6786 149.943 48.686C150.129 48.6859 150.313 48.6489 150.485 48.5772C150.657 48.5054 150.812 48.4003 150.943 48.268C151.197 48.0065 151.339 47.6557 151.337 47.291H159.715L159.741 50.072ZM43.821 34.717C43.6376 34.7162 43.4558 34.7516 43.2862 34.8212C43.1165 34.8908 42.9622 34.9931 42.8321 35.1225C42.7021 35.2518 42.5988 35.4055 42.5283 35.5748C42.4577 35.7441 42.4213 35.9256 42.421 36.109V38.909C42.421 39.2803 42.5685 39.6364 42.8311 39.8989C43.0936 40.1615 43.4497 40.309 43.821 40.309C44.1923 40.309 44.5484 40.1615 44.811 39.8989C45.0735 39.6364 45.221 39.2803 45.221 38.909V36.116C45.221 35.7459 45.0745 35.3909 44.8134 35.1285C44.5524 34.8662 44.1981 34.7179 43.828 34.716L43.821 34.717ZM64.247 34.717C63.8771 34.717 63.5222 34.8634 63.2599 35.1242C62.9975 35.385 62.8491 35.7391 62.847 36.109V38.909C62.847 39.2803 62.9945 39.6364 63.257 39.8989C63.5196 40.1615 63.8757 40.309 64.247 40.309C64.6183 40.309 64.9744 40.1615 65.2369 39.8989C65.4995 39.6364 65.647 39.2803 65.647 38.909V36.116C65.647 35.7459 65.5005 35.3909 65.2394 35.1285C64.9784 34.8662 64.6241 34.7179 64.254 34.716L64.247 34.717ZM84.675 34.717C84.3051 34.717 83.9502 34.8634 83.6879 35.1242C83.4255 35.385 83.2771 35.7391 83.275 36.109V38.909C83.275 39.2803 83.4225 39.6364 83.6851 39.8989C83.9476 40.1615 84.3037 40.309 84.675 40.309C84.8589 40.309 85.0409 40.2728 85.2108 40.2024C85.3806 40.1321 85.5349 40.029 85.6649 39.8989C85.7949 39.7689 85.8981 39.6146 85.9684 39.4448C86.0388 39.2749 86.075 39.0929 86.075 38.909V36.116C86.075 35.7459 85.9285 35.3909 85.6674 35.1285C85.4064 34.8662 85.0521 34.7179 84.682 34.716L84.675 34.717ZM105.1 34.717C104.73 34.717 104.375 34.8634 104.113 35.1242C103.851 35.385 103.702 35.7391 103.7 36.109V38.909C103.7 39.2803 103.848 39.6364 104.11 39.8989C104.373 40.1615 104.729 40.309 105.1 40.309C105.471 40.309 105.827 40.1615 106.09 39.8989C106.353 39.6364 106.5 39.2803 106.5 38.909V36.116C106.5 35.7459 106.353 35.3909 106.092 35.1285C105.831 34.8662 105.477 34.7179 105.107 34.716L105.1 34.717ZM125.527 34.717C125.344 34.7162 125.162 34.7516 124.992 34.8212C124.822 34.8908 124.668 34.9931 124.538 35.1225C124.408 35.2518 124.305 35.4055 124.234 35.5748C124.164 35.7441 124.127 35.9256 124.127 36.109V38.909C124.127 39.0929 124.163 39.2749 124.234 39.4448C124.304 39.6146 124.407 39.7689 124.537 39.8989C124.667 40.029 124.821 40.1321 124.991 40.2024C125.161 40.2728 125.343 40.309 125.527 40.309C125.898 40.309 126.254 40.1615 126.517 39.8989C126.78 39.6364 126.927 39.2803 126.927 38.909V36.116C126.927 35.7459 126.78 35.3909 126.519 35.1285C126.258 34.8662 125.904 34.7179 125.534 34.716L125.527 34.717ZM145.956 34.717C145.773 34.7162 145.591 34.7516 145.421 34.8212C145.251 34.8908 145.097 34.9931 144.967 35.1225C144.837 35.2518 144.734 35.4055 144.663 35.5748C144.593 35.7441 144.556 35.9256 144.556 36.109V38.909C144.546 39.279 144.683 39.6379 144.937 39.9072C145.191 40.1765 145.541 40.3342 145.911 40.346C146.281 40.356 146.64 40.219 146.909 39.9651C147.178 39.7112 147.336 39.3609 147.348 38.991V36.115C147.348 35.7449 147.201 35.3899 146.94 35.1275C146.679 34.8652 146.325 34.7169 145.955 34.715L145.956 34.717ZM43.823 66.837C43.6396 66.8362 43.4578 66.8716 43.2882 66.9412C43.1185 67.0108 42.9642 67.1132 42.8341 67.2425C42.7041 67.3718 42.6008 67.5255 42.5303 67.6948C42.4597 67.8641 42.4233 68.0456 42.423 68.229V76.61C42.4219 76.7932 42.4571 76.9748 42.5264 77.1445C42.5957 77.3141 42.6978 77.4683 42.8268 77.5984C42.9559 77.7285 43.1093 77.8318 43.2784 77.9024C43.4474 77.9731 43.6288 78.0096 43.812 78.01H63.371C63.5541 78.0108 63.7357 77.9755 63.9052 77.9061C64.0746 77.8367 64.2288 77.7346 64.3588 77.6056C64.4888 77.4766 64.5922 77.3233 64.6629 77.1543C64.7336 76.9854 64.7703 76.8041 64.771 76.621V68.237C64.771 67.8669 64.6245 67.5119 64.3634 67.2495C64.1024 66.9872 63.7481 66.8388 63.378 66.837H43.823ZM147.159 78.008C147.529 78.008 147.883 77.8613 148.144 77.6001C148.406 77.3389 148.553 76.9845 148.553 76.615V68.235C148.553 67.8649 148.406 67.5099 148.145 67.2475C147.884 66.9852 147.53 66.8368 147.16 66.835H127.61C127.427 66.8342 127.245 66.8696 127.075 66.9392C126.905 67.0088 126.751 67.1112 126.621 67.2405C126.491 67.3698 126.388 67.5235 126.317 67.6928C126.247 67.8621 126.21 68.0436 126.21 68.227V76.608C126.209 76.7912 126.244 76.9728 126.313 77.1425C126.383 77.3121 126.485 77.4663 126.614 77.5964C126.743 77.7265 126.896 77.8298 127.065 77.9004C127.234 77.9711 127.416 78.0076 127.599 78.008H147.159ZM301.087 116.555C301.087 123.093 299.009 128.379 292.252 128.379C285.495 128.379 283.417 123.091 283.417 116.555C283.417 110.019 285.495 96.286 292.252 96.286C299.009 96.286 301.087 110.02 301.087 116.555ZM19.859 116.555C19.859 123.093 17.781 128.379 11.024 128.379C4.267 128.379 2.189 123.091 2.189 116.555C2.189 110.019 4.267 96.286 11.024 96.286C17.781 96.286 19.859 110.02 19.859 116.555ZM292.252 140.205C292.031 140.207 291.812 140.165 291.608 140.082C291.403 140 291.217 139.877 291.06 139.723C290.902 139.568 290.777 139.383 290.691 139.18C290.605 138.977 290.56 138.759 290.558 138.538V123.313C290.592 122.865 290.803 122.449 291.145 122.157C291.486 121.864 291.929 121.72 292.377 121.754C292.778 121.786 293.155 121.959 293.44 122.243C293.726 122.526 293.902 122.902 293.936 123.303V138.515C293.938 138.736 293.896 138.955 293.813 139.16C293.729 139.364 293.607 139.551 293.452 139.708C293.297 139.865 293.112 139.99 292.909 140.076C292.705 140.162 292.487 140.207 292.266 140.209L292.252 140.205ZM11.026 140.205C10.8053 140.207 10.5864 140.165 10.3818 140.082C10.1772 140 9.99091 139.877 9.83359 139.723C9.67627 139.568 9.551 139.383 9.46494 139.18C9.37887 138.977 9.3337 138.759 9.332 138.538V123.313C9.36648 122.865 9.57749 122.449 9.91862 122.157C10.2598 121.864 10.703 121.72 11.151 121.754C11.5522 121.786 11.929 121.959 12.2145 122.243C12.4999 122.526 12.6755 122.902 12.71 123.303V138.515C12.7116 138.736 12.6696 138.955 12.5866 139.16C12.5035 139.364 12.3809 139.551 12.2259 139.708C12.0708 139.865 11.8862 139.99 11.6828 140.076C11.4793 140.162 11.2609 140.207 11.04 140.209L11.026 140.205ZM292.252 130.073C287.452 130.073 281.728 127.729 281.728 116.559C281.728 110.444 283.619 94.599 292.252 94.599C300.885 94.599 302.776 110.449 302.776 116.559C302.776 127.726 297.059 130.073 292.252 130.073ZM292.252 97.973C287.588 97.973 285.105 108.765 285.105 116.554C285.105 125.641 289.183 126.69 292.252 126.69C295.321 126.69 299.399 125.64 299.399 116.554C299.399 108.771 296.916 97.978 292.252 97.978V97.973ZM11.024 130.073C6.224 130.073 0.5 127.729 0.5 116.559C0.5 110.444 2.391 94.599 11.024 94.599C19.657 94.599 21.548 110.449 21.548 116.559C21.548 127.726 15.831 130.073 11.024 130.073ZM11.024 97.973C6.36 97.973 3.877 108.765 3.877 116.554C3.877 125.641 7.955 126.69 11.024 126.69C14.093 126.69 18.171 125.64 18.171 116.554C18.171 108.771 15.688 97.978 11.024 97.978V97.973Z" stroke="#0D6963"/>
</svg>
