<svg width="300" height="138" viewBox="0 0 300 138" fill="none" xmlns="http://www.w3.org/2000/svg">
<g clip-path="url(#clip0_1372_1224)">
<path d="M93.952 137.314H2.409C1.77009 137.314 1.15736 137.06 0.705582 136.609C0.253807 136.157 0 135.544 0 134.905C0 134.266 0.253807 133.653 0.705582 133.202C1.15736 132.75 1.77009 132.496 2.409 132.496H93.952C94.5909 132.496 95.2037 132.75 95.6554 133.202C96.1072 133.653 96.361 134.266 96.361 134.905C96.361 135.544 96.1072 136.157 95.6554 136.609C95.2037 137.06 94.5909 137.314 93.952 137.314Z" fill="#0D6963"/>
<path d="M67.4521 136.11H28.9031C28.5849 136.11 28.2796 135.984 28.0546 135.759C27.8296 135.534 27.7031 135.229 27.7031 134.91V77.0843C27.7031 76.766 27.8296 76.4608 28.0546 76.2357C28.2796 76.0107 28.5849 75.8843 28.9031 75.8843H67.4471C67.7654 75.8843 68.0706 76.0107 68.2957 76.2357C68.5207 76.4608 68.6471 76.766 68.6471 77.0843V134.901C68.6483 135.059 68.6183 135.216 68.5589 135.362C68.4994 135.508 68.4116 135.642 68.3006 135.754C68.1896 135.866 68.0575 135.955 67.9119 136.017C67.7663 136.078 67.61 136.11 67.4521 136.11ZM30.1121 133.701H66.2471V78.2933H30.1121V133.701Z" fill="#0D6963" stroke="#0D6963"/>
<path d="M59.0208 78.2931H37.3348C37.0165 78.2931 36.7113 78.1667 36.4862 77.9416C36.2612 77.7166 36.1348 77.4114 36.1348 77.0931V65.0401C36.1345 64.8818 36.1656 64.7251 36.2262 64.5788C36.2867 64.4326 36.3756 64.2998 36.4878 64.1881L37.3348 63.3401V38.5401C37.3348 38.2218 37.4612 37.9166 37.6862 37.6916C37.9113 37.4665 38.2165 37.3401 38.5348 37.3401H57.8068C58.125 37.3401 58.4302 37.4665 58.6553 37.6916C58.8803 37.9166 59.0068 38.2218 59.0068 38.5401V63.3401L59.8588 64.1921C59.9709 64.3038 60.0598 64.4366 60.1204 64.5828C60.181 64.729 60.212 64.8858 60.2118 65.0441V77.0891C60.2128 77.4065 60.0881 77.7114 59.8649 77.937C59.6417 78.1627 59.3382 78.2907 59.0208 78.2931ZM38.5438 75.8841H57.8158V65.5401L56.9638 64.6881C56.8516 64.5764 56.7627 64.4436 56.7022 64.2973C56.6416 64.1511 56.6105 63.9944 56.6108 63.8361V39.7461H39.7488V63.8401C39.749 63.9984 39.718 64.1551 39.6574 64.3013C39.5968 64.4476 39.5079 64.5804 39.3958 64.6921L38.5438 65.5441V75.8841Z" fill="#0D6963" stroke="#0D6963"/>
<path d="M48.1766 136.11C47.8583 136.11 47.5531 135.984 47.328 135.759C47.103 135.534 46.9766 135.228 46.9766 134.91V77.0841C46.9766 76.7647 47.1035 76.4583 47.3293 76.2324C47.5552 76.0065 47.8616 75.8796 48.1811 75.8796C48.5005 75.8796 48.8069 76.0065 49.0328 76.2324C49.2587 76.4583 49.3856 76.7647 49.3856 77.0841V134.901C49.3868 135.06 49.3563 135.218 49.296 135.365C49.2356 135.512 49.1466 135.646 49.0341 135.759C48.9216 135.871 48.7879 135.96 48.6406 136.021C48.4934 136.081 48.3357 136.111 48.1766 136.11Z" fill="#0D6963"/>
<path d="M57.8154 65.0391H38.5414C38.3823 65.0391 38.2297 64.9759 38.1171 64.8634C38.0046 64.7509 37.9414 64.5982 37.9414 64.4391C37.9414 64.28 38.0046 64.1274 38.1171 64.0148C38.2297 63.9023 38.3823 63.8391 38.5414 63.8391H57.8134C57.9725 63.8391 58.1251 63.9023 58.2377 64.0148C58.3502 64.1274 58.4134 64.28 58.4134 64.4391C58.4134 64.5982 58.3502 64.7509 58.2377 64.8634C58.1251 64.9759 57.9725 65.0391 57.8134 65.0391H57.8154Z" fill="#0D6963" stroke="#0D6963" stroke-width="0.5"/>
<path d="M59.0213 45.7671H37.3383C37.1792 45.7671 37.0265 45.7039 36.914 45.5914C36.8015 45.4789 36.7383 45.3263 36.7383 45.1671C36.7383 45.008 36.8015 44.8554 36.914 44.7429C37.0265 44.6304 37.1792 44.5671 37.3383 44.5671H59.0193C59.1784 44.5671 59.331 44.6304 59.4435 44.7429C59.5561 44.8554 59.6193 45.008 59.6193 45.1671C59.6193 45.3263 59.5561 45.4789 59.4435 45.5914C59.331 45.7039 59.1784 45.7671 59.0193 45.7671H59.0213Z" fill="#0D6963" stroke="#0D6963" stroke-width="0.5"/>
<path d="M48.1766 39.7492C47.8583 39.7492 47.5531 39.6227 47.328 39.3977C47.103 39.1727 46.9766 38.8674 46.9766 38.5492V34.9262C46.9766 34.6067 47.1035 34.3004 47.3293 34.0745C47.5552 33.8486 47.8616 33.7217 48.1811 33.7217C48.5005 33.7217 48.8069 33.8486 49.0328 34.0745C49.2587 34.3004 49.3856 34.6067 49.3856 34.9262V38.5402C49.3868 38.6993 49.3563 38.857 49.296 39.0043C49.2356 39.1515 49.1466 39.2852 49.0341 39.3977C48.9216 39.5102 48.7879 39.5993 48.6406 39.6596C48.4934 39.7199 48.3357 39.7504 48.1766 39.7492Z" fill="#0D6963"/>
<path d="M51.7898 39.7492C51.4716 39.7492 51.1664 39.6227 50.9413 39.3977C50.7163 39.1727 50.5898 38.8674 50.5898 38.5492V34.9262C50.5898 34.6067 50.7167 34.3004 50.9426 34.0745C51.1685 33.8486 51.4749 33.7217 51.7943 33.7217C52.1138 33.7217 52.4202 33.8486 52.6461 34.0745C52.8719 34.3004 52.9988 34.6067 52.9988 34.9262V38.5402C53 38.6993 52.9696 38.857 52.9093 39.0043C52.8489 39.1515 52.7599 39.2852 52.6474 39.3977C52.5349 39.5102 52.4011 39.5993 52.2539 39.6596C52.1067 39.7199 51.9489 39.7504 51.7898 39.7492Z" fill="#0D6963"/>
<path d="M55.4031 39.7492C55.0849 39.7492 54.7796 39.6227 54.5546 39.3977C54.3296 39.1727 54.2031 38.8674 54.2031 38.5492V34.9262C54.2031 34.6067 54.33 34.3004 54.5559 34.0745C54.7818 33.8486 55.0882 33.7217 55.4076 33.7217C55.7271 33.7217 56.0335 33.8486 56.2593 34.0745C56.4852 34.3004 56.6121 34.6067 56.6121 34.9262V38.5402C56.6133 38.6993 56.5829 38.857 56.5225 39.0043C56.4622 39.1515 56.3732 39.2852 56.2607 39.3977C56.1482 39.5102 56.0144 39.5993 55.8672 39.6596C55.72 39.7199 55.5622 39.7504 55.4031 39.7492Z" fill="#0D6963"/>
<path d="M44.5633 39.7492C44.245 39.7492 43.9398 39.6227 43.7148 39.3977C43.4897 39.1727 43.3633 38.8674 43.3633 38.5492V34.9262C43.3633 34.6067 43.4902 34.3004 43.7161 34.0745C43.942 33.8486 44.2483 33.7217 44.5678 33.7217C44.8872 33.7217 45.1936 33.8486 45.4195 34.0745C45.6454 34.3004 45.7723 34.6067 45.7723 34.9262V38.5402C45.7735 38.6993 45.743 38.857 45.6827 39.0043C45.6224 39.1515 45.5333 39.2852 45.4208 39.3977C45.3083 39.5102 45.1746 39.5993 45.0274 39.6596C44.8801 39.7199 44.7224 39.7504 44.5633 39.7492Z" fill="#0D6963"/>
<path d="M40.948 39.7492C40.6298 39.7492 40.3246 39.6227 40.0995 39.3977C39.8745 39.1727 39.748 38.8674 39.748 38.5492V34.9262C39.748 34.6067 39.8749 34.3004 40.1008 34.0745C40.3267 33.8486 40.6331 33.7217 40.9525 33.7217C41.272 33.7217 41.5784 33.8486 41.8043 34.0745C42.0301 34.3004 42.157 34.6067 42.157 34.9262V38.5402C42.1582 38.6993 42.1278 38.857 42.0675 39.0043C42.0071 39.1515 41.9181 39.2852 41.8056 39.3977C41.6931 39.5102 41.5593 39.5993 41.4121 39.6596C41.2649 39.7199 41.1071 39.7504 40.948 39.7492Z" fill="#0D6963"/>
<path d="M43.3582 45.772C43.0399 45.772 42.7347 45.6455 42.5097 45.4205C42.2846 45.1955 42.1582 44.8902 42.1582 44.572V43.372C42.1582 43.0525 42.2851 42.7462 42.511 42.5203C42.7369 42.2944 43.0432 42.1675 43.3627 42.1675C43.6822 42.1675 43.9885 42.2944 44.2144 42.5203C44.4403 42.7462 44.5672 43.0525 44.5672 43.372V44.572C44.5672 44.7303 44.5359 44.8871 44.475 45.0333C44.4141 45.1795 44.3249 45.3122 44.2126 45.4237C44.1002 45.5353 43.9668 45.6235 43.8202 45.6832C43.6736 45.743 43.5165 45.7732 43.3582 45.772Z" fill="#0D6963"/>
<path d="M52.9949 45.772C52.6767 45.772 52.3714 45.6455 52.1464 45.4205C51.9213 45.1955 51.7949 44.8902 51.7949 44.572V43.372C51.7949 43.0525 51.9218 42.7462 52.1477 42.5203C52.3736 42.2944 52.68 42.1675 52.9994 42.1675C53.3189 42.1675 53.6252 42.2944 53.8511 42.5203C54.077 42.7462 54.2039 43.0525 54.2039 43.372V44.572C54.2039 44.7303 54.1726 44.8871 54.1117 45.0333C54.0509 45.1795 53.9617 45.3122 53.8493 45.4237C53.7369 45.5353 53.6035 45.6235 53.4569 45.6832C53.3103 45.743 53.1533 45.7732 52.9949 45.772Z" fill="#0D6963"/>
<path d="M48.1808 60.828C47.347 60.828 46.5319 60.5807 45.8386 60.1175C45.1452 59.6542 44.6049 58.9958 44.2858 58.2254C43.9667 57.455 43.8832 56.6073 44.0459 55.7895C44.2085 54.9717 44.6101 54.2204 45.1997 53.6308C45.7893 53.0412 46.5405 52.6397 47.3583 52.477C48.1762 52.3143 49.0239 52.3978 49.7942 52.7169C50.5646 53.036 51.2231 53.5764 51.6863 54.2697C52.1496 54.963 52.3969 55.7782 52.3969 56.612C52.3958 57.7298 51.9513 58.8016 51.1608 59.592C50.3704 60.3824 49.2987 60.8269 48.1808 60.828ZM48.1808 53.601C47.5853 53.601 47.0032 53.7776 46.508 54.1084C46.0129 54.4393 45.6269 54.9095 45.3991 55.4597C45.1712 56.0099 45.1115 56.6153 45.2277 57.1994C45.3439 57.7835 45.6306 58.32 46.0517 58.7411C46.4728 59.1622 47.0094 59.449 47.5934 59.5651C48.1775 59.6813 48.7829 59.6217 49.3331 59.3938C49.8833 59.1659 50.3536 58.78 50.6844 58.2848C51.0153 57.7897 51.1919 57.2075 51.1919 56.612C51.1921 55.8129 50.8751 55.0464 50.3105 54.4808C49.7459 53.9153 48.98 53.5971 48.1808 53.596V53.601Z" fill="#0D6963" stroke="#0D6963" stroke-width="0.5"/>
<path d="M48.1787 57.2151C48.0594 57.216 47.9424 57.1813 47.8429 57.1154C47.7433 57.0495 47.6657 56.9553 47.62 56.8451C47.5743 56.7348 47.5625 56.6134 47.5861 56.4964C47.6097 56.3793 47.6678 56.272 47.7527 56.1882L50.1617 53.7791C50.2175 53.7231 50.2838 53.6787 50.3568 53.6483C50.4298 53.6179 50.5081 53.6022 50.5872 53.6021C50.6662 53.6019 50.7446 53.6173 50.8177 53.6475C50.8908 53.6776 50.9572 53.7218 51.0132 53.7776C51.0692 53.8335 51.1137 53.8998 51.1441 53.9728C51.1745 54.0458 51.1902 54.124 51.1903 54.2031C51.1905 54.2822 51.175 54.3605 51.1449 54.4336C51.1148 54.5067 51.0705 54.5731 51.0147 54.6292L48.6057 57.0381C48.5498 57.0944 48.4832 57.139 48.41 57.1694C48.3367 57.1998 48.2581 57.2153 48.1787 57.2151Z" fill="#0D6963"/>
<path d="M68.6576 77.0843H27.7016C27.6228 77.0843 27.5447 77.0688 27.472 77.0386C27.3992 77.0085 27.333 76.9643 27.2773 76.9085C27.2216 76.8528 27.1774 76.7867 27.1472 76.7139C27.1171 76.6411 27.1016 76.5631 27.1016 76.4843C27.1016 76.4055 27.1171 76.3275 27.1472 76.2547C27.1774 76.1819 27.2216 76.1157 27.2773 76.06C27.333 76.0043 27.3992 75.9601 27.472 75.9299C27.5447 75.8998 27.6228 75.8843 27.7016 75.8843H68.6546C68.7333 75.8843 68.8114 75.8998 68.8842 75.9299C68.957 75.9601 69.0231 76.0043 69.0788 76.06C69.1345 76.1157 69.1787 76.1819 69.2089 76.2547C69.239 76.3275 69.2546 76.4055 69.2546 76.4843C69.2546 76.5631 69.239 76.6411 69.2089 76.7139C69.1787 76.7867 69.1345 76.8528 69.0788 76.9085C69.0231 76.9643 68.957 77.0085 68.8842 77.0386C68.8114 77.0688 68.7333 77.0843 68.6546 77.0843H68.6576Z" fill="#0D6963"/>
<path d="M183.087 137.314H28.909C28.2701 137.314 27.6574 137.06 27.2056 136.609C26.7538 136.157 26.5 135.544 26.5 134.905C26.5 134.266 26.7538 133.653 27.2056 133.202C27.6574 132.75 28.2701 132.496 28.909 132.496H183.087C183.726 132.496 184.339 132.75 184.79 133.202C185.242 133.653 185.496 134.266 185.496 134.905C185.496 135.544 185.242 136.157 184.79 136.609C184.339 137.06 183.726 137.314 183.087 137.314Z" fill="#0D6963"/>
<path d="M144.673 134.905H67.3235C67.0225 134.887 66.7409 134.751 66.5399 134.526C66.3388 134.301 66.2344 134.006 66.2495 133.705V104.788C66.2344 104.487 66.3388 104.192 66.5399 103.967C66.7409 103.743 67.0225 103.606 67.3235 103.588H144.672C144.974 103.606 145.255 103.742 145.456 103.967C145.658 104.192 145.762 104.487 145.746 104.788V133.696C145.764 133.999 145.661 134.296 145.46 134.523C145.259 134.749 144.976 134.887 144.673 134.905ZM68.3985 132.496H143.598V105.996H68.3985V132.496Z" fill="#0D6963"/>
<path d="M158.997 136.11H144.538C144.22 136.11 143.914 135.984 143.689 135.759C143.464 135.534 143.338 135.228 143.338 134.91V102.384C143.338 102.197 143.381 102.013 143.464 101.846L145.873 97.0281C145.973 96.828 146.127 96.6597 146.317 96.5421C146.508 96.4244 146.727 96.3621 146.951 96.3621H156.587C156.811 96.3621 157.03 96.4244 157.22 96.5421C157.411 96.6597 157.565 96.828 157.665 97.0281L160.074 101.846C160.157 102.013 160.2 102.197 160.2 102.384V134.906C160.2 135.064 160.17 135.221 160.109 135.367C160.049 135.513 159.961 135.646 159.849 135.758C159.737 135.87 159.604 135.959 159.458 136.019C159.312 136.08 159.155 136.11 158.997 136.11ZM145.747 133.701H157.792V102.668L155.843 98.7681H147.696L145.747 102.668V133.701Z" fill="#0D6963" stroke="#0D6963"/>
<path d="M156.587 98.7671H146.946C146.628 98.7671 146.323 98.6407 146.098 98.4157C145.873 98.1906 145.746 97.8854 145.746 97.5671V45.7671C145.746 45.4489 145.873 45.1437 146.098 44.9186C146.323 44.6936 146.628 44.5671 146.946 44.5671H156.582C156.9 44.5671 157.206 44.6936 157.431 44.9186C157.656 45.1437 157.782 45.4489 157.782 45.7671V97.5671C157.782 97.8845 157.656 98.189 157.432 98.4139C157.208 98.6388 156.904 98.7658 156.587 98.7671ZM148.155 96.3581H155.382V46.9761H148.155V96.3581Z" fill="#0D6963" stroke="#0D6963"/>
<path d="M156.586 46.976H146.95C146.726 46.976 146.507 46.9136 146.316 46.796C146.126 46.6784 145.972 46.5101 145.872 46.31L143.463 41.492C143.371 41.3087 143.328 41.1051 143.337 40.9004C143.346 40.6957 143.407 40.4968 143.515 40.3223C143.622 40.1478 143.772 40.0036 143.951 39.9033C144.13 39.803 144.331 39.7499 144.536 39.749H158.99C159.195 39.7491 159.397 39.8016 159.576 39.9015C159.756 40.0015 159.906 40.1456 160.014 40.3202C160.122 40.4948 160.184 40.6941 160.193 40.8992C160.203 41.1043 160.159 41.3083 160.068 41.492L157.659 46.31C157.559 46.5094 157.406 46.6771 157.216 46.7947C157.027 46.9123 156.809 46.975 156.586 46.976ZM147.694 44.567H155.841L157.041 42.158H146.49L147.694 44.567Z" fill="#0D6963"/>
<path d="M158.997 42.1582H144.538C144.22 42.1582 143.914 42.0317 143.689 41.8067C143.464 41.5816 143.338 41.2764 143.338 40.9581V36.1311C143.338 35.8129 143.464 35.5077 143.689 35.2826C143.914 35.0576 144.22 34.9312 144.538 34.9312H158.992C159.31 34.9312 159.615 35.0576 159.84 35.2826C160.065 35.5077 160.192 35.8129 160.192 36.1311V40.9492C160.193 41.1071 160.163 41.2637 160.104 41.41C160.044 41.5563 159.956 41.6894 159.845 41.8017C159.734 41.9141 159.602 42.0034 159.457 42.0645C159.311 42.1257 159.155 42.1575 158.997 42.1582ZM145.747 39.7491H157.792V37.3401H145.747V39.7491Z" fill="#0D6963"/>
<path d="M157.792 51.7891H145.745C145.666 51.7891 145.588 51.7736 145.515 51.7434C145.442 51.7133 145.376 51.6691 145.32 51.6134C145.265 51.5577 145.22 51.4915 145.19 51.4187C145.16 51.3459 145.145 51.2679 145.145 51.1891C145.145 51.1103 145.16 51.0323 145.19 50.9595C145.22 50.8867 145.265 50.8206 145.32 50.7648C145.376 50.7091 145.442 50.6649 145.515 50.6348C145.588 50.6046 145.666 50.5891 145.745 50.5891H157.79C157.868 50.5891 157.946 50.6046 158.019 50.6348C158.092 50.6649 158.158 50.7091 158.214 50.7648C158.27 50.8206 158.314 50.8867 158.344 50.9595C158.374 51.0323 158.39 51.1103 158.39 51.1891C158.39 51.2679 158.374 51.3459 158.344 51.4187C158.314 51.4915 158.27 51.5577 158.214 51.6134C158.158 51.6691 158.092 51.7133 158.019 51.7434C157.946 51.7736 157.868 51.7891 157.79 51.7891H157.792Z" fill="#0D6963" stroke="#0D6963" stroke-width="0.5"/>
<path d="M155.383 37.3401H148.151C147.833 37.3401 147.528 37.2137 147.303 36.9887C147.078 36.7636 146.951 36.4584 146.951 36.1402V22.8811C146.951 22.5629 147.078 22.2577 147.303 22.0326C147.528 21.8076 147.833 21.6812 148.151 21.6812H155.378C155.696 21.6812 156.002 21.8076 156.227 22.0326C156.452 22.2577 156.578 22.5629 156.578 22.8811V36.1311C156.579 36.2891 156.549 36.4457 156.49 36.592C156.43 36.7383 156.343 36.8714 156.232 36.9837C156.121 37.0961 155.989 37.1854 155.843 37.2465C155.697 37.3077 155.541 37.3395 155.383 37.3401ZM149.36 34.9312H154.178V24.0901H149.36V34.9312Z" fill="#0D6963" stroke="#0D6963" stroke-width="0.5"/>
<path d="M155.383 24.0912H148.152C147.973 24.0919 147.797 24.0527 147.636 23.9767C147.474 23.9006 147.332 23.7895 147.219 23.6515C147.106 23.5134 147.025 23.352 146.982 23.1787C146.939 23.0055 146.936 22.825 146.972 22.6502L150.586 4.58221C150.636 4.30588 150.782 4.056 150.998 3.8761C151.213 3.69619 151.485 3.59766 151.766 3.59766C152.047 3.59766 152.319 3.69619 152.535 3.8761C152.751 4.056 152.896 4.30588 152.947 4.58221L156.561 22.6502C156.597 22.825 156.593 23.0055 156.55 23.1787C156.507 23.352 156.427 23.5134 156.314 23.6515C156.201 23.7895 156.058 23.9006 155.897 23.9767C155.735 24.0527 155.559 24.0919 155.381 24.0912H155.383ZM149.625 21.6822H153.913L151.769 10.9612L149.625 21.6822Z" fill="#0D6963" stroke="#0D6963" stroke-width="0.5"/>
<path d="M151.764 7.2271C151.446 7.2271 151.141 7.10068 150.916 6.87563C150.691 6.65059 150.564 6.34537 150.564 6.02711V1.2001C150.564 0.88065 150.691 0.574284 150.917 0.348396C151.143 0.122509 151.449 -0.00439453 151.769 -0.00439453C152.088 -0.00439453 152.395 0.122509 152.621 0.348396C152.847 0.574284 152.973 0.88065 152.973 1.2001V6.0181C152.975 6.17721 152.944 6.33496 152.884 6.48219C152.824 6.62941 152.735 6.76317 152.622 6.87567C152.51 6.98818 152.376 7.07719 152.229 7.13752C152.081 7.19785 151.924 7.2283 151.764 7.2271Z" fill="#0D6963"/>
<path d="M92.045 105.997C92.0373 105.996 92.0296 105.996 92.022 105.997H69.36C69.0509 105.987 68.7582 105.856 68.5458 105.631C68.3335 105.406 68.2189 105.106 68.227 104.797C68.227 99.3371 73.787 92.7471 80.691 92.7471C87.485 92.7471 92.977 99.1271 93.151 104.53C93.1692 104.617 93.1782 104.705 93.178 104.793C93.1871 105.103 93.0729 105.404 92.8605 105.629C92.6481 105.855 92.3548 105.987 92.045 105.997ZM70.608 103.588H90.775C90.026 99.5341 85.684 95.1561 80.691 95.1561C75.698 95.1561 71.357 99.5331 70.608 103.588Z" fill="#0D6963" stroke="#0D6963"/>
<path d="M118.055 105.997C118.047 105.998 118.039 105.998 118.031 105.997H93.9363C93.6181 105.997 93.3128 105.871 93.0878 105.646C92.8628 105.421 92.7363 105.115 92.7363 104.797C92.7363 99.3371 98.6473 92.7471 105.986 92.7471C113.208 92.7471 119.048 99.1271 119.231 104.53C119.251 104.616 119.26 104.705 119.26 104.793C119.261 104.951 119.23 105.108 119.17 105.255C119.109 105.401 119.021 105.534 118.909 105.646C118.796 105.758 118.663 105.847 118.517 105.907C118.371 105.967 118.214 105.998 118.055 105.997ZM95.2673 103.588H116.705C115.905 99.5341 111.292 95.1561 105.986 95.1561C100.68 95.1561 96.0633 99.5331 95.2673 103.588Z" fill="#0D6963" stroke="#0D6963"/>
<path d="M142.253 105.997C142.246 105.998 142.238 105.998 142.231 105.997H120.055C119.749 105.984 119.461 105.851 119.253 105.626C119.045 105.401 118.935 105.103 118.946 104.797C118.946 99.3371 124.386 92.7471 131.146 92.7471C137.794 92.7471 143.17 99.1271 143.338 104.53C143.356 104.617 143.365 104.705 143.365 104.793C143.377 105.1 143.267 105.4 143.058 105.625C142.85 105.851 142.56 105.985 142.253 105.997ZM121.276 103.588H141.01C140.277 99.5341 136.027 95.1561 131.143 95.1561C126.259 95.1561 122.008 99.5331 121.276 103.588Z" fill="#0D6963" stroke="#0D6963"/>
<path d="M158.995 103.584H144.539C144.38 103.584 144.228 103.521 144.115 103.409C144.003 103.296 143.939 103.143 143.939 102.984C143.939 102.825 144.003 102.673 144.115 102.56C144.228 102.447 144.38 102.384 144.539 102.384H158.993C159.153 102.384 159.305 102.447 159.418 102.56C159.53 102.673 159.593 102.825 159.593 102.984C159.593 103.143 159.53 103.296 159.418 103.409C159.305 103.521 159.153 103.584 158.993 103.584H158.995Z" fill="#0D6963" stroke="#0D6963" stroke-width="0.5"/>
<path d="M130.143 95.1572C129.811 95.1281 129.504 94.9696 129.289 94.7159C129.074 94.4622 128.967 94.1339 128.993 93.8022V87.0262H83.0025V93.8012C83.0295 93.9677 83.02 94.1382 82.9746 94.3007C82.9292 94.4633 82.8491 94.614 82.7397 94.7425C82.6304 94.8711 82.4944 94.9743 82.3412 95.0451C82.188 95.1158 82.0212 95.1525 81.8525 95.1525C81.6837 95.1525 81.517 95.1158 81.3638 95.0451C81.2106 94.9743 81.0747 94.8711 80.9653 94.7425C80.8559 94.614 80.7758 94.4633 80.7304 94.3007C80.685 94.1382 80.6755 93.9677 80.7025 93.8012V85.6712C80.6775 85.3395 80.7842 85.0113 80.9995 84.7577C81.2147 84.5041 81.5212 84.3455 81.8525 84.3162H130.143C130.474 84.3452 130.781 84.5038 130.996 84.7574C131.211 85.0111 131.318 85.3394 131.292 85.6712V93.8012C131.318 94.1331 131.212 94.4616 130.996 94.7155C130.781 94.9694 130.474 95.1281 130.143 95.1572Z" fill="#0D6963" stroke="#0D6963" stroke-width="0.5"/>
<path d="M130.116 93.9471H81.8793C81.7202 93.9471 81.5676 93.8839 81.455 93.7713C81.3425 93.6588 81.2793 93.5062 81.2793 93.3471C81.2793 93.1879 81.3425 93.0353 81.455 92.9228C81.5676 92.8103 81.7202 92.7471 81.8793 92.7471H130.116C130.275 92.7471 130.428 92.8103 130.541 92.9228C130.653 93.0353 130.716 93.1879 130.716 93.3471C130.716 93.5062 130.653 93.6588 130.541 93.7713C130.428 93.8839 130.275 93.9471 130.116 93.9471Z" fill="#0D6963" stroke="#0D6963" stroke-width="0.5"/>
<path d="M126.541 86.7249C126.231 86.7166 125.937 86.5856 125.723 86.3606C125.509 86.1357 125.393 85.8352 125.4 85.5249C125.4 76.9959 117.1 67.4569 106 67.4569C94.9004 67.4569 86.6004 76.9959 86.6004 85.5249C86.6096 85.6805 86.5869 85.8362 86.5338 85.9827C86.4806 86.1291 86.398 86.2631 86.2912 86.3765C86.1843 86.4899 86.0554 86.5802 85.9124 86.6419C85.7693 86.7037 85.6152 86.7355 85.4594 86.7355C85.3036 86.7355 85.1495 86.7037 85.0064 86.6419C84.8634 86.5802 84.7345 86.4899 84.6276 86.3765C84.5208 86.2631 84.4382 86.1291 84.385 85.9827C84.3319 85.8362 84.3092 85.6805 84.3184 85.5249C84.3204 74.6129 94.4514 65.0439 106.001 65.0439C117.551 65.0439 127.682 74.613 127.682 85.521C127.691 85.8319 127.575 86.1334 127.361 86.3592C127.147 86.585 126.852 86.7166 126.541 86.7249Z" fill="#0D6963" stroke="#0D6963"/>
<path d="M105.993 67.4532C105.675 67.4532 105.369 67.3268 105.144 67.1017C104.919 66.8767 104.793 66.5714 104.793 66.2532V61.4262C104.793 61.1067 104.92 60.8004 105.146 60.5745C105.372 60.3486 105.678 60.2217 105.997 60.2217C106.317 60.2217 106.623 60.3486 106.849 60.5745C107.075 60.8004 107.202 61.1067 107.202 61.4262V66.2442C107.203 66.4033 107.173 66.561 107.112 66.7083C107.052 66.8555 106.963 66.9892 106.851 67.1017C106.738 67.2143 106.604 67.3033 106.457 67.3636C106.31 67.4239 106.152 67.4544 105.993 67.4532Z" fill="#0D6963" stroke="#0D6963" stroke-width="0.5"/>
<path d="M155.983 40.3523C155.824 40.3523 155.671 40.2891 155.559 40.1765C155.446 40.064 155.383 39.9114 155.383 39.7523V37.3383C155.383 37.1792 155.446 37.0265 155.559 36.914C155.671 36.8015 155.824 36.7383 155.983 36.7383C156.142 36.7383 156.295 36.8015 156.407 36.914C156.52 37.0265 156.583 37.1792 156.583 37.3383V39.7473C156.583 39.8265 156.568 39.9051 156.539 39.9784C156.509 40.0518 156.465 40.1185 156.409 40.1748C156.353 40.231 156.287 40.2757 156.214 40.3061C156.14 40.3366 156.062 40.3523 155.983 40.3523Z" fill="#0D6963"/>
<path d="M152.37 40.3523C152.21 40.3523 152.058 40.2891 151.945 40.1765C151.833 40.064 151.77 39.9114 151.77 39.7523V37.3383C151.77 37.1792 151.833 37.0265 151.945 36.914C152.058 36.8015 152.21 36.7383 152.37 36.7383C152.529 36.7383 152.681 36.8015 152.794 36.914C152.906 37.0265 152.97 37.1792 152.97 37.3383V39.7473C152.97 39.8265 152.955 39.9051 152.925 39.9784C152.895 40.0518 152.851 40.1185 152.796 40.1748C152.74 40.231 152.673 40.2757 152.6 40.3061C152.527 40.3366 152.449 40.3523 152.37 40.3523Z" fill="#0D6963"/>
<path d="M148.754 40.3523C148.595 40.3523 148.443 40.2891 148.33 40.1765C148.218 40.064 148.154 39.9114 148.154 39.7523V37.3383C148.154 37.1792 148.218 37.0265 148.33 36.914C148.443 36.8015 148.595 36.7383 148.754 36.7383C148.913 36.7383 149.066 36.8015 149.179 36.914C149.291 37.0265 149.354 37.1792 149.354 37.3383V39.7473C149.355 39.8265 149.34 39.9051 149.31 39.9784C149.28 40.0518 149.236 40.1185 149.18 40.1748C149.125 40.231 149.058 40.2757 148.985 40.3061C148.912 40.3366 148.834 40.3523 148.754 40.3523Z" fill="#0D6963"/>
<path d="M107.804 116.838H104.188C104.029 116.838 103.876 116.775 103.764 116.662C103.651 116.55 103.588 116.397 103.588 116.238V111.42C103.588 109.759 104.668 108.409 105.997 108.409C107.326 108.409 108.406 109.759 108.406 111.42V116.238C108.406 116.317 108.39 116.395 108.36 116.468C108.33 116.541 108.285 116.607 108.229 116.663C108.174 116.719 108.107 116.763 108.034 116.793C107.961 116.823 107.883 116.838 107.804 116.838ZM104.793 115.638H107.202V111.422C107.202 110.442 106.65 109.615 106.002 109.615C105.354 109.615 104.802 110.441 104.802 111.422L104.793 115.638Z" fill="#0D6963" stroke="#0D6963" stroke-width="0.7"/>
<path d="M131.894 116.838H128.278C128.119 116.838 127.966 116.775 127.853 116.662C127.741 116.55 127.678 116.397 127.678 116.238V111.42C127.678 109.759 128.758 108.409 130.087 108.409C131.416 108.409 132.496 109.759 132.496 111.42V116.238C132.496 116.317 132.48 116.395 132.45 116.468C132.42 116.541 132.375 116.607 132.319 116.663C132.263 116.719 132.197 116.763 132.124 116.793C132.051 116.823 131.973 116.838 131.894 116.838ZM128.883 115.638H131.292V111.422C131.292 110.442 130.74 109.615 130.092 109.615C129.444 109.615 128.892 110.441 128.892 111.422L128.883 115.638Z" fill="#0D6963" stroke="#0D6963" stroke-width="0.7"/>
<path d="M81.3039 116.838H77.6879C77.5288 116.838 77.3761 116.775 77.2636 116.662C77.1511 116.55 77.0879 116.397 77.0879 116.238V111.42C77.0879 109.759 78.1679 108.409 79.4969 108.409C80.8259 108.409 81.9059 109.759 81.9059 111.42V116.238C81.9059 116.317 81.8903 116.395 81.86 116.468C81.8298 116.541 81.7854 116.607 81.7294 116.663C81.6735 116.719 81.6071 116.763 81.5341 116.793C81.4611 116.823 81.3829 116.838 81.3039 116.838ZM78.2929 115.638H80.7019V111.422C80.7019 110.442 80.1499 109.615 79.5019 109.615C78.8539 109.615 78.3019 110.441 78.3019 111.422L78.2929 115.638Z" fill="#0D6963" stroke="#0D6963" stroke-width="0.7"/>
<path d="M112.622 133.701H99.3695C99.2104 133.701 99.0578 133.638 98.9453 133.525C98.8327 133.413 98.7695 133.26 98.7695 133.101V121.051C98.7695 120.892 98.8327 120.739 98.9453 120.627C99.0578 120.514 99.2104 120.451 99.3695 120.451H112.62C112.698 120.451 112.776 120.467 112.849 120.497C112.922 120.527 112.988 120.571 113.044 120.627C113.1 120.683 113.144 120.749 113.174 120.822C113.204 120.894 113.22 120.972 113.22 121.051V133.096C113.22 133.175 113.205 133.254 113.175 133.327C113.146 133.4 113.102 133.467 113.046 133.523C112.991 133.579 112.925 133.624 112.852 133.654C112.779 133.685 112.701 133.701 112.622 133.701ZM99.9745 132.501H112.02V121.651H99.9695L99.9745 132.501Z" fill="#0D6963" stroke="#0D6963" stroke-width="0.7"/>
<path d="M109.008 133.701H102.983C102.824 133.701 102.672 133.638 102.559 133.526C102.447 133.413 102.383 133.26 102.383 133.101V125.874C102.383 125.77 102.41 125.668 102.461 125.577C102.513 125.486 102.587 125.411 102.676 125.357L104.182 124.457C104.743 124.165 105.365 124.013 105.997 124.013C106.629 124.013 107.252 124.165 107.812 124.457L109.319 125.357C109.409 125.411 109.483 125.486 109.534 125.577C109.585 125.668 109.612 125.77 109.611 125.874V133.101C109.611 133.18 109.596 133.259 109.565 133.332C109.535 133.405 109.491 133.471 109.435 133.527C109.378 133.582 109.312 133.627 109.239 133.656C109.166 133.686 109.087 133.702 109.008 133.701ZM103.588 132.501H108.406V126.217L107.193 125.489C106.821 125.308 106.412 125.214 105.997 125.214C105.583 125.214 105.174 125.308 104.801 125.489L103.588 126.217V132.501Z" fill="#0D6963" stroke="#0D6963" stroke-width="0.7"/>
<path d="M297.514 137.314H150.563C149.924 137.314 149.312 137.06 148.86 136.609C148.408 136.157 148.154 135.544 148.154 134.905C148.154 134.266 148.408 133.653 148.86 133.202C149.312 132.75 149.924 132.496 150.563 132.496H297.514C298.153 132.496 298.766 132.75 299.218 133.202C299.669 133.653 299.923 134.266 299.923 134.905C299.923 135.544 299.669 136.157 299.218 136.609C298.766 137.06 298.153 137.314 297.514 137.314Z" fill="#0D6963"/>
<path d="M269.807 136.11H243.307C242.989 136.11 242.684 135.984 242.459 135.759C242.234 135.534 242.107 135.228 242.107 134.91V86.72C242.107 86.4018 242.234 86.0965 242.459 85.8715C242.684 85.6464 242.989 85.52 243.307 85.52H246.921C247.24 85.52 247.545 85.6464 247.77 85.8715C247.995 86.0965 248.121 86.4018 248.121 86.72V89.129H249.321V86.72C249.321 86.4018 249.448 86.0965 249.673 85.8715C249.898 85.6464 250.203 85.52 250.521 85.52H254.135C254.454 85.52 254.759 85.6464 254.984 85.8715C255.209 86.0965 255.335 86.4018 255.335 86.72V89.129H257.744V86.72C257.744 86.4018 257.871 86.0965 258.096 85.8715C258.321 85.6464 258.626 85.52 258.944 85.52H262.558C262.877 85.52 263.182 85.6464 263.407 85.8715C263.632 86.0965 263.758 86.4018 263.758 86.72V89.129H264.958V86.72C264.958 86.4018 265.085 86.0965 265.31 85.8715C265.535 85.6464 265.84 85.52 266.158 85.52H269.807C270.126 85.52 270.431 85.6464 270.656 85.8715C270.881 86.0965 271.007 86.4018 271.007 86.72V134.9C271.009 135.058 270.979 135.216 270.919 135.362C270.859 135.509 270.771 135.643 270.66 135.755C270.548 135.868 270.415 135.957 270.269 136.018C270.123 136.079 269.966 136.11 269.807 136.11ZM244.512 133.701H268.607V87.929H267.407V90.338C267.407 90.6563 267.281 90.9615 267.056 91.1866C266.831 91.4116 266.526 91.538 266.207 91.538H262.593C262.275 91.538 261.97 91.4116 261.745 91.1866C261.52 90.9615 261.393 90.6563 261.393 90.338V87.929H260.193V90.338C260.193 90.6563 260.067 90.9615 259.842 91.1866C259.617 91.4116 259.312 91.538 258.993 91.538H254.175C253.857 91.538 253.552 91.4116 253.327 91.1866C253.102 90.9615 252.975 90.6563 252.975 90.338V87.929H251.775V90.338C251.775 90.6563 251.649 90.9615 251.424 91.1866C251.199 91.4116 250.894 91.538 250.575 91.538H246.961C246.643 91.538 246.338 91.4116 246.113 91.1866C245.888 90.9615 245.761 90.6563 245.761 90.338V87.929H244.561L244.512 133.701Z" fill="#0D6963" stroke="#0D6963" stroke-width="0.7"/>
<path d="M192.718 136.11H166.218C165.899 136.11 165.594 135.984 165.369 135.759C165.144 135.534 165.018 135.228 165.018 134.91V86.72C165.018 86.4018 165.144 86.0965 165.369 85.8715C165.594 85.6464 165.899 85.52 166.218 85.52H172.241C172.559 85.52 172.864 85.6464 173.089 85.8715C173.314 86.0965 173.441 86.4018 173.441 86.72V89.129H174.641V86.72C174.641 86.4018 174.767 86.0965 174.992 85.8715C175.217 85.6464 175.522 85.52 175.841 85.52H183.068C183.386 85.52 183.691 85.6464 183.916 85.8715C184.141 86.0965 184.268 86.4018 184.268 86.72V89.129H185.468V86.72C185.468 86.4018 185.594 86.0965 185.819 85.8715C186.044 85.6464 186.349 85.52 186.668 85.52H192.718C193.036 85.52 193.341 85.6464 193.566 85.8715C193.791 86.0965 193.918 86.4018 193.918 86.72V134.9C193.919 135.058 193.889 135.216 193.829 135.362C193.769 135.509 193.681 135.643 193.57 135.755C193.458 135.868 193.325 135.957 193.179 136.018C193.033 136.079 192.876 136.11 192.718 136.11ZM167.423 133.701H191.518V87.929H187.904V90.338C187.904 90.6563 187.777 90.9615 187.552 91.1866C187.327 91.4116 187.022 91.538 186.704 91.538H183.09C182.771 91.538 182.466 91.4116 182.241 91.1866C182.016 90.9615 181.89 90.6563 181.89 90.338V87.929H177.072V90.338C177.072 90.6563 176.945 90.9615 176.72 91.1866C176.495 91.4116 176.19 91.538 175.872 91.538H172.258C171.939 91.538 171.634 91.4116 171.409 91.1866C171.184 90.9615 171.058 90.6563 171.058 90.338V87.929H167.444L167.423 133.701Z" fill="#0D6963" stroke="#0D6963" stroke-width="0.7"/>
<path d="M192.721 97.5611H166.221C166.062 97.5611 165.909 97.4979 165.797 97.3853C165.684 97.2728 165.621 97.1202 165.621 96.9611C165.621 96.802 165.684 96.6493 165.797 96.5368C165.909 96.4243 166.062 96.3611 166.221 96.3611H192.721C192.88 96.3611 193.033 96.4243 193.145 96.5368C193.258 96.6493 193.321 96.802 193.321 96.9611C193.321 97.1202 193.258 97.2728 193.145 97.3853C193.033 97.4979 192.88 97.5611 192.721 97.5611Z" fill="#0D6963" stroke="#0D6963" stroke-width="0.5"/>
<path d="M269.809 97.5611H243.309C243.15 97.5611 242.997 97.4979 242.885 97.3853C242.772 97.2728 242.709 97.1202 242.709 96.9611C242.709 96.802 242.772 96.6493 242.885 96.5368C242.997 96.4243 243.15 96.3611 243.309 96.3611H269.809C269.968 96.3611 270.121 96.4243 270.233 96.5368C270.346 96.6493 270.409 96.802 270.409 96.9611C270.409 97.1202 270.346 97.2728 270.233 97.3853C270.121 97.4979 269.968 97.5611 269.809 97.5611Z" fill="#0D6963" stroke="#0D6963" stroke-width="0.5"/>
<path d="M252.942 101.179C252.624 101.179 252.319 101.053 252.094 100.827C251.869 100.602 251.742 100.297 251.742 99.9789V97.5609C251.742 97.2415 251.869 96.9351 252.095 96.7092C252.321 96.4834 252.627 96.3564 252.947 96.3564C253.266 96.3564 253.573 96.4834 253.798 96.7092C254.024 96.9351 254.151 97.2415 254.151 97.5609V99.9699C254.152 100.129 254.122 100.287 254.062 100.434C254.001 100.581 253.912 100.715 253.8 100.828C253.687 100.94 253.553 101.029 253.406 101.089C253.259 101.15 253.101 101.18 252.942 101.179Z" fill="#0D6963"/>
<path d="M260.171 101.179C259.852 101.179 259.547 101.053 259.322 100.827C259.097 100.602 258.971 100.297 258.971 99.9789V97.5609C258.971 97.2415 259.098 96.9351 259.323 96.7092C259.549 96.4834 259.856 96.3564 260.175 96.3564C260.495 96.3564 260.801 96.4834 261.027 96.7092C261.253 96.9351 261.38 97.2415 261.38 97.5609V99.9699C261.381 100.129 261.35 100.287 261.29 100.434C261.23 100.581 261.141 100.715 261.028 100.828C260.916 100.94 260.782 101.029 260.635 101.089C260.488 101.15 260.33 101.18 260.171 101.179Z" fill="#0D6963"/>
<path d="M209.581 136.111C209.263 136.111 208.957 135.985 208.732 135.759C208.507 135.534 208.381 135.229 208.381 134.911V110.811C208.381 110.491 208.508 110.185 208.734 109.959C208.96 109.733 209.266 109.606 209.585 109.606C209.905 109.606 210.211 109.733 210.437 109.959C210.663 110.185 210.79 110.491 210.79 110.811V134.901C210.791 135.06 210.761 135.218 210.701 135.365C210.64 135.513 210.551 135.647 210.439 135.759C210.326 135.872 210.192 135.961 210.045 136.021C209.898 136.082 209.74 136.112 209.581 136.111Z" fill="#0D6963"/>
<path d="M226.444 136.111C226.126 136.111 225.821 135.985 225.596 135.759C225.371 135.534 225.244 135.229 225.244 134.911V110.811C225.244 110.491 225.371 110.185 225.597 109.959C225.823 109.733 226.129 109.606 226.449 109.606C226.768 109.606 227.074 109.733 227.3 109.959C227.526 110.185 227.653 110.491 227.653 110.811V134.901C227.654 135.06 227.624 135.218 227.564 135.365C227.504 135.513 227.415 135.647 227.302 135.759C227.19 135.872 227.056 135.961 226.908 136.021C226.761 136.082 226.603 136.112 226.444 136.111Z" fill="#0D6963"/>
<path d="M213.199 136.11H205.967C205.648 136.11 205.341 135.983 205.115 135.757C204.89 135.531 204.763 135.225 204.763 134.905C204.763 134.586 204.89 134.28 205.115 134.054C205.341 133.828 205.648 133.701 205.967 133.701H213.194C213.514 133.701 213.82 133.828 214.046 134.054C214.272 134.28 214.399 134.586 214.399 134.905C214.399 135.225 214.272 135.531 214.046 135.757C213.82 135.983 213.514 136.11 213.194 136.11H213.199Z" fill="#0D6963" stroke="#0D6963" stroke-width="0.5"/>
<path d="M230.062 136.11H222.83C222.511 136.11 222.205 135.983 221.979 135.757C221.753 135.531 221.626 135.225 221.626 134.905C221.626 134.586 221.753 134.28 221.979 134.054C222.205 133.828 222.511 133.701 222.83 133.701H230.057C230.377 133.701 230.683 133.828 230.909 134.054C231.135 134.28 231.262 134.586 231.262 134.905C231.262 135.225 231.135 135.531 230.909 135.757C230.683 135.983 230.377 136.11 230.057 136.11H230.062Z" fill="#0D6963" stroke="#0D6963" stroke-width="0.5"/>
<path d="M243.312 136.11H239.698C239.378 136.11 239.072 135.983 238.846 135.757C238.62 135.531 238.493 135.225 238.493 134.905C238.493 134.586 238.62 134.28 238.846 134.054C239.072 133.828 239.378 133.701 239.698 133.701H242.107V113.224H193.927V133.701H196.336C196.655 133.701 196.961 133.828 197.187 134.054C197.413 134.28 197.54 134.586 197.54 134.905C197.54 135.225 197.413 135.531 197.187 135.757C196.961 135.983 196.655 136.11 196.336 136.11H192.718C192.399 136.11 192.094 135.984 191.869 135.758C191.644 135.533 191.518 135.228 191.518 134.91V112.015C191.518 111.697 191.644 111.391 191.869 111.166C192.094 110.941 192.399 110.815 192.718 110.815H243.308C243.626 110.815 243.931 110.941 244.156 111.166C244.381 111.391 244.508 111.697 244.508 112.015V134.905C244.508 135.063 244.478 135.219 244.418 135.365C244.358 135.511 244.27 135.643 244.159 135.755C244.048 135.867 243.916 135.956 243.771 136.017C243.625 136.078 243.469 136.109 243.312 136.11Z" fill="#0D6963" stroke="#0D6963" stroke-width="0.5"/>
<path d="M205.972 136.11H196.331C196.013 136.11 195.708 135.984 195.483 135.758C195.258 135.533 195.131 135.228 195.131 134.91V124.065C195.121 123.268 195.269 122.476 195.567 121.736C195.865 120.997 196.307 120.324 196.868 119.756C197.428 119.188 198.095 118.738 198.831 118.43C199.567 118.123 200.356 117.964 201.154 117.964C201.951 117.964 202.741 118.123 203.477 118.43C204.212 118.738 204.88 119.188 205.44 119.756C206 120.324 206.442 120.997 206.74 121.736C207.038 122.476 207.187 123.268 207.176 124.065V134.906C207.177 135.064 207.146 135.221 207.086 135.367C207.025 135.514 206.937 135.647 206.825 135.758C206.713 135.87 206.58 135.959 206.434 136.019C206.287 136.08 206.131 136.11 205.972 136.11ZM197.54 133.701H204.767V124.065C204.752 123.117 204.364 122.213 203.688 121.548C203.012 120.884 202.102 120.511 201.154 120.511C200.206 120.511 199.296 120.884 198.62 121.548C197.944 122.213 197.556 123.117 197.54 124.065V133.701Z" fill="#0D6963" stroke="#0D6963" stroke-width="0.5"/>
<path d="M222.836 136.11H213.195C212.876 136.11 212.571 135.984 212.346 135.758C212.121 135.533 211.995 135.228 211.995 134.91V124.065C211.984 123.268 212.133 122.476 212.431 121.736C212.729 120.997 213.171 120.324 213.731 119.756C214.291 119.188 214.959 118.738 215.694 118.43C216.43 118.123 217.22 117.964 218.017 117.964C218.815 117.964 219.604 118.123 220.34 118.43C221.076 118.738 221.743 119.188 222.303 119.756C222.864 120.324 223.306 120.997 223.604 121.736C223.902 122.476 224.05 123.268 224.04 124.065V134.906C224.04 135.064 224.009 135.221 223.949 135.367C223.889 135.514 223.8 135.647 223.688 135.758C223.576 135.87 223.443 135.959 223.297 136.019C223.151 136.08 222.994 136.11 222.836 136.11ZM214.404 133.701H221.631V124.065C221.615 123.117 221.227 122.213 220.551 121.548C219.875 120.884 218.965 120.511 218.017 120.511C217.069 120.511 216.159 120.884 215.483 121.548C214.807 122.213 214.419 123.117 214.404 124.065V133.701Z" fill="#0D6963" stroke="#0D6963" stroke-width="0.5"/>
<path d="M239.699 136.11H230.058C229.74 136.11 229.434 135.984 229.209 135.758C228.984 135.533 228.858 135.228 228.858 134.91V124.065C228.848 123.268 228.996 122.476 229.294 121.736C229.592 120.997 230.034 120.324 230.594 119.756C231.154 119.188 231.822 118.738 232.558 118.43C233.293 118.123 234.083 117.964 234.88 117.964C235.678 117.964 236.467 118.123 237.203 118.43C237.939 118.738 238.606 119.188 239.167 119.756C239.727 120.324 240.169 120.997 240.467 121.736C240.765 122.476 240.913 123.268 240.903 124.065V134.906C240.903 135.064 240.873 135.221 240.812 135.367C240.752 135.514 240.663 135.647 240.551 135.758C240.44 135.87 240.307 135.959 240.16 136.019C240.014 136.08 239.857 136.11 239.699 136.11ZM231.267 133.701H238.494V124.065C238.502 123.585 238.414 123.109 238.236 122.664C238.058 122.218 237.793 121.813 237.457 121.471C237.121 121.129 236.72 120.857 236.277 120.672C235.835 120.486 235.36 120.391 234.88 120.391C234.401 120.391 233.926 120.486 233.484 120.672C233.041 120.857 232.64 121.129 232.304 121.471C231.967 121.813 231.703 122.218 231.525 122.664C231.347 123.109 231.259 123.585 231.267 124.065V133.701Z" fill="#0D6963" stroke="#0D6963" stroke-width="0.5"/>
</g>
<defs>
<clipPath id="clip0_1372_1224">
<rect width="299.923" height="137.315" fill="white"/>
</clipPath>
</defs>
</svg>
