<svg width="20" height="23" viewBox="0 0 20 23" fill="none" xmlns="http://www.w3.org/2000/svg">
<path d="M19.657 11.759H17.3639C17.1745 11.759 17.0209 11.9126 17.0209 12.102C17.0209 12.2914 17.1745 12.445 17.3639 12.445H19.314V21.5724H17.7069V13.6436C17.7069 13.4542 17.5534 13.3006 17.364 13.3006C17.1746 13.3006 17.021 13.4542 17.021 13.6436V21.9154C17.021 22.1048 17.1746 22.2583 17.364 22.2583H19.6571C19.8464 22.2583 20 22.1048 20 21.9154V12.102C20 11.9126 19.8464 11.759 19.657 11.759Z" fill="white"/>
<path d="M15.3488 16.0253H13.0558C12.8663 16.0253 12.7127 16.1789 12.7127 16.3683V21.9154C12.7127 22.1048 12.8663 22.2583 13.0558 22.2583H15.3488C15.5382 22.2583 15.6918 22.1048 15.6918 21.9154V16.3683C15.6918 16.1789 15.5382 16.0253 15.3488 16.0253ZM15.0058 21.5724H13.3987V16.7113H15.0058V21.5724Z" fill="white"/>
<path d="M11.0406 17.9427H8.74752C8.55806 17.9427 8.40455 18.0963 8.40455 18.2857V21.9154C8.40455 22.1048 8.55811 22.2583 8.74752 22.2583H11.0406C11.23 22.2583 11.3836 22.1048 11.3836 21.9154V18.2857C11.3836 18.0963 11.23 17.9427 11.0406 17.9427ZM10.6976 21.5724H9.09045V18.6287H10.6976V21.5724Z" fill="white"/>
<path d="M6.73234 19.5616H4.43923C4.24982 19.5616 4.09625 19.7151 4.09625 19.9046V21.9154C4.09625 22.1048 4.24982 22.2583 4.43923 22.2583H6.73234C6.92175 22.2583 7.07531 22.1048 7.07531 21.9154V19.9046C7.07531 19.7151 6.9218 19.5616 6.73234 19.5616ZM6.38936 21.5724H4.78226V20.2476H6.38936V21.5724Z" fill="white"/>
<path d="M17.9531 7.14544C18.011 7.02858 17.9975 6.88899 17.9184 6.7853L16.565 5.01157C16.5002 4.92651 16.3993 4.87659 16.2924 4.87659C16.1854 4.87659 16.0846 4.92651 16.0196 5.01157L14.6663 6.7853C14.5514 6.93587 14.5804 7.15111 14.7309 7.26604C14.7931 7.31343 14.8662 7.33637 14.9387 7.33637C15.042 7.33637 15.1441 7.28994 15.2117 7.20144L16.2923 5.78507L16.9525 6.65036H16.2923C16.1029 6.65036 15.9494 6.80393 15.9494 6.99334C15.9494 11.9317 11.9317 15.9493 6.99339 15.9493C6.80393 15.9493 6.65041 16.1029 6.65041 16.2923C6.65041 16.4817 6.80398 16.6353 6.99339 16.6353C12.1951 16.6353 16.4472 12.4946 16.6286 7.33632H17.6457C17.7762 7.33632 17.8953 7.26235 17.9531 7.14544Z" fill="white"/>
<path d="M11.708 12.1535C11.7275 12.1385 11.7451 12.1216 11.761 12.1029C13.1291 10.8255 13.9867 9.00813 13.9867 6.99329C13.9867 3.13719 10.8495 0 6.99339 0C6.81861 0 6.64596 0.00860728 6.47437 0.0212652C6.47396 0.0212652 6.47356 0.0212146 6.47315 0.0212652C6.4729 0.0212652 6.47265 0.0213666 6.47234 0.0214172C4.49913 0.167591 2.75127 1.13455 1.5709 2.58312C1.5511 2.60252 1.53429 2.62459 1.51961 2.64834C0.569657 3.84259 0 5.35222 0 6.99324C0 8.81912 0.704083 10.4831 1.85413 11.7298C1.86881 11.749 1.88547 11.7663 1.9038 11.7819C3.18007 13.1375 4.98894 13.9865 6.99334 13.9865C8.80833 13.9866 10.4637 13.2913 11.708 12.1535ZM6.71608 12.0671C5.97529 11.4945 5.05162 11.1792 4.11524 11.1792H2.28085C1.28979 10.0647 0.686109 8.59847 0.686109 6.99329C0.686109 5.55718 1.16949 4.23245 1.98081 3.17101H3.89398C4.39857 3.17101 4.80914 3.58153 4.80914 4.08617C4.80914 4.59082 4.39857 5.00139 3.89398 5.00139H2.96392C2.18141 5.00139 1.54477 5.63803 1.54477 6.42055C1.54477 7.20311 2.18141 7.8397 2.96392 7.8397H3.03567C3.4993 7.8397 3.87641 8.21691 3.87641 8.68054C3.87641 9.14417 3.49925 9.52133 3.03567 9.52133C2.84621 9.52133 2.69269 9.67484 2.69269 9.86431C2.69269 10.0537 2.84626 10.2073 3.03567 10.2073C3.87752 10.2073 4.56242 9.52234 4.56242 8.68049C4.56242 7.83859 3.87752 7.15369 3.03567 7.15369H2.96392C2.55963 7.15369 2.23078 6.82479 2.23078 6.4205C2.23078 6.0162 2.55968 5.68735 2.96392 5.68735H3.89398C4.77684 5.68735 5.49515 4.96909 5.49515 4.08612C5.49515 3.20321 4.77684 2.48495 3.89398 2.48495H2.58844C3.55201 1.54325 4.81486 0.907876 6.21944 0.73507C6.49396 1.96076 7.57753 2.84803 8.86717 2.84803H9.86456C10.054 2.84803 10.2075 2.69446 10.2075 2.50505C10.2075 2.31564 10.054 2.16207 9.86456 2.16207H8.86717C7.94041 2.16207 7.15648 1.54907 6.91507 0.687881C6.94129 0.687577 6.96711 0.685907 6.99339 0.685907C10.4712 0.685907 13.3007 3.51535 13.3007 6.99324C13.3007 8.7777 12.5546 10.3902 11.3594 11.5386H10.2118C9.84471 11.5386 9.54609 11.2401 9.54609 10.873C9.54609 10.5059 9.84471 10.2073 10.2118 10.2073H10.3418C11.1038 10.2073 11.7238 9.58735 11.7238 8.8254C11.7238 8.06344 11.1038 7.44351 10.3418 7.44351H9.12134C8.54738 7.44351 8.08045 6.97653 8.08045 6.40257C8.08045 5.82861 8.54738 5.36169 9.12134 5.36169H11.6429C11.8323 5.36169 11.9858 5.20817 11.9858 5.01871C11.9858 4.82924 11.8323 4.67573 11.6429 4.67573H9.12134C8.16911 4.67573 7.3945 5.45039 7.3945 6.40257C7.3945 7.35475 8.16916 8.12947 9.12134 8.12947H10.3418C10.7256 8.12947 11.0377 8.44166 11.0377 8.8254C11.0377 9.20913 10.7256 9.52133 10.3418 9.52133H10.2118C9.46644 9.52133 8.86013 10.1277 8.86013 10.873C8.86013 11.6183 9.46649 12.2246 10.2118 12.2246H10.5131C9.5071 12.9037 8.29574 13.3005 6.99339 13.3005C5.47566 13.3005 4.08157 12.7615 2.99208 11.8651H4.11519C4.90053 11.8651 5.6752 12.1296 6.29655 12.6098C6.35893 12.658 6.4328 12.6813 6.50606 12.6813C6.60859 12.6813 6.71011 12.6356 6.77765 12.5481C6.89355 12.3983 6.866 12.183 6.71608 12.0671Z" fill="white"/>
</svg>
