<svg width="40" height="32" viewBox="0 0 40 32" fill="none" xmlns="http://www.w3.org/2000/svg">
<path d="M36 0H4C1.8 0 0 1.8 0 4V28C0 30.2 1.8 32 4 32H36C38.2 32 40 30.2 40 28V4C40 1.8 38.2 0 36 0ZM36 28H4V4H36V28ZM18 20.2H8V23.8H18V20.2ZM18 14.2H8V17.8H18V14.2ZM18 8.2H8V11.8H18V8.2ZM31.8 21C31.8 21 28.4 20.1104 28.4 18.3644C28.4 16.7 30.6 16 30.6 12.6C30.6 9.8388 29.7608 8.2 27 8.2C24.2384 8.2 23.4 9.8388 23.4 12.6C23.4 16 25.5992 16.7 25.5992 18.3644C25.5992 20.1104 22.2 21 22.2 21C22 21 22 23.8 22 23.8H32C32 23.8 32 21 31.8 21Z" fill="#FF0000"/>
</svg>
