<svg width="20" height="21" viewBox="0 0 20 21" fill="none" xmlns="http://www.w3.org/2000/svg">
<path d="M8.69336 0.469847C8.3505 0.64137 8.22165 0.898428 8.1276 1.11177C8.03356 1.32512 7.97134 1.49708 7.80469 1.68795C7.63804 1.87881 7.35605 2.09732 6.79622 2.32271C6.23639 2.5481 5.88104 2.58553 5.6276 2.5636C5.37417 2.54165 5.20854 2.45979 4.99219 2.37154C4.72987 2.26452 4.47331 2.19905 4.13867 2.30318C3.80403 2.40732 3.4633 2.65122 2.98958 3.11503C2.51586 3.57884 2.26353 3.91422 2.15299 4.24654C2.03381 4.60483 2.12467 4.88361 2.20964 5.10071C2.2946 5.3178 2.37363 5.48087 2.39128 5.73287C2.40893 5.98487 2.36396 6.33838 2.12826 6.89172C1.89254 7.44506 1.66987 7.72303 1.47396 7.88847C1.27805 8.05391 1.09738 8.11619 0.878255 8.21594C0.659127 8.3157 0.401867 8.46018 0.23112 8.80904C0.0728935 9.13231 0.0056695 9.56474 2.1277e-07 10.2557C-1.11258e-05 10.2566 0.000654085 10.2573 0.000651565 10.2583C0.000654085 10.2592 -1.36455e-05 10.2599 2.1277e-07 10.2609C0.0056695 10.9519 0.0728947 11.3843 0.23112 11.7076C0.401867 12.0564 0.659127 12.2009 0.878255 12.3007C1.09738 12.4004 1.27805 12.4627 1.47396 12.6281C1.66987 12.7936 1.89254 13.0716 2.12826 13.6249C2.36396 14.1782 2.40893 14.5317 2.39128 14.7837C2.37363 15.0357 2.2946 15.1988 2.20964 15.4159C2.12467 15.633 2.03382 15.9118 2.15299 16.2701C2.26353 16.6024 2.51586 16.9378 2.98958 17.4016C3.4633 17.8654 3.80403 18.1093 4.13867 18.2134C4.47331 18.3176 4.72987 18.2521 4.99219 18.1451C5.20854 18.0568 5.37417 17.975 5.6276 17.953C5.88104 17.9311 6.23639 17.9685 6.79622 18.1939C7.35605 18.4193 7.63804 18.6378 7.80469 18.8287C7.97134 19.0195 8.03356 19.1915 8.1276 19.4048C8.22165 19.6182 8.3505 19.8752 8.69336 20.0468C8.99192 20.1961 9.38947 20.2577 10 20.2584C10.6105 20.2577 11.0081 20.1961 11.3066 20.0468C11.6495 19.8752 11.7783 19.6182 11.8724 19.4048C11.9664 19.1915 12.0287 19.0195 12.1953 18.8287C12.362 18.6378 12.644 18.4193 13.2038 18.1939C13.7636 17.9685 14.119 17.9311 14.3724 17.953C14.6258 17.975 14.7915 18.0568 15.0078 18.1451C15.2701 18.2521 15.5267 18.3176 15.8613 18.2134C16.196 18.1093 16.5367 17.8654 17.0104 17.4016C17.4841 16.9378 17.7365 16.6024 17.847 16.2701C17.9662 15.9118 17.8753 15.633 17.7904 15.4159C17.7054 15.1988 17.6264 15.0357 17.6087 14.7837C17.5911 14.5317 17.636 14.1782 17.8717 13.6249C18.1075 13.0716 18.3301 12.7936 18.526 12.6281C18.722 12.4627 18.9026 12.4004 19.1217 12.3007C19.3409 12.2009 19.5981 12.0564 19.7689 11.7076C19.9271 11.3843 19.9943 10.9519 20 10.2584C19.9943 9.56483 19.9271 9.1324 19.7689 8.80912C19.5981 8.46026 19.3409 8.31578 19.1217 8.21603C18.9026 8.11627 18.722 8.05399 18.526 7.88855C18.3301 7.72311 18.1075 7.44515 17.8717 6.89181C17.636 6.33846 17.5911 5.98495 17.6087 5.73295C17.6264 5.48095 17.7054 5.31789 17.7904 5.10079C17.8753 4.88369 17.9662 4.60492 17.847 4.24662C17.7365 3.9143 17.4841 3.57893 17.0104 3.11511C16.5367 2.6513 16.196 2.4074 15.8613 2.30326C15.5267 2.19914 15.2701 2.2646 15.0078 2.37162C14.7915 2.45987 14.6258 2.54175 14.3724 2.56368C14.119 2.58563 13.7636 2.54818 13.2038 2.32279C12.644 2.0974 12.362 1.8789 12.1953 1.68803C12.0287 1.49716 11.9664 1.3252 11.8724 1.11186C11.7783 0.898515 11.6495 0.641453 11.3066 0.46993C11.0081 0.320567 10.6105 0.259009 10 0.258301C9.38947 0.258885 8.99192 0.320483 8.69336 0.469847ZM10 0.926878C10.5605 0.928642 10.8677 0.994179 11.0091 1.0649C11.1297 1.12521 11.1831 1.20009 11.2624 1.38C11.3417 1.55991 11.4447 1.8407 11.6934 2.12545C11.942 2.41019 12.3273 2.68974 12.9551 2.9425C13.5829 3.19528 14.0546 3.26094 14.4316 3.22831C14.8087 3.19567 15.0784 3.06391 15.2611 2.98938C15.4037 2.93121 15.5059 2.89051 15.6647 2.9399C15.8185 2.98111 16.1032 3.16166 16.543 3.59225C16.9828 4.02284 17.1628 4.29979 17.2148 4.45618C17.2669 4.61257 17.2165 4.73994 17.1706 4.85722C17.0989 5.04029 16.9704 5.30924 16.944 5.686C16.9176 6.06275 16.9919 6.53165 17.2565 7.1528C17.5211 7.77394 17.8071 8.15383 18.0957 8.39759C18.3844 8.64134 18.6651 8.74206 18.8438 8.82337C19.0224 8.90468 19.1047 8.96539 19.1712 9.10136C19.2558 9.27412 19.311 9.58521 19.3216 9.92493L19.3333 10.2583C19.3333 10.2583 19.3333 10.5916 19.3216 10.5916C19.311 10.9313 19.2558 11.2424 19.1712 11.4152C19.1047 11.5511 19.0224 11.6118 18.8438 11.6932C18.6651 11.7745 18.3844 11.8752 18.0957 12.1189C17.8071 12.3627 17.5211 12.7426 17.2565 13.3637C16.9919 13.9849 16.9176 14.4538 16.944 14.8305C16.9704 15.2073 17.0989 15.4762 17.1706 15.6593C17.2165 15.7766 17.2669 15.904 17.2148 16.0603C17.1628 16.2167 16.9828 16.4937 16.543 16.9243C16.1032 17.3549 15.8185 17.5354 15.6647 17.5766C15.5059 17.626 15.4037 17.5853 15.2611 17.5272C15.0784 17.4526 14.8087 17.3209 14.4316 17.2882C14.0546 17.2556 13.5829 17.3213 12.9551 17.574C12.3273 17.8268 11.942 18.1063 11.6934 18.3911C11.4447 18.6758 11.3417 18.9566 11.2624 19.1365C11.1831 19.3164 11.1297 19.3913 11.0091 19.4516C10.8677 19.5224 10.5605 19.5878 10 19.5897C9.43952 19.5876 9.13227 19.5224 8.99088 19.4516C8.87034 19.3913 8.81695 19.3164 8.73763 19.1365C8.65832 18.9566 8.55526 18.6758 8.30664 18.3911C8.05802 18.1063 7.67272 17.8268 7.04492 17.574C6.41711 17.3213 5.94539 17.2556 5.56836 17.2882C5.19133 17.3208 4.92164 17.4526 4.73893 17.5272C4.59629 17.5853 4.49405 17.626 4.33528 17.5766C4.18148 17.5354 3.89682 17.3549 3.45703 16.9243C3.01724 16.4937 2.83717 16.2167 2.78515 16.0603C2.73314 15.904 2.78352 15.7766 2.82943 15.6593C2.90107 15.4762 3.02961 15.2073 3.05599 14.8305C3.08237 14.4538 3.00808 13.9849 2.74349 13.3637C2.47889 12.7426 2.19295 12.3627 1.9043 12.1189C1.61564 11.8752 1.33488 11.7745 1.15625 11.6932C0.977619 11.6119 0.895329 11.5511 0.828774 11.4152C0.744226 11.2424 0.688953 10.9313 0.678383 10.5916L0.666666 10.2557L0.678383 9.92493C0.688965 9.58521 0.744222 9.27412 0.828774 9.10136C0.895331 8.96539 0.977619 8.90468 1.15625 8.82337C1.33488 8.74206 1.61564 8.64134 1.9043 8.39759C2.19295 8.15383 2.47889 7.77394 2.74349 7.1528C3.00808 6.53165 3.08237 6.06276 3.05599 5.686C3.02961 5.30925 2.90107 5.04029 2.82943 4.85722C2.78352 4.73994 2.73314 4.61257 2.78515 4.45618C2.83717 4.29979 3.01724 4.02284 3.45703 3.59225C3.89682 3.16166 4.18148 2.98113 4.33528 2.9399C4.49405 2.89049 4.59629 2.93121 4.73893 2.98938C4.92164 3.06391 5.19133 3.19568 5.56836 3.22831C5.94539 3.26095 6.41711 3.19527 7.04492 2.9425C7.67272 2.68974 8.05802 2.41019 8.30664 2.12545C8.55526 1.84071 8.65832 1.55991 8.73763 1.38C8.81695 1.20009 8.87034 1.1252 8.99088 1.0649C9.13227 0.99416 9.43952 0.928881 10 0.926878ZM10 3.59159C6.31098 3.59159 3.33463 6.58029 3.33463 10.2583C3.33463 13.9362 6.31682 16.9243 10 16.9243C13.6832 16.9243 16.666 13.9362 16.666 10.2583C16.666 6.58029 13.689 3.59159 10 3.59159ZM10 4.25826C12.4861 4.25826 14.6201 5.76911 15.5299 7.92558C15.2327 7.92557 14.9281 7.92558 14.6335 7.92558C14.463 7.94266 14.3332 8.08624 14.3333 8.25761V8.59289C13.4084 8.59289 12.4072 7.98357 11.0163 7.92558C10.8492 7.91865 10.6745 7.90897 10.5065 7.91714C10.0012 7.92898 9.58067 8.06467 9.07422 8.48224C8.98971 8.45591 8.94932 8.44355 8.78971 8.40085C8.67008 8.36885 8.25489 8.25711 7.99935 8.25763C7.61112 8.25843 7.11218 8.34697 6.61198 8.43015C6.27256 8.48659 5.93763 8.53954 5.66732 8.56882V8.25761C5.66658 8.07327 5.51637 7.92452 5.33203 7.92558H4.4707C5.3804 5.76911 7.5139 4.25826 10 4.25826ZM10 5.25891C9.80578 5.26256 9.66667 5.40623 9.66667 5.59094V6.25761C9.66667 6.47976 9.83338 6.59131 10 6.59159C10.1666 6.59131 10.3333 6.47976 10.3333 6.25761V5.59094C10.3333 5.40623 10.1942 5.26253 10 5.25891ZM7.95833 6.68795L8.43099 7.158C8.75988 7.46385 9.20776 7.00302 8.90365 6.68795L8.43099 6.21529C8.36824 6.15077 8.28727 6.1183 8.19727 6.11828C7.89593 6.11602 7.75031 6.4816 7.95833 6.68795ZM11.569 6.21529L11.0964 6.68795C10.7922 7.00302 11.2401 7.46385 11.569 7.158L12.0417 6.68795C12.2497 6.4816 12.1041 6.11596 11.8027 6.11829C11.7127 6.11829 11.6318 6.15078 11.569 6.21529ZM10.9896 8.59035C12.2258 8.64189 13.2933 9.25962 14.3333 9.25962V11.5923C13.6129 11.6053 13.1643 11.6537 12.1426 12.1737L10.6243 10.4191C10.7915 10.1138 10.4383 9.78856 10.1478 9.98033C9.67332 10.2842 9.17362 10.564 8.6888 10.8443C8.48704 10.9607 8.26299 11.0157 8.11068 10.8586C7.96787 10.7113 7.95916 10.4704 8.11521 10.3202L9.38735 9.09687C9.8326 8.6646 10.228 8.58154 10.5644 8.58056C10.6966 8.58016 10.8227 8.5833 10.9896 8.59035ZM8.50716 9.01735L7.65495 9.83766C7.23973 10.2374 7.22216 10.9025 7.63086 11.324C8.0499 11.7562 8.66408 11.6895 9.08464 11.3806C9.44315 11.1804 9.78104 10.9877 10.0801 10.8071L11.5501 12.5102C11.1482 12.7586 10.7444 13.015 10.3965 13.2036C9.94624 13.4476 9.58082 13.5929 9.33333 13.5929C9.19444 13.5929 8.95381 13.5023 8.67643 13.3292C8.39906 13.1561 8.086 12.9109 7.76107 12.6599C7.1112 12.158 6.37203 11.5922 5.66732 11.5922V9.24131C5.98922 9.21135 6.35386 9.14791 6.72005 9.08701C7.22036 9.00383 7.72091 8.92547 7.99935 8.9249C8.06528 8.92477 8.21251 8.94265 8.50716 9.01735ZM5.66732 12.2589C6.11476 12.2589 6.71004 12.6912 7.35482 13.1892C7.67721 13.4382 8.00077 13.6931 8.32422 13.895C8.64766 14.0968 8.98915 14.2595 9.33333 14.2595C9.74731 14.2595 10.2285 14.055 10.7135 13.7921C11.1953 13.5309 11.7078 13.1974 12.224 12.8832C13.271 12.3345 13.6228 12.2645 14.3333 12.2602V12.5909C14.3326 12.775 14.4813 12.9248 14.6654 12.9256H15.3672C14.383 14.8999 12.3484 16.2576 10 16.2576C7.65159 16.2576 5.61746 14.8999 4.63346 12.9256H5.33203C5.51739 12.9266 5.66803 12.7763 5.66732 12.5909V12.2589Z" fill="white"/>
</svg>
