<svg width="20" height="18" viewBox="0 0 20 18" fill="none" xmlns="http://www.w3.org/2000/svg">
<path d="M9.99994 0.97692L12.6177 2.4774C12.8467 2.27745 13.1022 2.0709 13.37 1.87448L10.2232 0.0709975C10.1552 0.0322285 10.0782 0.0118408 9.99994 0.0118408C9.92164 0.0118408 9.84468 0.0322285 9.77665 0.0709975L6.62993 1.87403C6.89946 2.0709 7.15357 2.27745 7.38259 2.47696L9.99994 0.97692Z" fill="white"/>
<path d="M19.9972 5.87428C19.9972 5.86635 19.9942 5.85842 19.9924 5.85093C19.9906 5.84345 19.9884 5.82759 19.9853 5.81658C19.9823 5.80551 19.9787 5.79462 19.9743 5.78399C19.9717 5.7765 19.9699 5.76858 19.9669 5.76153C19.9638 5.75448 19.9554 5.73819 19.9497 5.72674C19.944 5.71529 19.9444 5.71485 19.9409 5.70956C19.9337 5.69718 19.9258 5.68526 19.9171 5.67389C19.9146 5.66947 19.9118 5.6652 19.9087 5.66112C19.899 5.64848 19.8886 5.63642 19.8774 5.625C19.8748 5.62236 19.873 5.61972 19.8704 5.61752C19.8576 5.60468 19.8441 5.59262 19.8299 5.5814L19.8268 5.57876C19.8107 5.566 19.7936 5.55452 19.7757 5.54441L17.542 4.26634C17.5143 4.58563 17.4644 4.90261 17.3927 5.21498L18.6491 5.93461L15.8724 7.52537L16.6426 8.11816L19.1028 6.70885V11.3235L10.4483 16.2825V11.6652L13.1268 10.1317L12.5816 9.41032L9.99994 10.8901L7.41826 9.41032L6.87303 10.1317L9.55161 11.6652V16.2807L0.897115 11.3235V6.70753L3.35724 8.11684L4.12752 7.52537L1.35294 5.93417L2.60899 5.21454C2.53692 4.90232 2.48644 4.5855 2.45793 4.26634L0.22549 5.54353C0.207596 5.55364 0.190515 5.56512 0.174403 5.57788L0.17132 5.58052C0.157108 5.59174 0.143578 5.6038 0.130802 5.61664C0.128159 5.61664 0.126398 5.62148 0.123755 5.62412C0.112637 5.63554 0.102196 5.6476 0.0924863 5.66024C0.0894448 5.66432 0.0866506 5.66859 0.0841185 5.67301C0.0754369 5.68438 0.0674932 5.69629 0.0603364 5.70868C0.0568131 5.71397 0.0546111 5.72013 0.0515282 5.72586C0.0484453 5.73158 0.0396371 5.74876 0.0343522 5.76065C0.0290673 5.77254 0.0295077 5.77562 0.0268652 5.78311C0.0225391 5.79374 0.0188623 5.80462 0.015855 5.8157C0.0127721 5.82671 0.0110105 5.8386 0.00880842 5.85005C0.00660638 5.8615 0.00528521 5.86547 0.00396398 5.87339C0.00130201 5.8931 -2.22546e-05 5.91296 2.82861e-07 5.93285V11.5833C-7.12898e-05 11.6624 0.0207399 11.7402 0.0603319 11.8087C0.0999239 11.8772 0.156895 11.9341 0.22549 11.9735L9.77665 17.446C9.80241 17.4595 9.8294 17.4704 9.85725 17.4786C9.8665 17.4822 9.87531 17.4874 9.88499 17.4901C9.96033 17.51 10.0396 17.51 10.1149 17.4901C10.1246 17.4874 10.1334 17.4822 10.1426 17.4786C10.1705 17.4704 10.1975 17.4595 10.2232 17.446L19.7744 11.9735C19.8429 11.9341 19.8997 11.8774 19.9393 11.8091C19.9789 11.7407 19.9998 11.6632 19.9999 11.5842V5.93373C20.0003 5.91388 19.9995 5.89401 19.9972 5.87428Z" fill="white"/>
<path d="M12.3341 4.38085V5.44972C12.3341 5.48187 12.3315 5.51358 12.3293 5.54573C13.4607 6.04648 15.3505 6.74497 16.1238 6.43976C16.6136 6.24774 17.1073 4.52442 16.9421 3.02571C16.8937 2.58926 16.7087 1.56311 16.0358 1.45829C14.8114 1.26671 13.0189 2.84029 12.1734 3.72596C12.279 3.9281 12.3341 4.15278 12.3341 4.38085Z" fill="white"/>
<path d="M3.87825 6.43976C4.65073 6.74232 6.54096 6.04559 7.67282 5.54529C7.67061 5.51358 7.66797 5.48187 7.66797 5.44972V4.38085C7.66811 4.15299 7.72309 3.92852 7.82828 3.7264C7.51235 3.39743 7.17876 3.08589 6.82899 2.79317C6.70744 2.69099 6.58104 2.58926 6.452 2.49017C6.32252 2.39108 6.1904 2.29463 6.05563 2.20302C5.42232 1.7701 4.74982 1.44287 4.1742 1.44287C4.10343 1.44254 4.03274 1.44785 3.96281 1.45873C3.28986 1.56355 3.10489 2.5897 3.05644 3.02615C2.89305 4.52442 3.38675 6.24818 3.87825 6.43976Z" fill="white"/>
<path d="M11.7356 5.44972V4.38085C11.7352 4.16047 11.6475 3.94922 11.4916 3.79343C11.3358 3.63764 11.1245 3.55003 10.9041 3.54979H9.09578C8.8754 3.55003 8.66411 3.63764 8.50824 3.79343C8.35237 3.94922 8.26464 4.16047 8.26429 4.38085V5.44972C8.26452 5.67017 8.3522 5.88153 8.50808 6.03742C8.66397 6.1933 8.87533 6.28098 9.09578 6.28121H10.9041C11.1246 6.28098 11.3359 6.1933 11.4918 6.03742C11.6477 5.88153 11.7354 5.67017 11.7356 5.44972Z" fill="white"/>
<path d="M7.83709 6.12663C7.25634 6.38482 6.6609 6.60864 6.05387 6.79693L3.70649 8.60261L4.97663 8.90429C5.0271 8.91621 5.0736 8.94108 5.11152 8.97645C5.14944 9.01182 5.17748 9.05648 5.19287 9.106L5.69141 10.7012L8.64216 6.8031C8.29793 6.68749 8.01028 6.44579 7.83709 6.12663Z" fill="white"/>
<path d="M12.1628 6.12663C11.9901 6.44561 11.7031 6.68744 11.3595 6.80354L14.3102 10.7016L14.8088 9.10644C14.8242 9.05692 14.8522 9.01226 14.8901 8.97689C14.928 8.94152 14.9745 8.91665 15.025 8.90473L16.2952 8.60305L13.9482 6.79737C13.3404 6.60921 12.7442 6.38524 12.1628 6.12663Z" fill="white"/>
</svg>
