<svg width="20" height="20" viewBox="0 0 20 20" fill="none" xmlns="http://www.w3.org/2000/svg">
<path d="M4.02778 8.66111C5.62778 11.8056 8.2 14.3778 11.35 15.9778L13.7944 13.5278C14.1 13.2222 14.5389 13.1333 14.9222 13.2556C16.1667 13.6667 17.5056 13.8889 18.8889 13.8889C19.5056 13.8889 20 14.3833 20 15V18.8889C20 19.5056 19.5056 20 18.8889 20C8.45556 20 0 11.5444 0 1.11111C0 0.494444 0.5 0 1.11111 0H5C5.61667 0 6.11111 0.494444 6.11111 1.11111C6.11111 2.49444 6.33333 3.83333 6.74444 5.07778C6.86667 5.46111 6.77778 5.9 6.47222 6.20556L4.02778 8.66111Z" fill="white"/>
</svg>
