<svg width="40" height="36" viewBox="0 0 40 36" fill="none" xmlns="http://www.w3.org/2000/svg">
<path d="M19.9999 2.43699L25.2355 5.43795C25.6935 5.03805 26.2044 4.62495 26.7399 4.2321L20.4465 0.625149C20.3104 0.547611 20.1565 0.506836 19.9999 0.506836C19.8433 0.506836 19.6894 0.547611 19.5533 0.625149L13.2599 4.23122C13.7989 4.62495 14.3071 5.03805 14.7652 5.43707L19.9999 2.43699Z" fill="#765DFF"/>
<path d="M39.9945 12.2317C39.9945 12.2158 39.9883 12.2 39.9848 12.185C39.9813 12.17 39.9769 12.1383 39.9707 12.1163C39.9647 12.0942 39.9573 12.0724 39.9487 12.0511C39.9434 12.0362 39.9399 12.0203 39.9337 12.0062C39.9275 11.9921 39.9108 11.9595 39.8994 11.9366C39.8879 11.9137 39.8888 11.9128 39.8817 11.9023C39.8674 11.8775 39.8515 11.8537 39.8342 11.8309C39.8291 11.8221 39.8235 11.8136 39.8174 11.8054C39.798 11.7801 39.7771 11.756 39.7549 11.7332C39.7496 11.7279 39.7461 11.7226 39.7408 11.7182C39.7153 11.6925 39.6882 11.6684 39.6598 11.646L39.6536 11.6407C39.6214 11.6152 39.5872 11.5922 39.5514 11.572L35.0839 9.01583C35.0285 9.65442 34.9287 10.2884 34.7853 10.9131L37.2983 12.3524L31.7447 15.5339L33.2853 16.7195L38.2055 13.9009V23.1301L20.8966 33.0481V23.8136L26.2537 20.7466L25.1632 19.3038L19.9999 22.2634L14.8365 19.3038L13.7461 20.7466L19.1032 23.8136V33.0446L1.79423 23.1301V13.8982L6.71449 16.7168L8.25504 15.5339L2.70588 12.3515L5.21797 10.9122C5.07383 10.2878 4.97289 9.65416 4.91585 9.01583L0.45098 11.5702C0.415192 11.5904 0.381031 11.6134 0.348805 11.6389L0.342639 11.6442C0.314216 11.6666 0.287156 11.6908 0.261604 11.7164C0.256319 11.7164 0.252796 11.7261 0.247511 11.7314C0.225274 11.7542 0.204393 11.7784 0.184973 11.8036C0.17889 11.8118 0.173301 11.8203 0.168237 11.8292C0.150874 11.8519 0.134986 11.8757 0.120673 11.9005C0.113626 11.9111 0.109222 11.9234 0.103056 11.9349C0.0968907 11.9463 0.0792742 11.9807 0.0687044 12.0045C0.0581345 12.0282 0.0590153 12.0344 0.0537304 12.0494C0.0450782 12.0706 0.0377245 12.0924 0.0317099 12.1146C0.0255442 12.1366 0.0220209 12.1604 0.0176168 12.1833C0.0132128 12.2062 0.0105704 12.2141 0.00792795 12.2299C0.00260402 12.2694 -4.45091e-05 12.3091 5.65722e-07 12.3489V23.6498C-0.00014258 23.808 0.0414798 23.9635 0.120664 24.1005C0.199848 24.2376 0.313789 24.3513 0.45098 24.4302L19.5533 35.3752C19.6048 35.4021 19.6588 35.4239 19.7145 35.4404C19.733 35.4475 19.7506 35.458 19.77 35.4633C19.9207 35.5032 20.0791 35.5032 20.2298 35.4633C20.2492 35.458 20.2668 35.4475 20.2853 35.4404C20.341 35.4239 20.3949 35.4021 20.4465 35.3752L39.5488 24.4302C39.6857 24.3514 39.7995 24.238 39.8787 24.1013C39.9578 23.9646 39.9996 23.8095 39.9998 23.6515V12.3506C40.0007 12.3109 39.9989 12.2712 39.9945 12.2317Z" fill="#765DFF"/>
<path d="M24.6682 9.24485V11.3826C24.6682 11.4469 24.6629 11.5103 24.6585 11.5746C26.9214 12.5761 30.701 13.9731 32.2477 13.3627C33.2271 12.9786 34.2145 9.53199 33.8842 6.53457C33.7873 5.66167 33.4174 3.60936 32.0715 3.39973C29.6228 3.01657 26.0379 6.16374 24.3467 7.93507C24.5579 8.33936 24.6682 8.78872 24.6682 9.24485Z" fill="#765DFF"/>
<path d="M7.75649 13.3627C9.30145 13.9678 13.0819 12.5743 15.3456 11.5737C15.3412 11.5103 15.3359 11.4469 15.3359 11.3826V9.24485C15.3362 8.78914 15.4462 8.34019 15.6566 7.93595C15.0247 7.27802 14.3575 6.65494 13.658 6.06949C13.4149 5.86514 13.1621 5.66167 12.904 5.46349C12.645 5.26531 12.3808 5.07241 12.1113 4.8892C10.8446 4.02335 9.49964 3.3689 8.3484 3.3689C8.20686 3.36824 8.06548 3.37885 7.92561 3.40061C6.57972 3.61025 6.20978 5.66255 6.11289 6.53545C5.7861 9.53199 6.7735 12.9795 7.75649 13.3627Z" fill="#765DFF"/>
<path d="M23.4712 11.3826V9.24485C23.4705 8.80409 23.295 8.3816 22.9833 8.07002C22.6715 7.75844 22.249 7.58321 21.8082 7.58274H18.1916C17.7508 7.58321 17.3282 7.75844 17.0165 8.07002C16.7047 8.3816 16.5293 8.80409 16.5286 9.24485V11.3826C16.529 11.8235 16.7044 12.2462 17.0162 12.558C17.3279 12.8698 17.7507 13.0451 18.1916 13.0456H21.8082C22.2491 13.0451 22.6718 12.8698 22.9836 12.558C23.2954 12.2462 23.4707 11.8235 23.4712 11.3826Z" fill="#765DFF"/>
<path d="M15.6742 12.7364C14.5127 13.2528 13.3218 13.7004 12.1077 14.077L7.41298 17.6884L9.95326 18.2917C10.0542 18.3156 10.1472 18.3653 10.223 18.4361C10.2989 18.5068 10.355 18.5961 10.3857 18.6952L11.3828 21.8855L17.2843 14.0894C16.5959 13.8581 16.0206 13.3747 15.6742 12.7364Z" fill="#765DFF"/>
<path d="M24.3256 12.7364C23.9802 13.3744 23.4063 13.858 22.719 14.0902L28.6205 21.8864L29.6175 18.696C29.6483 18.597 29.7044 18.5077 29.7803 18.4369C29.8561 18.3662 29.9491 18.3164 30.05 18.2926L32.5903 17.6893L27.8964 14.0779C26.6807 13.7016 25.4884 13.2536 24.3256 12.7364Z" fill="#765DFF"/>
</svg>
