<svg width="30" height="32" viewBox="0 0 30 32" fill="none" xmlns="http://www.w3.org/2000/svg">
<path d="M15 30C23.2843 30 30 23.2843 30 15C30 6.71573 23.2843 0 15 0C6.71573 0 0 6.71573 0 15C0 23.2843 6.71573 30 15 30Z" fill="#13818D"/>
<path d="M15 30C23.2843 30 30 23.2843 30 15C30 6.71573 23.2843 0 15 0C6.71573 0 0 6.71573 0 15C0 23.2843 6.71573 30 15 30Z" fill="#0D6963"/>
<path d="M15.5631 19.4838H15.0808L15.0369 21.81H15.6115L15.5631 19.4838Z" fill="white"/>
<path d="M15.66 24.1338H14.9954L14.9538 26.46H15.7108L15.66 24.1338Z" fill="white"/>
<path d="M14.91 28.7838L14.8869 30.0346H15.7869L15.7592 28.7838H14.91Z" fill="white"/>
<path d="M23.1508 18.4869C23.398 18.2908 23.5978 18.0414 23.7352 17.7573C23.8727 17.4732 23.9442 17.1617 23.9446 16.8462V15.3992C23.9446 14.8398 23.7224 14.3033 23.3268 13.9078C22.9313 13.5122 22.3948 13.29 21.8354 13.29H21.6923L21.8008 13.0015C21.8463 13.016 21.8937 13.0237 21.9415 13.0246H22.9731C23.1059 13.0246 23.2333 12.9719 23.3272 12.8779C23.4211 12.784 23.4738 12.6567 23.4738 12.5238V12.4915C23.4714 12.3599 23.4173 12.2346 23.3231 12.1426C23.229 12.0506 23.1024 11.9994 22.9708 12H21.9392C21.8064 12 21.679 12.0528 21.5851 12.1467C21.4912 12.2406 21.4385 12.368 21.4385 12.5008V12.5308L21.3738 12.7015L20.7162 9.52846C20.64 9.13385 20.4069 8.83615 20.0238 8.83615H10.9546C10.5738 8.83615 10.3869 9.06692 10.2623 9.52846L9.34615 12.6923L9.25385 12.4454C9.24098 12.3249 9.18469 12.2133 9.0955 12.1313C9.00632 12.0494 8.89033 12.0027 8.76923 12H7.72846C7.6627 12 7.59758 12.013 7.53683 12.0381C7.47607 12.0633 7.42087 12.1002 7.37436 12.1467C7.32786 12.1932 7.29098 12.2484 7.26581 12.3091C7.24064 12.3699 7.22769 12.435 7.22769 12.5008V12.5308C7.22769 12.5965 7.24064 12.6616 7.26581 12.7224C7.29098 12.7832 7.32786 12.8384 7.37436 12.8849C7.42087 12.9314 7.47607 12.9683 7.53683 12.9934C7.59758 13.0186 7.6627 13.0315 7.72846 13.0315H8.76923C8.82515 13.0309 8.88055 13.0207 8.93308 13.0015L9.04385 13.2969H8.86385C8.30444 13.2969 7.76795 13.5191 7.3724 13.9147C6.97684 14.3103 6.75462 14.8468 6.75462 15.4062V16.8462C6.75475 17.1623 6.82644 17.4744 6.96432 17.759C7.1022 18.0435 7.30269 18.2932 7.55077 18.4892L3.93462 26.5385L4.08231 26.6262C4.41462 26.8246 12.2723 31.4908 15.3623 31.4908H15.3923C18.4915 31.4608 26.3723 26.5754 26.7 26.3654L26.8454 26.2754L23.1508 18.4869ZM15.39 31.1054L15.3646 31.2969V31.1054C12.5954 31.1054 5.54077 27.0323 4.42846 26.3815L7.87615 18.7038L7.92231 18.7315V20.1485C7.92292 20.2809 7.97595 20.4077 8.06979 20.5011C8.16364 20.5945 8.29066 20.6469 8.42308 20.6469H9.42231C9.55472 20.6469 9.68175 20.5945 9.77559 20.5011C9.86944 20.4077 9.92247 20.2809 9.92308 20.1485V18.9554H20.7692V20.1485C20.7698 20.2809 20.8229 20.4077 20.9167 20.5011C21.0106 20.5945 21.1376 20.6469 21.27 20.6469H22.2692C22.4016 20.6469 22.5287 20.5945 22.6225 20.5011C22.7164 20.4077 22.7694 20.2809 22.77 20.1485V18.7315L22.8208 18.7015L26.3515 26.1277C25.2485 26.8062 18.1569 31.0777 15.39 31.1054Z" fill="white"/>
<path d="M20.7 12.7915C20.7 12.9525 20.6361 13.1069 20.5222 13.2207C20.4084 13.3345 20.254 13.3985 20.0931 13.3985H10.6038C10.4433 13.3985 10.2893 13.3348 10.1755 13.2215C10.0617 13.1082 9.99753 12.9544 9.99692 12.7938L10.7469 9.92308C10.8531 9.52846 11.0192 9.31615 11.3538 9.31615H19.5946C19.9292 9.31615 20.1323 9.57462 20.2015 9.92308L20.7 12.7915Z" fill="#13818D"/>
<path d="M9.15 17.67C9.82039 17.67 10.3638 17.1265 10.3638 16.4562C10.3638 15.7858 9.82039 15.2423 9.15 15.2423C8.47961 15.2423 7.93615 15.7858 7.93615 16.4562C7.93615 17.1265 8.47961 17.67 9.15 17.67Z" fill="#44C2C7"/>
<path d="M21.5492 17.67C22.2196 17.67 22.7631 17.1265 22.7631 16.4562C22.7631 15.7858 22.2196 15.2423 21.5492 15.2423C20.8788 15.2423 20.3354 15.7858 20.3354 16.4562C20.3354 17.1265 20.8788 17.67 21.5492 17.67Z" fill="#44C2C7"/>
<path d="M13.5623 13.6685H13.5323L10.5715 12.6162C10.5575 12.616 10.5436 12.6124 10.5312 12.6058C10.5188 12.5992 10.5082 12.5897 10.5002 12.5781C10.4923 12.5664 10.4872 12.5531 10.4855 12.5391C10.4838 12.5252 10.4855 12.511 10.4904 12.4978C10.4953 12.4846 10.5033 12.4728 10.5138 12.4634C10.5242 12.454 10.5368 12.4472 10.5504 12.4436C10.564 12.4401 10.5783 12.4398 10.592 12.443C10.6057 12.4461 10.6185 12.4524 10.6292 12.4615L13.5923 13.5C13.6107 13.5077 13.6259 13.5214 13.6354 13.5389C13.6449 13.5564 13.6482 13.5766 13.6447 13.5962C13.6412 13.6158 13.6311 13.6337 13.6162 13.6468C13.6012 13.6599 13.5822 13.6676 13.5623 13.6685Z" fill="white"/>
<path d="M19.8069 13.6685H19.7769L16.8162 12.6162C16.8024 12.6045 16.7925 12.5889 16.788 12.5714C16.7834 12.5539 16.7843 12.5355 16.7907 12.5186C16.797 12.5017 16.8083 12.4871 16.8232 12.4769C16.8381 12.4667 16.8558 12.4613 16.8738 12.4615L19.8462 13.5C19.8653 13.508 19.881 13.5225 19.8905 13.541C19.8999 13.5594 19.9025 13.5806 19.8978 13.6008C19.8931 13.621 19.8814 13.6389 19.8648 13.6513C19.8481 13.6637 19.8276 13.6698 19.8069 13.6685Z" fill="white"/>
</svg>
