<svg width="23" height="30" viewBox="0 0 23 30" fill="none" xmlns="http://www.w3.org/2000/svg">
<path d="M17.1625 30L11.2788 26.6608L5.39507 30V14.2893H17.1625V30Z" fill="#0D6963"/>
<path d="M21.2294 8.90269L20.3483 8.64423C20.1533 7.97202 19.8857 7.33073 19.5544 6.72941L19.9951 5.92287C20.381 5.2166 20.0708 4.12031 19.2541 3.30356C18.4373 2.48676 17.341 2.1766 16.6348 2.5625L15.8282 3.00318C15.2269 2.67187 14.5856 2.40425 13.9134 2.2093L13.6549 1.32819C13.4284 0.555891 12.4338 0 11.2788 0C10.1237 0 9.12917 0.555891 8.90263 1.32819L8.64417 2.2093C7.97196 2.40425 7.33067 2.67187 6.72935 3.00318L5.92281 2.5625C5.21654 2.1766 4.12025 2.48676 3.3035 3.30356C2.48676 4.12037 2.1766 5.21666 2.5625 5.92287L3.00318 6.72941C2.67187 7.33073 2.40425 7.97202 2.2093 8.64423L1.32819 8.90269C0.555892 9.12924 0 10.1237 0 11.2788C0 12.4339 0.555892 13.4284 1.32819 13.6549L2.2093 13.9134C2.40425 14.5857 2.67187 15.2268 3.00318 15.8282L2.5625 16.6348C2.1766 17.341 2.48676 18.4373 3.3035 19.2541C4.12031 20.0708 5.2166 20.381 5.92281 19.9952L6.72935 19.5544C7.33067 19.8858 7.97196 20.1533 8.64417 20.3483L8.90263 21.2294C9.12917 22.0017 10.1237 22.5576 11.2788 22.5576C12.4338 22.5576 13.4284 22.0017 13.6549 21.2294L13.9133 20.3483C14.5856 20.1533 15.2268 19.8858 15.8282 19.5544L16.6347 19.9952C17.341 20.381 18.4373 20.0709 19.254 19.2541C20.0707 18.4374 20.3809 17.341 19.9951 16.6348L19.5543 15.8282C19.8856 15.2269 20.1532 14.5857 20.3482 13.9134L21.2293 13.6549C22.0016 13.4284 22.5575 12.4339 22.5575 11.2788C22.5576 10.1237 22.0017 9.12917 21.2294 8.90269Z" fill="url(#paint0_linear_1488_642)"/>
<path d="M18.9364 9.45028L18.2583 9.25139C18.1083 8.73405 17.9024 8.24062 17.6474 7.77781L17.9865 7.15712C18.2836 6.61364 18.0448 5.76997 17.4163 5.14141C16.7877 4.51285 15.9441 4.27419 15.4006 4.57113L14.7799 4.91031C14.3171 4.65536 13.8236 4.44941 13.3063 4.2994L13.1074 3.62135C12.933 3.02691 12.1677 2.59914 11.2788 2.59914C10.3899 2.59914 9.62451 3.02691 9.45022 3.62123L9.25133 4.29927C8.73399 4.44928 8.24056 4.65524 7.77775 4.91019L7.15706 4.57101C6.61352 4.27407 5.76985 4.51273 5.14129 5.14129C4.51273 5.76985 4.27407 6.61352 4.57101 7.15699L4.91013 7.77768C4.65524 8.24044 4.44922 8.73393 4.29921 9.25127L3.62116 9.45015C3.02685 9.62445 2.59908 10.3898 2.59908 11.2787C2.59908 12.1676 3.02685 12.933 3.62116 13.1073L4.29921 13.3062C4.44922 13.8235 4.65524 14.3169 4.91013 14.7798L4.57101 15.4004C4.27401 15.944 4.51273 16.7876 5.14129 17.4162C5.76985 18.0448 6.61352 18.2834 7.15706 17.9864L7.77775 17.6472C8.2405 17.9022 8.73399 18.1082 9.25133 18.2582L9.45022 18.9363C9.62451 19.5306 10.3899 19.9584 11.2788 19.9584C12.1677 19.9584 12.933 19.5306 13.1073 18.9363L13.3062 18.2582C13.8236 18.1082 14.317 17.9023 14.7798 17.6472L15.4005 17.9864C15.944 18.2834 16.7877 18.0447 17.4163 17.4162C18.0448 16.7876 18.2835 15.944 17.9865 15.4004L17.6473 14.7798C17.9023 14.317 18.1082 13.8235 18.2583 13.3062L18.9363 13.1073C19.5307 12.933 19.9584 12.1676 19.9584 11.2787C19.9585 10.3899 19.5307 9.62457 18.9364 9.45028Z" fill="url(#paint1_linear_1488_642)"/>
<path d="M11.2788 17.1625C14.5283 17.1625 17.1625 14.5283 17.1625 11.2788C17.1625 8.02936 14.5283 5.39513 11.2788 5.39513C8.0293 5.39513 5.39507 8.02936 5.39507 11.2788C5.39507 14.5283 8.0293 17.1625 11.2788 17.1625Z" fill="url(#paint2_linear_1488_642)"/>
<defs>
<linearGradient id="paint0_linear_1488_642" x1="3.3035" y1="25.6066" x2="23.6827" y2="10.2831" gradientUnits="userSpaceOnUse">
<stop stop-color="#0D6963"/>
<stop offset="1" stop-color="#0AC2AE"/>
</linearGradient>
<linearGradient id="paint1_linear_1488_642" x1="11.2787" y1="-4.24988e-05" x2="11.2787" y2="30.0003" gradientUnits="userSpaceOnUse">
<stop stop-color="white"/>
<stop offset="0.3279" stop-color="#FCFCFC"/>
<stop offset="0.5302" stop-color="#F4F4F4"/>
<stop offset="0.6984" stop-color="#E5E5E5"/>
<stop offset="0.848" stop-color="#D1D1D1"/>
<stop offset="0.9839" stop-color="#B7B7B7"/>
<stop offset="1" stop-color="#B3B3B3"/>
</linearGradient>
<linearGradient id="paint2_linear_1488_642" x1="7.11839" y1="15.4392" x2="15.4392" y2="7.11841" gradientUnits="userSpaceOnUse">
<stop stop-color="#9AFFE2"/>
<stop offset="1" stop-color="#0FBD00"/>
</linearGradient>
</defs>
</svg>
