<svg width="20" height="18" viewBox="0 0 20 18" fill="none" xmlns="http://www.w3.org/2000/svg">
<path d="M1.95634 13.8792C2.18465 13.8792 2.36404 13.6998 2.36404 13.4715V9.20702L4.82652 7.88609V11.3841C4.82652 11.6124 5.00591 11.7918 5.23422 11.7918C5.46253 11.7918 5.64191 11.6124 5.64191 11.3841V6.52438L1.5568 8.71779V13.4715C1.54865 13.6917 1.72803 13.8792 1.95634 13.8792Z" fill="white"/>
<path d="M6.865 10.7889C7.09331 10.7889 7.2727 10.6095 7.2727 10.3812V3.17312L9.73518 1.85218V13.5775C9.73518 13.8058 9.91457 13.9852 10.1429 13.9852C10.3712 13.9852 10.5506 13.8058 10.5506 13.5775V0.490479L6.45731 2.68388V10.3812C6.45731 10.6013 6.63669 10.7889 6.865 10.7889Z" fill="white"/>
<path d="M11.7737 13.4552C12.002 13.4552 12.1814 13.2758 12.1814 13.0475V5.27683L14.6438 3.9559V10.9927C14.6438 11.221 14.8232 11.4004 15.0515 11.4004C15.2799 11.4004 15.4592 11.221 15.4592 10.9927V2.59419L11.3741 4.7876V13.0475C11.366 13.2758 11.5535 13.4552 11.7737 13.4552Z" fill="white"/>
<path d="M19.9439 10.2344C19.8705 10.1121 19.74 10.0306 19.5933 10.0306H16.7802C16.6334 10.0306 16.5029 10.1121 16.4296 10.2344C16.3562 10.3567 16.3562 10.5117 16.4296 10.6421L16.9351 11.5146L14.6928 12.8763C14.3503 13.0883 14.016 13.2921 13.6735 13.5041C13.4289 13.6591 13.1843 13.8058 12.9478 13.9608C12.3118 14.3685 11.7492 14.7354 11.2274 15.0942C10.9583 15.2735 10.6973 15.4611 10.4283 15.6405L6.77531 12.069L0.186941 16.2602C-0.000599447 16.3825 -0.0576769 16.6352 0.0646319 16.8228C0.146171 16.9451 0.276634 17.0103 0.407097 17.0103C0.480482 17.0103 0.553867 16.9859 0.627253 16.9451L6.66116 13.1046L10.3467 16.7005L10.8441 16.3417C11.1214 16.146 11.3986 15.9503 11.684 15.7628C12.1977 15.4122 12.7521 15.0534 13.3881 14.6457C13.6246 14.4908 13.8692 14.344 14.1057 14.1891C14.44 13.9771 14.7825 13.7732 15.1168 13.5612L17.1797 12.2974L17.3428 12.1995L17.8402 13.0638C17.9136 13.1861 18.044 13.2677 18.1908 13.2677C18.3376 13.2677 18.468 13.1861 18.5414 13.0638L19.9521 10.6258C20.0173 10.5198 20.0173 10.3649 19.9439 10.2344ZM18.1826 12.0609L17.4814 10.846H18.8839L18.1826 12.0609Z" fill="white"/>
</svg>
