<svg width="20" height="21" viewBox="0 0 20 21" fill="none" xmlns="http://www.w3.org/2000/svg">
<path d="M6.25 4.45727C6.25 2.73149 4.85078 1.33227 3.125 1.33227C1.39922 1.33227 0 2.73149 0 4.45727C0 5.77368 0.772266 6.87133 1.875 7.3518V14.1331C0.772266 14.6135 0 15.7112 0 16.9573C0 18.6831 1.39922 20.0823 3.125 20.0823C4.85078 20.0823 6.25 18.6831 6.25 16.9573C6.25 15.6764 5.47773 14.5788 4.375 14.0959V7.3518C5.47656 6.87133 6.25 5.77368 6.25 4.45727ZM3.125 17.8948C2.6082 17.8948 2.1875 17.4741 2.1875 16.9573C2.1875 16.4405 2.6082 16.0198 3.125 16.0198C3.6418 16.0198 4.0625 16.4405 4.0625 16.9573C4.0625 17.4741 3.6418 17.8948 3.125 17.8948ZM3.125 5.39477C2.6082 5.39477 2.1875 4.97407 2.1875 4.45727C2.1875 3.94047 2.6082 3.51977 3.125 3.51977C3.6418 3.51977 4.0625 3.94047 4.0625 4.45727C4.0625 4.97407 3.6418 5.39477 3.125 5.39477ZM18.125 14.1331V6.99243C18.125 4.92446 16.443 3.24243 14.375 3.24243H12.5V1.36743C12.5 1.1245 12.3596 0.904927 12.1399 0.80102C11.9214 0.699692 11.6614 0.73145 11.4746 0.8877L7.72465 4.0127C7.58203 4.1311 7.5 4.30688 7.5 4.45727C7.5 4.60766 7.58203 4.8518 7.72656 4.9729L11.4766 8.0979C11.5898 8.19165 11.7305 8.20727 11.875 8.20727C11.9653 8.20727 12.0557 8.18774 12.1399 8.14868C12.3594 8.07836 12.5 7.85961 12.5 7.58227V5.70727H14.375C15.0648 5.70727 15.625 6.26743 15.625 6.95727V14.0979C14.5223 14.5807 13.75 15.6784 13.75 16.9592C13.75 18.685 15.1492 20.0842 16.875 20.0842C18.6008 20.0842 20 18.685 20 16.9592C20 15.7112 19.2266 14.6135 18.125 14.1331ZM16.875 17.8948C16.3582 17.8948 15.9375 17.4741 15.9375 16.9573C15.9375 16.4405 16.3582 16.0198 16.875 16.0198C17.3918 16.0198 17.8125 16.4405 17.8125 16.9573C17.8125 17.4741 17.3906 17.8948 16.875 17.8948Z" fill="white"/>
</svg>
