<svg width="20" height="20" viewBox="0 0 20 20" fill="none" xmlns="http://www.w3.org/2000/svg">
<path d="M10.8333 20H9.16667C8.4775 20 7.91667 19.4392 7.91667 18.75V17.1983C7.38333 17.0442 6.87 16.8312 6.38292 16.5621L5.28542 17.66C4.81292 18.1325 3.99 18.1317 3.5175 17.66L2.33875 16.4817C2.1025 16.2458 1.9725 15.9317 1.9725 15.5979C1.9725 15.2642 2.1025 14.95 2.33875 14.7142L3.43667 13.6158C3.16792 13.13 2.955 12.6167 2.80125 12.0829H1.25C0.560833 12.0829 0 11.5221 0 10.8329V9.16625C0 8.83208 0.13 8.51833 0.365833 8.2825C0.602083 8.04667 0.915833 7.91625 1.25 7.91625H2.80167C2.95583 7.38375 3.16833 6.87 3.4375 6.38333L2.34 5.28542C1.8525 4.79792 1.8525 4.00542 2.34 3.51792L3.51833 2.33917C3.99042 1.8675 4.81375 1.86667 5.28625 2.33917L6.38417 3.43708C6.87083 3.16833 7.38417 2.95542 7.91667 2.80167V1.25C7.91667 0.560833 8.4775 0 9.16667 0H10.8333C11.5225 0 12.0833 0.560833 12.0833 1.25V2.80167C12.6167 2.95583 13.13 3.16875 13.6158 3.43708L14.7137 2.33917C15.1862 1.8675 16.0092 1.86667 16.4817 2.33917L17.6604 3.5175C17.8967 3.75333 18.0267 4.0675 18.0267 4.40125C18.0267 4.735 17.8967 5.04917 17.6604 5.285L16.5629 6.38292C16.8321 6.86958 17.045 7.38292 17.1987 7.91625H18.75C19.4392 7.91625 20 8.47708 20 9.16625V10.8329C20 11.1671 19.87 11.4808 19.6342 11.7167C19.3983 11.9525 19.0842 12.0829 18.75 12.0829H17.1983C17.0442 12.6163 16.8312 13.13 16.5625 13.6163L17.66 14.7142C18.1475 15.2017 18.1475 15.9942 17.66 16.4817L16.4817 17.6604C16.0092 18.1325 15.1862 18.1325 14.7137 17.6604L13.6167 16.5625C13.13 16.8317 12.6162 17.0442 12.0837 17.1983V18.75C12.0833 19.4392 11.5229 20 10.8333 20ZM6.31542 15.6242C6.39 15.6242 6.46542 15.6442 6.5325 15.685C7.1225 16.0458 7.76125 16.3108 8.43125 16.4729C8.61833 16.5183 8.75 16.6854 8.75 16.8779V18.75C8.75 18.98 8.93708 19.1667 9.16667 19.1667H10.8333C11.0629 19.1667 11.25 18.98 11.25 18.75V16.8779C11.25 16.6854 11.3817 16.5183 11.5687 16.4729C12.2379 16.3108 12.8767 16.0467 13.4671 15.6854C13.6321 15.585 13.8429 15.6104 13.9792 15.7463L15.3033 17.0708C15.4596 17.2267 15.7362 17.2275 15.8929 17.0708L17.0712 15.8921C17.2337 15.7296 17.2337 15.4654 17.0712 15.3029L15.7467 13.9783C15.6104 13.8425 15.5854 13.6304 15.6858 13.4662C16.0462 12.8771 16.3108 12.2383 16.4729 11.5679C16.5179 11.3808 16.6854 11.2487 16.8779 11.2487H18.75C18.8612 11.2487 18.9662 11.2054 19.045 11.1267C19.1233 11.0492 19.1667 10.9446 19.1667 10.8329V9.16625C19.1667 8.93625 18.9796 8.74958 18.75 8.74958H16.8779C16.6854 8.74958 16.5179 8.61792 16.4729 8.43042C16.3112 7.76083 16.0467 7.12208 15.6858 6.53208C15.5854 6.36792 15.6104 6.15667 15.7467 6.02L17.0712 4.69542C17.1488 4.6175 17.1933 4.51042 17.1933 4.40083C17.1933 4.29125 17.1488 4.18375 17.0712 4.10625L15.8925 2.92792C15.735 2.77083 15.4604 2.77083 15.3029 2.92792L13.9783 4.2525C13.8425 4.38917 13.6312 4.41458 13.4662 4.31333C12.8775 3.95333 12.2392 3.68833 11.5687 3.52625C11.3821 3.48167 11.25 3.31458 11.25 3.12208V1.25C11.25 1.02 11.0629 0.833333 10.8333 0.833333H9.16667C8.93708 0.833333 8.75 1.02 8.75 1.25V3.12208C8.75 3.31458 8.61833 3.48167 8.43125 3.52708C7.76208 3.68875 7.12333 3.95333 6.53292 4.31417C6.36833 4.41458 6.15708 4.38958 6.02125 4.25333L4.69667 2.92875C4.53917 2.77167 4.26458 2.77167 4.10708 2.92875L2.92917 4.10708C2.76667 4.26958 2.76667 4.53375 2.92917 4.69625L4.25375 6.02083C4.39 6.15667 4.415 6.36875 4.31458 6.53292C3.95375 7.12292 3.68917 7.76167 3.5275 8.43083C3.4825 8.61792 3.315 8.75 3.1225 8.75H1.25C1.13875 8.75 1.03375 8.79333 0.955 8.87208C0.876667 8.95 0.833333 9.05458 0.833333 9.16625V10.8329C0.833333 11.0629 1.02042 11.2496 1.25 11.2496H3.12208C3.31458 11.2496 3.48208 11.3812 3.52708 11.5687C3.68917 12.2387 3.95375 12.8775 4.31417 13.4667C4.41458 13.6308 4.38958 13.8421 4.25333 13.9787L2.92875 15.3038C2.85125 15.3817 2.80667 15.4887 2.80667 15.5983C2.80667 15.7079 2.85125 15.8154 2.92875 15.8929L4.1075 17.0712C4.26458 17.2283 4.53958 17.2283 4.69708 17.0712L6.02125 15.7467C6.10125 15.6658 6.2075 15.6242 6.31542 15.6242Z" fill="white"/>
<path d="M10 14.1667C7.7025 14.1667 5.83333 12.2975 5.83333 10C5.83333 7.7025 7.7025 5.83333 10 5.83333C12.2975 5.83333 14.1667 7.7025 14.1667 10C14.1667 12.2975 12.2979 14.1667 10 14.1667ZM10 6.66667C8.16208 6.66667 6.66667 8.16208 6.66667 10C6.66667 11.8379 8.16208 13.3333 10 13.3333C11.8379 13.3333 13.3333 11.8379 13.3333 10C13.3333 8.16208 11.8383 6.66667 10 6.66667Z" fill="white"/>
</svg>
