<svg width="38" height="40" viewBox="0 0 38 40" fill="none" xmlns="http://www.w3.org/2000/svg">
<path d="M35.4175 26.1872L33.6952 24.7189C34.152 24.5052 34.5595 24.1991 34.8921 23.8199C35.2247 23.4408 35.475 22.9968 35.6274 22.5161C35.7797 22.0353 35.8308 21.5282 35.7774 21.0267C35.7239 20.5252 35.5671 20.0403 35.3168 19.6025C35.0665 19.1646 34.7282 18.7834 34.3232 18.4829C33.9182 18.1824 33.4553 17.9691 32.9637 17.8564C32.4721 17.7438 31.9625 17.7343 31.4671 17.8285C30.9716 17.9226 30.5011 18.1185 30.0851 18.4037C30.0633 18.3778 30.0397 18.3533 30.0146 18.3305L24.7623 13.623C25.869 12.4828 26.6125 11.0399 26.8988 9.47688C27.185 7.9139 27.0012 6.30113 26.3704 4.84269C25.7397 3.38426 24.6905 2.14573 23.3556 1.28387C22.0206 0.422005 20.46 -0.0244426 18.8712 0.0010325C17.2825 0.0265076 15.737 0.52276 14.4303 1.42698C13.1237 2.3312 12.1147 3.60273 11.5311 5.08064C10.9475 6.55854 10.8154 8.17638 11.1516 9.72937C11.4878 11.2824 12.2773 12.7007 13.4199 13.8049L8.1563 18.5226C8.14313 18.5344 8.13121 18.547 8.11905 18.5595C7.71593 18.239 7.24952 18.0076 6.75052 17.8804C6.25152 17.7532 5.73124 17.7331 5.22391 17.8214C4.71658 17.9097 4.2337 18.1045 3.80705 18.3928C3.3804 18.6812 3.01964 19.0566 2.74853 19.4944C2.47741 19.9323 2.30208 20.4225 2.23407 20.933C2.16605 21.4434 2.2069 21.9625 2.35392 22.456C2.50095 22.9495 2.75081 23.4063 3.08707 23.7964C3.42333 24.1864 3.83837 24.5008 4.30488 24.7188L2.58262 26.1872C1.91873 26.7531 1.38559 27.4565 1.01999 28.2486C0.654394 29.0407 0.465059 29.9027 0.465057 30.7751V32.4659C0.465057 32.5579 0.483174 32.649 0.518373 32.734C0.553573 32.8189 0.605164 32.8961 0.670204 32.9612C0.735244 33.0262 0.812458 33.0778 0.897436 33.113C0.982415 33.1482 1.07349 33.1663 1.16547 33.1663H10.5373C10.7231 33.1663 10.9012 33.0925 11.0326 32.9612C11.1639 32.8298 11.2377 32.6517 11.2377 32.4659V30.7751C11.2377 29.9027 11.0484 29.0407 10.6828 28.2486C10.3172 27.4565 9.78405 26.7532 9.12017 26.1872L7.39791 24.7189C8.06455 24.407 8.62131 23.9009 8.99509 23.2669C9.36887 22.6329 9.54219 21.9007 9.4923 21.1664C9.4592 20.6665 9.32208 20.179 9.08972 19.7351C9.12181 19.7142 9.1523 19.6911 9.18094 19.6657L14.6377 14.775C15.7169 15.4778 16.9504 15.9087 18.2325 16.031V24.5981C18.2325 24.6252 18.234 24.6522 18.2368 24.6791C17.4894 24.839 16.811 25.2295 16.2974 25.7956C15.7838 26.3617 15.461 27.0748 15.3744 27.8342C15.2879 28.5937 15.442 29.3611 15.815 30.0283C16.1881 30.6954 16.7612 31.2286 17.4535 31.5525L15.7312 33.0208C15.0674 33.5868 14.5342 34.2901 14.1686 35.0822C13.803 35.8743 13.6137 36.7364 13.6137 37.6088V39.2996C13.6137 39.4853 13.6875 39.6635 13.8188 39.7949C13.9502 39.9262 14.1283 40 14.3141 40H23.6859C23.8717 40 24.0499 39.9262 24.1812 39.7949C24.3126 39.6635 24.3864 39.4853 24.3864 39.2996V37.6087C24.3863 36.7363 24.197 35.8743 23.8314 35.0822C23.4658 34.2901 22.9327 33.5868 22.2688 33.0208L20.5465 31.5525C21.2389 31.2285 21.8121 30.6953 22.1851 30.0281C22.5582 29.3608 22.7124 28.5933 22.6258 27.8338C22.5393 27.0743 22.2165 26.3611 21.7029 25.7949C21.1893 25.2287 20.5109 24.838 19.7634 24.6781C19.7662 24.6515 19.7676 24.6248 19.7676 24.5981V16.0309C21.139 15.9001 22.4533 15.4165 23.5824 14.6271L28.9899 19.4737C29.0047 19.4869 29.0201 19.499 29.0355 19.5109C28.7677 19.9488 28.5953 20.4382 28.5295 20.9473C28.4638 21.4564 28.5063 21.9737 28.6541 22.4652C28.802 22.9568 29.0519 23.4116 29.3876 23.7999C29.7233 24.1883 30.1371 24.5014 30.6021 24.7189L28.8798 26.1872C28.2159 26.7532 27.6828 27.4565 27.3172 28.2486C26.9516 29.0407 26.7623 29.9027 26.7623 30.7751V32.466C26.7623 32.6517 26.8361 32.8299 26.9674 32.9612C27.0988 33.0926 27.2769 33.1664 27.4627 33.1664H36.8345C37.0203 33.1664 37.1984 33.0926 37.3298 32.9612C37.4611 32.8299 37.5349 32.6517 37.5349 32.466V30.7752C37.5349 29.9028 37.3456 29.0407 36.9801 28.2486C36.6145 27.4565 36.0814 26.7532 35.4175 26.1872ZM12.5049 8.03824C12.5049 6.75363 12.8859 5.49787 13.5996 4.42975C14.3133 3.36163 15.3277 2.52914 16.5145 2.03754C17.7013 1.54594 19.0073 1.41731 20.2672 1.66793C21.5271 1.91854 22.6844 2.53714 23.5928 3.4455C24.5012 4.35386 25.1198 5.51117 25.3704 6.7711C25.621 8.03103 25.4924 9.33698 25.0008 10.5238C24.5092 11.7106 23.6767 12.725 22.6085 13.4387C21.5404 14.1524 20.2847 14.5333 19 14.5333C17.278 14.5314 15.6271 13.8465 14.4095 12.6288C13.1918 11.4112 12.5069 9.76025 12.5049 8.03824Z" fill="#00711E"/>
<path d="M17.0645 11.5466C17.1817 11.6138 17.3146 11.6489 17.4497 11.6483C17.5848 11.6478 17.7173 11.6115 17.834 11.5433L22.6527 8.72491C22.7684 8.65726 22.8643 8.5605 22.931 8.44425C22.9977 8.32801 23.0328 8.19634 23.0328 8.06232C23.0328 7.92831 22.9977 7.79664 22.931 7.68039C22.8643 7.56415 22.7684 7.46739 22.6527 7.39973L17.834 4.58127C17.7173 4.51306 17.5848 4.47684 17.4497 4.47627C17.3146 4.4757 17.1817 4.5108 17.0645 4.57802C16.9473 4.64525 16.8499 4.74222 16.7822 4.85913C16.7145 4.97604 16.6789 5.10875 16.6789 5.24386V10.8808C16.6789 11.0159 16.7145 11.1486 16.7822 11.2655C16.85 11.3824 16.9473 11.4793 17.0645 11.5466Z" fill="#00711E"/>
</svg>
