<svg width="222" height="139" viewBox="0 0 222 139" fill="none" xmlns="http://www.w3.org/2000/svg">
<path d="M49.4801 73.861H29.0361V77.95H49.4801V73.861Z" fill="white"/>
<path d="M76.8701 138.581H1.64408C1.15873 138.521 0.716067 138.274 0.410588 137.892C0.105109 137.51 -0.0389824 137.024 0.00907594 136.537V118.137C-0.0389824 117.65 0.105109 117.164 0.410588 116.782C0.716067 116.4 1.15873 116.153 1.64408 116.093H76.8701C77.3554 116.153 77.7981 116.4 78.1036 116.782C78.409 117.164 78.5531 117.65 78.5051 118.137V136.537C78.5531 137.024 78.409 137.51 78.1036 137.892C77.7981 138.274 77.3554 138.521 76.8701 138.581ZM3.28008 134.493H75.2351V120.182H3.28008V134.493Z" fill="#0D6963"/>
<path d="M57.6571 119.803H20.8571C20.2898 119.776 19.7563 119.525 19.3734 119.106C18.9905 118.686 18.7894 118.132 18.8141 117.565V110.853C18.7896 110.286 18.991 109.732 19.3741 109.312C19.7572 108.893 20.2908 108.643 20.8581 108.616H57.6581C58.2254 108.643 58.759 108.893 59.1421 109.312C59.5251 109.732 59.7265 110.286 59.7021 110.853V117.565C59.7268 118.133 59.5254 118.687 59.1421 119.107C58.7587 119.526 58.2247 119.777 57.6571 119.803ZM20.8571 115.328H57.6571V111.604H20.8571V115.328Z" fill="#0D6963"/>
<path d="M53.5681 110.676C52.6131 110.676 52.9531 110.045 52.7611 109.128L50.2611 99.503C50.2468 99.314 50.2468 99.1241 50.2611 98.935L49.4801 83.725C49.4803 83.4248 49.5542 83.1292 49.6951 82.864L50.2611 81.799H28.2561L28.8221 82.864C28.963 83.1292 29.0368 83.4248 29.0371 83.725L28.2561 98.935C28.2704 99.1241 28.2704 99.314 28.2561 99.503L25.3691 109.128C25.1501 110.171 25.6601 110.855 24.5481 110.637C24.2924 110.598 24.0474 110.507 23.8274 110.371C23.6075 110.235 23.4172 110.056 23.2679 109.844C23.1187 109.633 23.0134 109.394 22.9584 109.141C22.9035 108.888 22.9 108.627 22.9481 108.373L24.9481 98.934V84.18L23.1181 80.736C22.9632 80.4449 22.8899 80.1175 22.9057 79.7881C22.9216 79.4588 23.026 79.1399 23.2081 78.865C23.4002 78.5809 23.6596 78.3488 23.9632 78.1893C24.2668 78.0298 24.6052 77.948 24.9481 77.951H53.5691C53.912 77.948 54.2504 78.0298 54.554 78.1893C54.8576 78.3488 55.117 78.5809 55.3091 78.865C55.4911 79.1399 55.5956 79.4588 55.6114 79.7881C55.6273 80.1175 55.5539 80.4449 55.3991 80.736L53.5691 84.18V98.936L55.5691 108.375C55.6172 108.629 55.6137 108.89 55.5587 109.143C55.5038 109.396 55.3985 109.635 55.2492 109.846C55.0999 110.058 54.9097 110.237 54.6897 110.373C54.4698 110.509 54.2247 110.6 53.9691 110.639C53.837 110.664 53.7026 110.677 53.5681 110.676Z" fill="#0D6963"/>
<path d="M49.0921 39.106L51.3201 37.062L53.8141 39.106C53.8141 39.106 48.4581 43.195 47.4361 47.284C49.4801 57.506 46.9251 55.462 47.4361 57.506V73.861H30.5701C31.185 71.5132 31.6156 69.1209 31.8581 66.706C31.8581 64.662 30.9581 62.096 32.4921 58.006C34.1481 53.651 32.7991 49.579 32.7991 47.535C32.7991 45.491 33.1261 43.317 33.1261 41.273C33.226 39.0619 33.096 36.8463 32.7381 34.662C32.2681 31.144 29.9381 27.962 31.1231 26.877C33.3491 24.833 31.1411 18.671 31.1411 16.626C31.1411 14.581 35.6611 26.844 36.7631 28.888L37.8891 26.842C37.9406 26.2839 38.1986 25.7652 38.6128 25.3875C39.0269 25.0098 39.5671 24.8005 40.1276 24.8005C40.688 24.8005 41.2283 25.0098 41.6424 25.3875C42.0565 25.7652 42.3146 26.2839 42.3661 26.842L43.3471 30.931C43.3471 30.931 45.3911 32.975 45.3911 35.02C45.3911 37.065 49.0921 39.106 49.0921 39.106Z" fill="white"/>
<path d="M47.8651 80.906C47.8515 80.9039 47.8377 80.9039 47.8241 80.906H29.9361C29.6439 80.906 29.3552 80.8435 29.0893 80.7225C28.8234 80.6016 28.5864 80.425 28.3945 80.2048C28.2025 79.9846 28.0599 79.7259 27.9764 79.4459C27.8928 79.166 27.8702 78.8714 27.9101 78.582C28.1211 77.057 28.6681 72.758 28.6681 71.196C28.6583 70.7319 28.625 70.2687 28.5681 69.808C28.1784 67.1857 28.4772 64.5071 29.4351 62.035C30.2133 59.654 30.3513 57.1102 29.8351 54.659C29.7112 53.9145 29.638 53.1624 29.6161 52.408C29.6161 51.333 29.7001 50.241 29.7861 49.151C29.8641 48.164 29.9431 47.18 29.9431 46.211C29.9431 46.019 29.9491 45.82 29.9571 45.596C30.0092 43.6881 29.8806 41.7796 29.5731 39.896C29.3495 38.6357 28.9904 37.4032 28.5021 36.22C27.7521 34.198 26.9021 31.91 28.6021 30.353C28.4233 29.416 28.1308 28.5042 27.7311 27.638C26.589 25.0966 25.9493 22.3584 25.8471 19.574C25.8471 19.0318 26.0625 18.5118 26.4459 18.1283C26.8293 17.7449 27.3493 17.5295 27.8916 17.5295C28.4338 17.5295 28.9538 17.7449 29.3373 18.1283C29.7207 18.5118 29.9361 19.0318 29.9361 19.574C29.9361 21.618 32.6671 25.874 34.6301 28.751C34.9538 27.8551 35.5471 27.0814 36.3283 26.5363C37.1096 25.9913 38.0405 25.7016 38.9931 25.707C42.8471 25.707 44.2471 29.375 44.2471 31.84V35.154C45.4435 36.5072 46.1618 38.2164 46.2911 40.018C46.6496 40.6261 47.1451 41.1421 47.7381 41.525L48.7931 40.556C49.1561 40.2239 49.6265 40.0337 50.1183 40.0201C50.6101 40.0065 51.0903 40.1705 51.4711 40.482L53.9651 42.53C54.2029 42.7253 54.3936 42.9719 54.5228 43.2513C54.6519 43.5306 54.7163 43.8356 54.711 44.1433C54.7057 44.451 54.6309 44.7536 54.4922 45.0284C54.3535 45.3031 54.1545 45.543 53.9101 45.73C52.6421 46.705 49.3101 49.702 48.3921 52.378C49.6661 58.908 49.3101 60.678 48.7851 62.003C48.8071 62.115 48.8321 62.257 48.8401 62.336C48.8601 62.589 49.3571 68.579 49.3571 70.683C49.3571 71.619 49.4841 73.136 49.6061 74.602C49.7231 76.019 49.8351 77.368 49.8621 78.423C49.9272 78.7218 49.9246 79.0314 49.8544 79.329C49.7841 79.6266 49.6481 79.9047 49.4562 80.1428C49.2643 80.3809 49.0215 80.5729 48.7457 80.7048C48.4698 80.8368 48.1679 80.9052 47.8621 80.905L47.8651 80.906ZM45.6841 76.817C45.6391 76.217 45.5841 75.576 45.5331 74.942C45.4001 73.321 45.2711 71.792 45.2711 70.684C45.2711 68.918 44.8561 63.758 44.7781 62.821C44.5852 62.0489 44.6556 61.2346 44.9781 60.507C45.1231 60.151 45.5611 59.062 44.2871 52.685C44.2255 52.3874 44.2323 52.0796 44.3071 51.785C44.9527 49.6698 46.0721 47.7297 47.5801 46.112C47.362 46.0741 47.1521 45.9993 46.9591 45.891C45.8431 45.276 42.2021 43.031 42.2021 40.013C41.9982 39.003 41.4921 38.0789 40.7511 37.363C40.3726 36.9795 40.1596 36.4628 40.1581 35.924V31.835C40.1581 31.765 40.1151 29.791 38.9931 29.791C38.2161 29.791 38.1141 31.827 38.1141 31.848C38.1116 31.9921 38.0958 32.1357 38.0671 32.277L37.6151 34.321C37.5252 34.729 37.3126 35.0997 37.0058 35.3833C36.6991 35.6668 36.3129 35.8497 35.8991 35.9073C35.4853 35.9649 35.0638 35.8945 34.6913 35.7055C34.3187 35.5165 34.013 35.2179 33.8151 34.85C33.5941 34.437 32.9461 33.503 32.2591 32.515C32.2241 32.466 32.1921 32.415 32.1591 32.37C32.0341 32.5896 31.8877 32.7962 31.7221 32.987C31.8924 33.5971 32.0943 34.1979 32.3271 34.787C32.9263 36.2565 33.3597 37.7884 33.6191 39.354C33.959 41.4645 34.0986 43.6023 34.0361 45.739L34.0241 46.205C34.0241 47.282 33.9401 48.374 33.8541 49.464C33.7761 50.449 33.6971 51.435 33.6971 52.402C33.7217 52.9682 33.7818 53.5323 33.8771 54.091C34.4975 57.2193 34.2833 60.4558 33.2561 63.475C32.5244 65.3484 32.3076 67.3835 32.6281 69.369C32.7033 69.9736 32.7464 70.5818 32.7571 71.191C32.7571 72.497 32.4871 74.965 32.2621 76.817H45.6841Z" fill="#0D6963"/>
<path d="M39.1351 26.73C38.8641 26.7297 38.6043 26.622 38.4127 26.4304C38.2211 26.2388 38.1133 25.979 38.1131 25.708V21.619C38.1131 21.348 38.2208 21.088 38.4124 20.8963C38.6041 20.7047 38.864 20.597 39.1351 20.597C39.4061 20.597 39.6661 20.7047 39.8577 20.8963C40.0494 21.088 40.1571 21.348 40.1571 21.619V25.708C40.1568 25.979 40.0491 26.2388 39.8574 26.4304C39.6658 26.622 39.4061 26.7297 39.1351 26.73Z" fill="#0D6963"/>
<path d="M38.1141 28.774C37.9796 28.7742 37.8464 28.7478 37.7221 28.6963C37.5979 28.6448 37.485 28.5693 37.3901 28.474L33.3031 24.385C33.1184 24.1918 33.0167 23.9339 33.02 23.6666C33.0232 23.3993 33.1309 23.1439 33.3202 22.9552C33.5095 22.7664 33.7652 22.6594 34.0325 22.6569C34.2997 22.6544 34.5574 22.7568 34.7501 22.942L38.8391 27.031C38.9819 27.1741 39.079 27.3562 39.1183 27.5545C39.1575 27.7527 39.1371 27.9582 39.0596 28.1449C38.9822 28.3315 38.8511 28.491 38.6829 28.6032C38.5148 28.7154 38.3172 28.7752 38.1151 28.775L38.1141 28.774Z" fill="#0D6963"/>
<path d="M40.1581 28.774C39.956 28.7741 39.7584 28.7143 39.5902 28.6022C39.4221 28.49 39.291 28.3305 39.2135 28.1439C39.136 27.9572 39.1156 27.7517 39.1549 27.5535C39.1941 27.3552 39.2913 27.1731 39.4341 27.03L43.5231 22.941C43.7158 22.7558 43.9734 22.6534 44.2407 22.6559C44.508 22.6584 44.7637 22.7655 44.9529 22.9542C45.1422 23.1429 45.25 23.3983 45.2532 23.6656C45.2564 23.9329 45.1548 24.1908 44.9701 24.384L40.8811 28.473C40.7863 28.5683 40.6737 28.644 40.5496 28.6957C40.4255 28.7473 40.2925 28.7739 40.1581 28.774Z" fill="#0D6963"/>
<path d="M44.2481 29.796H42.2031C41.932 29.796 41.6721 29.6883 41.4804 29.4967C41.2888 29.305 41.1811 29.0451 41.1811 28.774C41.1811 28.503 41.2888 28.243 41.4804 28.0513C41.6721 27.8597 41.932 27.752 42.2031 27.752H44.2471C44.5181 27.752 44.7781 27.8597 44.9697 28.0513C45.1614 28.243 45.2691 28.503 45.2691 28.774C45.2691 29.0451 45.1614 29.305 44.9697 29.4967C44.7781 29.6883 44.5191 29.796 44.2481 29.796Z" fill="#0D6963"/>
<path d="M27.8911 21.618C27.349 21.618 26.8291 21.4027 26.4457 21.0193C26.0624 20.636 25.8471 20.1161 25.8471 19.574V11.396C25.8471 10.8538 26.0625 10.3338 26.4459 9.95034C26.8293 9.56693 27.3493 9.35151 27.8916 9.35151C28.4338 9.35151 28.9538 9.56693 29.3373 9.95034C29.7207 10.3338 29.9361 10.8538 29.9361 11.396V19.574C29.9361 19.8425 29.8832 20.1084 29.7804 20.3565C29.6776 20.6045 29.527 20.8299 29.3371 21.0197C29.1471 21.2095 28.9217 21.3601 28.6736 21.4627C28.4255 21.5654 28.1596 21.6182 27.8911 21.618Z" fill="#0D6963"/>
<path d="M29.9351 13.441H25.8461C25.3038 13.441 24.7838 13.2256 24.4004 12.8422C24.017 12.4588 23.8016 11.9387 23.8016 11.3965C23.8016 10.8543 24.017 10.3343 24.4004 9.95083C24.7838 9.56741 25.3038 9.35202 25.8461 9.35202H29.9351C30.4773 9.35202 30.9973 9.56741 31.3808 9.95083C31.7642 10.3343 31.9796 10.8543 31.9796 11.3965C31.9796 11.9387 31.7642 12.4588 31.3808 12.8422C30.9973 13.2256 30.4773 13.441 29.9351 13.441Z" fill="#0D6963"/>
<path d="M31.9761 51.262C31.8019 51.2617 31.6307 51.217 31.4787 51.1319C31.3267 51.0469 31.199 50.9244 31.1076 50.7762C31.0163 50.6279 30.9643 50.4587 30.9567 50.2848C30.9491 50.1108 30.986 49.9377 31.0641 49.782C32.7458 46.6731 34.8764 43.8289 37.3871 41.341C37.5798 41.1558 37.8374 41.0534 38.1047 41.0559C38.372 41.0584 38.6277 41.1654 38.8169 41.3542C39.0062 41.5429 39.114 41.7983 39.1172 42.0656C39.1204 42.3329 39.0188 42.5908 38.8341 42.784C36.4827 45.1224 34.4811 47.7879 32.8911 50.698C32.8055 50.8674 32.6748 51.0097 32.5133 51.1093C32.3517 51.2088 32.1658 51.2617 31.9761 51.262Z" fill="#0D6963"/>
<path d="M31.9821 43.085C31.7802 43.0846 31.583 43.0245 31.4152 42.9124C31.2474 42.8002 31.1164 42.6409 31.0389 42.4545C30.9613 42.2682 30.9405 42.0631 30.9792 41.8649C31.0178 41.6668 31.1141 41.4846 31.2561 41.341C32.1868 40.437 32.7995 39.2556 33.0021 37.974C33.0021 37.703 33.1098 37.443 33.3014 37.2513C33.4931 37.0597 33.753 36.952 34.0241 36.952C34.2951 36.952 34.5551 37.0597 34.7467 37.2513C34.9384 37.443 35.0461 37.703 35.0461 37.974C35.0461 40.374 32.9461 42.545 32.7031 42.784C32.6086 42.8792 32.4963 42.9547 32.3726 43.0064C32.2489 43.058 32.1162 43.0847 31.9821 43.085Z" fill="#0D6963"/>
<path d="M31.9821 65.573C31.7625 65.5735 31.5485 65.5031 31.372 65.3725C31.1955 65.2418 31.0657 65.0578 31.002 64.8476C30.9383 64.6374 30.9439 64.4123 31.0181 64.2056C31.0924 63.9989 31.2312 63.8216 31.4141 63.7C31.4731 63.661 37.3451 59.711 39.2441 55.915C39.3042 55.795 39.3874 55.688 39.4889 55.6001C39.5904 55.5122 39.7082 55.4452 39.8356 55.4029C39.963 55.3605 40.0975 55.3437 40.2314 55.3533C40.3653 55.363 40.496 55.3989 40.6161 55.459C40.7361 55.5192 40.8431 55.6024 40.931 55.7039C41.0189 55.8054 41.0859 55.9232 41.1282 56.0506C41.1706 56.178 41.1874 56.3125 41.1778 56.4464C41.1681 56.5803 41.1322 56.711 41.0721 56.831C38.9321 61.112 32.8071 65.231 32.5471 65.401C32.3801 65.5134 32.1834 65.5733 31.9821 65.573Z" fill="#0D6963"/>
<path d="M29.9351 77.839C29.733 77.8391 29.5354 77.7793 29.3672 77.6672C29.1991 77.555 29.068 77.3955 28.9905 77.2089C28.913 77.0222 28.8926 76.8168 28.9319 76.6185C28.9711 76.4202 29.0683 76.2381 29.2111 76.095L35.3441 69.962C35.8097 69.4545 36.1266 68.8287 36.2601 68.153C36.7451 66.532 37.3461 64.514 41.6351 61.653C41.7466 61.5735 41.8729 61.5171 42.0066 61.4874C42.1403 61.4576 42.2785 61.455 42.4132 61.4797C42.548 61.5045 42.6763 61.556 42.7907 61.6313C42.9051 61.7067 43.0032 61.8042 43.0791 61.9182C43.1551 62.0321 43.2074 62.1602 43.2328 62.2947C43.2583 62.4293 43.2565 62.5676 43.2275 62.7015C43.1985 62.8353 43.1429 62.962 43.0639 63.0739C42.985 63.1858 42.8844 63.2807 42.7681 63.353C39.0941 65.802 38.6281 67.36 38.2191 68.734C37.9968 69.7373 37.5032 70.6602 36.7921 71.402L30.6591 77.535C30.5645 77.631 30.4518 77.7073 30.3275 77.7595C30.2032 77.8117 30.0699 77.8387 29.9351 77.839Z" fill="#0D6963"/>
<path d="M50.5001 44.218C50.3259 44.2177 50.1547 44.173 50.0027 44.0879C49.8507 44.0029 49.723 43.8804 49.6316 43.7322C49.5403 43.5839 49.4883 43.4147 49.4807 43.2408C49.4731 43.0668 49.51 42.8937 49.5881 42.738L50.6101 40.694C50.6702 40.574 50.7534 40.467 50.8549 40.3791C50.9564 40.2912 51.0742 40.2242 51.2016 40.1819C51.329 40.1395 51.4635 40.1227 51.5974 40.1323C51.7314 40.142 51.8621 40.1779 51.9821 40.238C52.1021 40.2982 52.2091 40.3813 52.297 40.4828C52.3849 40.5843 52.4519 40.7022 52.4942 40.8296C52.5366 40.957 52.5534 41.0915 52.5438 41.2254C52.5341 41.3593 52.4982 41.49 52.4381 41.61L51.4161 43.654C51.3306 43.8236 51.1996 43.9661 51.0379 44.0657C50.8762 44.1653 50.69 44.218 50.5001 44.218Z" fill="#0D6963"/>
<path d="M31.9781 61.484C31.7581 61.4858 31.5435 61.4155 31.3671 61.284C31.1511 61.1206 31.0087 60.8781 30.9712 60.6099C30.9337 60.3416 31.0042 60.0694 31.1671 59.853C31.2261 59.773 37.2271 51.735 39.1931 45.833C39.2355 45.7058 39.3026 45.5881 39.3904 45.4868C39.4783 45.3855 39.5853 45.3024 39.7053 45.2424C39.8253 45.1824 39.9559 45.1467 40.0897 45.1372C40.2235 45.1277 40.3578 45.1446 40.4851 45.187C40.6123 45.2294 40.73 45.2965 40.8313 45.3844C40.9326 45.4723 41.0157 45.5793 41.0757 45.6992C41.1357 45.8192 41.1714 45.9498 41.1809 46.0836C41.1904 46.2174 41.1735 46.3518 41.1311 46.479C39.0581 52.698 33.0561 60.741 32.8021 61.079C32.706 61.2063 32.5814 61.3092 32.4383 61.3796C32.2952 61.4499 32.1375 61.4857 31.9781 61.484Z" fill="#0D6963"/>
<path d="M36.0681 77.839C35.866 77.8392 35.6684 77.7794 35.5002 77.6672C35.3321 77.555 35.201 77.3955 35.1235 77.2089C35.046 77.0222 35.0256 76.8168 35.0649 76.6185C35.1041 76.4202 35.2013 76.2381 35.3441 76.095C36.3184 75.2191 36.9393 74.0175 37.0901 72.716C37.0876 72.5811 37.1128 72.4471 37.1644 72.3224C37.2159 72.1977 37.2925 72.0849 37.3895 71.9911C37.4865 71.8973 37.6018 71.8244 37.7282 71.7771C37.8546 71.7298 37.9893 71.709 38.1241 71.716C38.3924 71.7179 38.6491 71.8257 38.8383 72.016C39.0275 72.2063 39.1338 72.4637 39.1341 72.732C38.9848 74.5727 38.1484 76.2898 36.7911 77.542C36.696 77.6366 36.5832 77.7116 36.4592 77.7625C36.3351 77.8135 36.2022 77.8395 36.0681 77.839Z" fill="#0D6963"/>
<path d="M43.2231 77.839C42.9954 77.8388 42.7743 77.7623 42.5951 77.6219C42.4159 77.4814 42.2888 77.2851 42.2341 77.064C41.5801 74.3019 41.2271 71.4771 41.1811 68.639C41.1811 68.368 41.2888 68.108 41.4804 67.9164C41.6721 67.7247 41.932 67.617 42.2031 67.617C42.4741 67.617 42.7341 67.7247 42.9257 67.9164C43.1174 68.108 43.2251 68.368 43.2251 68.639C43.2748 71.31 43.6074 73.9681 44.2171 76.569C44.2546 76.7199 44.2573 76.8773 44.2248 77.0294C44.1924 77.1814 44.1258 77.3241 44.0299 77.4465C43.9341 77.569 43.8116 77.668 43.6718 77.736C43.532 77.804 43.3786 77.8392 43.2231 77.839Z" fill="#0D6963"/>
<path d="M51.5251 102.009H26.9921C26.8717 102.041 26.7455 102.045 26.6232 102.021C26.501 101.996 26.386 101.944 26.2872 101.868C26.1883 101.792 26.1083 101.695 26.0532 101.583C25.9981 101.471 25.9694 101.348 25.9694 101.224C25.9694 101.099 25.9981 100.976 26.0532 100.864C26.1083 100.752 26.1883 100.655 26.2872 100.579C26.386 100.503 26.501 100.451 26.6232 100.426C26.7455 100.402 26.8717 100.406 26.9921 100.438H51.5251C51.6455 100.406 51.7717 100.402 51.8939 100.426C52.0162 100.451 52.1311 100.503 52.23 100.579C52.3288 100.655 52.4089 100.752 52.464 100.864C52.5191 100.976 52.5477 101.099 52.5477 101.224C52.5477 101.348 52.5191 101.471 52.464 101.583C52.4089 101.695 52.3288 101.792 52.23 101.868C52.1311 101.944 52.0162 101.996 51.8939 102.021C51.7717 102.045 51.6455 102.041 51.5251 102.009Z" fill="#0D6963"/>
<path d="M27.8911 9.35303C27.5545 9.35216 27.2233 9.26837 26.9267 9.10908C26.6302 8.94979 26.3775 8.7199 26.1909 8.43973C26.0043 8.15956 25.8897 7.83774 25.857 7.50272C25.8244 7.16769 25.8748 6.82979 26.0038 6.51887C26.1327 6.20796 26.3363 5.93361 26.5966 5.72008C26.8568 5.50655 27.1656 5.36041 27.4957 5.29459C27.8258 5.22876 28.167 5.24528 28.4892 5.34268C28.8115 5.44008 29.1047 5.61536 29.3431 5.85303C29.7209 6.24228 29.9333 6.7626 29.9361 7.30502C29.9386 7.57415 29.8875 7.84109 29.7857 8.09022C29.6838 8.33936 29.5334 8.5657 29.3431 8.75601C29.1527 8.94632 28.9264 9.09679 28.6773 9.19861C28.4281 9.30043 28.1612 9.35157 27.8921 9.34903L27.8911 9.35303Z" fill="#0D6963"/>
<path d="M220.007 138.58H165.334C164.908 138.58 164.499 138.411 164.197 138.109C163.895 137.807 163.726 137.398 163.726 136.972V112.851C163.726 112.425 163.895 112.016 164.197 111.714C164.499 111.412 164.908 111.243 165.334 111.243H170.158V77.475C170.158 77.0485 170.327 76.6395 170.629 76.338C170.931 76.0364 171.34 75.867 171.766 75.867H173.374V22.801C173.374 22.3745 173.543 21.9655 173.845 21.664C174.147 21.3624 174.556 21.193 174.982 21.193H176.59V13.153C176.59 12.7265 176.759 12.3176 177.061 12.016C177.363 11.7144 177.772 11.545 178.198 11.545H207.143C207.57 11.545 207.979 11.7144 208.28 12.016C208.582 12.3176 208.751 12.7265 208.751 13.153V21.193H210.359C210.786 21.193 211.195 21.3624 211.496 21.664C211.798 21.9655 211.967 22.3745 211.967 22.801V75.866H213.575C214.002 75.866 214.411 76.0354 214.712 76.337C215.014 76.6385 215.183 77.0475 215.183 77.474V111.245H220.007C220.434 111.245 220.843 111.414 221.144 111.716C221.446 112.018 221.615 112.427 221.615 112.853V136.974C221.615 137.4 221.445 137.809 221.143 138.11C220.842 138.411 220.433 138.58 220.007 138.58ZM166.942 135.364H218.399V114.464H213.575C213.149 114.464 212.74 114.295 212.438 113.993C212.136 113.691 211.967 113.282 211.967 112.856V79.083H210.359C209.933 79.083 209.524 78.9136 209.222 78.612C208.92 78.3105 208.751 77.9015 208.751 77.475V24.409H207.143C206.932 24.409 206.723 24.3674 206.528 24.2866C206.333 24.2058 206.155 24.0874 206.006 23.938C205.857 23.7887 205.738 23.6115 205.657 23.4164C205.577 23.2213 205.535 23.0122 205.535 22.801V14.761H179.806V22.801C179.806 23.0122 179.764 23.2213 179.684 23.4164C179.603 23.6115 179.484 23.7887 179.335 23.938C179.186 24.0874 179.009 24.2058 178.813 24.2866C178.618 24.3674 178.409 24.409 178.198 24.409H176.59V77.475C176.59 77.9015 176.421 78.3105 176.119 78.612C175.818 78.9136 175.409 79.083 174.982 79.083H173.374V112.852C173.374 113.278 173.205 113.687 172.903 113.989C172.602 114.291 172.193 114.46 171.766 114.46H166.942V135.364Z" fill="#0D6963"/>
<path d="M203.927 14.761C203.501 14.761 203.092 14.5916 202.79 14.29C202.488 13.9885 202.319 13.5795 202.319 13.153V10.765L192.671 3.87102L183.023 10.765V13.153C183.023 13.5795 182.854 13.9885 182.552 14.29C182.251 14.5916 181.842 14.761 181.415 14.761C180.989 14.761 180.58 14.5916 180.278 14.29C179.976 13.9885 179.807 13.5795 179.807 13.153V9.93701C179.807 9.68093 179.868 9.42857 179.986 9.2009C180.103 8.97323 180.273 8.77683 180.481 8.62802L191.737 0.588013C192.01 0.393415 192.337 0.288818 192.672 0.288818C193.007 0.288818 193.333 0.393415 193.606 0.588013L204.862 8.62802C205.07 8.77683 205.24 8.97323 205.358 9.2009C205.475 9.42857 205.536 9.68093 205.536 9.93701V13.153C205.536 13.3643 205.494 13.5734 205.414 13.7686C205.333 13.9638 205.214 14.1411 205.065 14.2904C204.915 14.4397 204.738 14.5582 204.543 14.6389C204.348 14.7197 204.138 14.7611 203.927 14.761Z" fill="#0D6963"/>
<path d="M213.574 114.46L171.766 114.46C171.34 114.46 170.93 114.291 170.628 113.989C170.326 113.687 170.157 113.278 170.157 112.852C170.157 112.426 170.326 112.017 170.628 111.715C170.93 111.413 171.339 111.244 171.765 111.244H213.574C214.001 111.244 214.41 111.413 214.711 111.715C215.013 112.017 215.182 112.426 215.182 112.852C215.182 113.278 215.013 113.687 214.711 113.989C214.41 114.291 214.001 114.46 213.574 114.46Z" fill="#0D6963"/>
<path d="M181.943 137.777C181.343 137.777 180.864 137.417 180.864 136.977V112.848C180.864 112.404 181.347 112.048 181.943 112.048C182.539 112.048 183.022 112.408 183.022 112.848V136.969C183.022 137.416 182.538 137.777 181.943 137.777Z" fill="#0D6963"/>
<path d="M185.943 137.777C185.343 137.777 184.864 137.417 184.864 136.977V112.848C184.864 112.404 185.347 112.048 185.943 112.048C186.539 112.048 187.022 112.408 187.022 112.848V136.969C187.022 137.416 186.538 137.777 185.943 137.777Z" fill="#0D6963"/>
<path d="M199.809 137.777C199.209 137.777 198.73 137.417 198.73 136.977V112.848C198.73 112.404 199.213 112.048 199.809 112.048C200.405 112.048 200.888 112.408 200.888 112.848V136.969C200.888 137.416 200.404 137.777 199.809 137.777Z" fill="#0D6963"/>
<path d="M203.809 137.777C203.209 137.777 202.73 137.417 202.73 136.977V112.848C202.73 112.404 203.213 112.048 203.809 112.048C204.405 112.048 204.888 112.408 204.888 112.848V136.969C204.888 137.416 204.404 137.777 203.809 137.777Z" fill="#0D6963"/>
<path d="M195.082 138.58H190.254C190.149 138.58 190.045 138.559 189.948 138.519C189.851 138.479 189.763 138.42 189.688 138.346C189.614 138.271 189.555 138.183 189.515 138.086C189.475 137.989 189.454 137.885 189.454 137.78V124.908C189.454 124.696 189.538 124.492 189.688 124.342C189.838 124.192 190.042 124.108 190.254 124.108H195.078C195.29 124.108 195.494 124.192 195.644 124.342C195.794 124.492 195.878 124.696 195.878 124.908V137.772C195.879 137.877 195.859 137.982 195.82 138.08C195.78 138.177 195.722 138.266 195.648 138.341C195.574 138.417 195.486 138.476 195.389 138.517C195.292 138.558 195.187 138.579 195.082 138.58ZM191.062 136.972H194.278V125.716H191.062V136.972Z" fill="#0D6963"/>
<path d="M210.36 108.028H174.979C174.535 108.028 174.179 107.501 174.179 106.852C174.179 106.203 174.539 105.676 174.979 105.676H210.356C210.8 105.676 211.156 106.203 211.156 106.852C211.156 107.501 210.804 108.028 210.36 108.028Z" fill="#0D6963"/>
<path d="M210.358 102.459H174.977C174.533 102.459 174.177 101.932 174.177 101.283C174.177 100.634 174.537 100.107 174.977 100.107H210.354C210.798 100.107 211.154 100.634 211.154 101.283C211.154 101.932 210.802 102.459 210.358 102.459Z" fill="#0D6963"/>
<path d="M210.36 96.891H174.979C174.535 96.891 174.179 96.364 174.179 95.715C174.179 95.066 174.539 94.539 174.979 94.539H210.356C210.8 94.539 211.156 95.066 211.156 95.715C211.156 96.364 210.804 96.891 210.36 96.891Z" fill="#0D6963"/>
<path d="M210.358 91.322H174.977C174.533 91.322 174.177 90.795 174.177 90.146C174.177 89.497 174.537 88.97 174.977 88.97H210.354C210.798 88.97 211.154 89.497 211.154 90.146C211.154 90.795 210.802 91.322 210.358 91.322Z" fill="#0D6963"/>
<path d="M210.358 85.753H174.977C174.533 85.753 174.177 85.226 174.177 84.577C174.177 83.928 174.537 83.401 174.977 83.401H210.354C210.798 83.401 211.154 83.928 211.154 84.577C211.154 85.226 210.802 85.753 210.358 85.753Z" fill="#0D6963"/>
<path d="M207.283 74.063H178.058C177.691 74.063 177.394 73.536 177.394 72.887C177.394 72.238 177.694 71.711 178.058 71.711H207.282C207.649 71.711 207.946 72.238 207.946 72.887C207.946 73.536 207.649 74.063 207.283 74.063Z" fill="#0D6963"/>
<path d="M207.283 67.063H178.058C177.691 67.063 177.394 66.536 177.394 65.887C177.394 65.238 177.694 64.711 178.058 64.711H207.282C207.649 64.711 207.946 65.238 207.946 65.887C207.946 66.536 207.649 67.063 207.283 67.063Z" fill="#0D6963"/>
<path d="M207.283 60.063H178.058C177.691 60.063 177.394 59.536 177.394 58.887C177.394 58.238 177.694 57.711 178.058 57.711H207.282C207.649 57.711 207.946 58.238 207.946 58.887C207.946 59.536 207.649 60.063 207.283 60.063Z" fill="#0D6963"/>
<path d="M207.283 53.063H178.058C177.691 53.063 177.394 52.536 177.394 51.887C177.394 51.238 177.694 50.711 178.058 50.711H207.282C207.649 50.711 207.946 51.238 207.946 51.887C207.946 52.536 207.649 53.063 207.283 53.063Z" fill="#0D6963"/>
<path d="M207.283 46.063H178.058C177.691 46.063 177.394 45.536 177.394 44.887C177.394 44.238 177.694 43.711 178.058 43.711H207.282C207.649 43.711 207.946 44.238 207.946 44.887C207.946 45.536 207.649 46.063 207.283 46.063Z" fill="#0D6963"/>
<path d="M207.283 39.063H178.058C177.691 39.063 177.394 38.536 177.394 37.887C177.394 37.238 177.694 36.711 178.058 36.711H207.282C207.649 36.711 207.946 37.238 207.946 37.887C207.946 38.536 207.649 39.063 207.283 39.063Z" fill="#0D6963"/>
<path d="M207.283 32.063H178.058C177.691 32.063 177.394 31.536 177.394 30.887C177.394 30.238 177.694 29.711 178.058 29.711H207.282C207.649 29.711 207.946 30.238 207.946 30.887C207.946 31.536 207.649 32.063 207.283 32.063Z" fill="#0D6963"/>
<path d="M200.969 22.063H184.369C184.161 22.063 183.992 21.536 183.992 20.887C183.992 20.238 184.161 19.711 184.369 19.711H200.969C201.177 19.711 201.346 20.238 201.346 20.887C201.346 21.536 201.178 22.063 200.969 22.063Z" fill="#0D6963"/>
<path d="M151.583 123.242H90.6451C90.4097 123.242 90.1766 123.196 89.9592 123.106C89.7417 123.016 89.5441 122.884 89.3776 122.717C89.2112 122.551 89.0792 122.353 88.9892 122.136C88.8992 121.918 88.8529 121.685 88.8531 121.45V74.85C88.8529 74.6147 88.8992 74.3816 88.9892 74.1641C89.0792 73.9466 89.2112 73.749 89.3776 73.5826C89.5441 73.4162 89.7417 73.2842 89.9592 73.1942C90.1766 73.1041 90.4097 73.0579 90.6451 73.058H151.583C151.818 73.0579 152.052 73.1041 152.269 73.1942C152.486 73.2842 152.684 73.4162 152.851 73.5826C153.017 73.749 153.149 73.9466 153.239 74.1641C153.329 74.3816 153.375 74.6147 153.375 74.85V121.45C153.375 121.685 153.329 121.918 153.239 122.136C153.149 122.353 153.017 122.551 152.851 122.717C152.684 122.884 152.486 123.016 152.269 123.106C152.052 123.196 151.818 123.242 151.583 123.242ZM92.4381 119.658H149.792V76.643H92.4381V119.658Z" fill="#0D6963"/>
<path d="M158.752 138.581H83.4751C83.2397 138.581 83.0066 138.535 82.7892 138.445C82.5717 138.355 82.3741 138.223 82.2076 138.056C82.0412 137.89 81.9092 137.692 81.8192 137.475C81.7292 137.257 81.683 137.024 81.6831 136.789V122.45C81.683 122.215 81.7292 121.982 81.8192 121.764C81.9092 121.547 82.0412 121.349 82.2076 121.183C82.3741 121.016 82.5717 120.884 82.7892 120.794C83.0066 120.704 83.2397 120.658 83.4751 120.658H158.752C158.987 120.658 159.221 120.704 159.438 120.794C159.655 120.884 159.853 121.016 160.02 121.183C160.186 121.349 160.318 121.547 160.408 121.764C160.498 121.982 160.544 122.215 160.544 122.45V136.788C160.544 137.023 160.498 137.257 160.408 137.474C160.318 137.692 160.186 137.89 160.02 138.056C159.853 138.223 159.656 138.355 159.438 138.445C159.221 138.535 158.988 138.581 158.752 138.581ZM84.3831 135.663H157.697V123.427H84.3831V135.663Z" fill="#0D6963"/>
<path d="M147.998 76.642C147.763 76.6422 147.53 76.5959 147.312 76.5059C147.095 76.4159 146.897 76.2839 146.731 76.1174C146.564 75.951 146.432 75.7534 146.342 75.5359C146.252 75.3185 146.206 75.0854 146.206 74.85V67.681H135.452V69.473C135.452 69.7084 135.406 69.9415 135.316 70.1589C135.226 70.3764 135.094 70.574 134.927 70.7404C134.761 70.9069 134.563 71.0389 134.346 71.1289C134.129 71.2189 133.895 71.2652 133.66 71.265H96.0221V74.85C96.0221 75.3254 95.8332 75.7813 95.4971 76.1175C95.1609 76.4537 94.705 76.6425 94.2296 76.6425C93.7542 76.6425 93.2983 76.4537 92.9621 76.1175C92.6259 75.7813 92.4371 75.3254 92.4371 74.85V69.473C92.4369 69.2376 92.4832 69.0046 92.5732 68.7871C92.6632 68.5696 92.7952 68.372 92.9616 68.2056C93.1281 68.0392 93.3257 67.9072 93.5432 67.8172C93.7606 67.7272 93.9937 67.6809 94.2291 67.681H131.867V65.889C131.867 65.6535 131.913 65.4202 132.003 65.2026C132.093 64.9849 132.225 64.7871 132.392 64.6206C132.558 64.454 132.756 64.322 132.974 64.232C133.191 64.1419 133.425 64.0958 133.66 64.096H147.998C148.233 64.0959 148.467 64.1421 148.684 64.2322C148.901 64.3222 149.099 64.4542 149.266 64.6206C149.432 64.787 149.564 64.9846 149.654 65.2021C149.744 65.4196 149.79 65.6527 149.79 65.888V74.85C149.79 75.0854 149.744 75.3185 149.654 75.5359C149.564 75.7534 149.432 75.951 149.266 76.1174C149.099 76.2839 148.901 76.4159 148.684 76.5059C148.467 76.5959 148.233 76.6422 147.998 76.642Z" fill="#0D6963"/>
<path d="M119.322 71.266H101.399C101.164 71.2661 100.93 71.2199 100.713 71.1298C100.495 71.0397 100.298 70.9076 100.131 70.7411C99.9649 70.5746 99.8329 70.3768 99.7429 70.1592C99.653 69.9417 99.6068 69.7085 99.6071 69.473V62.304C99.6069 62.0687 99.6532 61.8356 99.7432 61.6181C99.8332 61.4006 99.9652 61.203 100.132 61.0366C100.298 60.8702 100.496 60.7382 100.713 60.6482C100.931 60.5581 101.164 60.5119 101.399 60.512H119.322C119.557 60.5119 119.791 60.5581 120.008 60.6482C120.225 60.7382 120.423 60.8702 120.59 61.0366C120.756 61.203 120.888 61.4006 120.978 61.6181C121.068 61.8356 121.114 62.0687 121.114 62.304V69.473C121.114 69.7085 121.068 69.9417 120.978 70.1592C120.888 70.3768 120.756 70.5746 120.59 70.7411C120.423 70.9076 120.226 71.0397 120.008 71.1298C119.791 71.2199 119.558 71.2661 119.322 71.266ZM103.191 67.681H117.529V64.096H103.192L103.191 67.681Z" fill="#0D6963"/>
<path d="M117.839 138.58H103.992C103.574 138.52 103.195 138.299 102.937 137.965C102.678 137.63 102.56 137.208 102.607 136.788V122.449C102.56 122.029 102.678 121.607 102.937 121.272C103.195 120.938 103.574 120.717 103.992 120.657H117.84C118.259 120.717 118.637 120.938 118.896 121.272C119.154 121.607 119.272 122.029 119.225 122.449V136.787C119.273 137.207 119.154 137.63 118.896 137.965C118.637 138.299 118.258 138.52 117.839 138.58ZM105.376 134.995H116.454V124.242H105.377L105.376 134.995Z" fill="#0D6963"/>
<path d="M104.088 85.604H95.1301C94.8914 85.604 94.6625 85.5092 94.4937 85.3404C94.3249 85.1716 94.2301 84.9427 94.2301 84.704V79.335C94.2301 79.0963 94.3249 78.8674 94.4937 78.6986C94.6625 78.5298 94.8914 78.435 95.1301 78.435H104.091C104.33 78.435 104.559 78.5298 104.727 78.6986C104.896 78.8674 104.991 79.0963 104.991 79.335V84.712C104.989 84.9498 104.893 85.1772 104.724 85.3443C104.554 85.5114 104.326 85.6048 104.088 85.604ZM96.0231 83.812H103.192V80.227H96.0231V83.812Z" fill="#0D6963"/>
<path d="M118.426 85.604H109.468C109.229 85.604 109 85.5092 108.832 85.3404C108.663 85.1716 108.568 84.9427 108.568 84.704V79.335C108.568 79.0963 108.663 78.8674 108.832 78.6986C109 78.5298 109.229 78.435 109.468 78.435H118.43C118.669 78.435 118.898 78.5298 119.066 78.6986C119.235 78.8674 119.33 79.0963 119.33 79.335V84.712C119.328 84.95 119.232 85.1775 119.062 85.3447C118.893 85.5118 118.664 85.6051 118.426 85.604ZM110.361 83.812H117.53V80.227H110.361V83.812Z" fill="#0D6963"/>
<path d="M132.763 85.604H123.805C123.566 85.604 123.337 85.5092 123.169 85.3404C123 85.1716 122.905 84.9427 122.905 84.704V79.335C122.905 79.0963 123 78.8674 123.169 78.6986C123.337 78.5298 123.566 78.435 123.805 78.435H132.766C133.005 78.435 133.234 78.5298 133.402 78.6986C133.571 78.8674 133.666 79.0963 133.666 79.335V84.712C133.664 84.9498 133.568 85.1772 133.399 85.3443C133.229 85.5114 133.001 85.6048 132.763 85.604ZM124.698 83.812H131.867V80.227H124.698V83.812Z" fill="#0D6963"/>
<path d="M147.101 85.604H138.143C137.904 85.604 137.675 85.5092 137.507 85.3404C137.338 85.1716 137.243 84.9427 137.243 84.704V79.335C137.243 79.0963 137.338 78.8674 137.507 78.6986C137.675 78.5298 137.904 78.435 138.143 78.435H147.104C147.343 78.435 147.572 78.5298 147.74 78.6986C147.909 78.8674 148.004 79.0963 148.004 79.335V84.712C148.002 84.9498 147.906 85.1772 147.737 85.3443C147.567 85.5114 147.339 85.6048 147.101 85.604ZM139.036 83.812H146.205V80.227H139.036V83.812Z" fill="#0D6963"/>
<path d="M104.088 96.357H95.1301C94.8914 96.357 94.6625 96.2622 94.4937 96.0934C94.3249 95.9246 94.2301 95.6957 94.2301 95.457V90.088C94.2301 89.8493 94.3249 89.6204 94.4937 89.4516C94.6625 89.2828 94.8914 89.188 95.1301 89.188H104.091C104.33 89.188 104.559 89.2828 104.727 89.4516C104.896 89.6204 104.991 89.8493 104.991 90.088V95.465C104.989 95.7028 104.893 95.9302 104.724 96.0973C104.554 96.2644 104.326 96.3578 104.088 96.357ZM96.0231 94.565H103.192V90.98H96.0231V94.565Z" fill="#0D6963"/>
<path d="M118.426 96.357H109.468C109.229 96.357 109 96.2622 108.832 96.0934C108.663 95.9246 108.568 95.6957 108.568 95.457V90.088C108.568 89.8493 108.663 89.6204 108.832 89.4516C109 89.2828 109.229 89.188 109.468 89.188H118.43C118.669 89.188 118.898 89.2828 119.066 89.4516C119.235 89.6204 119.33 89.8493 119.33 90.088V95.465C119.328 95.703 119.232 95.9305 119.062 96.0977C118.893 96.2648 118.664 96.3581 118.426 96.357ZM110.361 94.565H117.53V90.98H110.361V94.565Z" fill="#0D6963"/>
<path d="M132.763 96.357H123.805C123.566 96.357 123.337 96.2622 123.169 96.0934C123 95.9246 122.905 95.6957 122.905 95.457V90.088C122.905 89.8493 123 89.6204 123.169 89.4516C123.337 89.2828 123.566 89.188 123.805 89.188H132.766C133.005 89.188 133.234 89.2828 133.402 89.4516C133.571 89.6204 133.666 89.8493 133.666 90.088V95.465C133.664 95.7028 133.568 95.9302 133.399 96.0973C133.229 96.2644 133.001 96.3578 132.763 96.357ZM124.698 94.565H131.867V90.98H124.698V94.565Z" fill="#0D6963"/>
<path d="M147.101 96.357H138.143C137.904 96.357 137.675 96.2622 137.507 96.0934C137.338 95.9246 137.243 95.6957 137.243 95.457V90.088C137.243 89.8493 137.338 89.6204 137.507 89.4516C137.675 89.2828 137.904 89.188 138.143 89.188H147.104C147.343 89.188 147.572 89.2828 147.74 89.4516C147.909 89.6204 148.004 89.8493 148.004 90.088V95.465C148.002 95.7028 147.906 95.9302 147.737 96.0973C147.567 96.2644 147.339 96.3578 147.101 96.357ZM139.036 94.565H146.205V90.98H139.036V94.565Z" fill="#0D6963"/>
<path d="M104.088 107.111H95.1301C94.8914 107.111 94.6625 107.016 94.4937 106.847C94.3249 106.679 94.2301 106.45 94.2301 106.211V100.842C94.2301 100.603 94.3249 100.374 94.4937 100.206C94.6625 100.037 94.8914 99.942 95.1301 99.942H104.091C104.33 99.942 104.559 100.037 104.727 100.206C104.896 100.374 104.991 100.603 104.991 100.842V106.219C104.989 106.457 104.893 106.684 104.724 106.851C104.554 107.018 104.326 107.112 104.088 107.111ZM96.0231 105.319H103.192V101.734H96.0231V105.319Z" fill="#0D6963"/>
<path d="M118.426 107.111H109.468C109.229 107.111 109 107.016 108.832 106.847C108.663 106.679 108.568 106.45 108.568 106.211V100.842C108.568 100.603 108.663 100.374 108.832 100.206C109 100.037 109.229 99.942 109.468 99.942H118.43C118.669 99.942 118.898 100.037 119.066 100.206C119.235 100.374 119.33 100.603 119.33 100.842V106.219C119.328 106.457 119.232 106.684 119.062 106.852C118.893 107.019 118.664 107.112 118.426 107.111ZM110.361 105.319H117.53V101.734H110.361V105.319Z" fill="#0D6963"/>
<path d="M132.763 107.111H123.805C123.566 107.111 123.337 107.016 123.169 106.847C123 106.679 122.905 106.45 122.905 106.211V100.842C122.905 100.603 123 100.374 123.169 100.206C123.337 100.037 123.566 99.942 123.805 99.942H132.766C133.005 99.942 133.234 100.037 133.402 100.206C133.571 100.374 133.666 100.603 133.666 100.842V106.219C133.664 106.457 133.568 106.684 133.399 106.851C133.229 107.018 133.001 107.112 132.763 107.111ZM124.698 105.319H131.867V101.734H124.698V105.319Z" fill="#0D6963"/>
<path d="M147.101 107.111H138.143C137.904 107.111 137.675 107.016 137.507 106.847C137.338 106.679 137.243 106.45 137.243 106.211V100.842C137.243 100.603 137.338 100.374 137.507 100.206C137.675 100.037 137.904 99.942 138.143 99.942H147.104C147.343 99.942 147.572 100.037 147.74 100.206C147.909 100.374 148.004 100.603 148.004 100.842V106.219C148.002 106.457 147.906 106.684 147.737 106.851C147.567 107.018 147.339 107.112 147.101 107.111ZM139.036 105.319H146.205V101.734H139.036V105.319Z" fill="#0D6963"/>
<path d="M104.088 117.865H95.1301C94.8914 117.865 94.6625 117.77 94.4937 117.601C94.3249 117.433 94.2301 117.204 94.2301 116.965V111.596C94.2301 111.357 94.3249 111.128 94.4937 110.96C94.6625 110.791 94.8914 110.696 95.1301 110.696H104.091C104.33 110.696 104.559 110.791 104.727 110.96C104.896 111.128 104.991 111.357 104.991 111.596V116.973C104.989 117.211 104.893 117.438 104.724 117.605C104.554 117.772 104.326 117.866 104.088 117.865ZM96.0231 116.073H103.192V112.488H96.0231V116.073Z" fill="#0D6963"/>
<path d="M118.426 117.865H109.468C109.229 117.865 109 117.77 108.832 117.601C108.663 117.433 108.568 117.204 108.568 116.965V111.596C108.568 111.357 108.663 111.128 108.832 110.96C109 110.791 109.229 110.696 109.468 110.696H118.43C118.669 110.696 118.898 110.791 119.066 110.96C119.235 111.128 119.33 111.357 119.33 111.596V116.973C119.328 117.211 119.232 117.438 119.062 117.606C118.893 117.773 118.664 117.866 118.426 117.865ZM110.361 116.073H117.53V112.488H110.361V116.073Z" fill="#0D6963"/>
<path d="M132.763 117.865H123.805C123.566 117.865 123.337 117.77 123.169 117.601C123 117.433 122.905 117.204 122.905 116.965V111.596C122.905 111.357 123 111.128 123.169 110.96C123.337 110.791 123.566 110.696 123.805 110.696H132.766C133.005 110.696 133.234 110.791 133.402 110.96C133.571 111.128 133.666 111.357 133.666 111.596V116.973C133.664 117.211 133.568 117.438 133.399 117.605C133.229 117.772 133.001 117.866 132.763 117.865ZM124.698 116.073H131.867V112.488H124.698V116.073Z" fill="#0D6963"/>
<path d="M147.101 117.865H138.143C137.904 117.865 137.675 117.77 137.507 117.601C137.338 117.433 137.243 117.204 137.243 116.965V111.596C137.243 111.357 137.338 111.128 137.507 110.96C137.675 110.791 137.904 110.696 138.143 110.696H147.104C147.343 110.696 147.572 110.791 147.74 110.96C147.909 111.128 148.004 111.357 148.004 111.596V116.973C148.002 117.211 147.906 117.438 147.737 117.605C147.567 117.772 147.339 117.866 147.101 117.865ZM139.036 116.073H146.205V112.488H139.036V116.073Z" fill="#0D6963"/>
<path d="M147.103 85.604H95.1301C94.8914 85.604 94.6625 85.5092 94.4937 85.3404C94.3249 85.1716 94.2301 84.9427 94.2301 84.704V79.335C94.2301 79.0963 94.3249 78.8674 94.4937 78.6986C94.6625 78.5298 94.8914 78.435 95.1301 78.435H147.107C147.346 78.435 147.575 78.5298 147.743 78.6986C147.912 78.8674 148.007 79.0963 148.007 79.335V84.712C148.005 84.95 147.909 85.1775 147.739 85.3447C147.57 85.5118 147.341 85.6051 147.103 85.604ZM96.0221 83.812H146.206V80.227H96.0221V83.812Z" fill="#0D6963"/>
<path d="M147.103 96.357H95.1301C94.8914 96.357 94.6625 96.2622 94.4937 96.0934C94.3249 95.9246 94.2301 95.6957 94.2301 95.457V90.088C94.2301 89.8493 94.3249 89.6204 94.4937 89.4516C94.6625 89.2828 94.8914 89.188 95.1301 89.188H147.107C147.346 89.188 147.575 89.2828 147.743 89.4516C147.912 89.6204 148.007 89.8493 148.007 90.088V95.465C148.005 95.703 147.909 95.9305 147.739 96.0977C147.57 96.2648 147.341 96.3581 147.103 96.357ZM96.0221 94.565H146.206V90.98H96.0221V94.565Z" fill="#0D6963"/>
<path d="M147.103 107.111H95.1301C94.8914 107.111 94.6625 107.016 94.4937 106.847C94.3249 106.679 94.2301 106.45 94.2301 106.211V100.842C94.2301 100.603 94.3249 100.374 94.4937 100.206C94.6625 100.037 94.8914 99.942 95.1301 99.942H147.107C147.346 99.942 147.575 100.037 147.743 100.206C147.912 100.374 148.007 100.603 148.007 100.842V106.219C148.005 106.457 147.909 106.684 147.739 106.852C147.57 107.019 147.341 107.112 147.103 107.111ZM96.0221 105.319H146.206V101.734H96.0221V105.319Z" fill="#0D6963"/>
<path d="M147.103 117.865H95.1301C94.8914 117.865 94.6625 117.77 94.4937 117.601C94.3249 117.433 94.2301 117.204 94.2301 116.965V111.596C94.2301 111.357 94.3249 111.128 94.4937 110.96C94.6625 110.791 94.8914 110.696 95.1301 110.696H147.107C147.346 110.696 147.575 110.791 147.743 110.96C147.912 111.128 148.007 111.357 148.007 111.596V116.973C148.005 117.211 147.909 117.438 147.739 117.606C147.57 117.773 147.341 117.866 147.103 117.865ZM96.0221 116.073H146.206V112.488H96.0221V116.073Z" fill="#0D6963"/>
</svg>
