<svg width="215" height="198" viewBox="0 0 215 198" fill="none" xmlns="http://www.w3.org/2000/svg">
<g clip-path="url(#clip0_1374_1346)">
<path d="M200.105 143.593H189.575C189.036 143.612 188.511 143.417 188.116 143.049C187.721 142.682 187.489 142.173 187.469 141.634V80.8929C187.489 80.354 187.721 79.8449 188.116 79.4776C188.511 79.1103 189.036 78.9147 189.575 78.9339H200.105C200.644 78.9147 201.168 79.1103 201.563 79.4776C201.958 79.8449 202.191 80.354 202.211 80.8929V141.634C202.191 142.173 201.958 142.682 201.563 143.049C201.168 143.417 200.644 143.612 200.105 143.593ZM189.575 140.808H200.105V80.8929H189.575V140.808Z" fill="#0D6963" stroke="#0D6963" stroke-width="0.7"/>
<path d="M211.973 169.074H178.152C177.891 169.074 177.632 169.023 177.39 168.923C177.149 168.823 176.929 168.677 176.744 168.492C176.56 168.307 176.413 168.087 176.313 167.846C176.213 167.604 176.162 167.345 176.162 167.084V155.148C176.162 154.887 176.213 154.628 176.313 154.386C176.413 154.145 176.56 153.925 176.744 153.74C176.929 153.555 177.149 153.409 177.39 153.309C177.632 153.209 177.891 153.158 178.152 153.158H211.974C212.236 153.158 212.494 153.209 212.736 153.309C212.978 153.409 213.197 153.555 213.382 153.74C213.567 153.925 213.713 154.145 213.813 154.386C213.913 154.628 213.964 154.887 213.964 155.148V167.085C213.964 167.346 213.913 167.605 213.813 167.847C213.713 168.088 213.566 168.308 213.381 168.492C213.196 168.677 212.977 168.824 212.735 168.923C212.493 169.023 212.235 169.074 211.973 169.074ZM178.517 166.717H211.517V155.558H178.517V166.717Z" fill="#0D6963" stroke="#0D6963" stroke-width="0.7"/>
<path d="M204.021 155.148H186.11C185.616 155.179 185.129 155.013 184.757 154.687C184.384 154.361 184.156 153.901 184.121 153.407V142.962C184.156 142.468 184.384 142.008 184.757 141.682C185.129 141.356 185.616 141.19 186.11 141.221H204.021C204.515 141.19 205.002 141.355 205.375 141.681C205.748 142.008 205.976 142.468 206.011 142.962V153.407C205.976 153.901 205.748 154.362 205.375 154.688C205.002 155.014 204.515 155.179 204.021 155.148ZM186.115 153.407H204.021V143.555H186.11L186.115 153.407Z" fill="#0D6963" stroke="#0D6963" stroke-width="0.7"/>
<path d="M195.061 154.131C194.781 154.093 194.526 153.947 194.352 153.723C194.178 153.5 194.098 153.218 194.129 152.937V143.422C194.094 143.28 194.091 143.133 194.122 142.99C194.152 142.847 194.214 142.714 194.304 142.599C194.394 142.484 194.509 142.391 194.64 142.327C194.771 142.263 194.915 142.23 195.061 142.23C195.206 142.23 195.35 142.263 195.481 142.327C195.612 142.391 195.727 142.484 195.817 142.599C195.907 142.714 195.969 142.847 196 142.99C196.03 143.133 196.027 143.28 195.992 143.422V152.937C196.023 153.218 195.943 153.5 195.769 153.723C195.595 153.946 195.341 154.092 195.061 154.131Z" fill="#0D6963"/>
<path d="M201.018 125.471L190.534 130.076C190.13 130.288 189.681 130.401 189.225 130.406C188.769 130.412 188.318 130.31 187.908 130.109C187.424 129.703 187.812 129.028 188.779 128.606L199.266 124.002C199.67 123.791 200.118 123.678 200.574 123.672C201.031 123.666 201.482 123.768 201.891 123.97C202.373 124.374 201.985 125.05 201.018 125.471Z" fill="#0D6963"/>
<path d="M200.961 116.094L190.476 120.7C190.072 120.911 189.624 121.025 189.167 121.03C188.711 121.036 188.26 120.934 187.851 120.732C187.366 120.327 187.754 119.652 188.721 119.23L199.208 114.626C199.612 114.415 200.061 114.301 200.517 114.296C200.973 114.29 201.424 114.392 201.834 114.594C202.315 114.998 201.927 115.673 200.961 116.094Z" fill="#0D6963"/>
<path d="M200.84 106.094L190.356 110.7C189.952 110.911 189.503 111.025 189.047 111.03C188.591 111.036 188.14 110.934 187.731 110.732C187.246 110.327 187.634 109.652 188.601 109.23L199.088 104.626C199.492 104.415 199.941 104.301 200.397 104.296C200.853 104.29 201.304 104.392 201.713 104.594C202.195 104.998 201.807 105.673 200.84 106.094Z" fill="#0D6963"/>
<path d="M201.08 97.0945L190.595 101.7C190.191 101.911 189.743 102.025 189.287 102.03C188.83 102.036 188.379 101.934 187.97 101.732C187.486 101.327 187.874 100.652 188.84 100.23L199.327 95.6262C199.731 95.4146 200.18 95.3014 200.636 95.2957C201.092 95.29 201.543 95.3921 201.953 95.5936C202.434 95.9976 202.046 96.6735 201.08 97.0945Z" fill="#0D6963"/>
<path d="M201.018 88.0945L190.534 92.6997C190.13 92.9113 189.681 93.0246 189.225 93.0302C188.769 93.0359 188.318 92.9338 187.908 92.7323C187.424 92.3267 187.812 91.6522 188.779 91.2298L199.266 86.6262C199.67 86.4146 200.118 86.3014 200.574 86.2957C201.031 86.29 201.482 86.3921 201.891 86.5936C202.373 86.9976 201.985 87.6735 201.018 88.0945Z" fill="#0D6963"/>
<path d="M191.413 80.531C191.255 80.5316 191.099 80.4945 190.959 80.4229C190.818 80.3513 190.697 80.2472 190.604 80.1193C190.512 79.9913 190.451 79.8432 190.428 79.6871C190.404 79.5311 190.418 79.3716 190.468 79.222L192.748 72.39L188.301 65.721L183.673 63.407C183.461 63.2754 183.307 63.0695 183.239 62.8296C183.171 62.5898 183.195 62.3333 183.307 62.1104C183.418 61.8876 183.609 61.7143 183.842 61.6247C184.074 61.5351 184.332 61.5356 184.564 61.626L189.426 64.059C189.581 64.1353 189.713 64.2521 189.808 64.397L194.672 71.691C194.756 71.8167 194.81 71.9601 194.831 72.11C194.851 72.26 194.836 72.4126 194.788 72.556L192.357 79.85C192.29 80.0479 192.164 80.2199 191.994 80.342C191.825 80.4641 191.622 80.5302 191.413 80.531Z" fill="#0D6963" stroke="#0D6963" stroke-width="0.5"/>
<path d="M198.711 80.531C198.502 80.5305 198.299 80.4646 198.129 80.3427C197.96 80.2207 197.833 80.0488 197.766 79.851L195.335 72.557C195.287 72.4136 195.272 72.2611 195.292 72.1111C195.312 71.9611 195.366 71.8177 195.45 71.692L200.314 64.398C200.409 64.2535 200.541 64.1369 200.696 64.06L205.558 61.627C205.79 61.5366 206.048 61.5361 206.28 61.6257C206.513 61.7153 206.704 61.8885 206.815 62.1114C206.927 62.3343 206.951 62.5908 206.883 62.8306C206.815 63.0705 206.661 63.2764 206.449 63.408L201.821 65.722L197.372 72.39L199.652 79.222C199.734 79.4726 199.714 79.7456 199.596 79.9814C199.478 80.2172 199.271 80.3968 199.021 80.481C198.921 80.5137 198.816 80.5306 198.711 80.531Z" fill="#0D6963" stroke="#0D6963" stroke-width="0.5"/>
<path d="M200.036 66.2739H190.088C189.824 66.2739 189.571 66.1691 189.384 65.9825C189.198 65.7959 189.093 65.5428 189.093 65.2789C189.093 65.015 189.198 64.762 189.384 64.5754C189.571 64.3888 189.824 64.2839 190.088 64.2839H200.036C200.3 64.2839 200.553 64.3888 200.739 64.5754C200.926 64.762 201.031 65.015 201.031 65.2789C201.031 65.5428 200.926 65.7959 200.739 65.9825C200.553 66.1691 200.3 66.2739 200.036 66.2739Z" fill="#0D6963"/>
<path d="M195.063 65.2791C194.8 65.2778 194.548 65.1725 194.361 64.9862C194.175 64.7999 194.07 64.5476 194.068 64.2841V62.2941C194.068 62.0302 194.173 61.7771 194.36 61.5905C194.546 61.4039 194.799 61.2991 195.063 61.2991C195.327 61.2991 195.58 61.4039 195.767 61.5905C195.954 61.7771 196.058 62.0302 196.058 62.2941V64.2841C196.057 64.5476 195.952 64.7999 195.765 64.9862C195.579 65.1725 195.327 65.2778 195.063 65.2791Z" fill="#0D6963"/>
<path d="M44.7009 168.376H8.78896C8.38645 168.344 8.01074 168.162 7.73672 167.865C7.46271 167.569 7.31055 167.18 7.31055 166.776C7.31055 166.372 7.46271 165.983 7.73672 165.687C8.01074 165.39 8.38645 165.208 8.78896 165.176H44.704C45.1065 165.208 45.4822 165.39 45.7562 165.687C46.0302 165.983 46.1824 166.372 46.1824 166.776C46.1824 167.18 46.0302 167.569 45.7562 167.865C45.4822 168.162 45.1065 168.344 44.704 168.376H44.7009Z" fill="#0D6963"/>
<path d="M32.8999 167.684H20.5859C20.1958 167.691 19.8125 167.581 19.4859 167.368C19.3547 167.289 19.2457 167.178 19.1689 167.045C19.0922 166.913 19.0502 166.763 19.0469 166.61L22.1249 75.2889C22.1449 74.7189 22.8249 74.2629 23.6639 74.2629H29.8209C30.6569 74.2629 31.3399 74.7189 31.3599 75.2889L34.4379 166.61C34.4347 166.763 34.3927 166.913 34.3159 167.045C34.2392 167.178 34.1301 167.289 33.9989 167.368C33.6725 167.581 33.2896 167.691 32.8999 167.684ZM22.1259 165.584H31.3609L29.2019 75.9119H24.3549L22.1259 165.584Z" fill="#0D6963" stroke="#0D6963" stroke-width="0.7"/>
<path d="M31.3619 76.86H22.1269C21.9382 76.8938 21.7443 76.8858 21.5591 76.8365C21.3738 76.7872 21.2016 76.6979 21.0545 76.5749C20.9075 76.4518 20.7893 76.2981 20.7081 76.1244C20.627 75.9506 20.585 75.7613 20.585 75.5695C20.585 75.3778 20.627 75.1884 20.7081 75.0147C20.7893 74.841 20.9075 74.6872 21.0545 74.5642C21.2016 74.4411 21.3738 74.3518 21.5591 74.3026C21.7443 74.2533 21.9382 74.2453 22.1269 74.279H31.3619C31.5506 74.2453 31.7444 74.2533 31.9297 74.3026C32.115 74.3518 32.2872 74.4411 32.4342 74.5642C32.5813 74.6872 32.6995 74.841 32.7806 75.0147C32.8618 75.1884 32.9038 75.3778 32.9038 75.5695C32.9038 75.7613 32.8618 75.9506 32.7806 76.1244C32.6995 76.2981 32.5813 76.4518 32.4342 76.5749C32.2872 76.6979 32.115 76.7872 31.9297 76.8365C31.7444 76.8858 31.5506 76.8938 31.3619 76.86Z" fill="#0D6963"/>
<path d="M26.7416 167.684C26.5406 167.684 26.3419 167.641 26.1596 167.556L8.67658 159.016C8.08358 158.742 7.17658 158.295 7.31858 157.658C7.38669 157.349 7.55833 157.072 7.80509 156.874C8.05186 156.675 8.35895 156.567 8.67558 156.567H44.8056C45.1224 156.567 45.4297 156.675 45.6767 156.873C45.9237 157.072 46.0954 157.349 46.1636 157.658C46.3026 158.296 45.3996 158.743 44.8056 159.016L27.3226 167.556C27.1406 167.64 26.9423 167.684 26.7416 167.684ZM11.0486 158.225L26.7416 165.019L42.2906 158.225H11.0486Z" fill="#0D6963" stroke="#0D6963" stroke-width="0.7"/>
<path d="M8.20107 167.684C7.98194 167.704 7.76373 167.637 7.59323 167.498C7.42274 167.359 7.31354 167.159 7.28906 166.94V158.007C7.33216 157.797 7.44645 157.608 7.61261 157.473C7.77877 157.337 7.98664 157.263 8.20107 157.263C8.41549 157.263 8.62334 157.337 8.78951 157.473C8.95567 157.608 9.06997 157.797 9.11307 158.007V166.94C9.08859 167.159 8.97939 167.359 8.8089 167.498C8.6384 167.637 8.42019 167.704 8.20107 167.684Z" fill="#0D6963"/>
<path d="M45.2926 167.184C44.7926 167.184 44.3926 166.906 44.3926 166.564V157.882C44.3926 157.54 44.7926 157.262 45.2926 157.262C45.7926 157.262 46.1926 157.54 46.1926 157.882V166.562C46.1986 166.906 45.7926 167.184 45.2926 167.184Z" fill="#0D6963"/>
<path d="M26.744 76.4301C24.5452 76.4301 22.3959 75.7781 20.5677 74.5565C18.7395 73.335 17.3146 71.5987 16.4732 69.5673C15.6318 67.536 15.4116 65.3007 15.8406 63.1442C16.2695 60.9877 17.3283 59.0069 18.883 57.4521C20.4378 55.8974 22.4187 54.8386 24.5751 54.4097C26.7316 53.9807 28.9669 54.2009 30.9983 55.0423C33.0296 55.8837 34.7659 57.3086 35.9874 59.1368C37.209 60.965 37.861 63.1143 37.861 65.313C37.8575 68.2604 36.6852 71.0861 34.6011 73.1702C32.517 75.2543 29.6913 76.4266 26.744 76.4301ZM26.744 56.9751C25.0949 56.9751 23.4828 57.4641 22.1116 58.3803C20.7404 59.2964 19.6717 60.5987 19.0407 62.1222C18.4096 63.6458 18.2444 65.3223 18.5662 66.9397C18.8879 68.5571 19.682 70.0428 20.8481 71.2089C22.0142 72.375 23.4999 73.1691 25.1173 73.4908C26.7347 73.8126 28.4112 73.6474 29.9348 73.0164C31.4583 72.3853 32.7606 71.3166 33.6767 69.9454C34.5929 68.5742 35.0819 66.9621 35.0819 65.313C35.0798 63.1023 34.2007 60.9828 32.6375 59.4195C31.0743 57.8563 28.9547 56.9772 26.744 56.9751Z" fill="#0D6963"/>
<path d="M29.5222 56.975H23.9642C23.7816 56.9752 23.6008 56.9393 23.4321 56.8695C23.2634 56.7997 23.1101 56.6973 22.981 56.5682C22.8519 56.4391 22.7496 56.2858 22.6798 56.1171C22.61 55.9484 22.5741 55.7676 22.5742 55.585V47.247C22.5742 45.688 24.1002 44.468 26.0482 44.468H27.4382C29.3862 44.468 30.9122 45.688 30.9122 47.247V55.585C30.9123 55.7676 30.8765 55.9484 30.8067 56.1171C30.7369 56.2858 30.6345 56.4391 30.5054 56.5682C30.3763 56.6973 30.223 56.7997 30.0543 56.8695C29.8856 56.9393 29.7048 56.9752 29.5222 56.975ZM25.3532 54.196H28.1322V47.414C27.9198 47.2969 27.6797 47.2392 27.4372 47.247H26.0472C25.8048 47.2392 25.5647 47.2969 25.3522 47.414L25.3532 54.196Z" fill="#0D6963"/>
<path d="M28.8269 55.5849H24.6579C24.4794 55.5881 24.3045 55.5349 24.1579 55.4329C24.0976 55.3941 24.0481 55.3406 24.014 55.2775C23.9799 55.2144 23.9623 55.1437 23.9629 55.0719L25.3529 30.4139C25.3679 30.1499 25.6739 29.9409 26.0479 29.9409H27.4379C27.8119 29.9409 28.1179 30.1499 28.1329 30.4139L29.5229 55.0719C29.5235 55.1437 29.5059 55.2144 29.4718 55.2775C29.4378 55.3406 29.3882 55.3941 29.3279 55.4329C29.1811 55.5351 29.0057 55.5883 28.8269 55.5849ZM25.3819 54.5989H28.1029L26.7149 30.9269L25.3819 54.5989Z" fill="#0D6963" stroke="#0D6963" stroke-width="0.5"/>
<path d="M26.7435 31.623C25.9755 31.623 25.3535 31.302 25.3535 30.907V17.299C25.3535 16.899 25.9745 16.583 26.7435 16.583C27.5125 16.583 28.1335 16.904 28.1335 17.299V30.907C28.1325 31.303 27.5115 31.623 26.7435 31.623Z" fill="#0D6963"/>
<path d="M36.4703 65.777H17.0153C16.6313 65.777 16.3203 65.199 16.3203 64.487C16.3203 63.775 16.6313 63.197 17.0153 63.197H36.4703C36.8543 63.197 37.1653 63.775 37.1653 64.487C37.1653 65.199 36.8533 65.777 36.4703 65.777Z" fill="#0D6963"/>
<path d="M35.0809 69.672H18.4059C18.0219 69.672 17.7109 69.094 17.7109 68.382C17.7109 67.67 18.0219 67.092 18.4059 67.092H35.0809C35.4649 67.092 35.7759 67.67 35.7759 68.382C35.7759 69.094 35.4649 69.672 35.0809 69.672Z" fill="#0D6963"/>
<path d="M21.1852 67.7861C21.0013 67.7848 20.8253 67.7111 20.6952 67.5811C20.5652 67.451 20.4915 67.275 20.4902 67.0911V65.7011C20.4902 65.5168 20.5635 65.34 20.6938 65.2097C20.8241 65.0793 21.0009 65.0061 21.1852 65.0061C21.3696 65.0061 21.5463 65.0793 21.6767 65.2097C21.807 65.34 21.8802 65.5168 21.8802 65.7011V67.0911C21.8789 67.275 21.8053 67.451 21.6752 67.5811C21.5452 67.7111 21.3692 67.7848 21.1852 67.7861Z" fill="#0D6963"/>
<path d="M23.9645 67.7861C23.7806 67.7848 23.6046 67.7111 23.4745 67.5811C23.3445 67.451 23.2708 67.275 23.2695 67.0911V65.7011C23.2695 65.5168 23.3428 65.34 23.4731 65.2097C23.6034 65.0793 23.7802 65.0061 23.9645 65.0061C24.1489 65.0061 24.3256 65.0793 24.456 65.2097C24.5863 65.34 24.6595 65.5168 24.6595 65.7011V67.0911C24.6582 67.275 24.5846 67.451 24.4545 67.5811C24.3245 67.7111 24.1485 67.7848 23.9645 67.7861Z" fill="#0D6963"/>
<path d="M26.7438 67.7861C26.5599 67.7848 26.3839 67.7111 26.2538 67.5811C26.1238 67.451 26.0501 67.275 26.0488 67.0911V65.7011C26.0488 65.5168 26.1221 65.34 26.2524 65.2097C26.3827 65.0793 26.5595 65.0061 26.7438 65.0061C26.9282 65.0061 27.1049 65.0793 27.2353 65.2097C27.3656 65.34 27.4388 65.5168 27.4388 65.7011V67.0911C27.4375 67.275 27.3639 67.451 27.2338 67.5811C27.1038 67.7111 26.9278 67.7848 26.7438 67.7861Z" fill="#0D6963"/>
<path d="M29.5231 67.7861C29.3392 67.7848 29.1632 67.7111 29.0331 67.5811C28.9031 67.451 28.8294 67.275 28.8281 67.0911V65.7011C28.8281 65.5168 28.9014 65.34 29.0317 65.2097C29.162 65.0793 29.3388 65.0061 29.5231 65.0061C29.7075 65.0061 29.8842 65.0793 30.0146 65.2097C30.1449 65.34 30.2181 65.5168 30.2181 65.7011V67.0911C30.2168 67.275 30.1432 67.451 30.0131 67.5811C29.8831 67.7111 29.7071 67.7848 29.5231 67.7861Z" fill="#0D6963"/>
<path d="M32.3024 67.7861C32.1185 67.7848 31.9425 67.7111 31.8124 67.5811C31.6824 67.451 31.6087 67.275 31.6074 67.0911V65.7011C31.6074 65.5168 31.6807 65.34 31.811 65.2097C31.9413 65.0793 32.1181 65.0061 32.3024 65.0061C32.4868 65.0061 32.6635 65.0793 32.7939 65.2097C32.9242 65.34 32.9974 65.5168 32.9974 65.7011V67.0911C32.9961 67.275 32.9225 67.451 32.7924 67.5811C32.6624 67.7111 32.4864 67.7848 32.3024 67.7861Z" fill="#0D6963"/>
<path d="M171.204 165.083V147.018H172.594C172.603 147.019 172.613 147.019 172.622 147.018C172.798 147.018 172.967 146.952 173.096 146.832C173.225 146.713 173.304 146.549 173.317 146.373C173.329 146.198 173.275 146.024 173.165 145.887C173.054 145.75 172.896 145.66 172.722 145.635L158.902 141.49C158.837 141.469 158.77 141.459 158.702 141.459H143.411V140.069C143.594 140.069 143.774 140.033 143.943 139.964C144.112 139.894 144.265 139.792 144.394 139.662C144.524 139.533 144.626 139.38 144.696 139.211C144.765 139.042 144.801 138.862 144.801 138.679V133.12C144.987 133.125 145.171 133.093 145.344 133.025C145.517 132.958 145.675 132.856 145.808 132.726C145.941 132.597 146.047 132.442 146.119 132.271C146.191 132.1 146.228 131.916 146.228 131.73C146.228 131.545 146.191 131.361 146.119 131.19C146.047 131.019 145.941 130.864 145.808 130.735C145.675 130.605 145.517 130.503 145.344 130.436C145.171 130.368 144.987 130.336 144.801 130.341H142.022V126.173C142.113 126.173 142.204 126.155 142.288 126.12C142.372 126.085 142.449 126.034 142.513 125.969C142.578 125.905 142.629 125.828 142.664 125.744C142.699 125.66 142.717 125.569 142.717 125.478C142.717 125.387 142.699 125.296 142.664 125.212C142.629 125.128 142.578 125.051 142.513 124.987C142.449 124.922 142.372 124.871 142.288 124.836C142.204 124.801 142.113 124.783 142.022 124.783H121.177V124.088C121.176 123.904 121.102 123.728 120.972 123.598C120.842 123.468 120.666 123.394 120.482 123.393H117.008C117.013 122.206 117.162 121.024 117.451 119.872C117.556 119.907 117.668 119.917 117.778 119.902C117.888 119.887 117.993 119.846 118.085 119.783C118.177 119.72 118.253 119.637 118.307 119.54C118.361 119.443 118.392 119.335 118.397 119.224V117.834C118.397 117.697 118.356 117.562 118.28 117.448C118.204 117.334 118.095 117.245 117.969 117.192C117.842 117.14 117.702 117.126 117.567 117.153C117.433 117.18 117.309 117.246 117.212 117.343C116.682 117.946 116.309 118.67 116.125 119.451C116.061 119.38 115.983 119.323 115.895 119.284C115.808 119.244 115.714 119.224 115.618 119.223H114.228V116.444C114.227 116.33 114.199 116.217 114.145 116.116C114.091 116.016 114.013 115.93 113.918 115.866L112.263 114.766C112.439 114.641 112.583 114.476 112.683 114.285C112.783 114.094 112.836 113.882 112.838 113.666V112.276C112.835 112.046 112.775 111.82 112.661 111.619C112.547 111.419 112.384 111.25 112.188 111.13L113.33 109.988C113.46 109.858 113.533 109.681 113.533 109.497C113.533 109.313 113.46 109.137 113.329 109.007C113.199 108.876 113.023 108.803 112.839 108.803C112.655 108.804 112.478 108.877 112.348 109.007L111.448 109.907L110.548 109.007C110.484 108.943 110.407 108.891 110.323 108.856C110.239 108.822 110.148 108.804 110.057 108.803C109.966 108.803 109.876 108.821 109.792 108.856C109.707 108.891 109.631 108.942 109.566 109.007C109.502 109.071 109.451 109.147 109.416 109.232C109.381 109.316 109.363 109.406 109.363 109.497C109.363 109.588 109.381 109.679 109.416 109.763C109.45 109.847 109.502 109.924 109.566 109.988L110.707 111.13C110.51 111.25 110.348 111.419 110.234 111.619C110.12 111.82 110.059 112.046 110.057 112.276V113.666C110.06 113.899 110.122 114.128 110.238 114.33C110.354 114.532 110.52 114.701 110.72 114.821L109.005 115.849C108.901 115.911 108.815 115.999 108.756 116.104C108.697 116.209 108.666 116.328 108.667 116.449V119.228H107.285C107.189 119.229 107.095 119.249 107.007 119.289C106.92 119.328 106.842 119.385 106.778 119.456C106.594 118.675 106.222 117.951 105.693 117.348C105.595 117.251 105.472 117.186 105.337 117.159C105.203 117.132 105.063 117.145 104.936 117.197C104.809 117.25 104.701 117.339 104.625 117.453C104.549 117.568 104.508 117.702 104.507 117.839V119.229C104.512 119.34 104.543 119.448 104.597 119.546C104.651 119.643 104.727 119.726 104.818 119.789C104.91 119.852 105.015 119.892 105.125 119.908C105.235 119.923 105.348 119.912 105.453 119.877C105.742 121.029 105.891 122.211 105.896 123.398H102.422C102.238 123.399 102.062 123.473 101.932 123.603C101.802 123.733 101.728 123.909 101.727 124.093V124.788H80.8779C80.6936 124.788 80.5168 124.861 80.3865 124.992C80.2561 125.122 80.1829 125.299 80.1829 125.483C80.1829 125.667 80.2561 125.844 80.3865 125.974C80.5168 126.105 80.6936 126.178 80.8779 126.178V130.347H78.0989C77.9133 130.342 77.7286 130.374 77.5557 130.442C77.3827 130.509 77.2251 130.611 77.092 130.741C76.959 130.87 76.8533 131.025 76.781 131.196C76.7088 131.367 76.6717 131.551 76.6717 131.736C76.6717 131.922 76.7088 132.106 76.781 132.277C76.8533 132.448 76.959 132.603 77.092 132.732C77.2251 132.862 77.3827 132.964 77.5557 133.031C77.7286 133.099 77.9133 133.131 78.0989 133.126V138.685C78.0987 138.868 78.1344 139.048 78.2042 139.217C78.274 139.386 78.3763 139.539 78.5055 139.668C78.6346 139.798 78.7879 139.9 78.9567 139.97C79.1255 140.039 79.3063 140.075 79.4889 140.075V141.465H64.2019C64.1341 141.465 64.0666 141.475 64.0019 141.496L50.1019 145.665C49.9421 145.713 49.8048 145.816 49.7152 145.957C49.6255 146.098 49.5896 146.266 49.6138 146.431C49.6381 146.596 49.721 146.747 49.8474 146.856C49.9738 146.965 50.1351 147.024 50.3019 147.024H51.6919V165.083C50.1579 165.083 49.5919 165.94 49.6149 166.8C49.6379 167.66 50.1579 168.519 51.6919 168.519H171.204C172.738 168.519 172.774 167.473 172.796 166.773C172.818 166.073 172.738 165.083 171.204 165.083ZM144.804 148.407H143.414V147.017H144.804V148.407ZM143.414 149.797H144.804V165.083H143.414V149.797ZM146.193 149.797H147.583V165.083H146.193V149.797ZM149.214 149.797H151.55V165.083H149.214V149.797ZM153.142 149.797H154.532V165.083H153.142V149.797ZM156.191 149.797H159.853V165.083H156.185L156.191 149.797ZM161.48 149.797H162.87V165.083H161.48V149.797ZM164.459 149.797H166.818V165.083H164.455L164.459 149.797ZM168.428 149.797H169.818V165.083H168.428V149.797ZM169.818 148.407H146.191V147.207H169.815L169.818 148.407ZM167.864 145.628H148.146L157.411 142.849H158.596L167.864 145.628ZM152.581 142.849L143.415 145.598V142.849H152.581ZM142.022 165.083H139.243V140.07H142.022V165.083ZM90.6049 140.07V165.083H85.3119V140.07H90.6049ZM91.9949 140.07H94.7739V165.083H91.9949V140.07ZM96.1639 140.07H101.723V165.083H96.1639V140.07ZM103.418 140.07H105.891V165.083H103.418V140.07ZM107.561 140.07H115.307V165.083H107.561V140.07ZM117.009 140.07H119.409V165.083H117.009V140.07ZM121.178 140.07H126.737V165.083H121.178V140.07ZM128.126 140.07H130.905V165.083H128.125L128.126 140.07ZM132.295 140.07H137.645L137.853 165.083H132.294L132.295 140.07ZM121.178 130.343V127.563H122.568C122.567 127.744 122.637 127.919 122.763 128.049C122.828 128.116 122.906 128.168 122.992 128.204C123.078 128.241 123.17 128.259 123.263 128.259C123.356 128.259 123.448 128.241 123.534 128.204C123.62 128.168 123.698 128.116 123.763 128.049C123.891 127.92 123.963 127.745 123.963 127.563H125.353C125.353 127.747 125.426 127.924 125.556 128.054C125.687 128.185 125.864 128.258 126.048 128.258C126.232 128.258 126.409 128.185 126.539 128.054C126.67 127.924 126.743 127.747 126.743 127.563H128.133C128.133 127.747 128.206 127.924 128.336 128.054C128.467 128.185 128.644 128.258 128.828 128.258C129.012 128.258 129.189 128.185 129.319 128.054C129.45 127.924 129.523 127.747 129.523 127.563H130.913C130.913 127.747 130.986 127.924 131.116 128.054C131.247 128.185 131.424 128.258 131.608 128.258C131.792 128.258 131.969 128.185 132.099 128.054C132.23 127.924 132.303 127.747 132.303 127.563H133.693C133.692 127.744 133.762 127.919 133.888 128.049C133.953 128.115 134.031 128.167 134.117 128.203C134.203 128.239 134.295 128.257 134.388 128.257C134.571 128.253 134.745 128.178 134.875 128.049C135.004 127.919 135.079 127.745 135.083 127.562H136.473C136.473 127.746 136.546 127.923 136.676 128.053C136.807 128.184 136.984 128.257 137.168 128.257C137.352 128.257 137.529 128.184 137.659 128.053C137.79 127.923 137.863 127.746 137.863 127.562H139.253V130.341L121.178 130.343ZM107.025 120.563C107.106 120.596 107.193 120.613 107.281 120.614H108.671V122.004C108.671 122.188 108.744 122.365 108.874 122.495C109.005 122.626 109.182 122.699 109.366 122.699C109.55 122.699 109.727 122.626 109.857 122.495C109.988 122.365 110.061 122.188 110.061 122.004V120.614C109.992 120.511 109.955 120.39 109.955 120.266C109.955 120.143 109.992 120.022 110.061 119.919V116.838L111.461 115.999C111.486 115.984 111.503 115.957 111.526 115.941L112.841 116.818V119.918C112.91 120.021 112.947 120.142 112.947 120.265C112.947 120.389 112.91 120.51 112.841 120.613V122.003C112.841 122.187 112.914 122.364 113.044 122.494C113.175 122.625 113.352 122.698 113.536 122.698C113.72 122.698 113.897 122.625 114.027 122.494C114.158 122.364 114.231 122.187 114.231 122.003V120.613H115.621C115.709 120.612 115.795 120.595 115.877 120.562C115.715 121.497 115.63 122.444 115.621 123.393H112.842V122.003C112.842 121.819 112.769 121.642 112.638 121.512C112.508 121.381 112.331 121.308 112.147 121.308C111.963 121.308 111.786 121.381 111.655 121.512C111.525 121.642 111.452 121.819 111.452 122.003V123.393H107.285C107.275 122.444 107.188 121.498 107.025 120.563ZM103.112 124.783H104.502C104.502 124.876 104.52 124.968 104.555 125.054C104.591 125.14 104.643 125.218 104.709 125.283C104.839 125.411 105.014 125.482 105.197 125.483C105.38 125.479 105.554 125.404 105.684 125.275C105.813 125.145 105.888 124.971 105.892 124.788H107.282C107.282 124.972 107.355 125.149 107.485 125.279C107.616 125.41 107.793 125.483 107.977 125.483C108.161 125.483 108.338 125.41 108.468 125.279C108.599 125.149 108.672 124.972 108.672 124.788H110.062C110.062 124.881 110.08 124.973 110.115 125.059C110.151 125.145 110.203 125.223 110.269 125.288C110.399 125.416 110.574 125.487 110.757 125.488C110.94 125.484 111.114 125.409 111.244 125.28C111.373 125.15 111.448 124.976 111.452 124.793H112.842C112.846 124.976 112.92 125.151 113.05 125.28C113.179 125.41 113.354 125.484 113.537 125.488C113.628 125.488 113.718 125.469 113.801 125.434C113.885 125.398 113.96 125.346 114.023 125.28C114.09 125.218 114.143 125.143 114.178 125.059C114.214 124.975 114.232 124.885 114.231 124.794H115.621C115.621 124.887 115.639 124.979 115.674 125.065C115.71 125.151 115.762 125.229 115.828 125.294C115.958 125.422 116.133 125.493 116.316 125.494C116.499 125.49 116.673 125.415 116.802 125.286C116.869 125.224 116.922 125.149 116.957 125.065C116.993 124.981 117.011 124.891 117.01 124.8H118.4C118.4 124.893 118.418 124.985 118.453 125.071C118.489 125.157 118.541 125.235 118.607 125.3C118.737 125.428 118.912 125.5 119.095 125.5C119.278 125.496 119.452 125.421 119.582 125.292C119.711 125.162 119.786 124.988 119.79 124.805V130.364H103.112V124.783ZM83.6569 127.562H85.0469C85.0469 127.746 85.1201 127.923 85.2505 128.053C85.3808 128.184 85.5576 128.257 85.7419 128.257C85.9262 128.257 86.103 128.184 86.2334 128.053C86.3637 127.923 86.4369 127.746 86.4369 127.562H87.8269C87.8308 127.745 87.9052 127.92 88.0347 128.049C88.1642 128.179 88.3388 128.253 88.5219 128.257C88.6149 128.257 88.707 128.239 88.7929 128.203C88.8787 128.168 88.9566 128.115 89.0219 128.049C89.1501 127.92 89.222 127.745 89.2219 127.563H90.6119C90.6116 127.744 90.6815 127.918 90.8069 128.049C90.8724 128.115 90.9504 128.167 91.0362 128.203C91.122 128.239 91.214 128.257 91.3069 128.257C91.4899 128.253 91.6642 128.178 91.7936 128.049C91.923 127.919 91.9976 127.745 92.0019 127.562H93.3919C93.3957 127.745 93.4702 127.92 93.5997 128.049C93.7293 128.179 93.9038 128.253 94.0869 128.257C94.1799 128.257 94.272 128.239 94.3579 128.203C94.4437 128.168 94.5216 128.115 94.5869 128.049C94.7151 127.92 94.787 127.745 94.7869 127.563H96.1769C96.1769 127.747 96.2502 127.924 96.3805 128.054C96.5108 128.185 96.6876 128.258 96.8719 128.258C97.0563 128.258 97.233 128.185 97.3634 128.054C97.4937 127.924 97.5669 127.747 97.5669 127.563H98.9569C98.9569 127.747 99.0302 127.924 99.1605 128.054C99.2908 128.185 99.4676 128.258 99.6519 128.258C99.8363 128.258 100.013 128.185 100.143 128.054C100.274 127.924 100.347 127.747 100.347 127.563H101.737V130.342H83.6569V127.562ZM82.2669 133.121H83.6569C83.6565 133.214 83.6746 133.306 83.7102 133.392C83.7457 133.478 83.798 133.556 83.8639 133.621C83.9943 133.749 84.1694 133.821 84.3519 133.821C84.5347 133.817 84.7089 133.742 84.8379 133.613C84.9046 133.551 84.9576 133.476 84.9934 133.392C85.0292 133.308 85.0471 133.218 85.0459 133.127H87.8249V134.517C87.8249 134.701 87.8981 134.878 88.0285 135.008C88.1588 135.139 88.3356 135.212 88.5199 135.212C88.7042 135.212 88.881 135.139 89.0114 135.008C89.1417 134.878 89.2149 134.701 89.2149 134.517V133.127H91.9939C91.9939 133.311 92.0672 133.488 92.1975 133.618C92.3278 133.749 92.5046 133.822 92.6889 133.822C92.8732 133.822 93.05 133.749 93.1804 133.618C93.3107 133.488 93.3839 133.311 93.3839 133.127H96.1629V134.517C96.1629 134.608 96.1809 134.699 96.2158 134.783C96.2508 134.867 96.302 134.944 96.3665 135.008C96.431 135.073 96.5076 135.124 96.592 135.159C96.6763 135.194 96.7667 135.212 96.8579 135.212C96.9492 135.212 97.0396 135.194 97.1239 135.159C97.2082 135.124 97.2848 135.073 97.3494 135.008C97.4139 134.944 97.4651 134.867 97.5 134.783C97.5349 134.699 97.5529 134.608 97.5529 134.517V133.127H100.332C100.336 133.31 100.41 133.485 100.54 133.614C100.669 133.744 100.844 133.818 101.027 133.822C101.118 133.822 101.208 133.803 101.291 133.768C101.375 133.732 101.45 133.68 101.513 133.614C101.58 133.552 101.633 133.477 101.668 133.393C101.704 133.309 101.722 133.219 101.721 133.128H104.5V134.518C104.5 134.702 104.573 134.879 104.704 135.009C104.834 135.14 105.011 135.213 105.195 135.213C105.379 135.213 105.556 135.14 105.686 135.009C105.817 134.879 105.89 134.702 105.89 134.518V133.128H108.669C108.673 133.311 108.747 133.486 108.877 133.615C109.006 133.745 109.181 133.819 109.364 133.823C109.551 133.821 109.73 133.746 109.864 133.615C109.992 133.486 110.064 133.311 110.064 133.129H112.843V134.519C112.843 134.703 112.916 134.88 113.046 135.01C113.177 135.141 113.354 135.214 113.538 135.214C113.722 135.214 113.899 135.141 114.029 135.01C114.16 134.88 114.233 134.703 114.233 134.519V133.129H117.012C117.012 133.222 117.03 133.314 117.065 133.4C117.101 133.486 117.153 133.564 117.219 133.629C117.349 133.757 117.524 133.828 117.707 133.829C117.89 133.825 118.064 133.75 118.194 133.621C118.323 133.491 118.398 133.317 118.402 133.134H121.181V134.524C121.181 134.708 121.254 134.885 121.384 135.015C121.515 135.146 121.692 135.219 121.876 135.219C122.06 135.219 122.237 135.146 122.367 135.015C122.498 134.885 122.571 134.708 122.571 134.524V133.134H125.35C125.35 133.318 125.423 133.495 125.553 133.625C125.684 133.756 125.861 133.829 126.045 133.829C126.229 133.829 126.406 133.756 126.536 133.625C126.667 133.495 126.74 133.318 126.74 133.134H129.519V134.524C129.519 134.708 129.592 134.885 129.722 135.015C129.853 135.146 130.03 135.219 130.214 135.219C130.398 135.219 130.575 135.146 130.705 135.015C130.836 134.885 130.909 134.708 130.909 134.524V133.134H133.685C133.689 133.317 133.763 133.492 133.893 133.621C134.022 133.751 134.197 133.825 134.38 133.829C134.471 133.829 134.561 133.81 134.644 133.775C134.728 133.739 134.803 133.687 134.866 133.621C134.933 133.559 134.986 133.484 135.021 133.4C135.057 133.316 135.075 133.226 135.074 133.135H137.853V134.525C137.853 134.616 137.871 134.707 137.906 134.791C137.941 134.875 137.992 134.952 138.056 135.016C138.121 135.081 138.198 135.132 138.282 135.167C138.366 135.202 138.457 135.22 138.548 135.22C138.639 135.22 138.73 135.202 138.814 135.167C138.898 135.132 138.975 135.081 139.039 135.016C139.104 134.952 139.155 134.875 139.19 134.791C139.225 134.707 139.243 134.616 139.243 134.525V133.135H142.022V137.304H80.8779V133.135L82.2669 133.121ZM83.6569 140.069V165.083H80.8779V140.07L83.6569 140.069ZM58.6439 165.083H56.1779V149.797H58.6439V165.083ZM60.2659 149.797H61.4229V165.083H60.2659V149.797ZM63.0919 149.797H66.9819V165.083H63.0919V149.797ZM68.5759 149.797H69.7599V165.083H68.5759V149.797ZM71.4019 149.797H73.9289V165.083H71.4019V149.797ZM75.5519 149.797H76.7079V165.083H75.5519V149.797ZM78.0979 147.018H79.4879V148.408H78.0979V147.018ZM78.0979 149.797H79.4879V165.083H78.0979V149.797ZM79.4879 145.597L70.3219 142.848H79.4849L79.4879 145.597ZM64.3029 142.848H65.4849L74.7499 145.627H55.0399L64.3029 142.848ZM76.7079 147.354V148.403H53.0849V147.35L76.7079 147.354ZM53.0849 149.797H54.4749V165.083H53.0849V149.797Z" fill="#0D6963" stroke="#0D6963" stroke-width="0.3"/>
</g>
<defs>
<clipPath id="clip0_1374_1346">
<rect width="214.313" height="197.328" fill="white"/>
</clipPath>
</defs>
</svg>
