<svg width="281" height="153" viewBox="0 0 281 153" fill="none" xmlns="http://www.w3.org/2000/svg">
<path d="M18.6164 134.088C18.4136 134.088 18.2155 134.027 18.0484 133.912C17.8813 133.797 17.7531 133.634 17.6808 133.444C17.6086 133.255 17.5957 133.048 17.6438 132.851C17.692 132.654 17.7989 132.476 17.9504 132.341C26.8324 124.447 47.2854 111.088 67.6164 111.088C68.2234 111.088 68.8314 111.098 69.4284 111.129C87.8814 111.814 106.74 122.984 117.28 132.34C117.479 132.516 117.6 132.764 117.616 133.029C117.632 133.294 117.543 133.555 117.366 133.754C117.19 133.953 116.942 134.074 116.677 134.09C116.412 134.106 116.151 134.016 115.952 133.84C107.666 126.483 88.6124 114.662 69.4284 113.95C68.8504 113.921 68.2774 113.911 67.7054 113.911C47.9754 113.911 27.9504 126.133 19.2814 133.839C19.0977 134.001 18.8611 134.089 18.6164 134.088Z" fill="#0D6963"/>
<path d="M119.616 152.088H15.6162C15.351 152.088 15.0966 151.983 14.9091 151.795C14.7216 151.608 14.6162 151.353 14.6162 151.088V133.088C14.6162 132.823 14.7216 132.569 14.9091 132.381C15.0966 132.193 15.351 132.088 15.6162 132.088H18.6162C18.7709 132.086 18.924 132.121 19.0632 132.188L20.8522 133.088H26.6162C26.8814 133.088 27.1358 133.193 27.3233 133.381C27.5109 133.569 27.6162 133.823 27.6162 134.088V135.088H107.616V134.088C107.616 133.823 107.722 133.569 107.909 133.381C108.097 133.193 108.351 133.088 108.616 133.088H114.38L116.169 132.188C116.308 132.121 116.461 132.086 116.616 132.088H119.616C119.881 132.088 120.136 132.193 120.323 132.381C120.511 132.569 120.616 132.823 120.616 133.088V151.088C120.616 151.353 120.511 151.608 120.323 151.795C120.136 151.983 119.881 152.088 119.616 152.088ZM17.1162 150.038L118.145 149.993V134.088H116.851L115.062 134.988C114.923 135.056 114.77 135.09 114.615 135.088H109.615V136.088C109.615 136.353 109.51 136.608 109.322 136.795C109.135 136.983 108.88 137.088 108.615 137.088H26.6162C26.351 137.088 26.0966 136.983 25.9091 136.795C25.7216 136.608 25.6162 136.353 25.6162 136.088V135.088H20.6162C20.4615 135.09 20.3085 135.056 20.1692 134.988L18.3802 134.088H17.1162V150.038Z" fill="#0D6963"/>
<path d="M106.616 137.088H28.616C28.4214 137.088 28.2309 137.032 28.068 136.925C27.9051 136.818 27.7768 136.667 27.6989 136.488C27.621 136.31 27.5968 136.113 27.6293 135.921C27.6618 135.729 27.7497 135.551 27.882 135.408C34.541 128.217 51.272 118.088 67.616 118.088C83.96 118.088 100.691 128.217 107.35 135.408C107.482 135.551 107.57 135.729 107.603 135.921C107.635 136.113 107.611 136.31 107.533 136.488C107.455 136.667 107.327 136.818 107.164 136.925C107.001 137.032 106.811 137.088 106.616 137.088ZM31.037 135.088H104.195C96.939 128.368 82.12 120.088 67.616 120.088C53.112 120.088 38.293 128.368 31.037 135.088Z" fill="#0D6963"/>
<path d="M26.6164 142.327C26.4828 142.325 26.351 142.296 26.2284 142.243C26.1059 142.19 25.995 142.113 25.9022 142.017C25.8093 141.921 25.7363 141.808 25.6872 141.683C25.6382 141.559 25.6141 141.427 25.6164 141.293V136.122C25.6164 135.857 25.7217 135.602 25.9092 135.415C26.0968 135.227 26.3511 135.122 26.6164 135.122C26.8816 135.122 27.1359 135.227 27.3235 135.415C27.511 135.602 27.6164 135.857 27.6164 136.122V141.293C27.6186 141.427 27.5945 141.559 27.5455 141.683C27.4964 141.808 27.4234 141.921 27.3305 142.017C27.2377 142.113 27.1268 142.19 27.0043 142.243C26.8817 142.296 26.7499 142.325 26.6164 142.327Z" fill="#0D6963"/>
<path d="M108.616 141.088C108.351 141.088 108.097 140.983 107.909 140.795C107.722 140.608 107.616 140.353 107.616 140.088V136.088C107.616 135.823 107.722 135.568 107.909 135.381C108.097 135.193 108.351 135.088 108.616 135.088C108.881 135.088 109.136 135.193 109.323 135.381C109.511 135.568 109.616 135.823 109.616 136.088V140.088C109.616 140.353 109.511 140.608 109.323 140.795C109.136 140.983 108.881 141.088 108.616 141.088Z" fill="#2E3147"/>
<path d="M108.616 142.267C108.483 142.265 108.352 142.237 108.23 142.185C108.107 142.133 107.997 142.056 107.904 141.961C107.811 141.866 107.738 141.753 107.688 141.63C107.639 141.506 107.615 141.374 107.616 141.241V136.113C107.616 135.848 107.722 135.593 107.909 135.406C108.097 135.218 108.351 135.113 108.616 135.113C108.882 135.113 109.136 135.218 109.323 135.406C109.511 135.593 109.616 135.848 109.616 136.113V141.241C109.618 141.374 109.594 141.506 109.544 141.63C109.495 141.753 109.422 141.866 109.329 141.961C109.236 142.056 109.125 142.133 109.003 142.185C108.881 142.237 108.749 142.265 108.616 142.267Z" fill="#0D6963"/>
<path d="M108.762 142.327H26.4717C26.1717 142.327 25.9307 141.912 25.9307 141.401C25.9307 140.89 26.1737 140.475 26.4717 140.475H108.761C109.061 140.475 109.302 140.89 109.302 141.401C109.302 141.912 109.061 142.327 108.762 142.327Z" fill="#0D6963"/>
<path d="M63.8458 135.588H63.7958C63.3958 135.569 63.0908 135.331 63.1168 135.056L64.5738 120.056C64.6018 119.779 64.9528 119.574 65.3488 119.59C65.7448 119.606 66.0538 119.847 66.0278 120.122L64.5708 135.122C64.5458 135.388 64.2248 135.588 63.8458 135.588Z" fill="#0D6963"/>
<path d="M54.6161 135.588C54.5624 135.588 54.5091 135.579 54.4581 135.563C54.3957 135.542 54.3381 135.509 54.2885 135.466C54.2388 135.423 54.1982 135.371 54.1689 135.312C54.1395 135.253 54.122 135.189 54.1174 135.124C54.1128 135.058 54.1212 134.992 54.1421 134.93L59.1421 119.93C59.1609 119.865 59.1926 119.805 59.2352 119.753C59.2778 119.701 59.3304 119.658 59.39 119.627C59.4496 119.596 59.5148 119.577 59.5819 119.572C59.6489 119.566 59.7164 119.574 59.7802 119.596C59.844 119.617 59.9028 119.651 59.9532 119.695C60.0036 119.74 60.0445 119.794 60.0734 119.855C60.1024 119.916 60.1187 119.982 60.1216 120.049C60.1245 120.116 60.1137 120.183 60.0901 120.246L55.0901 135.246C55.0569 135.345 54.9933 135.432 54.9082 135.493C54.8232 135.555 54.721 135.588 54.6161 135.588Z" fill="#0D6963"/>
<path d="M46.0765 136.407C45.9585 136.429 45.8371 136.424 45.7209 136.394C45.6501 136.386 45.5824 136.361 45.5236 136.321C45.4648 136.281 45.4168 136.227 45.3837 136.164C45.3506 136.101 45.3335 136.03 45.3339 135.959C45.3343 135.888 45.3521 135.818 45.3858 135.755L53.6471 121.098C53.7412 120.959 53.8764 120.854 54.0337 120.796C54.1909 120.738 54.3623 120.732 54.5236 120.777C54.5944 120.785 54.6622 120.81 54.721 120.85C54.7797 120.89 54.8278 120.944 54.8608 121.007C54.8939 121.071 54.911 121.141 54.9107 121.212C54.9103 121.283 54.8925 121.353 54.8588 121.416L46.5975 136.073C46.5397 136.163 46.4633 136.239 46.3734 136.297C46.2835 136.355 46.1822 136.392 46.0765 136.407Z" fill="#0D6963"/>
<path d="M37.6505 136.416C37.4996 136.439 37.3452 136.415 37.2085 136.346C37.1443 136.319 37.0876 136.277 37.0434 136.223C36.9992 136.169 36.9688 136.105 36.9549 136.037C36.9411 135.969 36.9441 135.898 36.9637 135.831C36.9834 135.764 37.0191 135.703 37.0677 135.653L48.1449 122.988C48.2566 122.871 48.4028 122.792 48.5622 122.764C48.7216 122.735 48.8859 122.758 49.0314 122.829C49.0957 122.856 49.1524 122.899 49.1966 122.953C49.2408 123.007 49.2711 123.07 49.285 123.139C49.2989 123.207 49.2959 123.278 49.2762 123.345C49.2566 123.412 49.2209 123.473 49.1722 123.523L38.0951 136.187C37.9787 136.314 37.8211 136.395 37.6505 136.416Z" fill="#0D6963"/>
<path d="M71.3931 135.588C71.0161 135.588 70.7001 135.388 70.6741 135.121L69.2311 120.121C69.2051 119.846 69.5051 119.608 69.9041 119.589C70.3031 119.57 70.6441 119.779 70.6721 120.055L72.1151 135.055C72.1411 135.33 71.8411 135.568 71.4421 135.587L71.3931 135.588Z" fill="#0D6963"/>
<path d="M80.4726 135.588C80.349 135.595 80.226 135.566 80.118 135.505C80.01 135.445 79.9214 135.355 79.8626 135.246L73.4256 120.246C73.3136 119.985 73.4956 119.701 73.8326 119.613C73.9841 119.566 74.1472 119.571 74.2951 119.629C74.443 119.686 74.567 119.793 74.6466 119.93L81.0836 134.93C81.1956 135.191 81.0136 135.475 80.6766 135.563C80.6099 135.58 80.5414 135.588 80.4726 135.588Z" fill="#0D6963"/>
<path d="M87.9102 136.499C87.809 136.481 87.713 136.44 87.6293 136.38C87.5455 136.32 87.476 136.243 87.4256 136.153L80.1162 121.309C80.0861 121.245 80.0716 121.176 80.0739 121.105C80.0761 121.035 80.0951 120.966 80.1291 120.905C80.1631 120.844 80.2113 120.791 80.2697 120.752C80.328 120.713 80.3948 120.688 80.4646 120.68C80.621 120.64 80.786 120.652 80.935 120.714C81.084 120.776 81.209 120.884 81.2913 121.023L88.5998 135.867C88.6298 135.93 88.6443 136 88.6421 136.07C88.6398 136.141 88.6209 136.209 88.5869 136.271C88.5528 136.332 88.5046 136.385 88.4463 136.424C88.3879 136.463 88.3211 136.488 88.2513 136.496C88.1393 136.523 88.0227 136.524 87.9102 136.499Z" fill="#0D6963"/>
<path d="M96.6871 136.439C96.5242 136.418 96.3748 136.338 96.2686 136.212L85.8891 123.519C85.8434 123.467 85.8103 123.406 85.7924 123.339C85.7744 123.272 85.7721 123.202 85.7857 123.134C85.7992 123.066 85.8282 123.002 85.8704 122.948C85.9127 122.893 85.9669 122.848 86.0291 122.818C86.1653 122.745 86.3221 122.72 86.4741 122.748C86.626 122.776 86.7642 122.854 86.8661 122.97L97.2455 135.663C97.2912 135.715 97.3243 135.777 97.3423 135.844C97.3602 135.91 97.3625 135.981 97.3489 136.048C97.3354 136.116 97.3064 136.18 97.2642 136.235C97.222 136.29 97.1677 136.334 97.1056 136.364C96.978 136.434 96.831 136.46 96.6871 136.439Z" fill="#0D6963"/>
<path d="M134.636 152.088C134.63 152.088 134.623 152.088 134.616 152.088L119.616 152.088C119.476 152.088 119.338 152.059 119.211 152.002C119.083 151.945 118.968 151.862 118.875 151.759C118.781 151.655 118.71 151.533 118.666 151.4C118.623 151.268 118.607 151.127 118.621 150.988C123.558 100.628 123.616 58.508 123.616 58.088C123.616 57.8228 123.722 57.5684 123.909 57.3809C124.097 57.1934 124.351 57.088 124.616 57.088H129.616C129.881 57.088 130.136 57.1934 130.323 57.3809C130.511 57.5684 130.616 57.8228 130.616 58.088C130.616 58.507 130.673 100.517 135.592 150.793C135.621 150.889 135.636 150.988 135.636 151.088C135.636 151.219 135.61 151.349 135.56 151.471C135.51 151.592 135.436 151.702 135.343 151.795C135.25 151.888 135.14 151.962 135.019 152.012C134.898 152.062 134.768 152.088 134.636 152.088ZM121.289 150.088L132.81 150.793C128.385 105.111 128.405 65.72 128.364 59.088H125.85C125.809 65.72 125.716 104.406 121.289 150.088Z" fill="#0D6963"/>
<path d="M132.116 58.088H122.116C121.816 58.1555 121.505 58.1546 121.205 58.0855C120.906 58.0164 120.626 57.8808 120.386 57.6887C120.146 57.4967 119.952 57.2531 119.819 56.976C119.685 56.6989 119.616 56.3954 119.616 56.088C119.616 55.7805 119.685 55.477 119.819 55.1999C119.952 54.9228 120.146 54.6792 120.386 54.4872C120.626 54.2951 120.906 54.1595 121.205 54.0904C121.505 54.0213 121.816 54.0205 122.116 54.088H132.116C132.416 54.0205 132.727 54.0213 133.027 54.0904C133.327 54.1595 133.607 54.2951 133.847 54.4872C134.087 54.6792 134.281 54.9228 134.414 55.1999C134.547 55.477 134.616 55.7805 134.616 56.088C134.616 56.3954 134.547 56.6989 134.414 56.976C134.281 57.2531 134.087 57.4967 133.847 57.6887C133.607 57.8808 133.327 58.0164 133.027 58.0855C132.727 58.1546 132.416 58.1555 132.116 58.088ZM122.116 55.088C121.303 55.088 120.616 55.546 120.616 56.088C120.616 56.63 121.303 57.088 122.116 57.088H132.116C132.929 57.088 133.616 56.63 133.616 56.088C133.616 55.546 132.929 55.088 132.116 55.088H122.116Z" fill="#0D6963"/>
<path d="M133.616 55.088H120.616C120.351 55.088 120.097 54.9826 119.909 54.795L118.909 53.795C118.722 53.6075 118.616 53.3532 118.616 53.088V49.088C118.616 48.8228 118.722 48.5684 118.909 48.3809C119.097 48.1934 119.351 48.088 119.616 48.088H134.616C134.881 48.088 135.136 48.1934 135.323 48.3809C135.511 48.5684 135.616 48.8228 135.616 49.088V53.088C135.616 53.3532 135.511 53.6075 135.323 53.795L134.323 54.795C134.136 54.9826 133.881 55.088 133.616 55.088ZM121.03 53.088H133.202L133.616 52.674V50.088H120.616V52.674L121.03 53.088Z" fill="#0D6963"/>
<path d="M134.116 49.088H120.116C120.023 49.088 119.932 49.0622 119.853 49.0133C119.774 48.9645 119.711 48.8947 119.669 48.8116C119.627 48.7286 119.61 48.6356 119.618 48.5431C119.627 48.4506 119.661 48.3623 119.716 48.288L121.216 46.288C121.263 46.2259 121.323 46.1755 121.393 46.1408C121.462 46.1061 121.539 46.088 121.616 46.088H132.616C132.694 46.088 132.77 46.1061 132.84 46.1408C132.909 46.1755 132.97 46.2259 133.016 46.288L134.516 48.288C134.572 48.3623 134.606 48.4506 134.614 48.5431C134.623 48.6356 134.605 48.7286 134.563 48.8116C134.522 48.8947 134.458 48.9645 134.379 49.0133C134.3 49.0622 134.209 49.088 134.116 49.088ZM121.116 48.088H133.116L132.366 47.088H121.866L121.116 48.088Z" fill="#0D6963"/>
<path d="M129.116 46.588H125.116C124.984 46.588 124.856 46.5353 124.763 46.4416C124.669 46.3478 124.616 46.2206 124.616 46.088V23.245C124.617 23.1685 124.634 23.093 124.667 23.024L125.616 21.099V5.08801C125.616 4.9554 125.669 4.82823 125.763 4.73446C125.856 4.64069 125.984 4.58801 126.116 4.58801H128.116C128.249 4.58801 128.376 4.64069 128.47 4.73446C128.564 4.82823 128.616 4.9554 128.616 5.08801V21.099L129.565 23.024C129.598 23.093 129.616 23.1685 129.616 23.245V46.088C129.616 46.2206 129.564 46.3478 129.47 46.4416C129.376 46.5353 129.249 46.588 129.116 46.588ZM126.116 45.588H128.116V23.245L127.667 21.437C127.634 21.3681 127.616 21.2926 127.616 21.216V5.58801H126.616V21.216C126.616 21.2926 126.599 21.3681 126.565 21.437L126.116 23.362V45.588Z" fill="#0D6963"/>
<path d="M127.116 4.588C126.759 4.588 126.47 4.502 126.47 4.397V0.191002C126.47 0.0850019 126.76 0 127.116 0C127.472 0 127.762 0.0860019 127.762 0.191002V4.4C127.763 4.5 127.47 4.588 127.116 4.588Z" fill="#0D6963"/>
<path d="M164.616 152.088H142.616C142.351 152.088 142.097 151.983 141.909 151.795C141.722 151.608 141.616 151.353 141.616 151.088V51.088C141.616 50.8228 141.722 50.5684 141.909 50.3809C142.097 50.1934 142.351 50.088 142.616 50.088H164.616C164.881 50.088 165.136 50.1934 165.323 50.3809C165.511 50.5684 165.616 50.8228 165.616 51.088V151.088C165.616 151.353 165.511 151.608 165.323 151.795C165.136 151.983 164.881 152.088 164.616 152.088ZM144.363 150.088H162.843V52.088H144.363V150.088Z" fill="#0D6963"/>
<path d="M159.673 57.088H147.564C147.444 57.0709 147.333 57.011 147.254 56.9191C147.174 56.8272 147.13 56.7097 147.13 56.588C147.13 56.4664 147.174 56.3488 147.254 56.2569C147.333 56.1651 147.444 56.1051 147.564 56.088H159.673C159.793 56.1051 159.904 56.1651 159.983 56.2569C160.063 56.3488 160.107 56.4664 160.107 56.588C160.107 56.7097 160.063 56.8272 159.983 56.9191C159.904 57.011 159.793 57.0709 159.673 57.088Z" fill="#0D6963"/>
<path d="M159.673 69.088H147.564C147.444 69.0709 147.333 69.011 147.254 68.9191C147.174 68.8272 147.13 68.7097 147.13 68.588C147.13 68.4664 147.174 68.3488 147.254 68.2569C147.333 68.1651 147.444 68.1051 147.564 68.088H159.673C159.793 68.1051 159.904 68.1651 159.983 68.2569C160.063 68.3488 160.107 68.4664 160.107 68.588C160.107 68.7097 160.063 68.8272 159.983 68.9191C159.904 69.011 159.793 69.0709 159.673 69.088Z" fill="#0D6963"/>
<path d="M159.673 81.088H147.564C147.444 81.0709 147.333 81.011 147.254 80.9191C147.174 80.8272 147.13 80.7097 147.13 80.588C147.13 80.4664 147.174 80.3488 147.254 80.2569C147.333 80.1651 147.444 80.1051 147.564 80.088H159.673C159.793 80.1051 159.904 80.1651 159.983 80.2569C160.063 80.3488 160.107 80.4664 160.107 80.588C160.107 80.7097 160.063 80.8272 159.983 80.9191C159.904 81.011 159.793 81.0709 159.673 81.088Z" fill="#0D6963"/>
<path d="M159.673 93.088H147.564C147.444 93.0709 147.333 93.011 147.254 92.9191C147.174 92.8272 147.13 92.7097 147.13 92.588C147.13 92.4664 147.174 92.3488 147.254 92.2569C147.333 92.1651 147.444 92.1051 147.564 92.088H159.673C159.793 92.1051 159.904 92.1651 159.983 92.2569C160.063 92.3488 160.107 92.4664 160.107 92.588C160.107 92.7097 160.063 92.8272 159.983 92.9191C159.904 93.011 159.793 93.0709 159.673 93.088Z" fill="#0D6963"/>
<path d="M159.673 105.088H147.564C147.444 105.071 147.333 105.011 147.254 104.919C147.174 104.827 147.13 104.71 147.13 104.588C147.13 104.466 147.174 104.349 147.254 104.257C147.333 104.165 147.444 104.105 147.564 104.088H159.673C159.793 104.105 159.904 104.165 159.983 104.257C160.063 104.349 160.107 104.466 160.107 104.588C160.107 104.71 160.063 104.827 159.983 104.919C159.904 105.011 159.793 105.071 159.673 105.088Z" fill="#0D6963"/>
<path d="M159.673 117.088H147.564C147.444 117.071 147.333 117.011 147.254 116.919C147.174 116.827 147.13 116.71 147.13 116.588C147.13 116.466 147.174 116.349 147.254 116.257C147.333 116.165 147.444 116.105 147.564 116.088H159.673C159.793 116.105 159.904 116.165 159.983 116.257C160.063 116.349 160.107 116.466 160.107 116.588C160.107 116.71 160.063 116.827 159.983 116.919C159.904 117.011 159.793 117.071 159.673 117.088Z" fill="#0D6963"/>
<path d="M159.673 129.088H147.564C147.444 129.071 147.333 129.011 147.254 128.919C147.174 128.827 147.13 128.71 147.13 128.588C147.13 128.466 147.174 128.349 147.254 128.257C147.333 128.165 147.444 128.105 147.564 128.088H159.673C159.793 128.105 159.904 128.165 159.983 128.257C160.063 128.349 160.107 128.466 160.107 128.588C160.107 128.71 160.063 128.827 159.983 128.919C159.904 129.011 159.793 129.071 159.673 129.088Z" fill="#0D6963"/>
<path d="M159.673 141.088H147.564C147.444 141.071 147.333 141.011 147.254 140.919C147.174 140.827 147.13 140.71 147.13 140.588C147.13 140.466 147.174 140.349 147.254 140.257C147.333 140.165 147.444 140.105 147.564 140.088H159.673C159.793 140.105 159.904 140.165 159.983 140.257C160.063 140.349 160.107 140.466 160.107 140.588C160.107 140.71 160.063 140.827 159.983 140.919C159.904 141.011 159.793 141.071 159.673 141.088Z" fill="#0D6963"/>
<path d="M247.616 152.088C247.351 152.088 247.097 151.983 246.909 151.795C246.722 151.608 246.616 151.353 246.616 151.088V59.088C246.616 58.8228 246.722 58.5684 246.909 58.3809C247.097 58.1934 247.351 58.088 247.616 58.088C247.881 58.088 248.136 58.1934 248.323 58.3809C248.511 58.5684 248.616 58.8228 248.616 59.088V151.088C248.616 151.353 248.511 151.608 248.323 151.795C248.136 151.983 247.881 152.088 247.616 152.088Z" fill="#0D6963"/>
<path d="M251.616 152.088C251.351 152.088 251.097 151.983 250.909 151.795C250.722 151.608 250.616 151.353 250.616 151.088V131.088C250.616 130.823 250.722 130.568 250.909 130.381C251.097 130.193 251.351 130.088 251.616 130.088H252.616V73.088C252.616 70.688 250.955 69.065 249.348 67.488C247.948 66.113 246.616 64.814 246.616 63.088C246.616 62.8228 246.722 62.5684 246.909 62.3809C247.097 62.1934 247.351 62.088 247.616 62.088C247.881 62.088 248.136 62.1934 248.323 62.3809C248.511 62.5684 248.616 62.8228 248.616 63.088C248.616 63.977 249.603 64.943 250.747 66.063C252.47 67.75 254.616 69.85 254.616 73.088V131.088C254.616 131.353 254.511 131.608 254.323 131.795C254.136 131.983 253.881 132.088 253.616 132.088H252.616V151.088C252.616 151.353 252.511 151.608 252.323 151.795C252.136 151.983 251.881 152.088 251.616 152.088Z" fill="#0D6963"/>
<path d="M264.616 152.088H252.616C252.351 152.088 252.097 151.983 251.909 151.795C251.722 151.608 251.616 151.353 251.616 151.088C251.616 150.823 251.722 150.568 251.909 150.381C252.097 150.193 252.351 150.088 252.616 150.088H263.616V79.644H254.616C254.063 79.644 253.616 78.644 253.616 78.088C253.616 77.8228 253.722 77.5684 253.909 77.3809C254.097 77.1934 254.351 77.088 254.616 77.088H264.616C264.881 77.088 265.136 77.1934 265.323 77.3809C265.511 77.5684 265.616 77.8228 265.616 78.088V151.088C265.616 151.353 265.511 151.608 265.323 151.795C265.136 151.983 264.881 152.088 264.616 152.088Z" fill="#0D6963"/>
<path d="M227.616 89.088H210.616C210.351 89.088 210.097 89.1934 209.909 89.3809C209.722 89.5684 209.616 89.8228 209.616 90.088V137.188C209.731 137.132 209.85 137.086 209.972 137.051C210.53 136.917 211.119 137.002 211.616 137.288V91.088H226.616V143.088H212.892C212.858 143.414 212.86 143.743 212.899 144.069C212.95 144.408 212.94 144.753 212.872 145.088H227.616C227.881 145.088 228.136 144.983 228.323 144.795C228.511 144.608 228.616 144.353 228.616 144.088V90.088C228.616 89.8228 228.511 89.5684 228.323 89.3809C228.136 89.1934 227.881 89.088 227.616 89.088Z" fill="#0D6963"/>
<path d="M241.616 152.088H171.616C171.351 152.088 171.097 151.983 170.909 151.795C170.722 151.608 170.616 151.353 170.616 151.088V144.088C170.616 143.823 170.722 143.568 170.909 143.381C171.097 143.193 171.351 143.088 171.616 143.088H241.616C241.881 143.088 242.136 143.193 242.323 143.381C242.511 143.568 242.616 143.823 242.616 144.088V151.088C242.616 151.353 242.511 151.608 242.323 151.795C242.136 151.983 241.881 152.088 241.616 152.088ZM172.616 150.088H240.616V145.088H172.616V150.088Z" fill="#0D6963"/>
<path d="M185.616 145.088H178.616C178.351 145.088 178.097 144.983 177.909 144.795C177.722 144.608 177.616 144.353 177.616 144.088V99.088C177.616 98.8228 177.722 98.5684 177.909 98.3809C178.097 98.1934 178.351 98.088 178.616 98.088H185.616C185.881 98.088 186.136 98.1934 186.323 98.3809C186.511 98.5684 186.616 98.8228 186.616 99.088V144.088C186.616 144.353 186.511 144.608 186.323 144.795C186.136 144.983 185.881 145.088 185.616 145.088ZM179.616 143.088H184.616V100.088H179.616V143.088Z" fill="#0D6963"/>
<path d="M200.707 144.688C200.529 144.174 200.452 143.631 200.479 143.088H186.616V100.088H201.616V137.447C201.901 137.304 202.215 137.229 202.533 137.229C202.916 137.236 203.291 137.346 203.616 137.548V99.088C203.616 98.8228 203.511 98.5684 203.323 98.3809C203.136 98.1934 202.881 98.088 202.616 98.088H185.616C185.351 98.088 185.097 98.1934 184.909 98.3809C184.722 98.5684 184.616 98.8228 184.616 99.088V144.088C184.616 144.353 184.722 144.608 184.909 144.795C185.097 144.983 185.351 145.088 185.616 145.088H200.898C200.825 144.96 200.761 144.826 200.707 144.688Z" fill="#0D6963"/>
<path d="M242.616 145.688H170.616C170.332 145.61 170.08 145.44 169.901 145.205C169.722 144.971 169.625 144.683 169.625 144.388C169.625 144.093 169.722 143.805 169.901 143.571C170.08 143.336 170.332 143.166 170.616 143.088H242.616C242.901 143.166 243.153 143.336 243.332 143.571C243.511 143.805 243.608 144.093 243.608 144.388C243.608 144.683 243.511 144.971 243.332 145.205C243.153 145.44 242.901 145.61 242.616 145.688Z" fill="#0D6963"/>
<path d="M215.616 145.088H197.616C197.351 145.088 197.096 144.983 196.909 144.795L192.909 140.795C192.797 140.684 192.713 140.547 192.663 140.397C192.614 140.247 192.601 140.088 192.625 139.932C192.649 139.775 192.71 139.627 192.803 139.499C192.896 139.371 193.017 139.267 193.158 139.195C197.349 137.148 201.952 136.084 206.616 136.084C211.28 136.084 215.883 137.148 220.074 139.195C220.214 139.267 220.336 139.371 220.429 139.499C220.521 139.627 220.582 139.775 220.606 139.932C220.631 140.088 220.618 140.247 220.568 140.397C220.519 140.547 220.435 140.684 220.323 140.795L216.323 144.795C216.135 144.983 215.881 145.088 215.616 145.088ZM198.03 143.088H215.202L217.554 140.795C214.082 139.37 210.369 138.626 206.616 138.604C202.823 138.627 199.069 139.37 195.554 140.795L198.03 143.088Z" fill="#0D6963"/>
<path d="M234.616 145.088H227.616C227.351 145.088 227.097 144.983 226.909 144.795C226.722 144.608 226.616 144.353 226.616 144.088V90.088C226.616 89.8228 226.722 89.5684 226.909 89.3809C227.097 89.1934 227.351 89.088 227.616 89.088H234.616C234.881 89.088 235.136 89.1934 235.323 89.3809C235.511 89.5684 235.616 89.8228 235.616 90.088V144.088C235.616 144.353 235.511 144.608 235.323 144.795C235.136 144.983 234.881 145.088 234.616 145.088ZM228.616 143.088H233.616V91.088H228.616V143.088Z" fill="#0D6963"/>
<path d="M203.616 99.088H177.616C177.484 99.088 177.356 99.0353 177.263 98.9416C177.169 98.8478 177.116 98.7206 177.116 98.588C177.116 98.4554 177.169 98.3282 177.263 98.2345C177.356 98.1407 177.484 98.088 177.616 98.088H203.616C203.749 98.088 203.876 98.1407 203.97 98.2345C204.064 98.3282 204.116 98.4554 204.116 98.588C204.116 98.7206 204.064 98.8478 203.97 98.9416C203.876 99.0353 203.749 99.088 203.616 99.088Z" fill="#0D6963"/>
<path d="M235.616 90.088H209.616C209.484 90.088 209.356 90.0353 209.263 89.9416C209.169 89.8478 209.116 89.7206 209.116 89.588C209.116 89.4554 209.169 89.3282 209.263 89.2345C209.356 89.1407 209.484 89.088 209.616 89.088H235.616C235.749 89.088 235.876 89.1407 235.97 89.2345C236.064 89.3282 236.116 89.4554 236.116 89.588C236.116 89.7206 236.064 89.8478 235.97 89.9416C235.876 90.0353 235.749 90.088 235.616 90.088Z" fill="#0D6963"/>
<path d="M277.263 152.089H3.75677C1.68877 152.089 0.00976562 151.004 0.00976562 149.667C0.00976562 148.33 1.68877 147.244 3.75677 147.244H277.263C279.333 147.244 281.01 148.329 281.01 149.666C281.01 151.003 279.333 152.089 277.263 152.089Z" fill="#0D6963"/>
<path d="M199.487 104.809H186.248C186.004 104.809 185.807 104.543 185.807 104.216C185.807 103.889 186.007 103.623 186.248 103.623H199.487C199.731 103.623 199.928 103.889 199.928 104.216C199.928 104.543 199.73 104.809 199.487 104.809Z" fill="#0D6963"/>
<path d="M199.487 111.927H186.248C186.004 111.927 185.807 111.661 185.807 111.334C185.807 111.007 186.007 110.741 186.248 110.741H199.487C199.731 110.741 199.928 111.007 199.928 111.334C199.928 111.661 199.73 111.927 199.487 111.927Z" fill="#0D6963"/>
<path d="M199.487 119.046H186.248C186.004 119.046 185.807 118.78 185.807 118.453C185.807 118.126 186.007 117.86 186.248 117.86H199.487C199.731 117.86 199.928 118.126 199.928 118.453C199.928 118.78 199.73 119.046 199.487 119.046Z" fill="#0D6963"/>
<path d="M199.487 126.165H186.248C186.004 126.165 185.807 125.899 185.807 125.572C185.807 125.245 186.007 124.979 186.248 124.979H199.487C199.731 124.979 199.928 125.245 199.928 125.572C199.928 125.899 199.73 126.165 199.487 126.165Z" fill="#0D6963"/>
<path d="M264.362 83.394H253.467C253.267 83.394 253.104 83.128 253.104 82.801C253.104 82.474 253.267 82.208 253.467 82.208H264.362C264.562 82.208 264.725 82.474 264.725 82.801C264.725 83.128 264.562 83.394 264.362 83.394Z" fill="#0D6963"/>
<path d="M199.487 133.283H186.248C186.004 133.283 185.807 133.017 185.807 132.69C185.807 132.363 186.007 132.097 186.248 132.097H199.487C199.731 132.097 199.928 132.363 199.928 132.69C199.928 133.017 199.73 133.283 199.487 133.283Z" fill="#0D6963"/>
<path d="M264.311 144.513H251.911C251.683 144.513 251.498 144.247 251.498 143.92C251.498 143.593 251.683 143.327 251.911 143.327H264.311C264.539 143.327 264.724 143.593 264.724 143.92C264.724 144.247 264.539 144.513 264.311 144.513Z" fill="#0D6963"/>
<path d="M215.545 109.32C215.224 109.32 214.916 109.192 214.688 108.965C214.461 108.738 214.334 108.43 214.334 108.109V102.053C214.334 101.894 214.365 101.737 214.426 101.59C214.487 101.443 214.576 101.309 214.688 101.197C214.801 101.084 214.934 100.995 215.081 100.934C215.228 100.873 215.386 100.842 215.545 100.842C215.704 100.842 215.861 100.873 216.008 100.934C216.155 100.995 216.289 101.084 216.401 101.197C216.513 101.309 216.603 101.443 216.664 101.59C216.724 101.737 216.756 101.894 216.756 102.053V108.109C216.756 108.43 216.628 108.738 216.401 108.965C216.174 109.192 215.866 109.32 215.545 109.32Z" fill="#0D6963"/>
<path d="M215.545 128.699C215.224 128.699 214.916 128.571 214.688 128.344C214.461 128.117 214.334 127.809 214.334 127.488V121.432C214.334 121.273 214.365 121.115 214.426 120.969C214.487 120.822 214.576 120.688 214.688 120.576C214.801 120.463 214.934 120.374 215.081 120.313C215.228 120.252 215.386 120.221 215.545 120.221C215.704 120.221 215.861 120.252 216.008 120.313C216.155 120.374 216.289 120.463 216.401 120.576C216.513 120.688 216.603 120.822 216.664 120.969C216.724 121.115 216.756 121.273 216.756 121.432V127.488C216.756 127.809 216.628 128.117 216.401 128.344C216.174 128.571 215.866 128.699 215.545 128.699Z" fill="#0D6963"/>
<path d="M215.545 97.209C215.386 97.209 215.228 97.1776 215.081 97.1167C214.934 97.0557 214.801 96.9665 214.688 96.8539C214.576 96.7413 214.486 96.6077 214.426 96.4607C214.365 96.3137 214.334 96.1561 214.334 95.9969V94.7859C214.334 94.6269 214.365 94.4695 214.426 94.3225C214.487 94.1756 214.576 94.0421 214.688 93.9296C214.801 93.8172 214.934 93.728 215.081 93.6671C215.228 93.6063 215.386 93.575 215.545 93.575C215.704 93.575 215.861 93.6063 216.008 93.6671C216.155 93.728 216.289 93.8172 216.401 93.9296C216.513 94.0421 216.603 94.1756 216.664 94.3225C216.724 94.4695 216.756 94.6269 216.756 94.7859V95.9969C216.756 96.1561 216.725 96.3137 216.664 96.4607C216.603 96.6077 216.514 96.7413 216.401 96.8539C216.289 96.9665 216.155 97.0557 216.008 97.1167C215.861 97.1776 215.704 97.209 215.545 97.209Z" fill="#0D6963"/>
<path d="M215.545 116.588C215.386 116.588 215.228 116.557 215.081 116.496C214.934 116.435 214.801 116.346 214.688 116.233C214.576 116.12 214.486 115.987 214.426 115.84C214.365 115.693 214.334 115.535 214.334 115.376V114.165C214.334 114.006 214.365 113.849 214.426 113.702C214.487 113.555 214.576 113.421 214.688 113.309C214.801 113.196 214.934 113.107 215.081 113.046C215.228 112.985 215.386 112.954 215.545 112.954C215.704 112.954 215.861 112.985 216.008 113.046C216.155 113.107 216.289 113.196 216.401 113.309C216.513 113.421 216.603 113.555 216.664 113.702C216.724 113.849 216.756 114.006 216.756 114.165V115.376C216.756 115.535 216.725 115.693 216.664 115.84C216.603 115.987 216.514 116.12 216.401 116.233C216.289 116.346 216.155 116.435 216.008 116.496C215.861 116.557 215.704 116.588 215.545 116.588Z" fill="#0D6963"/>
<path d="M257.054 89.3941C256.915 89.3995 256.781 89.35 256.679 89.2563C256.577 89.1626 256.516 89.0324 256.51 88.8941V87.8941C256.52 87.7567 256.582 87.6282 256.683 87.5344C256.784 87.4406 256.916 87.3885 257.054 87.3885C257.192 87.3885 257.325 87.4406 257.426 87.5344C257.527 87.6282 257.588 87.7567 257.599 87.8941V88.8941C257.592 89.0326 257.532 89.1629 257.429 89.2567C257.327 89.3504 257.192 89.3998 257.054 89.3941Z" fill="#0D6963"/>
<path d="M259.01 89.3941C258.871 89.3995 258.737 89.35 258.635 89.2563C258.533 89.1626 258.472 89.0324 258.466 88.8941V87.8941C258.476 87.7567 258.538 87.6282 258.639 87.5344C258.74 87.4406 258.872 87.3885 259.01 87.3885C259.148 87.3885 259.281 87.4406 259.382 87.5344C259.483 87.6282 259.544 87.7567 259.555 87.8941V88.8941C259.548 89.0326 259.488 89.1629 259.385 89.2567C259.283 89.3504 259.148 89.3998 259.01 89.3941Z" fill="#0D6963"/>
<path d="M260.965 89.3941C260.826 89.3995 260.692 89.35 260.59 89.2563C260.488 89.1626 260.427 89.0324 260.421 88.8941V87.8941C260.431 87.7567 260.493 87.6282 260.594 87.5344C260.695 87.4406 260.827 87.3885 260.965 87.3885C261.103 87.3885 261.236 87.4406 261.337 87.5344C261.438 87.6282 261.499 87.7567 261.51 87.8941V88.8941C261.503 89.0326 261.443 89.1629 261.34 89.2567C261.238 89.3504 261.103 89.3998 260.965 89.3941Z" fill="#0D6963"/>
<path d="M264.01 91.1671H254.01C253.867 91.1324 253.74 91.0509 253.649 90.9354C253.559 90.82 253.509 90.6774 253.509 90.5306C253.509 90.3838 253.559 90.2412 253.649 90.1258C253.74 90.0103 253.867 89.9287 254.01 89.8941H264.01C264.152 89.9287 264.279 90.0103 264.37 90.1258C264.461 90.2412 264.51 90.3838 264.51 90.5306C264.51 90.6774 264.461 90.82 264.37 90.9354C264.279 91.0509 264.152 91.1324 264.01 91.1671Z" fill="#0D6963"/>
<path d="M264.01 86.8941H254.01C253.867 86.8594 253.74 86.7779 253.649 86.6624C253.559 86.547 253.509 86.4044 253.509 86.2576C253.509 86.1108 253.559 85.9682 253.649 85.8528C253.74 85.7373 253.867 85.6557 254.01 85.6211H264.01C264.152 85.6557 264.279 85.7373 264.37 85.8528C264.461 85.9682 264.51 86.1108 264.51 86.2576C264.51 86.4044 264.461 86.547 264.37 86.6624C264.279 86.7779 264.152 86.8594 264.01 86.8941Z" fill="#0D6963"/>
</svg>
