<svg width="157" height="152" viewBox="0 0 157 152" fill="none" xmlns="http://www.w3.org/2000/svg">
<path d="M33.776 9.99994C33.489 10.0204 33.2055 9.92689 32.9871 9.73968C32.7686 9.55247 32.6327 9.28667 32.609 8.99994V0.999939C32.6523 0.72148 32.7937 0.46767 33.0077 0.28434C33.2217 0.10101 33.4942 0.000244141 33.776 0.000244141C34.0578 0.000244141 34.3303 0.10101 34.5443 0.28434C34.7583 0.46767 34.8997 0.72148 34.943 0.999939V8.99994C34.9193 9.28667 34.7834 9.55247 34.5649 9.73968C34.3465 9.92689 34.063 10.0204 33.776 9.99994Z" fill="#0D6963"/>
<path d="M66.108 151.574H1.349C0.603999 151.574 0 150.454 0 149.074C0 147.694 0.599999 146.574 1.349 146.574H66.108C66.853 146.574 67.557 147.774 67.557 149.159C67.557 150.544 66.852 151.574 66.108 151.574Z" fill="#0D6963"/>
<path d="M16.777 121C16.6184 121 16.4621 120.962 16.3209 120.89C16.1798 120.817 16.0579 120.713 15.9653 120.584C15.8726 120.455 15.812 120.306 15.7883 120.149C15.7646 119.993 15.7786 119.832 15.829 119.682C24.421 94.0889 28.777 59.2049 28.777 15.9999C28.777 15.7347 28.8824 15.4804 29.0699 15.2928C29.2574 15.1053 29.5118 14.9999 29.777 14.9999C30.0422 14.9999 30.2965 15.1053 30.4841 15.2928C30.6716 15.4804 30.777 15.7347 30.777 15.9999C30.777 39.7519 29.583 61.7829 26.943 80.6219C25.1184 94.1144 22.0322 107.406 17.725 120.322C17.6577 120.52 17.53 120.692 17.36 120.813C17.1899 120.935 16.986 121 16.777 121Z" fill="#0D6963"/>
<path d="M1.778 148.212C1.52804 148.214 1.28542 148.127 1.093 147.968C0.998365 147.893 0.92114 147.798 0.866664 147.691C0.812188 147.583 0.781758 147.465 0.777479 147.344C0.7732 147.223 0.795174 147.103 0.841881 146.992C0.888587 146.88 0.958914 146.78 1.048 146.699C1.111 146.639 7.431 140.474 13.837 124.59C13.945 124.357 14.1361 124.173 14.3729 124.073C14.6096 123.974 14.875 123.966 15.117 124.052C15.2351 124.083 15.3454 124.138 15.4409 124.214C15.5364 124.29 15.615 124.385 15.6715 124.493C15.728 124.601 15.7613 124.72 15.7691 124.842C15.7769 124.963 15.7592 125.085 15.717 125.2C9.149 141.49 2.778 147.675 2.505 147.93C2.30779 148.114 2.04753 148.215 1.778 148.212Z" fill="#0D6963"/>
<path d="M14.777 148.212C14.6139 148.212 14.4529 148.176 14.306 148.105C14.1941 148.058 14.0934 147.988 14.0107 147.9C13.928 147.811 13.8652 147.706 13.8265 147.591C13.7878 147.476 13.7741 147.354 13.7862 147.233C13.7984 147.112 13.8361 146.996 13.897 146.891C13.939 146.82 18.186 139.623 22.814 124.656C22.9043 124.417 23.0806 124.221 23.3084 124.105C23.5362 123.99 23.7989 123.964 24.045 124.032C24.1653 124.054 24.2796 124.101 24.381 124.169C24.4824 124.238 24.5686 124.326 24.6343 124.43C24.7 124.533 24.7437 124.648 24.7627 124.769C24.7818 124.89 24.7757 125.014 24.745 125.132C20.045 140.317 15.839 147.438 15.662 147.732C15.5685 147.882 15.4379 148.004 15.2828 148.089C15.1277 148.173 14.9534 148.215 14.777 148.212Z" fill="#0D6963"/>
<path d="M24.777 121C24.6927 121 24.6087 120.99 24.527 120.969C24.3998 120.936 24.2803 120.879 24.1753 120.8C24.0704 120.721 23.982 120.622 23.9152 120.509C23.8484 120.396 23.8046 120.271 23.7862 120.141C23.7678 120.011 23.7752 119.878 23.808 119.751C28.5489 101.47 31.5387 82.7801 32.737 63.9329C32.754 63.6795 32.8668 63.442 33.0526 63.2688C33.2383 63.0955 33.483 62.9994 33.737 62.9999C33.9997 62.9975 34.2543 63.0909 34.4531 63.2626C34.6519 63.4344 34.7813 63.6727 34.817 63.9329C36.0139 82.7804 39.0041 101.471 43.747 119.751C43.8133 120.008 43.7748 120.281 43.64 120.509C43.5051 120.738 43.285 120.904 43.028 120.97C42.771 121.036 42.4982 120.998 42.2696 120.863C42.041 120.728 41.8753 120.508 41.809 120.251C37.9814 105.53 35.2961 90.5347 33.777 75.3999C32.2568 90.5326 29.5715 105.525 25.745 120.245C25.6905 120.46 25.5658 120.652 25.3905 120.788C25.2152 120.925 24.9993 121 24.777 121Z" fill="#0D6963"/>
<path d="M52.777 148.212C52.6021 148.215 52.4293 148.174 52.275 148.091C52.1208 148.009 51.9903 147.888 51.896 147.741C51.719 147.447 47.519 140.376 42.812 125.136C42.7811 125.018 42.775 124.894 42.7939 124.773C42.8129 124.652 42.8566 124.537 42.9223 124.433C42.988 124.33 43.0743 124.242 43.1757 124.173C43.2772 124.105 43.3917 124.058 43.512 124.036C43.7582 123.968 44.021 123.994 44.2488 124.109C44.4766 124.225 44.6529 124.422 44.743 124.661C49.38 139.677 53.617 146.823 53.66 146.893C53.7209 146.998 53.7588 147.114 53.7711 147.235C53.7834 147.356 53.7699 147.478 53.7313 147.592C53.6928 147.707 53.6302 147.813 53.5478 147.902C53.4653 147.991 53.3648 148.061 53.253 148.108C53.1044 148.178 52.9415 148.214 52.777 148.212Z" fill="#0D6963"/>
<path d="M50.777 121C50.5674 121 50.3632 120.934 50.1931 120.812C50.023 120.689 49.8956 120.517 49.829 120.318C48.857 117.418 47.887 114.41 46.872 110.984C45.426 106.105 44.001 100.592 42.843 94.6749C41.912 89.9169 41.097 84.9339 40.357 79.4619C37.884 61.1789 36.777 39.8389 36.777 15.9999C36.777 15.7347 36.8824 15.4804 37.0699 15.2928C37.2574 15.1053 37.5118 14.9999 37.777 14.9999C38.0422 14.9999 38.2965 15.1053 38.4841 15.2928C38.6716 15.4804 38.777 15.7347 38.777 15.9999C38.777 59.1999 43.133 94.0859 51.725 119.682C51.7754 119.832 51.7894 119.993 51.7657 120.149C51.742 120.306 51.6813 120.455 51.5887 120.584C51.4961 120.713 51.3742 120.817 51.233 120.89C51.0919 120.962 50.9356 121 50.777 121Z" fill="#0D6963"/>
<path d="M65.78 148.212C65.5105 148.215 65.2502 148.114 65.053 147.93C64.784 147.673 58.404 141.465 51.84 125.202C51.7978 125.087 51.7801 124.965 51.7879 124.844C51.7957 124.722 51.829 124.603 51.8855 124.495C51.9421 124.387 52.0206 124.292 52.1161 124.216C52.2116 124.14 52.3219 124.085 52.44 124.054C52.6821 123.969 52.9472 123.976 53.1839 124.076C53.4205 124.175 53.6116 124.359 53.72 124.592C60.12 140.453 66.448 146.642 66.511 146.702C66.5996 146.784 66.6695 146.883 66.7158 146.995C66.7622 147.106 66.7839 147.226 66.7794 147.346C66.7749 147.467 66.7444 147.585 66.69 147.692C66.6355 147.8 66.5584 147.894 66.464 147.969C66.2716 148.128 66.0295 148.214 65.78 148.212Z" fill="#0D6963"/>
<path d="M36.777 16.9999H30.777C30.3825 17.0088 29.9908 16.9305 29.63 16.7707C29.2692 16.6109 28.9481 16.3734 28.6896 16.0753C28.4311 15.7771 28.2415 15.4256 28.1344 15.0458C28.0273 14.666 28.0053 14.2672 28.07 13.8779L28.787 8.85894C28.8209 8.62056 28.9397 8.40243 29.1216 8.24463C29.3035 8.08683 29.5362 7.99994 29.777 7.99994H37.777C38.0178 7.99994 38.2505 8.08683 38.4323 8.24463C38.6142 8.40243 38.733 8.62056 38.767 8.85894L39.484 13.8789C39.5487 14.2682 39.5267 14.6669 39.4196 15.0467C39.3125 15.4264 39.1229 15.7779 38.8644 16.076C38.6058 16.374 38.2847 16.6114 37.9239 16.7711C37.5631 16.9308 37.1715 17.009 36.777 16.9999ZM30.644 9.99994L30.05 14.1609C30.0261 14.2663 30.0274 14.3759 30.0537 14.4807C30.0799 14.5855 30.1305 14.6827 30.2012 14.7643C30.272 14.846 30.361 14.9099 30.461 14.9508C30.561 14.9917 30.6693 15.0086 30.777 14.9999H36.777C36.8846 15.0085 36.9927 14.9917 37.0926 14.9508C37.1925 14.91 37.2815 14.8462 37.3522 14.7646C37.423 14.6831 37.4736 14.5861 37.4999 14.4814C37.5263 14.3767 37.5277 14.2673 37.504 14.1619L36.91 9.99994H30.644Z" fill="#0D6963"/>
<path d="M33.777 65.9999C33.5118 65.9999 33.2574 65.8946 33.0699 65.707C32.8824 65.5195 32.777 65.2652 32.777 64.9999V20.9999C32.777 20.7347 32.8824 20.4804 33.0699 20.2928C33.2574 20.1053 33.5118 19.9999 33.777 19.9999C34.0422 19.9999 34.2965 20.1053 34.4841 20.2928C34.6716 20.4804 34.777 20.7347 34.777 20.9999V64.9999C34.777 65.2652 34.6716 65.5195 34.4841 65.707C34.2965 65.8946 34.0422 65.9999 33.777 65.9999Z" fill="#0D6963"/>
<path d="M55.777 126H11.777C11.5118 126 11.2574 125.895 11.0699 125.707C10.8823 125.52 10.777 125.265 10.777 125V120C10.777 119.735 10.8823 119.48 11.0699 119.293C11.2574 119.105 11.5118 119 11.777 119H55.777C56.0422 119 56.2965 119.105 56.4841 119.293C56.6716 119.48 56.777 119.735 56.777 120V125C56.777 125.265 56.6716 125.52 56.4841 125.707C56.2965 125.895 56.0422 126 55.777 126ZM12.777 124H54.777V121H12.777V124Z" fill="#0D6963"/>
<path d="M38.777 59.9999H28.777C28.5118 59.9999 28.2574 59.8946 28.0699 59.707C27.8824 59.5195 27.777 59.2652 27.777 58.9999C27.777 58.7347 27.8824 58.4804 28.0699 58.2928C28.2574 58.1053 28.5118 57.9999 28.777 57.9999H38.777C39.0422 57.9999 39.2965 58.1053 39.4841 58.2928C39.6716 58.4804 39.777 58.7347 39.777 58.9999C39.777 59.2652 39.6716 59.5195 39.4841 59.707C39.2965 59.8946 39.0422 59.9999 38.777 59.9999Z" fill="#0D6963"/>
<path d="M45.777 104.607H21.777C21.501 104.607 21.277 104.023 21.277 103.307C21.277 102.591 21.501 102.007 21.777 102.007H45.777C46.053 102.007 46.277 102.591 46.277 103.307C46.277 104.023 46.053 104.607 45.777 104.607Z" fill="#0D6963"/>
<path d="M44.327 96.9999H22.727C22.479 96.9999 22.277 96.4159 22.277 95.6999C22.277 94.9839 22.477 94.3999 22.727 94.3999H44.327C44.575 94.3999 44.777 94.9839 44.777 95.6999C44.777 96.4159 44.577 96.9999 44.327 96.9999Z" fill="#0D6963"/>
<path d="M50.654 144.199C50.425 144.206 50.1991 144.143 50.0072 144.018C49.8152 143.893 49.6664 143.712 49.581 143.499C48.549 140.565 43.49 136.199 33.781 136.199C24.072 136.199 19.011 140.563 17.981 143.499C17.8695 143.764 17.6633 143.978 17.4027 144.099C17.142 144.22 16.8455 144.24 16.571 144.155C16.4372 144.127 16.3107 144.071 16.1996 143.991C16.0885 143.912 15.9952 143.81 15.9257 143.692C15.8562 143.574 15.8119 143.443 15.7958 143.307C15.7797 143.171 15.792 143.034 15.832 142.903C17.306 138.712 23.551 134.203 33.781 134.203C44.011 134.203 50.258 138.714 51.729 142.903C51.7694 143.034 51.782 143.171 51.766 143.307C51.7501 143.443 51.706 143.574 51.6365 143.692C51.5671 143.81 51.4738 143.912 51.3626 143.992C51.2515 144.071 51.1249 144.127 50.991 144.155C50.8812 144.185 50.7678 144.2 50.654 144.199Z" fill="#0D6963"/>
<path d="M37.777 21.9999H29.777C29.5118 21.9999 29.2574 21.8946 29.0699 21.707C28.8824 21.5195 28.777 21.2652 28.777 20.9999C28.777 20.7347 28.8824 20.4804 29.0699 20.2928C29.2574 20.1053 29.5118 19.9999 29.777 19.9999H37.777C38.0422 19.9999 38.2965 20.1053 38.4841 20.2928C38.6716 20.4804 38.777 20.7347 38.777 20.9999C38.777 21.2652 38.6716 21.5195 38.4841 21.707C38.2965 21.8946 38.0422 21.9999 37.777 21.9999Z" fill="#0D6963"/>
<path d="M35.111 21.4999C34.743 21.4999 34.445 21.2759 34.445 20.9999V10.9999C34.445 10.7239 34.745 10.4999 35.111 10.4999C35.477 10.4999 35.777 10.7239 35.777 10.9999V20.9999C35.777 21.2759 35.479 21.4999 35.111 21.4999Z" fill="#0D6963"/>
<path d="M32.442 21.4999C32.075 21.4999 31.777 21.2759 31.777 20.9999V10.9999C31.777 10.7239 32.077 10.4999 32.442 10.4999C32.807 10.4999 33.107 10.7239 33.107 10.9999V20.9999C33.107 21.2759 32.809 21.4999 32.442 21.4999Z" fill="#0D6963"/>
<path d="M25.777 116H18.777C18.501 116 18.277 115.552 18.277 115C18.277 114.448 18.501 114 18.777 114H25.777C26.053 114 26.277 114.448 26.277 115C26.277 115.552 26.053 116 25.777 116Z" fill="#0D6963"/>
<path d="M27.777 110H19.777C19.501 110 19.277 109.552 19.277 109C19.277 108.448 19.501 108 19.777 108H27.777C28.053 108 28.277 108.448 28.277 109C28.277 109.552 28.053 110 27.777 110Z" fill="#0D6963"/>
<path d="M42.777 88.9999H24.777C24.501 88.9999 24.277 88.5519 24.277 87.9999C24.277 87.4479 24.501 86.9999 24.777 86.9999H42.777C43.053 86.9999 43.277 87.4479 43.277 87.9999C43.277 88.5519 43.053 88.9999 42.777 88.9999Z" fill="#0D6963"/>
<path d="M42.303 83.9999H25.251C24.989 83.9999 24.777 83.5519 24.777 82.9999C24.777 82.4479 24.989 81.9999 25.251 81.9999H42.304C42.565 81.9999 42.778 82.4479 42.778 82.9999C42.778 83.5519 42.565 83.9999 42.303 83.9999Z" fill="#0D6963"/>
<path d="M40.874 76.9999H26.343C26.12 76.9999 25.943 76.5519 25.943 75.9999C25.943 75.4479 26.124 74.9999 26.343 74.9999H40.871C41.094 74.9999 41.271 75.4479 41.271 75.9999C41.271 76.5519 41.097 76.9999 40.874 76.9999Z" fill="#0D6963"/>
<path d="M40.777 70.9999H26.777C26.501 70.9999 26.277 70.5519 26.277 69.9999C26.277 69.4479 26.501 68.9999 26.777 68.9999H40.777C41.053 68.9999 41.277 69.4479 41.277 69.9999C41.277 70.5519 41.053 70.9999 40.777 70.9999Z" fill="#0D6963"/>
<path d="M39.777 65.9999H27.777C27.501 65.9999 27.277 65.5519 27.277 64.9999C27.277 64.4479 27.501 63.9999 27.777 63.9999H39.777C40.053 63.9999 40.277 64.4479 40.277 64.9999C40.277 65.5519 40.053 65.9999 39.777 65.9999Z" fill="#0D6963"/>
<path d="M38.777 54.9999H28.777C28.501 54.9999 28.277 54.5519 28.277 53.9999C28.277 53.4479 28.501 52.9999 28.777 52.9999H38.777C39.053 52.9999 39.277 53.4479 39.277 53.9999C39.277 54.5519 39.053 54.9999 38.777 54.9999Z" fill="#0D6963"/>
<path d="M38.777 49.9999H28.777C28.501 49.9999 28.277 49.5519 28.277 48.9999C28.277 48.4479 28.501 47.9999 28.777 47.9999H38.777C39.053 47.9999 39.277 48.4479 39.277 48.9999C39.277 49.5519 39.053 49.9999 38.777 49.9999Z" fill="#0D6963"/>
<path d="M38.777 44.9999H28.777C28.501 44.9999 28.277 44.5519 28.277 43.9999C28.277 43.4479 28.501 42.9999 28.777 42.9999H38.777C39.053 42.9999 39.277 43.4479 39.277 43.9999C39.277 44.5519 39.053 44.9999 38.777 44.9999Z" fill="#0D6963"/>
<path d="M37.777 39.9999H29.777C29.501 39.9999 29.277 39.5519 29.277 38.9999C29.277 38.4479 29.501 37.9999 29.777 37.9999H37.777C38.053 37.9999 38.277 38.4479 38.277 38.9999C38.277 39.5519 38.053 39.9999 37.777 39.9999Z" fill="#0D6963"/>
<path d="M37.777 34.9999H29.777C29.501 34.9999 29.277 34.5519 29.277 33.9999C29.277 33.4479 29.501 32.9999 29.777 32.9999H37.777C38.053 32.9999 38.277 33.4479 38.277 33.9999C38.277 34.5519 38.053 34.9999 37.777 34.9999Z" fill="#0D6963"/>
<path d="M37.777 30.9999H29.777C29.501 30.9999 29.277 30.5519 29.277 29.9999C29.277 29.4479 29.501 28.9999 29.777 28.9999H37.777C38.053 28.9999 38.277 29.4479 38.277 29.9999C38.277 30.5519 38.053 30.9999 37.777 30.9999Z" fill="#0D6963"/>
<path d="M37.777 26.9999H29.777C29.501 26.9999 29.277 26.5519 29.277 25.9999C29.277 25.4479 29.501 24.9999 29.777 24.9999H37.777C38.053 24.9999 38.277 25.4479 38.277 25.9999C38.277 26.5519 38.053 26.9999 37.777 26.9999Z" fill="#0D6963"/>
<path d="M47.777 110H39.777C39.501 110 39.277 109.552 39.277 109C39.277 108.448 39.501 108 39.777 108H47.777C48.053 108 48.277 108.448 48.277 109C48.277 109.552 48.053 110 47.777 110Z" fill="#0D6963"/>
<path d="M48.777 116H41.777C41.501 116 41.277 115.552 41.277 115C41.277 114.448 41.501 114 41.777 114H48.777C49.053 114 49.277 114.448 49.277 115C49.277 115.552 49.053 116 48.777 116Z" fill="#0D6963"/>
<path d="M59.777 140.48H48.777C48.501 140.48 48.277 140.032 48.277 139.48C48.277 138.928 48.501 138.48 48.777 138.48H59.777C60.053 138.48 60.277 138.928 60.277 139.48C60.277 140.032 60.053 140.48 59.777 140.48Z" fill="#0D6963"/>
<path d="M17.84 140.48H8.215C7.973 140.48 7.77802 140.032 7.77802 139.48C7.77802 138.928 7.978 138.48 8.216 138.48H17.841C18.083 138.48 18.279 138.928 18.279 139.48C18.279 140.032 18.077 140.48 17.84 140.48Z" fill="#0D6963"/>
<path d="M54.86 132.7H12.694C11.636 132.7 10.777 132.207 10.777 131.6C10.777 130.993 11.636 130.5 12.694 130.5H54.861C55.919 130.5 56.778 130.993 56.778 131.6C56.778 132.207 55.918 132.7 54.86 132.7Z" fill="#0D6963"/>
<path d="M52.957 129.2H14.528C13.564 129.2 12.781 128.707 12.781 128.1C12.781 127.493 13.564 127 14.528 127H52.957C53.921 127 54.704 127.493 54.704 128.1C54.704 128.707 53.921 129.2 52.957 129.2Z" fill="#0D6963"/>
<path d="M32.377 125.5C32.2314 125.512 32.0869 125.466 31.9747 125.373C31.8625 125.279 31.7914 125.145 31.777 125V122C31.8027 121.86 31.8768 121.733 31.9865 121.641C32.0961 121.55 32.2343 121.5 32.377 121.5C32.5197 121.5 32.6579 121.55 32.7675 121.641C32.8771 121.733 32.9513 121.86 32.977 122V125C32.9625 125.145 32.8915 125.279 32.7793 125.373C32.6671 125.466 32.5226 125.512 32.377 125.5Z" fill="#0D6963"/>
<path d="M29.377 125.5C29.2314 125.512 29.0869 125.466 28.9747 125.373C28.8625 125.279 28.7914 125.145 28.777 125V122C28.8027 121.86 28.8768 121.733 28.9865 121.641C29.0961 121.55 29.2343 121.5 29.377 121.5C29.5197 121.5 29.6579 121.55 29.7675 121.641C29.8771 121.733 29.9513 121.86 29.977 122V125C29.9625 125.145 29.8915 125.279 29.7793 125.373C29.6671 125.466 29.5226 125.512 29.377 125.5Z" fill="#0D6963"/>
<path d="M26.377 125.5C26.2314 125.512 26.0869 125.466 25.9747 125.373C25.8625 125.279 25.7914 125.145 25.777 125V122C25.8027 121.86 25.8768 121.733 25.9865 121.641C26.0961 121.55 26.2343 121.5 26.377 121.5C26.5197 121.5 26.6579 121.55 26.7675 121.641C26.8771 121.733 26.9513 121.86 26.977 122V125C26.9625 125.145 26.8915 125.279 26.7793 125.373C26.6671 125.466 26.5226 125.512 26.377 125.5Z" fill="#0D6963"/>
<path d="M23.377 125.5C23.2314 125.512 23.0869 125.466 22.9747 125.373C22.8625 125.279 22.7914 125.145 22.777 125V122C22.8027 121.86 22.8768 121.733 22.9865 121.641C23.0961 121.55 23.2343 121.5 23.377 121.5C23.5197 121.5 23.6579 121.55 23.7675 121.641C23.8771 121.733 23.9513 121.86 23.977 122V125C23.9625 125.145 23.8915 125.279 23.7793 125.373C23.6671 125.466 23.5226 125.512 23.377 125.5Z" fill="#0D6963"/>
<path d="M20.377 125.5C20.2314 125.512 20.0869 125.466 19.9747 125.373C19.8625 125.279 19.7914 125.145 19.777 125V122C19.8027 121.86 19.8768 121.733 19.9865 121.641C20.0961 121.55 20.2343 121.5 20.377 121.5C20.5197 121.5 20.6579 121.55 20.7675 121.641C20.8771 121.733 20.9513 121.86 20.977 122V125C20.9625 125.145 20.8915 125.279 20.7793 125.373C20.6671 125.466 20.5226 125.512 20.377 125.5Z" fill="#0D6963"/>
<path d="M17.377 125.5C17.2314 125.512 17.0869 125.466 16.9747 125.373C16.8625 125.279 16.7914 125.145 16.777 125V122C16.8027 121.86 16.8768 121.733 16.9865 121.641C17.0961 121.55 17.2343 121.5 17.377 121.5C17.5197 121.5 17.6579 121.55 17.7675 121.641C17.8771 121.733 17.9513 121.86 17.977 122V125C17.9625 125.145 17.8915 125.279 17.7793 125.373C17.6671 125.466 17.5226 125.512 17.377 125.5Z" fill="#0D6963"/>
<path d="M14.377 125.5C14.2313 125.512 14.0867 125.467 13.9744 125.373C13.8621 125.279 13.7912 125.145 13.777 125V122C13.799 121.857 13.8715 121.726 13.9816 121.631C14.0917 121.537 14.2319 121.485 14.377 121.485C14.5221 121.485 14.6623 121.537 14.7724 121.631C14.8824 121.726 14.955 121.857 14.977 122V125C14.9628 125.145 14.8918 125.279 14.7796 125.373C14.6673 125.467 14.5227 125.512 14.377 125.5Z" fill="#0D6963"/>
<path d="M35.377 125.5C35.2314 125.512 35.0869 125.466 34.9747 125.373C34.8625 125.279 34.7914 125.145 34.777 125V122C34.8027 121.86 34.8768 121.733 34.9865 121.641C35.0961 121.55 35.2343 121.5 35.377 121.5C35.5197 121.5 35.6579 121.55 35.7675 121.641C35.8771 121.733 35.9513 121.86 35.977 122V125C35.9625 125.145 35.8915 125.279 35.7793 125.373C35.6671 125.466 35.5226 125.512 35.377 125.5Z" fill="#0D6963"/>
<path d="M38.377 125.5C38.2314 125.512 38.0869 125.466 37.9747 125.373C37.8625 125.279 37.7914 125.145 37.777 125V122C37.8027 121.86 37.8768 121.733 37.9865 121.641C38.0961 121.55 38.2343 121.5 38.377 121.5C38.5197 121.5 38.6579 121.55 38.7675 121.641C38.8771 121.733 38.9513 121.86 38.977 122V125C38.9625 125.145 38.8915 125.279 38.7793 125.373C38.6671 125.466 38.5226 125.512 38.377 125.5Z" fill="#0D6963"/>
<path d="M41.377 125.5C41.2314 125.512 41.0869 125.466 40.9747 125.373C40.8625 125.279 40.7914 125.145 40.777 125V122C40.8027 121.86 40.8768 121.733 40.9865 121.641C41.0961 121.55 41.2343 121.5 41.377 121.5C41.5197 121.5 41.6579 121.55 41.7675 121.641C41.8771 121.733 41.9513 121.86 41.977 122V125C41.9625 125.145 41.8915 125.279 41.7793 125.373C41.6671 125.466 41.5226 125.512 41.377 125.5Z" fill="#0D6963"/>
<path d="M44.377 125.5C44.2314 125.512 44.0869 125.466 43.9747 125.373C43.8625 125.279 43.7914 125.145 43.777 125V122C43.8027 121.86 43.8768 121.733 43.9865 121.641C44.0961 121.55 44.2343 121.5 44.377 121.5C44.5197 121.5 44.6579 121.55 44.7675 121.641C44.8771 121.733 44.9513 121.86 44.977 122V125C44.9625 125.145 44.8915 125.279 44.7793 125.373C44.6671 125.466 44.5226 125.512 44.377 125.5Z" fill="#0D6963"/>
<path d="M47.377 125.5C47.2314 125.512 47.0869 125.466 46.9747 125.373C46.8625 125.279 46.7914 125.145 46.777 125V122C46.8027 121.86 46.8768 121.733 46.9865 121.641C47.0961 121.55 47.2343 121.5 47.377 121.5C47.5197 121.5 47.6579 121.55 47.7675 121.641C47.8771 121.733 47.9513 121.86 47.977 122V125C47.9625 125.145 47.8915 125.279 47.7793 125.373C47.6671 125.466 47.5226 125.512 47.377 125.5Z" fill="#0D6963"/>
<path d="M50.377 125.5C50.2314 125.512 50.0869 125.466 49.9747 125.373C49.8625 125.279 49.7914 125.145 49.777 125V122C49.8027 121.86 49.8768 121.733 49.9865 121.641C50.0961 121.55 50.2343 121.5 50.377 121.5C50.5197 121.5 50.6579 121.55 50.7675 121.641C50.8771 121.733 50.9513 121.86 50.977 122V125C50.9625 125.145 50.8915 125.279 50.7793 125.373C50.6671 125.466 50.5226 125.512 50.377 125.5Z" fill="#0D6963"/>
<path d="M53.377 125.5C53.2314 125.512 53.0869 125.466 52.9747 125.373C52.8625 125.279 52.7914 125.145 52.777 125V122C52.8027 121.86 52.8768 121.733 52.9865 121.641C53.0961 121.55 53.2343 121.5 53.377 121.5C53.5197 121.5 53.6579 121.55 53.7675 121.641C53.8771 121.733 53.9513 121.86 53.977 122V125C53.9625 125.145 53.8915 125.279 53.7793 125.373C53.6671 125.466 53.5226 125.512 53.377 125.5Z" fill="#0D6963"/>
<path d="M154.044 151.573H84.934C84.3561 151.438 83.8408 151.112 83.4718 150.647C83.1029 150.183 82.9021 149.607 82.9021 149.013C82.9021 148.42 83.1029 147.844 83.4718 147.379C83.8408 146.915 84.3561 146.589 84.934 146.454H154.044C154.622 146.589 155.137 146.915 155.506 147.379C155.875 147.844 156.076 148.42 156.076 149.013C156.076 149.607 155.875 150.183 155.506 150.647C155.137 151.112 154.622 151.438 154.044 151.573Z" fill="#0D6963"/>
<path d="M96.584 108.268C97.4273 108.268 98.111 107.584 98.111 106.741C98.111 105.898 97.4273 105.214 96.584 105.214C95.7407 105.214 95.057 105.898 95.057 106.741C95.057 107.584 95.7407 108.268 96.584 108.268Z" fill="white"/>
<path d="M142.406 108.268C143.249 108.268 143.933 107.584 143.933 106.741C143.933 105.898 143.249 105.214 142.406 105.214C141.563 105.214 140.879 105.898 140.879 106.741C140.879 107.584 141.563 108.268 142.406 108.268Z" fill="white"/>
<path d="M121.021 41.0629H117.966C117.768 41.0558 117.581 40.9722 117.444 40.8298C117.306 40.6874 117.23 40.4973 117.23 40.2994C117.23 40.1016 117.306 39.9115 117.444 39.7691C117.581 39.6267 117.768 39.5431 117.966 39.5359H121.021C121.124 39.5322 121.226 39.5492 121.322 39.5859C121.418 39.6226 121.505 39.6783 121.579 39.7495C121.653 39.8208 121.712 39.9062 121.752 40.0007C121.792 40.0952 121.813 40.1968 121.813 40.2994C121.813 40.4021 121.792 40.5037 121.752 40.5982C121.712 40.6927 121.653 40.7781 121.579 40.8493C121.505 40.9206 121.418 40.9763 121.322 41.013C121.226 41.0497 121.124 41.0666 121.021 41.0629Z" fill="white"/>
<path d="M156.151 99.1049V86.8859C156.254 86.8897 156.356 86.8726 156.452 86.836C156.548 86.7993 156.635 86.7436 156.709 86.6723C156.783 86.6011 156.842 86.5157 156.882 86.4212C156.922 86.3267 156.943 86.2251 156.943 86.1224C156.943 86.0198 156.922 85.9182 156.882 85.8237C156.842 85.7292 156.783 85.6438 156.709 85.5725C156.635 85.5013 156.548 85.4456 156.452 85.4089C156.356 85.3722 156.254 85.3552 156.151 85.3589V56.3379C156.15 55.5279 155.828 54.7514 155.255 54.1786C154.683 53.6059 153.906 53.2837 153.096 53.2829H147.112L142.646 51.7939C142.489 51.7434 142.32 51.7434 142.163 51.7939L137.697 53.2829H131.713C130.903 53.2837 130.126 53.6059 129.554 54.1786C128.981 54.7514 128.659 55.5279 128.658 56.3379V83.8309H123.205L123.179 83.4739C123.276 83.3385 123.322 83.1735 123.31 83.0075C123.298 82.8416 123.228 82.685 123.113 82.5649L121.783 63.9309L120.256 37.9649C120.246 37.7696 120.161 37.5855 120.02 37.4508C119.878 37.3161 119.69 37.241 119.494 37.241C119.298 37.241 119.11 37.3161 118.968 37.4508C118.827 37.5855 118.742 37.7696 118.732 37.9649L117.206 63.9219L115.782 83.8279H110.329V56.3379C110.328 55.5279 110.006 54.7514 109.433 54.1786C108.861 53.6059 108.084 53.2837 107.274 53.2829H101.29L96.824 51.7939C96.667 51.7434 96.498 51.7434 96.341 51.7939L91.875 53.2829H85.891C85.081 53.2837 84.3044 53.6059 83.7317 54.1786C83.1589 54.7514 82.8368 55.5279 82.836 56.3379V85.3589C82.6383 85.3661 82.4511 85.4497 82.3137 85.5921C82.1764 85.7345 82.0996 85.9246 82.0996 86.1224C82.0996 86.3203 82.1764 86.5104 82.3137 86.6528C82.4511 86.7952 82.6383 86.8788 82.836 86.8859V99.1049C82.6383 99.1121 82.4511 99.1957 82.3137 99.3381C82.1764 99.4805 82.0996 99.6706 82.0996 99.8684C82.0996 100.066 82.1764 100.256 82.3137 100.399C82.4511 100.541 82.6383 100.625 82.836 100.632V149.509C82.836 149.914 82.9969 150.303 83.2834 150.589C83.5699 150.876 83.9584 151.036 84.3635 151.036C84.7686 151.036 85.1571 150.876 85.4436 150.589C85.7301 150.303 85.891 149.914 85.891 149.509V126.599H107.272V149.51C107.272 149.915 107.433 150.304 107.719 150.59C108.006 150.876 108.394 151.037 108.799 151.037C109.205 151.037 109.593 150.876 109.88 150.59C110.166 150.304 110.327 149.915 110.327 149.51V126.599H128.656V149.51C128.656 149.915 128.817 150.304 129.103 150.59C129.39 150.876 129.778 151.037 130.184 151.037C130.589 151.037 130.977 150.876 131.264 150.59C131.55 150.304 131.711 149.915 131.711 149.51V126.599H153.095V149.51C153.095 149.915 153.256 150.304 153.542 150.59C153.829 150.876 154.217 151.037 154.622 151.037C155.028 151.037 155.416 150.876 155.703 150.59C155.989 150.304 156.15 149.915 156.15 149.51V100.633C156.253 100.637 156.355 100.62 156.451 100.583C156.547 100.546 156.634 100.491 156.708 100.419C156.782 100.348 156.841 100.263 156.881 100.168C156.921 100.074 156.942 99.9721 156.942 99.8694C156.942 99.7668 156.921 99.6652 156.881 99.5707C156.841 99.4762 156.782 99.3908 156.708 99.3195C156.634 99.2483 156.547 99.1926 156.451 99.1559C156.355 99.1192 156.253 99.1022 156.15 99.1059L156.151 99.1049ZM153.096 99.1049H150.042V89.9449C150.046 89.8423 150.029 89.7401 149.992 89.6442C149.955 89.5483 149.9 89.4608 149.828 89.3869C149.757 89.313 149.672 89.2543 149.577 89.2141C149.483 89.174 149.381 89.1533 149.279 89.1533C149.176 89.1533 149.074 89.174 148.98 89.2141C148.885 89.2543 148.8 89.313 148.729 89.3869C148.657 89.4608 148.602 89.5483 148.565 89.6442C148.528 89.7401 148.511 89.8423 148.515 89.9449V99.1089H145.46V91.4719C145.453 91.2742 145.369 91.087 145.227 90.9497C145.084 90.8123 144.894 90.7356 144.697 90.7356C144.499 90.7356 144.309 90.8123 144.166 90.9497C144.024 91.087 143.94 91.2742 143.933 91.4719V99.1089H140.878V89.9449C140.882 89.8423 140.865 89.7401 140.828 89.6442C140.791 89.5483 140.736 89.4608 140.664 89.3869C140.593 89.313 140.508 89.2543 140.413 89.2141C140.319 89.174 140.217 89.1533 140.115 89.1533C140.012 89.1533 139.91 89.174 139.816 89.2141C139.721 89.2543 139.636 89.313 139.565 89.3869C139.493 89.4608 139.438 89.5483 139.401 89.6442C139.364 89.7401 139.347 89.8423 139.351 89.9449V99.1089H136.296V91.4719C136.289 91.2742 136.205 91.087 136.063 90.9497C135.92 90.8123 135.73 90.7356 135.533 90.7356C135.335 90.7356 135.145 90.8123 135.002 90.9497C134.86 91.087 134.776 91.2742 134.769 91.4719V99.1089H131.714V86.8859H153.098L153.096 99.1049ZM145.459 118.961V112.851C145.459 111.899 145.933 110.56 146.986 110.56C148.194 110.56 148.513 112.06 148.513 112.851V118.961H145.459ZM150.041 112.851C150.041 110.951 148.992 109.032 146.986 109.032C145.002 109.032 143.931 110.999 143.931 112.851V118.961H140.876V112.851C140.876 110.951 139.827 109.032 137.821 109.032C135.837 109.032 134.766 110.999 134.766 112.851V108.269C134.766 106.622 139.116 103.409 142.408 101.507C145.698 103.36 150.04 106.541 150.04 108.269L150.041 112.851ZM136.294 118.961V112.851C136.294 111.899 136.768 110.56 137.821 110.56C139.029 110.56 139.348 112.06 139.348 112.851V118.961H136.294ZM133.239 108.269V118.961H131.712V100.633H140.89C138.357 102.163 133.24 105.581 133.24 108.27L133.239 108.269ZM110.328 118.961V100.633H128.657V118.962L110.328 118.961ZM105.746 118.961V108.27C105.746 105.489 100.669 102.139 98.121 100.633H107.272V118.962L105.746 118.961ZM99.636 118.961V112.851C99.636 111.899 100.11 110.56 101.163 110.56C102.371 110.56 102.69 112.06 102.69 112.851V118.961H99.636ZM95.054 118.961V112.851C95.054 110.951 94.005 109.032 91.999 109.032C90.015 109.032 88.944 110.999 88.944 112.851V108.269C88.944 106.622 93.294 103.409 96.586 101.507C99.876 103.36 104.218 106.541 104.218 108.269V112.851C104.218 110.951 103.169 109.032 101.163 109.032C99.179 109.032 98.108 110.999 98.108 112.851V118.961H95.054ZM90.472 118.961V112.851C90.472 111.899 90.945 110.56 91.999 110.56C93.207 110.56 93.526 112.06 93.526 112.851V118.961H90.472ZM110.328 86.8849H128.657V99.1049H127.13V92.9949C127.123 92.7972 127.039 92.61 126.897 92.4727C126.754 92.3353 126.564 92.2586 126.366 92.2586C126.169 92.2586 125.979 92.3353 125.836 92.4727C125.694 92.61 125.61 92.7972 125.603 92.9949V99.1049H122.548V88.4129C122.552 88.3103 122.535 88.2081 122.498 88.1122C122.461 88.0163 122.406 87.9288 122.334 87.8549C122.263 87.781 122.178 87.7223 122.083 87.6821C121.989 87.642 121.887 87.6213 121.784 87.6213C121.682 87.6213 121.58 87.642 121.486 87.6821C121.391 87.7223 121.306 87.781 121.235 87.8549C121.163 87.9288 121.108 88.0163 121.071 88.1122C121.034 88.2081 121.017 88.3103 121.021 88.4129V99.1049H117.966V88.4129C117.97 88.3103 117.953 88.2081 117.916 88.1122C117.879 88.0163 117.824 87.9288 117.752 87.8549C117.681 87.781 117.596 87.7223 117.501 87.6821C117.407 87.642 117.305 87.6213 117.202 87.6213C117.1 87.6213 116.998 87.642 116.904 87.6821C116.809 87.7223 116.724 87.781 116.653 87.8549C116.581 87.9288 116.526 88.0163 116.489 88.1122C116.452 88.2081 116.435 88.3103 116.439 88.4129V99.1049H113.384V92.9949C113.377 92.7972 113.293 92.61 113.151 92.4727C113.008 92.3353 112.818 92.2586 112.62 92.2586C112.423 92.2586 112.233 92.3353 112.09 92.4727C111.948 92.61 111.864 92.7972 111.857 92.9949V99.1049H110.33L110.328 86.8849ZM139.349 85.3579H136.294V67.0299C136.294 66.4629 137.105 65.5579 137.835 64.9359C138.499 65.4739 139.349 66.3519 139.349 67.0299V85.3579ZM148.513 85.3579H145.458V67.0299C145.458 66.4629 146.269 65.5579 146.999 64.9359C147.663 65.4739 148.513 66.3519 148.513 67.0299V85.3579ZM150.04 85.3579V67.0299C150.04 65.1479 147.679 63.5179 147.408 63.3399C147.279 63.2529 147.126 63.2078 146.97 63.2108C146.814 63.2139 146.663 63.2649 146.537 63.3569C146.102 63.6719 143.93 65.3269 143.93 67.0299V85.3589H140.875V67.0299C140.875 65.1479 138.514 63.5179 138.243 63.3399C138.114 63.2529 137.961 63.2078 137.805 63.2108C137.649 63.2139 137.498 63.2649 137.372 63.3569C136.937 63.6719 134.765 65.3269 134.765 67.0299V85.3589H131.71V60.9199H153.094V85.3589L150.04 85.3579ZM153.096 56.3369V57.8639C153.1 57.7614 153.083 57.6591 153.046 57.5632C153.009 57.4673 152.954 57.3798 152.882 57.3059C152.811 57.232 152.726 57.1733 152.631 57.1331C152.537 57.093 152.435 57.0723 152.332 57.0723C152.23 57.0723 152.128 57.093 152.034 57.1331C151.939 57.1733 151.854 57.232 151.783 57.3059C151.711 57.3798 151.656 57.4673 151.619 57.5632C151.582 57.6591 151.565 57.7614 151.569 57.8639V59.3909H150.042V57.8649C150.046 57.7623 150.029 57.6601 149.992 57.5642C149.955 57.4683 149.9 57.3808 149.828 57.3069C149.757 57.233 149.672 57.1743 149.577 57.1341C149.483 57.094 149.381 57.0733 149.279 57.0733C149.176 57.0733 149.074 57.094 148.98 57.1341C148.885 57.1743 148.8 57.233 148.729 57.3069C148.657 57.3808 148.602 57.4683 148.565 57.5642C148.528 57.6601 148.511 57.7623 148.515 57.8649V59.3919H146.988V57.8649C146.992 57.7623 146.975 57.6601 146.938 57.5642C146.901 57.4683 146.846 57.3808 146.774 57.3069C146.703 57.233 146.618 57.1743 146.523 57.1341C146.429 57.094 146.327 57.0733 146.224 57.0733C146.122 57.0733 146.02 57.094 145.926 57.1341C145.831 57.1743 145.746 57.233 145.675 57.3069C145.603 57.3808 145.548 57.4683 145.511 57.5642C145.474 57.6601 145.457 57.7623 145.461 57.8649V59.3919H143.932V57.8649C143.936 57.7623 143.919 57.6601 143.882 57.5642C143.845 57.4683 143.79 57.3808 143.718 57.3069C143.647 57.233 143.562 57.1743 143.467 57.1341C143.373 57.094 143.271 57.0733 143.168 57.0733C143.066 57.0733 142.964 57.094 142.87 57.1341C142.775 57.1743 142.69 57.233 142.619 57.3069C142.547 57.3808 142.492 57.4683 142.455 57.5642C142.418 57.6601 142.401 57.7623 142.405 57.8649V59.3919H140.878V57.8649C140.882 57.7623 140.865 57.6601 140.828 57.5642C140.791 57.4683 140.736 57.3808 140.664 57.3069C140.593 57.233 140.508 57.1743 140.413 57.1341C140.319 57.094 140.217 57.0733 140.115 57.0733C140.012 57.0733 139.91 57.094 139.816 57.1341C139.721 57.1743 139.636 57.233 139.565 57.3069C139.493 57.3808 139.438 57.4683 139.401 57.5642C139.364 57.6601 139.347 57.7623 139.351 57.8649V59.3919H137.824V57.8649C137.828 57.7623 137.811 57.6601 137.774 57.5642C137.737 57.4683 137.682 57.3808 137.61 57.3069C137.539 57.233 137.454 57.1743 137.359 57.1341C137.265 57.094 137.163 57.0733 137.06 57.0733C136.958 57.0733 136.856 57.094 136.762 57.1341C136.667 57.1743 136.582 57.233 136.511 57.3069C136.439 57.3808 136.384 57.4683 136.347 57.5642C136.31 57.6601 136.293 57.7623 136.297 57.8649V59.3919H134.772V57.8649C134.776 57.7623 134.759 57.6601 134.722 57.5642C134.685 57.4683 134.63 57.3808 134.558 57.3069C134.487 57.233 134.402 57.1743 134.307 57.1341C134.213 57.094 134.111 57.0733 134.008 57.0733C133.906 57.0733 133.804 57.094 133.71 57.1341C133.615 57.1743 133.53 57.233 133.459 57.3069C133.387 57.3808 133.332 57.4683 133.295 57.5642C133.258 57.6601 133.241 57.7623 133.245 57.8649V59.3919H131.718V56.3369H153.096ZM119.997 59.5869C119.854 59.473 119.676 59.411 119.493 59.411C119.31 59.411 119.132 59.473 118.989 59.5869L119.489 51.0149L119.997 59.5869ZM118.728 64.0179L118.928 60.6439C118.942 60.6579 118.946 60.6759 118.96 60.6899C119.102 60.8326 119.294 60.9147 119.495 60.9189C119.595 60.9203 119.695 60.9006 119.787 60.8612C119.879 60.8217 119.962 60.7634 120.03 60.6899C120.044 60.6759 120.048 60.6559 120.062 60.6429L120.262 63.9739H119.5C119.302 63.9811 119.115 64.0647 118.978 64.2071C118.84 64.3495 118.764 64.5396 118.764 64.7374C118.764 64.9353 118.84 65.1254 118.978 65.2678C119.115 65.4102 119.302 65.4938 119.5 65.5009H120.371L120.589 68.5559H119.5C119.302 68.5631 119.115 68.6467 118.978 68.7891C118.84 68.9315 118.764 69.1216 118.764 69.3194C118.764 69.5173 118.84 69.7074 118.978 69.8498C119.115 69.9922 119.302 70.0758 119.5 70.0829H120.7L120.918 73.1379H119.501C119.303 73.1451 119.116 73.2287 118.979 73.3711C118.841 73.5135 118.765 73.7036 118.765 73.9014C118.765 74.0993 118.841 74.2894 118.979 74.4318C119.116 74.5742 119.303 74.6578 119.501 74.6649H121.027L121.248 77.7649C121.177 77.7393 121.103 77.7245 121.028 77.7209H119.501C119.303 77.7281 119.116 77.8117 118.979 77.9541C118.841 78.0965 118.765 78.2866 118.765 78.4844C118.765 78.6823 118.841 78.8724 118.979 79.0148C119.116 79.1572 119.303 79.2408 119.501 79.2479H121.028C121.139 79.2467 121.249 79.2207 121.349 79.1719L121.572 82.3029H119.501C119.303 82.3101 119.116 82.3937 118.979 82.5361C118.841 82.6785 118.765 82.8686 118.765 83.0664C118.765 83.2643 118.841 83.4544 118.979 83.5968C119.116 83.7392 119.303 83.8228 119.501 83.8299H117.312L118.728 64.0179ZM107.272 56.3369V57.8639C107.276 57.7614 107.259 57.6591 107.222 57.5632C107.185 57.4673 107.13 57.3798 107.058 57.3059C106.987 57.232 106.902 57.1733 106.807 57.1331C106.713 57.093 106.611 57.0723 106.508 57.0723C106.406 57.0723 106.304 57.093 106.21 57.1331C106.115 57.1733 106.03 57.232 105.959 57.3059C105.887 57.3798 105.832 57.4673 105.795 57.5632C105.758 57.6591 105.741 57.7614 105.745 57.8639V59.3909H104.218V57.8649C104.222 57.7623 104.205 57.6601 104.168 57.5642C104.131 57.4683 104.076 57.3808 104.004 57.3069C103.933 57.233 103.848 57.1743 103.753 57.1341C103.659 57.094 103.557 57.0733 103.455 57.0733C103.352 57.0733 103.25 57.094 103.156 57.1341C103.061 57.1743 102.976 57.233 102.905 57.3069C102.833 57.3808 102.778 57.4683 102.741 57.5642C102.704 57.6601 102.687 57.7623 102.691 57.8649V59.3919H101.164V57.8649C101.168 57.7623 101.151 57.6601 101.114 57.5642C101.077 57.4683 101.022 57.3808 100.95 57.3069C100.879 57.233 100.794 57.1743 100.699 57.1341C100.605 57.094 100.503 57.0733 100.401 57.0733C100.298 57.0733 100.196 57.094 100.102 57.1341C100.007 57.1743 99.9218 57.233 99.8506 57.3069C99.7793 57.3808 99.7237 57.4683 99.687 57.5642C99.6503 57.6601 99.6333 57.7623 99.637 57.8649V59.3919H98.11V57.8649C98.1137 57.7623 98.0967 57.6601 98.06 57.5642C98.0233 57.4683 97.9677 57.3808 97.8964 57.3069C97.8252 57.233 97.7397 57.1743 97.6452 57.1341C97.5508 57.094 97.4492 57.0733 97.3465 57.0733C97.2438 57.0733 97.1422 57.094 97.0478 57.1341C96.9533 57.1743 96.8678 57.233 96.7966 57.3069C96.7253 57.3808 96.6697 57.4683 96.633 57.5642C96.5963 57.6601 96.5793 57.7623 96.583 57.8649V59.3919H95.056V57.8649C95.0597 57.7623 95.0427 57.6601 95.006 57.5642C94.9693 57.4683 94.9137 57.3808 94.8424 57.3069C94.7712 57.233 94.6857 57.1743 94.5912 57.1341C94.4968 57.094 94.3952 57.0733 94.2925 57.0733C94.1898 57.0733 94.0882 57.094 93.9938 57.1341C93.8993 57.1743 93.8139 57.233 93.7426 57.3069C93.6713 57.3808 93.6157 57.4683 93.579 57.5642C93.5423 57.6601 93.5253 57.7623 93.529 57.8649V59.3919H92.002V57.8649C92.0057 57.7623 91.9887 57.6601 91.952 57.5642C91.9153 57.4683 91.8597 57.3808 91.7884 57.3069C91.7172 57.233 91.6317 57.1743 91.5372 57.1341C91.4428 57.094 91.3412 57.0733 91.2385 57.0733C91.1358 57.0733 91.0342 57.094 90.9398 57.1341C90.8453 57.1743 90.7599 57.233 90.6886 57.3069C90.6173 57.3808 90.5617 57.4683 90.525 57.5642C90.4883 57.6601 90.4713 57.7623 90.475 57.8649V59.3919H88.948V57.8649C88.9517 57.7623 88.9347 57.6601 88.898 57.5642C88.8613 57.4683 88.8057 57.3808 88.7344 57.3069C88.6631 57.233 88.5777 57.1743 88.4832 57.1341C88.3888 57.094 88.2872 57.0733 88.1845 57.0733C88.0818 57.0733 87.9802 57.094 87.8857 57.1341C87.7913 57.1743 87.7059 57.233 87.6346 57.3069C87.5633 57.3808 87.5077 57.4683 87.471 57.5642C87.4343 57.6601 87.4173 57.7623 87.421 57.8649V59.3919H85.894V56.3369H107.272ZM85.891 60.9189L107.272 60.9189V85.3579H104.217V67.0299C104.217 65.1479 101.856 63.5179 101.585 63.3399C101.456 63.2529 101.303 63.2078 101.147 63.2108C100.991 63.2139 100.84 63.2649 100.714 63.3569C100.279 63.6719 98.107 65.3269 98.107 67.0299V85.3589H95.052V67.0299C95.052 65.1479 92.691 63.5179 92.42 63.3399C92.2907 63.2529 92.1377 63.2078 91.9818 63.2108C91.826 63.2139 91.6748 63.2649 91.549 63.3569C91.114 63.6719 88.942 65.3269 88.942 67.0299V85.3589H85.887L85.891 60.9189ZM102.691 85.3579H99.636V67.0299C99.636 66.4629 100.447 65.5579 101.177 64.9359C101.841 65.4739 102.691 66.3519 102.691 67.0299V85.3579ZM93.527 85.3579H90.472V67.0299C90.472 66.4629 91.283 65.5579 92.013 64.9359C92.677 65.4739 93.527 66.3519 93.527 67.0299V85.3579ZM85.89 86.8849H107.272V99.1049H104.217V91.4679C104.21 91.2702 104.126 91.083 103.984 90.9457C103.841 90.8083 103.651 90.7316 103.453 90.7316C103.256 90.7316 103.066 90.8083 102.923 90.9457C102.781 91.083 102.697 91.2702 102.69 91.4679V99.1049H99.635V89.9449C99.6387 89.8423 99.6217 89.7401 99.585 89.6442C99.5483 89.5483 99.4927 89.4608 99.4214 89.3869C99.3501 89.313 99.2647 89.2543 99.1702 89.2141C99.0758 89.174 98.9742 89.1533 98.8715 89.1533C98.7688 89.1533 98.6672 89.174 98.5728 89.2141C98.4783 89.2543 98.3929 89.313 98.3216 89.3869C98.2503 89.4608 98.1947 89.5483 98.158 89.6442C98.1213 89.7401 98.1043 89.8423 98.108 89.9449V99.1089H95.053V91.4719C95.0458 91.2742 94.9623 91.087 94.8199 90.9497C94.6775 90.8123 94.4873 90.7356 94.2895 90.7356C94.0917 90.7356 93.9015 90.8123 93.7591 90.9497C93.6167 91.087 93.5331 91.2742 93.526 91.4719V99.1089H90.472V89.9449C90.4757 89.8423 90.4587 89.7401 90.422 89.6442C90.3853 89.5483 90.3297 89.4608 90.2584 89.3869C90.1872 89.313 90.1017 89.2543 90.0072 89.2141C89.9128 89.174 89.8112 89.1533 89.7085 89.1533C89.6058 89.1533 89.5042 89.174 89.4098 89.2141C89.3153 89.2543 89.2299 89.313 89.1586 89.3869C89.0873 89.4608 89.0317 89.5483 88.995 89.6442C88.9583 89.7401 88.9413 89.8423 88.945 89.9449V99.1089H85.89V86.8849ZM95.068 100.632C92.534 102.162 87.417 105.581 87.417 108.269V118.961H85.89V100.633L95.068 100.632ZM85.89 125.071V120.489H87.417V123.545C87.4242 123.743 87.5077 123.93 87.6501 124.067C87.7925 124.205 87.9827 124.281 88.1805 124.281C88.3783 124.281 88.5685 124.205 88.7109 124.067C88.8533 123.93 88.9368 123.743 88.944 123.545V120.49H90.472V123.545C90.4791 123.743 90.5627 123.93 90.7051 124.067C90.8475 124.205 91.0377 124.281 91.2355 124.281C91.4333 124.281 91.6235 124.205 91.7659 124.067C91.9083 123.93 91.9918 123.743 91.999 123.545V120.49H93.526V123.545C93.5331 123.743 93.6167 123.93 93.7591 124.067C93.9015 124.205 94.0917 124.281 94.2895 124.281C94.4873 124.281 94.6775 124.205 94.8199 124.067C94.9623 123.93 95.0458 123.743 95.053 123.545V120.49H96.58V123.545C96.5872 123.743 96.6707 123.93 96.8131 124.067C96.9555 124.205 97.1457 124.281 97.3435 124.281C97.5413 124.281 97.7315 124.205 97.8739 124.067C98.0163 123.93 98.0998 123.743 98.107 123.545V120.49H99.634V123.545C99.6412 123.743 99.7247 123.93 99.8671 124.067C100.01 124.205 100.2 124.281 100.397 124.281C100.595 124.281 100.785 124.205 100.928 124.067C101.07 123.93 101.154 123.743 101.161 123.545V120.49H102.688V123.545C102.695 123.743 102.779 123.93 102.921 124.067C103.064 124.205 103.254 124.281 103.451 124.281C103.649 124.281 103.839 124.205 103.982 124.067C104.124 123.93 104.208 123.743 104.215 123.545V120.49H105.742V123.545C105.749 123.743 105.833 123.93 105.975 124.067C106.118 124.205 106.308 124.281 106.506 124.281C106.703 124.281 106.893 124.205 107.036 124.067C107.178 123.93 107.262 123.743 107.269 123.545V120.49H108.796V123.545C108.803 123.743 108.887 123.93 109.029 124.067C109.172 124.205 109.362 124.281 109.56 124.281C109.757 124.281 109.947 124.205 110.09 124.067C110.232 123.93 110.316 123.743 110.323 123.545V120.49H111.85V123.545C111.857 123.743 111.941 123.93 112.083 124.067C112.226 124.205 112.416 124.281 112.614 124.281C112.811 124.281 113.001 124.205 113.144 124.067C113.286 123.93 113.37 123.743 113.377 123.545V120.49H114.904V123.545C114.911 123.743 114.995 123.93 115.137 124.067C115.28 124.205 115.47 124.281 115.668 124.281C115.865 124.281 116.055 124.205 116.198 124.067C116.34 123.93 116.424 123.743 116.431 123.545V120.49H117.958V123.545C117.965 123.743 118.049 123.93 118.191 124.067C118.334 124.205 118.524 124.281 118.722 124.281C118.919 124.281 119.109 124.205 119.252 124.067C119.394 123.93 119.478 123.743 119.485 123.545V120.49H121.012V123.545C121.019 123.743 121.103 123.93 121.245 124.067C121.388 124.205 121.578 124.281 121.776 124.281C121.973 124.281 122.163 124.205 122.306 124.067C122.448 123.93 122.532 123.743 122.539 123.545V120.49H124.072V123.545C124.079 123.743 124.163 123.93 124.305 124.067C124.448 124.205 124.638 124.281 124.836 124.281C125.033 124.281 125.223 124.205 125.366 124.067C125.508 123.93 125.592 123.743 125.599 123.545V120.49H127.126V123.545C127.133 123.743 127.217 123.93 127.359 124.067C127.502 124.205 127.692 124.281 127.89 124.281C128.087 124.281 128.277 124.205 128.42 124.067C128.562 123.93 128.646 123.743 128.653 123.545V120.49H130.18V123.545C130.187 123.743 130.271 123.93 130.413 124.067C130.556 124.205 130.746 124.281 130.944 124.281C131.141 124.281 131.331 124.205 131.474 124.067C131.616 123.93 131.7 123.743 131.707 123.545V120.49H133.234V123.545C133.241 123.743 133.325 123.93 133.467 124.067C133.61 124.205 133.8 124.281 133.997 124.281C134.195 124.281 134.385 124.205 134.528 124.067C134.67 123.93 134.754 123.743 134.761 123.545V120.49H136.288V123.545C136.295 123.743 136.379 123.93 136.521 124.067C136.664 124.205 136.854 124.281 137.052 124.281C137.249 124.281 137.439 124.205 137.582 124.067C137.724 123.93 137.808 123.743 137.815 123.545V120.49H139.342V123.545C139.349 123.743 139.433 123.93 139.575 124.067C139.718 124.205 139.908 124.281 140.105 124.281C140.303 124.281 140.493 124.205 140.636 124.067C140.778 123.93 140.862 123.743 140.869 123.545V120.49H142.396V123.545C142.403 123.743 142.487 123.93 142.629 124.067C142.772 124.205 142.962 124.281 143.159 124.281C143.357 124.281 143.547 124.205 143.69 124.067C143.832 123.93 143.916 123.743 143.923 123.545V120.49H145.45V123.545C145.457 123.743 145.541 123.93 145.683 124.067C145.826 124.205 146.016 124.281 146.214 124.281C146.411 124.281 146.601 124.205 146.744 124.067C146.886 123.93 146.97 123.743 146.977 123.545V120.49H148.504V123.545C148.511 123.743 148.595 123.93 148.737 124.067C148.88 124.205 149.07 124.281 149.267 124.281C149.465 124.281 149.655 124.205 149.798 124.067C149.94 123.93 150.024 123.743 150.031 123.545V120.49H151.572V123.545C151.579 123.743 151.663 123.93 151.805 124.067C151.948 124.205 152.138 124.281 152.336 124.281C152.533 124.281 152.723 124.205 152.866 124.067C153.008 123.93 153.092 123.743 153.099 123.545V125.072L85.89 125.071ZM153.096 118.961H151.572V108.27C151.572 105.489 146.495 102.139 143.947 100.633H153.099L153.096 118.961Z" fill="#0D6963"/>
<path d="M97.014 127.496C96.8867 127.409 96.7359 127.362 96.5815 127.362C96.4271 127.362 96.2763 127.409 96.149 127.496C95.856 127.696 88.949 132.488 88.949 137.29V149.509C88.9453 149.612 88.9623 149.714 88.999 149.81C89.0357 149.906 89.0913 149.993 89.1626 150.067C89.2338 150.141 89.3193 150.2 89.4137 150.24C89.5082 150.28 89.6098 150.301 89.7125 150.301C89.8152 150.301 89.9167 150.28 90.0112 150.24C90.1057 150.2 90.1911 150.141 90.2624 150.067C90.3337 149.993 90.3893 149.906 90.426 149.81C90.4627 149.714 90.4797 149.612 90.476 149.509V137.29C90.476 133.902 95.127 130.16 96.586 129.068C98.045 130.16 102.696 133.902 102.696 137.29V149.509C102.703 149.707 102.787 149.894 102.929 150.031C103.072 150.169 103.262 150.245 103.459 150.245C103.657 150.245 103.847 150.169 103.99 150.031C104.132 149.894 104.216 149.707 104.223 149.509V137.29C104.219 132.488 97.308 127.698 97.014 127.496Z" fill="#0D6963"/>
<path d="M142.837 127.496C142.71 127.409 142.559 127.362 142.404 127.362C142.25 127.362 142.099 127.409 141.972 127.496C141.679 127.696 134.772 132.488 134.772 137.29V149.509C134.768 149.612 134.785 149.714 134.822 149.81C134.859 149.906 134.914 149.993 134.986 150.067C135.057 150.141 135.142 150.2 135.237 150.24C135.331 150.28 135.433 150.301 135.535 150.301C135.638 150.301 135.74 150.28 135.834 150.24C135.929 150.2 136.014 150.141 136.085 150.067C136.157 149.993 136.212 149.906 136.249 149.81C136.286 149.714 136.303 149.612 136.299 149.509V137.29C136.299 133.902 140.95 130.16 142.409 129.068C143.868 130.16 148.519 133.902 148.519 137.29V149.509C148.515 149.612 148.532 149.714 148.569 149.81C148.606 149.906 148.661 149.993 148.733 150.067C148.804 150.141 148.889 150.2 148.984 150.24C149.078 150.28 149.18 150.301 149.282 150.301C149.385 150.301 149.487 150.28 149.581 150.24C149.676 150.2 149.761 150.141 149.832 150.067C149.904 149.993 149.959 149.906 149.996 149.81C150.033 149.714 150.05 149.612 150.046 149.509V137.29C150.042 132.488 143.131 127.698 142.837 127.496Z" fill="#0D6963"/>
<path d="M119.926 127.496C119.799 127.409 119.648 127.362 119.493 127.362C119.339 127.362 119.188 127.409 119.061 127.496C118.768 127.696 111.861 132.488 111.861 137.29V149.509C111.868 149.707 111.952 149.894 112.094 150.031C112.237 150.169 112.427 150.245 112.624 150.245C112.822 150.245 113.012 150.169 113.155 150.031C113.297 149.894 113.381 149.707 113.388 149.509V137.29C113.388 133.902 118.039 130.16 119.498 129.068C120.957 130.16 125.608 133.902 125.608 137.29V149.509C125.604 149.612 125.621 149.714 125.658 149.81C125.695 149.906 125.75 149.993 125.822 150.067C125.893 150.141 125.978 150.2 126.073 150.24C126.167 150.28 126.269 150.301 126.371 150.301C126.474 150.301 126.576 150.28 126.67 150.24C126.765 150.2 126.85 150.141 126.921 150.067C126.993 149.993 127.048 149.906 127.085 149.81C127.122 149.714 127.139 149.612 127.135 149.509V137.29C127.131 132.488 120.22 127.698 119.926 127.496Z" fill="#0D6963"/>
<path d="M93.527 138.818C93.122 138.818 92.7336 138.979 92.4473 139.265C92.1609 139.552 92 139.94 92 140.345V149.509C92 149.914 92.1609 150.303 92.4474 150.589C92.7338 150.875 93.1224 151.036 93.5275 151.036C93.9326 151.036 94.3211 150.875 94.6076 150.589C94.8941 150.303 95.055 149.914 95.055 149.509V140.345C95.055 140.144 95.0155 139.946 94.9387 139.76C94.8619 139.575 94.7493 139.407 94.6074 139.265C94.4655 139.123 94.297 139.011 94.1117 138.934C93.9263 138.857 93.7276 138.818 93.527 138.818Z" fill="#0D6963"/>
<path d="M99.637 138.818C99.232 138.818 98.8436 138.979 98.5573 139.265C98.2709 139.552 98.11 139.94 98.11 140.345V149.509C98.11 149.914 98.2709 150.303 98.5574 150.589C98.8439 150.875 99.2324 151.036 99.6375 151.036C100.043 151.036 100.431 150.875 100.718 150.589C101.004 150.303 101.165 149.914 101.165 149.509V140.345C101.165 140.144 101.125 139.946 101.049 139.76C100.972 139.575 100.859 139.407 100.717 139.265C100.575 139.123 100.407 139.011 100.222 138.934C100.036 138.857 99.8376 138.818 99.637 138.818Z" fill="#0D6963"/>
<path d="M116.438 138.818C116.033 138.818 115.645 138.979 115.358 139.265C115.072 139.552 114.911 139.94 114.911 140.345V149.509C114.911 149.914 115.072 150.303 115.358 150.589C115.645 150.875 116.033 151.036 116.438 151.036C116.844 151.036 117.232 150.875 117.519 150.589C117.805 150.303 117.966 149.914 117.966 149.509V140.345C117.966 140.144 117.926 139.946 117.85 139.76C117.773 139.575 117.66 139.407 117.518 139.265C117.376 139.123 117.208 139.011 117.023 138.934C116.837 138.857 116.639 138.818 116.438 138.818Z" fill="#0D6963"/>
<path d="M122.548 138.818C122.143 138.818 121.755 138.979 121.468 139.265C121.182 139.552 121.021 139.94 121.021 140.345V149.509C121.021 149.914 121.182 150.303 121.468 150.589C121.755 150.875 122.143 151.036 122.548 151.036C122.954 151.036 123.342 150.875 123.629 150.589C123.915 150.303 124.076 149.914 124.076 149.509V140.345C124.076 140.144 124.036 139.946 123.96 139.76C123.883 139.575 123.77 139.407 123.628 139.265C123.486 139.123 123.318 139.011 123.133 138.934C122.947 138.857 122.749 138.818 122.548 138.818Z" fill="#0D6963"/>
<path d="M139.35 138.818C138.945 138.818 138.557 138.979 138.27 139.265C137.984 139.552 137.823 139.94 137.823 140.345V149.509C137.823 149.914 137.984 150.303 138.27 150.589C138.557 150.875 138.945 151.036 139.35 151.036C139.756 151.036 140.144 150.875 140.431 150.589C140.717 150.303 140.878 149.914 140.878 149.509V140.345C140.878 140.144 140.838 139.946 140.762 139.76C140.685 139.575 140.572 139.407 140.43 139.265C140.288 139.123 140.12 139.011 139.935 138.934C139.749 138.857 139.551 138.818 139.35 138.818Z" fill="#0D6963"/>
<path d="M145.459 138.818C145.054 138.818 144.666 138.979 144.379 139.265C144.093 139.552 143.932 139.94 143.932 140.345V149.509C143.932 149.914 144.093 150.303 144.379 150.589C144.666 150.875 145.054 151.036 145.46 151.036C145.865 151.036 146.253 150.875 146.54 150.589C146.826 150.303 146.987 149.914 146.987 149.509V140.345C146.987 140.144 146.947 139.946 146.871 139.76C146.794 139.575 146.681 139.407 146.539 139.265C146.397 139.123 146.229 139.011 146.044 138.934C145.858 138.857 145.66 138.818 145.459 138.818Z" fill="#0D6963"/>
<path d="M119.493 101.396C117.832 101.396 116.208 101.889 114.826 102.812C113.445 103.735 112.368 105.046 111.732 106.581C111.097 108.116 110.93 109.805 111.254 111.435C111.579 113.064 112.379 114.561 113.553 115.736C114.728 116.91 116.225 117.71 117.854 118.035C119.484 118.359 121.173 118.192 122.708 117.557C124.242 116.921 125.554 115.844 126.477 114.463C127.4 113.081 127.893 111.457 127.893 109.796C127.89 107.569 127.004 105.434 125.429 103.859C123.855 102.285 121.72 101.399 119.493 101.396ZM125.076 113.776C125.114 113.648 125.116 113.513 125.084 113.384C125.052 113.254 124.986 113.136 124.893 113.041L123.816 111.958C123.746 111.883 123.662 111.824 123.568 111.782C123.475 111.741 123.374 111.719 123.272 111.717C123.17 111.715 123.068 111.734 122.974 111.772C122.879 111.81 122.793 111.867 122.72 111.939C122.648 112.011 122.59 112.097 122.552 112.192C122.513 112.286 122.494 112.387 122.495 112.49C122.496 112.592 122.518 112.693 122.559 112.786C122.6 112.88 122.659 112.965 122.733 113.035L123.81 114.118C123.881 114.19 123.965 114.247 124.058 114.286C124.151 114.324 124.251 114.344 124.352 114.344C124.464 114.341 124.574 114.314 124.674 114.263C123.637 115.475 122.208 116.286 120.636 116.556C120.752 116.491 120.848 116.398 120.916 116.284C120.983 116.17 121.02 116.04 121.021 115.908V114.381C121.021 114.178 120.941 113.984 120.798 113.841C120.655 113.697 120.461 113.616 120.259 113.616C120.057 113.616 119.863 113.697 119.72 113.839C119.577 113.982 119.496 114.176 119.495 114.378V115.905C119.495 116.062 119.544 116.216 119.636 116.344C119.727 116.472 119.856 116.568 120.005 116.62C119.834 116.632 119.671 116.67 119.496 116.67C118.068 116.668 116.677 116.217 115.519 115.381C115.584 115.403 115.651 115.417 115.719 115.421C115.82 115.421 115.919 115.401 116.012 115.363C116.105 115.324 116.189 115.267 116.26 115.196L117.34 114.116C117.414 114.046 117.474 113.961 117.515 113.868C117.556 113.774 117.578 113.674 117.58 113.571C117.581 113.469 117.562 113.368 117.524 113.273C117.485 113.178 117.428 113.092 117.356 113.02C117.284 112.948 117.198 112.891 117.103 112.852C117.008 112.814 116.907 112.795 116.805 112.796C116.702 112.798 116.602 112.82 116.508 112.861C116.414 112.902 116.33 112.962 116.26 113.036L115.18 114.116C115.07 114.227 114.997 114.37 114.971 114.524C114.945 114.679 114.967 114.838 115.035 114.979C113.824 113.941 113.013 112.513 112.744 110.941C112.809 111.056 112.903 111.152 113.016 111.22C113.13 111.287 113.26 111.323 113.392 111.324H114.919C115.022 111.328 115.124 111.311 115.22 111.274C115.316 111.237 115.403 111.182 115.477 111.11C115.551 111.039 115.61 110.954 115.65 110.859C115.69 110.765 115.711 110.663 115.711 110.56C115.711 110.458 115.69 110.356 115.65 110.262C115.61 110.167 115.551 110.082 115.477 110.011C115.403 109.939 115.316 109.884 115.22 109.847C115.124 109.81 115.022 109.793 114.919 109.797H113.392C113.235 109.797 113.082 109.847 112.955 109.938C112.827 110.029 112.731 110.158 112.68 110.306C112.666 110.135 112.628 109.971 112.628 109.797C112.63 108.368 113.082 106.976 113.919 105.818C113.881 105.946 113.878 106.082 113.91 106.212C113.942 106.342 114.009 106.461 114.102 106.557L115.179 107.635C115.25 107.706 115.334 107.762 115.427 107.801C115.519 107.839 115.619 107.859 115.719 107.859C115.819 107.859 115.919 107.839 116.012 107.801C116.104 107.763 116.189 107.706 116.259 107.635C116.33 107.565 116.387 107.48 116.425 107.388C116.464 107.295 116.483 107.196 116.484 107.095C116.484 106.995 116.464 106.896 116.425 106.803C116.387 106.71 116.331 106.626 116.26 106.555L115.183 105.477C115.071 105.366 114.927 105.293 114.771 105.268C114.616 105.243 114.456 105.267 114.315 105.337C115.354 104.12 116.786 103.306 118.363 103.037C118.247 103.102 118.151 103.196 118.083 103.31C118.015 103.424 117.979 103.553 117.977 103.686V105.21C117.977 105.412 118.057 105.607 118.2 105.75C118.343 105.894 118.537 105.974 118.739 105.975C118.941 105.975 119.135 105.894 119.278 105.752C119.421 105.609 119.502 105.415 119.503 105.213V103.689C119.502 103.531 119.452 103.377 119.36 103.249C119.267 103.12 119.137 103.024 118.987 102.974C119.16 102.96 119.325 102.922 119.5 102.922C120.93 102.924 122.323 103.376 123.482 104.214C123.354 104.176 123.218 104.173 123.088 104.205C122.958 104.237 122.839 104.304 122.743 104.397L121.663 105.472C121.519 105.615 121.438 105.809 121.438 106.012C121.437 106.214 121.518 106.409 121.66 106.552C121.803 106.696 121.998 106.777 122.2 106.777C122.403 106.778 122.597 106.698 122.741 106.555L123.821 105.48C123.932 105.367 124.006 105.223 124.031 105.067C124.056 104.911 124.032 104.751 123.962 104.609C125.179 105.647 125.993 107.079 126.262 108.655C126.197 108.54 126.103 108.443 125.99 108.376C125.876 108.308 125.746 108.272 125.614 108.27H124.088C123.89 108.277 123.703 108.361 123.566 108.503C123.428 108.645 123.352 108.836 123.352 109.033C123.352 109.231 123.428 109.421 123.566 109.564C123.703 109.706 123.89 109.79 124.088 109.797H125.614C125.771 109.796 125.924 109.747 126.051 109.655C126.179 109.564 126.275 109.435 126.326 109.287C126.34 109.457 126.378 109.621 126.378 109.794C126.374 111.225 125.918 112.619 125.076 113.776Z" fill="#0D6963"/>
<path d="M98.873 106.742C98.873 106.289 98.7386 105.846 98.4869 105.469C98.2352 105.092 97.8774 104.799 97.4587 104.625C97.0401 104.452 96.5795 104.407 96.1351 104.495C95.6906 104.583 95.2824 104.802 94.962 105.122C94.6416 105.442 94.4234 105.851 94.335 106.295C94.2466 106.739 94.292 107.2 94.4654 107.619C94.6388 108.037 94.9324 108.395 95.3092 108.647C95.6859 108.899 96.1289 109.033 96.582 109.033C97.1894 109.032 97.7716 108.791 98.2011 108.361C98.6306 107.932 98.8722 107.349 98.873 106.742ZM96.582 107.506C96.4309 107.506 96.2832 107.461 96.1575 107.377C96.0319 107.293 95.934 107.174 95.8762 107.034C95.8183 106.895 95.8032 106.741 95.8327 106.593C95.8622 106.445 95.9349 106.309 96.0418 106.202C96.1486 106.095 96.2848 106.022 96.433 105.993C96.5812 105.963 96.7348 105.978 96.8744 106.036C97.014 106.094 97.1333 106.192 97.2172 106.317C97.3012 106.443 97.346 106.591 97.346 106.742C97.3457 106.944 97.2652 107.139 97.1219 107.282C96.9787 107.425 96.7845 107.506 96.582 107.506Z" fill="#0D6963"/>
<path d="M142.405 104.451C141.952 104.451 141.509 104.585 141.132 104.837C140.755 105.089 140.462 105.447 140.288 105.865C140.115 106.284 140.07 106.744 140.158 107.189C140.246 107.633 140.465 108.042 140.785 108.362C141.105 108.682 141.514 108.901 141.958 108.989C142.402 109.077 142.863 109.032 143.282 108.859C143.7 108.685 144.058 108.392 144.31 108.015C144.562 107.638 144.696 107.195 144.696 106.742C144.695 106.135 144.454 105.552 144.024 105.123C143.595 104.693 143.012 104.452 142.405 104.451ZM142.405 107.506C142.254 107.506 142.106 107.461 141.981 107.377C141.855 107.293 141.757 107.174 141.699 107.034C141.641 106.895 141.626 106.741 141.656 106.593C141.685 106.445 141.758 106.309 141.865 106.202C141.972 106.095 142.108 106.022 142.256 105.993C142.404 105.963 142.558 105.978 142.697 106.036C142.837 106.094 142.956 106.192 143.04 106.317C143.124 106.443 143.169 106.591 143.169 106.742C143.169 106.944 143.088 107.139 142.945 107.282C142.802 107.425 142.608 107.506 142.405 107.506Z" fill="#0D6963"/>
<path d="M119.494 105.979C118.739 105.979 118 106.203 117.372 106.623C116.744 107.042 116.255 107.639 115.966 108.336C115.677 109.034 115.601 109.802 115.748 110.543C115.896 111.284 116.259 111.964 116.794 112.498C117.328 113.032 118.008 113.396 118.749 113.544C119.49 113.691 120.258 113.615 120.955 113.326C121.653 113.037 122.25 112.548 122.669 111.92C123.089 111.292 123.313 110.553 123.313 109.798C123.312 108.785 122.909 107.815 122.193 107.099C121.477 106.383 120.507 105.98 119.494 105.979ZM119.494 112.089C119.041 112.089 118.598 111.955 118.221 111.703C117.844 111.451 117.551 111.093 117.377 110.675C117.204 110.256 117.159 109.795 117.247 109.351C117.335 108.907 117.554 108.498 117.874 108.178C118.194 107.858 118.603 107.639 119.047 107.551C119.491 107.463 119.952 107.508 120.371 107.681C120.789 107.855 121.147 108.148 121.399 108.525C121.651 108.902 121.785 109.345 121.785 109.798C121.784 110.405 121.543 110.988 121.113 111.417C120.684 111.847 120.101 112.088 119.494 112.089Z" fill="#0D6963"/>
<path d="M72.869 151.999C72.5148 151.999 72.1752 151.858 71.9247 151.608C71.6741 151.358 71.5333 151.018 71.533 150.664V138.635C71.533 138.28 71.6738 137.941 71.9244 137.69C72.1751 137.439 72.515 137.298 72.8695 137.298C73.224 137.298 73.5639 137.439 73.8146 137.69C74.0652 137.941 74.206 138.28 74.206 138.635V150.663C74.206 150.838 74.1714 151.012 74.1042 151.174C74.037 151.337 73.9385 151.484 73.8143 151.608C73.6902 151.732 73.5428 151.83 73.3806 151.898C73.2184 151.965 73.0445 151.999 72.869 151.999Z" fill="#0D6963"/>
<path d="M72.873 143.981C69.073 143.981 64.547 142.126 64.547 133.289C64.547 128.456 66.047 115.915 72.873 115.915C79.699 115.915 81.199 128.456 81.199 133.289C81.195 142.126 76.667 143.981 72.873 143.981ZM72.873 118.588C69.184 118.588 67.22 127.127 67.22 133.288C67.22 140.476 70.446 141.307 72.873 141.307C75.3 141.307 78.526 140.476 78.526 133.288C78.523 127.127 76.558 118.588 72.873 118.588Z" fill="#0D6963"/>
</svg>
