<svg width="178" height="153" viewBox="0 0 178 153" fill="none" xmlns="http://www.w3.org/2000/svg">
<path d="M176.384 151.132H144.702C144.553 151.132 144.405 151.103 144.268 151.046C144.13 150.989 144.005 150.905 143.9 150.8C143.794 150.694 143.711 150.569 143.654 150.431C143.598 150.293 143.569 150.145 143.57 149.996V1.39597C143.57 1.20042 143.621 1.00822 143.717 0.838064C143.813 0.667911 143.952 0.525599 144.12 0.424975C144.288 0.324484 144.479 0.269268 144.675 0.264711C144.871 0.260154 145.064 0.306413 145.237 0.398975L176.919 17.372C177.1 17.4684 177.252 17.6124 177.358 17.7886C177.464 17.9648 177.519 18.1665 177.519 18.372V149.996C177.52 150.145 177.491 150.293 177.434 150.431C177.377 150.57 177.294 150.695 177.188 150.801C177.083 150.906 176.957 150.99 176.819 151.047C176.681 151.104 176.533 151.133 176.384 151.132ZM145.833 148.869H175.252V19.045L145.833 3.28397V148.869Z" fill="#0D6963"/>
<path d="M176.384 21.007H168.463C168.293 21.0068 168.125 20.9685 167.971 20.895L152.403 13.388C152.292 13.3347 152.191 13.2638 152.103 13.178L151.831 12.911C151.795 12.8747 151.762 12.8363 151.731 12.796L143.807 2.55897C143.716 2.44161 143.649 2.30742 143.609 2.16406C143.57 2.0207 143.559 1.871 143.578 1.72351C143.596 1.57603 143.644 1.43365 143.717 1.30452C143.791 1.17539 143.889 1.06205 144.007 0.970975C144.244 0.786978 144.545 0.704685 144.842 0.74219C145.14 0.779694 145.411 0.933927 145.595 1.17097L153.551 11.427L168.721 18.741H176.382C176.676 18.7497 176.956 18.8728 177.161 19.084C177.366 19.2953 177.48 19.5781 177.48 19.8725C177.48 20.1669 177.366 20.4497 177.161 20.6609C176.956 20.8722 176.676 20.9952 176.382 21.004L176.384 21.007Z" fill="#0D6963"/>
<path d="M144.704 150.755H144.637C144.488 150.747 144.343 150.709 144.209 150.644C144.074 150.58 143.954 150.489 143.855 150.378C143.756 150.267 143.68 150.137 143.631 149.996C143.583 149.856 143.562 149.707 143.571 149.558L151.494 12.644C151.501 12.4943 151.537 12.3475 151.601 12.212C151.665 12.0765 151.755 11.955 151.866 11.8547C151.977 11.7543 152.107 11.6771 152.249 11.6274C152.39 11.5777 152.54 11.5566 152.689 11.5652C152.839 11.5739 152.985 11.6122 153.12 11.6779C153.254 11.7436 153.375 11.8354 153.474 11.9479C153.572 12.0605 153.648 12.1916 153.696 12.3335C153.744 12.4755 153.763 12.6256 153.752 12.775L145.831 149.689C145.814 149.977 145.688 150.247 145.479 150.446C145.27 150.644 144.992 150.754 144.704 150.755Z" fill="#0D6963"/>
<path d="M176.383 150.755C176.096 150.756 175.82 150.647 175.61 150.451C175.401 150.255 175.274 149.986 175.255 149.7L167.332 20.437C167.314 20.1375 167.416 19.8432 167.615 19.6187C167.814 19.3943 168.094 19.258 168.393 19.24C168.692 19.2219 168.987 19.3236 169.211 19.5226C169.436 19.7215 169.572 20.0015 169.59 20.301L177.511 149.563C177.519 149.711 177.499 149.859 177.45 149.999C177.401 150.138 177.326 150.267 177.227 150.378C177.128 150.488 177.009 150.578 176.876 150.643C176.742 150.707 176.598 150.745 176.45 150.753L176.383 150.755Z" fill="#0D6963"/>
<path d="M144.702 146.795C144.569 146.789 144.443 146.738 144.343 146.65C144.243 146.562 144.177 146.443 144.154 146.312C144.111 146.154 144.13 145.986 144.205 145.841C144.28 145.696 144.407 145.584 144.56 145.528L175.111 136.518C175.187 136.499 175.266 136.497 175.343 136.51C175.419 136.524 175.493 136.553 175.558 136.597C175.622 136.64 175.677 136.697 175.719 136.763C175.761 136.829 175.788 136.903 175.8 136.98C175.842 137.138 175.824 137.306 175.749 137.451C175.674 137.596 175.547 137.708 175.394 137.764L144.843 146.774C144.797 146.788 144.75 146.795 144.702 146.795Z" fill="#0D6963"/>
<path d="M144.701 142.268C144.417 142.268 144.171 141.977 144.14 141.585C144.106 141.407 144.138 141.222 144.23 141.065C144.322 140.909 144.468 140.791 144.64 140.734L175.191 136.118C175.509 136.073 175.783 136.376 175.817 136.797C175.851 136.975 175.819 137.16 175.727 137.316C175.635 137.473 175.489 137.591 175.317 137.648L144.766 142.264C144.744 142.267 144.723 142.268 144.701 142.268Z" fill="#0D6963"/>
<path d="M176.21 152.263H144.876C144.155 152.263 143.57 151.249 143.57 150C143.57 148.751 144.155 147.737 144.876 147.737H176.21C176.931 147.737 177.516 148.751 177.516 150C177.516 151.249 176.931 152.263 176.21 152.263Z" fill="#0D6963"/>
<path d="M138.395 152.263H3.91194C3.40411 152.14 2.95228 151.851 2.62911 151.44C2.30594 151.03 2.13021 150.522 2.13021 150C2.13021 149.478 2.30594 148.97 2.62911 148.56C2.95228 148.149 3.40411 147.86 3.91194 147.737H138.395C138.903 147.86 139.355 148.149 139.678 148.56C140.001 148.97 140.177 149.478 140.177 150C140.177 150.522 140.001 151.03 139.678 151.44C139.355 151.851 138.903 152.14 138.395 152.263Z" fill="#0D6963"/>
<path d="M139.045 151.132H3.26293C3.11423 151.132 2.96698 151.103 2.82958 151.046C2.69218 150.989 2.56735 150.906 2.46221 150.801C2.35707 150.696 2.27369 150.571 2.21685 150.433C2.16 150.296 2.13008 150.149 2.13021 150L2.13094 126.239C2.13081 126.09 2.16 125.943 2.21685 125.806C2.27369 125.668 2.35707 125.543 2.46221 125.438C2.56735 125.333 2.69218 125.25 2.82958 125.193C2.96698 125.136 3.11423 125.107 3.26293 125.107H57.5759C57.8702 125.116 58.1495 125.239 58.3545 125.45C58.5596 125.661 58.6743 125.944 58.6743 126.238C58.6743 126.533 58.5596 126.816 58.3545 127.027C58.1495 127.238 57.8702 127.361 57.5759 127.37H4.39394V148.87H137.913V127.37H84.7309C84.5795 127.374 84.4287 127.349 84.2875 127.294C84.1463 127.239 84.0175 127.156 83.9088 127.051C83.8001 126.945 83.7137 126.819 83.6547 126.679C83.5957 126.54 83.5653 126.39 83.5653 126.238C83.5653 126.087 83.5957 125.937 83.6547 125.798C83.7137 125.658 83.8001 125.532 83.9088 125.426C84.0175 125.321 84.1463 125.238 84.2875 125.183C84.4287 125.128 84.5795 125.102 84.7309 125.107H139.044C139.193 125.107 139.34 125.136 139.477 125.193C139.615 125.25 139.74 125.333 139.845 125.438C139.95 125.543 140.033 125.668 140.09 125.806C140.147 125.943 140.176 126.09 140.176 126.239V150.001C140.176 150.301 140.057 150.589 139.845 150.801C139.633 151.013 139.345 151.132 139.045 151.132Z" fill="#0D6963"/>
<path d="M34.9459 151.132C34.7972 151.132 34.65 151.103 34.5126 151.046C34.3752 150.989 34.2504 150.906 34.1452 150.801C34.0401 150.696 33.9567 150.571 33.8999 150.433C33.843 150.296 33.8138 150.149 33.8139 150V126.239C33.8094 126.088 33.8354 125.937 33.8902 125.796C33.9451 125.654 34.0277 125.526 34.1332 125.417C34.2387 125.308 34.365 125.222 34.5045 125.163C34.644 125.104 34.794 125.073 34.9454 125.073C35.0969 125.073 35.2469 125.104 35.3864 125.163C35.5259 125.222 35.6522 125.308 35.7577 125.417C35.8632 125.526 35.9458 125.654 36.0007 125.796C36.0555 125.937 36.0815 126.088 36.077 126.239V150.001C36.077 150.301 35.9578 150.589 35.7457 150.801C35.5336 151.013 35.2459 151.132 34.9459 151.132Z" fill="#0D6963"/>
<path d="M67.7609 151.131C67.6123 151.131 67.4652 151.102 67.3278 151.045C67.1905 150.988 67.0657 150.905 66.9606 150.8C66.8554 150.695 66.772 150.57 66.7151 150.433C66.6582 150.296 66.629 150.149 66.629 150V131.9C66.6245 131.749 66.6504 131.598 66.7052 131.457C66.7601 131.315 66.8427 131.187 66.9482 131.078C67.0537 130.969 67.18 130.883 67.3195 130.824C67.459 130.765 67.609 130.734 67.7605 130.734C67.9119 130.734 68.0619 130.765 68.2014 130.824C68.3409 130.883 68.4672 130.969 68.5727 131.078C68.6782 131.187 68.7609 131.315 68.8157 131.457C68.8705 131.598 68.8965 131.749 68.892 131.9V150C68.892 150.3 68.7728 150.588 68.5607 150.8C68.3486 151.012 68.0609 151.131 67.7609 151.131Z" fill="#0D6963"/>
<path d="M63.2339 151.131C63.0853 151.131 62.9382 151.102 62.8008 151.045C62.6635 150.988 62.5387 150.905 62.4336 150.8C62.3284 150.695 62.245 150.57 62.1881 150.433C62.1312 150.296 62.102 150.149 62.102 150V131.9C62.0974 131.749 62.1234 131.598 62.1782 131.457C62.2331 131.315 62.3157 131.187 62.4212 131.078C62.5267 130.969 62.653 130.883 62.7925 130.824C62.932 130.765 63.082 130.734 63.2335 130.734C63.3849 130.734 63.5349 130.765 63.6744 130.824C63.8139 130.883 63.9402 130.969 64.0457 131.078C64.1512 131.187 64.2339 131.315 64.2887 131.457C64.3435 131.598 64.3695 131.749 64.365 131.9V150C64.365 150.3 64.2458 150.588 64.0337 150.8C63.8216 151.012 63.5339 151.131 63.2339 151.131Z" fill="#0D6963"/>
<path d="M58.7079 151.131C58.5593 151.131 58.4122 151.102 58.2748 151.045C58.1375 150.988 58.0127 150.905 57.9076 150.8C57.8024 150.695 57.719 150.57 57.6621 150.433C57.6052 150.296 57.576 150.149 57.576 150V131.9C57.5714 131.749 57.5974 131.598 57.6522 131.457C57.7071 131.315 57.7897 131.187 57.8952 131.078C58.0007 130.969 58.127 130.883 58.2665 130.824C58.406 130.765 58.556 130.734 58.7075 130.734C58.8589 130.734 59.0089 130.765 59.1484 130.824C59.2879 130.883 59.4142 130.969 59.5197 131.078C59.6252 131.187 59.7078 131.315 59.7627 131.457C59.8175 131.598 59.8435 131.749 59.839 131.9V150C59.839 150.3 59.7198 150.588 59.5077 150.8C59.2956 151.012 59.0079 151.131 58.7079 151.131Z" fill="#0D6963"/>
<path d="M79.0749 151.131C78.9263 151.131 78.7792 151.102 78.6418 151.045C78.5045 150.988 78.3797 150.905 78.2746 150.8C78.1694 150.695 78.086 150.57 78.0291 150.433C77.9722 150.296 77.943 150.149 77.943 150V131.9C77.9385 131.749 77.9644 131.598 78.0192 131.457C78.0741 131.315 78.1567 131.187 78.2622 131.078C78.3677 130.969 78.494 130.883 78.6335 130.824C78.773 130.765 78.923 130.734 79.0745 130.734C79.2259 130.734 79.3759 130.765 79.5154 130.824C79.6549 130.883 79.7812 130.969 79.8867 131.078C79.9922 131.187 80.0749 131.315 80.1297 131.457C80.1845 131.598 80.2105 131.749 80.206 131.9V150C80.206 150.3 80.0868 150.588 79.8747 150.8C79.6626 151.012 79.3749 151.131 79.0749 151.131Z" fill="#0D6963"/>
<path d="M83.6009 151.131C83.4523 151.131 83.3052 151.102 83.1678 151.045C83.0305 150.988 82.9057 150.905 82.8006 150.8C82.6954 150.695 82.612 150.57 82.5551 150.433C82.4982 150.296 82.469 150.149 82.469 150V131.9C82.4645 131.749 82.4904 131.598 82.5452 131.457C82.6001 131.315 82.6827 131.187 82.7882 131.078C82.8937 130.969 83.02 130.883 83.1595 130.824C83.299 130.765 83.449 130.734 83.6005 130.734C83.7519 130.734 83.9019 130.765 84.0414 130.824C84.1809 130.883 84.3072 130.969 84.4127 131.078C84.5182 131.187 84.6009 131.315 84.6557 131.457C84.7105 131.598 84.7365 131.749 84.732 131.9V150C84.732 150.3 84.6128 150.588 84.4007 150.8C84.1886 151.012 83.9009 151.131 83.6009 151.131Z" fill="#0D6963"/>
<path d="M74.5499 151.131C74.4013 151.131 74.2542 151.102 74.1168 151.045C73.9795 150.988 73.8547 150.905 73.7495 150.8C73.6444 150.695 73.561 150.57 73.5041 150.433C73.4472 150.296 73.4179 150.149 73.4179 150V131.9C73.4267 131.606 73.5497 131.326 73.761 131.121C73.9722 130.916 74.255 130.802 74.5494 130.802C74.8438 130.802 75.1266 130.916 75.3379 131.121C75.5491 131.326 75.6722 131.606 75.6809 131.9V150C75.6809 150.3 75.5618 150.588 75.3497 150.8C75.1376 151.012 74.8499 151.131 74.5499 151.131Z" fill="#0D6963"/>
<path d="M107.362 151.132C107.213 151.132 107.066 151.103 106.929 151.046C106.791 150.989 106.666 150.906 106.561 150.801C106.456 150.696 106.373 150.571 106.316 150.433C106.259 150.296 106.23 150.149 106.23 150V126.239C106.225 126.088 106.251 125.937 106.306 125.796C106.361 125.654 106.444 125.526 106.549 125.417C106.655 125.308 106.781 125.222 106.921 125.163C107.06 125.104 107.21 125.073 107.361 125.073C107.513 125.073 107.663 125.104 107.802 125.163C107.942 125.222 108.068 125.308 108.174 125.417C108.279 125.526 108.362 125.654 108.417 125.796C108.472 125.937 108.497 126.088 108.493 126.239V150.001C108.493 150.301 108.374 150.589 108.162 150.801C107.95 151.013 107.662 151.132 107.362 151.132Z" fill="#0D6963"/>
<path d="M140.177 133.027H2.13193C1.98051 133.031 1.82972 133.006 1.68851 132.951C1.54729 132.896 1.41854 132.813 1.30984 132.708C1.20115 132.602 1.11474 132.476 1.05573 132.336C0.996715 132.197 0.966309 132.047 0.966309 131.895C0.966309 131.744 0.996715 131.594 1.05573 131.455C1.11474 131.315 1.20115 131.189 1.30984 131.083C1.41854 130.978 1.54729 130.895 1.68851 130.84C1.82972 130.785 1.98051 130.759 2.13193 130.764H140.177C140.471 130.773 140.75 130.896 140.956 131.107C141.161 131.318 141.275 131.601 141.275 131.895C141.275 132.19 141.161 132.473 140.956 132.684C140.75 132.895 140.471 133.018 140.177 133.027Z" fill="#0D6963"/>
<path d="M84.7329 133.027H57.5769C57.4283 133.027 57.2812 132.998 57.1438 132.941C57.0065 132.884 56.8817 132.801 56.7765 132.696C56.6714 132.591 56.588 132.466 56.5311 132.329C56.4742 132.192 56.4449 132.045 56.4449 131.896V125.107C56.4448 124.958 56.474 124.811 56.5308 124.674C56.5877 124.536 56.6711 124.411 56.7762 124.306C56.8813 124.201 57.0062 124.118 57.1436 124.061C57.281 124.004 57.4282 123.975 57.5769 123.975H84.7329C84.8816 123.975 85.0289 124.004 85.1663 124.061C85.3037 124.118 85.4285 124.201 85.5337 124.306C85.6388 124.411 85.7222 124.536 85.779 124.674C85.8359 124.811 85.8651 124.958 85.865 125.107V131.896C85.865 132.045 85.8356 132.192 85.7787 132.329C85.7218 132.466 85.6384 132.591 85.5333 132.696C85.4282 132.801 85.3034 132.884 85.1661 132.941C85.0287 132.998 84.8815 133.027 84.7329 133.027ZM58.7079 130.764H83.6009V126.238H58.7079V130.764Z" fill="#0D6963"/>
<path d="M84.7309 126.238H57.5749C57.3294 126.238 57.0906 126.158 56.8946 126.01C56.6986 125.862 56.556 125.654 56.4883 125.418C56.4206 125.182 56.4314 124.931 56.5192 124.701C56.607 124.472 56.7669 124.277 56.9749 124.147L66.0269 118.489C66.207 118.377 66.4148 118.317 66.6269 118.317H75.6789C75.8911 118.317 76.099 118.377 76.2789 118.489L85.3309 124.147C85.5389 124.277 85.6989 124.472 85.7867 124.701C85.8744 124.931 85.8853 125.182 85.8176 125.418C85.7498 125.654 85.6072 125.862 85.4112 126.01C85.2152 126.158 84.9765 126.238 84.7309 126.238ZM61.5199 123.975H80.7849L75.3539 120.58H66.9539L61.5199 123.975Z" fill="#0D6963"/>
<path d="M33.8149 127.37H4.39592C4.15621 127.37 3.92278 127.293 3.72923 127.152C3.53569 127.011 3.39202 126.811 3.31895 126.583C3.24589 126.355 3.2472 126.109 3.32268 125.882C3.39815 125.654 3.5439 125.456 3.73894 125.317L11.6599 119.659C11.8516 119.522 12.0814 119.449 12.3169 119.449H25.8939C26.1295 119.449 26.3592 119.522 26.5509 119.659L34.4719 125.317C34.667 125.456 34.8127 125.654 34.8882 125.882C34.9637 126.109 34.965 126.355 34.8919 126.583C34.8188 126.811 34.6752 127.011 34.4816 127.152C34.2881 127.293 34.0546 127.37 33.8149 127.37ZM7.92693 125.107H30.2839L25.5329 121.712H12.6779L7.92693 125.107Z" fill="#0D6963"/>
<path d="M34.9469 126.238C34.7094 126.238 34.478 126.163 34.2853 126.024C34.0926 125.886 33.9484 125.69 33.8732 125.464C33.798 125.239 33.7956 124.996 33.8662 124.769C33.9369 124.542 34.0771 124.344 34.2669 124.201L38.7929 120.806C38.9889 120.659 39.2271 120.58 39.4719 120.58H62.1019C62.2534 120.575 62.4042 120.601 62.5454 120.656C62.6866 120.711 62.8154 120.794 62.9241 120.899C63.0328 121.005 63.1192 121.131 63.1782 121.271C63.2372 121.41 63.2676 121.56 63.2676 121.711C63.2676 121.863 63.2372 122.013 63.1782 122.152C63.1192 122.292 63.0328 122.418 62.9241 122.524C62.8154 122.629 62.6866 122.712 62.5454 122.767C62.4042 122.822 62.2534 122.847 62.1019 122.843H39.8489L35.6239 126.011C35.4289 126.158 35.1913 126.238 34.9469 126.238Z" fill="#0D6963"/>
<path d="M107.361 126.238C107.116 126.238 106.878 126.159 106.683 126.012L102.458 122.844H80.2059C80.0545 122.848 79.9037 122.823 79.7625 122.768C79.6213 122.713 79.4925 122.63 79.3838 122.525C79.2751 122.419 79.1887 122.293 79.1297 122.153C79.0707 122.014 79.0403 121.864 79.0403 121.712C79.0403 121.561 79.0707 121.411 79.1297 121.272C79.1887 121.132 79.2751 121.006 79.3838 120.9C79.4925 120.795 79.6213 120.712 79.7625 120.657C79.9037 120.602 80.0545 120.576 80.2059 120.581H102.836C103.081 120.581 103.319 120.66 103.515 120.807L108.041 124.202C108.231 124.345 108.371 124.543 108.442 124.77C108.512 124.997 108.51 125.24 108.435 125.465C108.359 125.691 108.215 125.887 108.023 126.025C107.83 126.164 107.598 126.238 107.361 126.238Z" fill="#0D6963"/>
<path d="M137.937 127.37C137.929 127.369 137.921 127.369 137.913 127.37L108.494 127.37C108.254 127.37 108.021 127.293 107.827 127.152C107.634 127.011 107.49 126.811 107.417 126.583C107.344 126.355 107.345 126.109 107.421 125.882C107.496 125.654 107.642 125.456 107.837 125.317L115.758 119.659C115.95 119.522 116.179 119.449 116.415 119.449H129.993C130.228 119.449 130.458 119.522 130.65 119.659L138.45 125.226C138.677 125.341 138.86 125.528 138.967 125.759C139.075 125.99 139.101 126.251 139.042 126.499C138.983 126.746 138.842 126.967 138.643 127.125C138.443 127.283 138.196 127.369 137.941 127.369L137.937 127.37ZM112.026 125.107H134.383L129.632 121.712H116.777L112.026 125.107Z" fill="#0D6963"/>
<path d="M63.7999 131.33C63.6498 131.33 63.5059 131.27 63.3997 131.164C63.2936 131.058 63.2339 130.914 63.2339 130.764V126.238C63.2339 126.088 63.2936 125.944 63.3997 125.838C63.5059 125.732 63.6498 125.672 63.7999 125.672C63.9501 125.672 64.094 125.732 64.2002 125.838C64.3063 125.944 64.3659 126.088 64.3659 126.238V130.764C64.3659 130.838 64.3513 130.912 64.3229 130.981C64.2944 131.049 64.2527 131.112 64.2002 131.164C64.1476 131.217 64.0852 131.258 64.0165 131.287C63.9479 131.315 63.8743 131.33 63.7999 131.33Z" fill="#0D6963"/>
<path d="M78.5089 131.33C78.3588 131.33 78.2149 131.27 78.1087 131.164C78.0026 131.058 77.9429 130.914 77.9429 130.764V126.238C77.9429 126.088 78.0026 125.944 78.1087 125.838C78.2149 125.732 78.3588 125.672 78.5089 125.672C78.6591 125.672 78.803 125.732 78.9092 125.838C79.0153 125.944 79.0749 126.088 79.0749 126.238V130.764C79.0749 130.914 79.0153 131.058 78.9092 131.164C78.803 131.27 78.6591 131.33 78.5089 131.33Z" fill="#0D6963"/>
<path d="M5.52593 126.239H2.13094C1.98083 126.239 1.83685 126.179 1.7307 126.073C1.62456 125.967 1.56493 125.823 1.56493 125.673C1.56493 125.523 1.62456 125.379 1.7307 125.273C1.83685 125.167 1.98083 125.107 2.13094 125.107H5.52593C5.67604 125.107 5.82002 125.167 5.92617 125.273C6.03231 125.379 6.09194 125.523 6.09194 125.673C6.09194 125.823 6.03231 125.967 5.92617 126.073C5.82002 126.179 5.67604 126.239 5.52593 126.239Z" fill="#0D6963"/>
<path d="M140.176 126.239H136.782C136.632 126.239 136.488 126.179 136.382 126.073C136.276 125.967 136.216 125.823 136.216 125.673C136.216 125.523 136.276 125.379 136.382 125.273C136.488 125.167 136.632 125.107 136.782 125.107H140.177C140.327 125.107 140.471 125.167 140.577 125.273C140.683 125.379 140.743 125.523 140.743 125.673C140.743 125.823 140.683 125.967 140.577 126.073C140.471 126.179 140.326 126.239 140.176 126.239Z" fill="#0D6963"/>
<path d="M59.8389 134.159H57.5759C57.4258 134.159 57.2819 134.099 57.1757 133.993C57.0696 133.887 57.0099 133.743 57.0099 133.593C57.0099 133.443 57.0696 133.299 57.1757 133.193C57.2819 133.087 57.4268 133.027 57.5769 133.027H59.8389C59.9891 133.027 60.133 133.087 60.2392 133.193C60.3453 133.299 60.4049 133.443 60.4049 133.593C60.4049 133.743 60.3453 133.887 60.2392 133.993C60.133 134.099 59.9891 134.159 59.8389 134.159Z" fill="#0D6963"/>
<path d="M59.8389 147.737H57.5759C57.4258 147.737 57.2819 147.677 57.1757 147.571C57.0696 147.465 57.0099 147.321 57.0099 147.171C57.0099 147.021 57.0696 146.877 57.1757 146.771C57.2819 146.665 57.4258 146.605 57.5759 146.605H59.8389C59.9891 146.605 60.133 146.665 60.2392 146.771C60.3453 146.877 60.4049 147.021 60.4049 147.171C60.4049 147.321 60.3453 147.465 60.2392 147.571C60.133 147.677 59.9891 147.737 59.8389 147.737Z" fill="#0D6963"/>
<path d="M64.3659 134.159H62.1029C61.9528 134.159 61.8089 134.099 61.7027 133.993C61.5966 133.887 61.5369 133.743 61.5369 133.593C61.5369 133.443 61.5966 133.299 61.7027 133.193C61.8089 133.087 61.9528 133.027 62.1029 133.027H64.3659C64.5161 133.027 64.66 133.087 64.7662 133.193C64.8723 133.299 64.9319 133.443 64.9319 133.593C64.9319 133.743 64.8723 133.887 64.7662 133.993C64.66 134.099 64.5161 134.159 64.3659 134.159Z" fill="#0D6963"/>
<path d="M64.3659 147.737H62.1029C61.9528 147.737 61.8089 147.677 61.7027 147.571C61.5966 147.465 61.5369 147.321 61.5369 147.171C61.5369 147.021 61.5966 146.877 61.7027 146.771C61.8089 146.665 61.9528 146.605 62.1029 146.605H64.3659C64.5161 146.605 64.66 146.665 64.7662 146.771C64.8723 146.877 64.9319 147.021 64.9319 147.171C64.9319 147.321 64.8723 147.465 64.7662 147.571C64.66 147.677 64.5161 147.737 64.3659 147.737Z" fill="#0D6963"/>
<path d="M68.892 134.159H66.629C66.4788 134.159 66.3349 134.099 66.2287 133.993C66.1226 133.887 66.0629 133.743 66.0629 133.593C66.0629 133.443 66.1226 133.299 66.2287 133.193C66.3349 133.087 66.4788 133.027 66.629 133.027H68.892C69.0421 133.027 69.186 133.087 69.2922 133.193C69.3983 133.299 69.4579 133.443 69.4579 133.593C69.4579 133.743 69.3983 133.887 69.2922 133.993C69.186 134.099 69.0421 134.159 68.892 134.159Z" fill="#0D6963"/>
<path d="M68.892 147.737H66.629C66.4788 147.737 66.3349 147.677 66.2287 147.571C66.1226 147.465 66.0629 147.321 66.0629 147.171C66.0629 147.021 66.1226 146.877 66.2287 146.771C66.3349 146.665 66.4788 146.605 66.629 146.605H68.892C69.0421 146.605 69.186 146.665 69.2922 146.771C69.3983 146.877 69.4579 147.021 69.4579 147.171C69.4579 147.321 69.3983 147.465 69.2922 147.571C69.186 147.677 69.0421 147.737 68.892 147.737Z" fill="#0D6963"/>
<path d="M75.6809 134.159H73.4179C73.2678 134.159 73.1239 134.099 73.0177 133.993C72.9116 133.887 72.8519 133.743 72.8519 133.593C72.8519 133.443 72.9116 133.299 73.0177 133.193C73.1239 133.087 73.2678 133.027 73.4179 133.027H75.6809C75.8311 133.027 75.975 133.087 76.0812 133.193C76.1873 133.299 76.2469 133.443 76.2469 133.593C76.2469 133.743 76.1873 133.887 76.0812 133.993C75.975 134.099 75.8311 134.159 75.6809 134.159Z" fill="#0D6963"/>
<path d="M75.6809 147.737H73.4179C73.2678 147.737 73.1239 147.677 73.0177 147.571C72.9116 147.465 72.8519 147.321 72.8519 147.171C72.8519 147.021 72.9116 146.877 73.0177 146.771C73.1239 146.665 73.2678 146.605 73.4179 146.605H75.6809C75.8311 146.605 75.975 146.665 76.0812 146.771C76.1873 146.877 76.2469 147.021 76.2469 147.171C76.2469 147.321 76.1873 147.465 76.0812 147.571C75.975 147.677 75.8311 147.737 75.6809 147.737Z" fill="#0D6963"/>
<path d="M80.2059 134.159H77.9429C77.7928 134.159 77.6489 134.099 77.5427 133.993C77.4366 133.887 77.3769 133.743 77.3769 133.593C77.3769 133.443 77.4366 133.299 77.5427 133.193C77.6489 133.087 77.7928 133.027 77.9429 133.027H80.2059C80.3561 133.027 80.5 133.087 80.6062 133.193C80.7123 133.299 80.7719 133.443 80.7719 133.593C80.7719 133.743 80.7123 133.887 80.6062 133.993C80.5 134.099 80.3561 134.159 80.2059 134.159Z" fill="#0D6963"/>
<path d="M80.2059 147.737H77.9429C77.7928 147.737 77.6489 147.677 77.5427 147.571C77.4366 147.465 77.3769 147.321 77.3769 147.171C77.3769 147.021 77.4366 146.877 77.5427 146.771C77.6489 146.665 77.7928 146.605 77.9429 146.605H80.2059C80.3561 146.605 80.5 146.665 80.6062 146.771C80.7123 146.877 80.7719 147.021 80.7719 147.171C80.7719 147.321 80.7123 147.465 80.6062 147.571C80.5 147.677 80.3561 147.737 80.2059 147.737Z" fill="#0D6963"/>
<path d="M84.7329 134.159H82.4699C82.3198 134.159 82.1759 134.099 82.0697 133.993C81.9636 133.887 81.9039 133.743 81.9039 133.593C81.9039 133.443 81.9636 133.299 82.0697 133.193C82.1759 133.087 82.3198 133.027 82.4699 133.027H84.7329C84.883 133.027 85.027 133.087 85.1332 133.193C85.2393 133.299 85.2989 133.443 85.2989 133.593C85.2989 133.743 85.2393 133.887 85.1332 133.993C85.027 134.099 84.8831 134.159 84.7329 134.159Z" fill="#0D6963"/>
<path d="M84.7329 147.737H82.4699C82.3198 147.737 82.1759 147.677 82.0697 147.571C81.9636 147.465 81.9039 147.321 81.9039 147.171C81.9039 147.021 81.9636 146.877 82.0697 146.771C82.1759 146.665 82.3198 146.605 82.4699 146.605H84.7329C84.8831 146.605 85.027 146.665 85.1332 146.771C85.2393 146.877 85.2989 147.021 85.2989 147.171C85.2989 147.321 85.2393 147.465 85.1332 147.571C85.027 147.677 84.8831 147.737 84.7329 147.737Z" fill="#0D6963"/>
<path d="M71.7199 118.883C71.5698 118.883 71.4259 118.823 71.3197 118.717C71.2136 118.611 71.1539 118.467 71.1539 118.317V112.66C71.1539 112.51 71.2136 112.366 71.3197 112.26C71.4259 112.154 71.5698 112.094 71.7199 112.094C71.8701 112.094 72.014 112.154 72.1202 112.26C72.2263 112.366 72.2859 112.51 72.2859 112.66V118.318C72.2857 118.468 72.2259 118.612 72.1198 118.718C72.0137 118.823 71.8699 118.883 71.7199 118.883Z" fill="#0D6963"/>
<path d="M22.4989 120.769C22.3873 120.768 22.2786 120.733 22.1869 120.669L19.1059 118.615L16.0249 120.669C15.9002 120.744 15.7514 120.768 15.6094 120.736C15.4674 120.704 15.3432 120.619 15.2625 120.498C15.1818 120.377 15.1508 120.229 15.1761 120.086C15.2013 119.942 15.2807 119.814 15.3979 119.728L18.7929 117.465C18.886 117.404 18.995 117.371 19.1064 117.371C19.2179 117.371 19.3269 117.404 19.4199 117.465L22.8149 119.728C22.9157 119.796 22.992 119.894 23.0327 120.008C23.0734 120.122 23.0764 120.247 23.0411 120.363C23.0058 120.479 22.9342 120.58 22.8367 120.653C22.7393 120.725 22.6212 120.764 22.4999 120.764L22.4989 120.769Z" fill="#0D6963"/>
<path d="M123.204 120.769C123.092 120.768 122.984 120.733 122.892 120.669L119.811 118.615L116.73 120.669C116.605 120.744 116.456 120.768 116.314 120.736C116.172 120.704 116.048 120.619 115.967 120.498C115.887 120.377 115.856 120.229 115.881 120.086C115.906 119.942 115.986 119.814 116.103 119.728L119.498 117.465C119.591 117.404 119.7 117.371 119.811 117.371C119.923 117.371 120.032 117.404 120.125 117.465L123.52 119.728C123.621 119.796 123.697 119.894 123.738 120.008C123.778 120.122 123.781 120.247 123.746 120.363C123.711 120.479 123.639 120.58 123.542 120.653C123.444 120.725 123.326 120.764 123.205 120.764L123.204 120.769Z" fill="#0D6963"/>
<path d="M129.993 120.769C129.881 120.768 129.773 120.733 129.681 120.669L126.6 118.615L123.519 120.669C123.394 120.744 123.245 120.768 123.103 120.736C122.961 120.704 122.837 120.619 122.756 120.498C122.676 120.377 122.645 120.229 122.67 120.086C122.695 119.942 122.775 119.814 122.892 119.728L126.287 117.465C126.38 117.404 126.489 117.371 126.6 117.371C126.712 117.371 126.821 117.404 126.914 117.465L130.309 119.728C130.41 119.796 130.486 119.894 130.527 120.008C130.567 120.122 130.57 120.247 130.535 120.363C130.5 120.479 130.428 120.58 130.331 120.653C130.233 120.725 130.115 120.764 129.994 120.764L129.993 120.769Z" fill="#0D6963"/>
<path d="M57.5769 140.948H36.0769C35.9268 140.948 35.7828 140.888 35.6767 140.782C35.5706 140.676 35.5109 140.532 35.5109 140.382C35.5109 140.232 35.5706 140.088 35.6767 139.982C35.7828 139.876 35.9268 139.816 36.0769 139.816H57.5769C57.7271 139.816 57.871 139.876 57.9771 139.982C58.0833 140.088 58.143 140.232 58.143 140.382C58.143 140.532 58.0833 140.676 57.9771 140.782C57.871 140.888 57.7271 140.948 57.5769 140.948Z" fill="#0D6963"/>
<path d="M106.231 140.948H84.7309C84.5808 140.948 84.4368 140.888 84.3307 140.782C84.2246 140.676 84.1649 140.532 84.1649 140.382C84.1649 140.232 84.2246 140.088 84.3307 139.982C84.4368 139.876 84.5808 139.816 84.7309 139.816H106.231C106.381 139.816 106.525 139.876 106.631 139.982C106.737 140.088 106.797 140.232 106.797 140.382C106.797 140.532 106.737 140.676 106.631 140.782C106.525 140.888 106.381 140.948 106.231 140.948Z" fill="#0D6963"/>
<path d="M34.9449 142.08H3.26295C3.11284 142.08 2.96886 142.02 2.86271 141.914C2.75656 141.808 2.69694 141.664 2.69694 141.514C2.69694 141.364 2.75656 141.22 2.86271 141.114C2.96886 141.008 3.11284 140.948 3.26295 140.948H34.9449C35.095 140.948 35.239 141.008 35.3452 141.114C35.4513 141.22 35.5109 141.364 35.5109 141.514C35.5109 141.664 35.4513 141.808 35.3452 141.914C35.239 142.02 35.095 142.08 34.9449 142.08Z" fill="#0D6963"/>
<path d="M34.9449 136.422H3.26295C3.11284 136.422 2.96886 136.362 2.86271 136.256C2.75656 136.15 2.69694 136.006 2.69694 135.856C2.69694 135.706 2.75656 135.562 2.86271 135.456C2.96886 135.35 3.11284 135.29 3.26295 135.29H34.9449C35.095 135.29 35.239 135.35 35.3452 135.456C35.4513 135.562 35.5109 135.706 35.5109 135.856C35.5109 136.006 35.4513 136.15 35.3452 136.256C35.239 136.362 35.095 136.422 34.9449 136.422Z" fill="#0D6963"/>
<path d="M139.045 136.422H107.363C107.213 136.422 107.069 136.362 106.963 136.256C106.857 136.15 106.797 136.006 106.797 135.856C106.797 135.706 106.857 135.562 106.963 135.456C107.069 135.35 107.213 135.29 107.363 135.29H139.045C139.195 135.29 139.339 135.35 139.445 135.456C139.551 135.562 139.611 135.706 139.611 135.856C139.611 136.006 139.551 136.15 139.445 136.256C139.339 136.362 139.195 136.422 139.045 136.422Z" fill="#0D6963"/>
<path d="M139.045 142.08H107.363C107.213 142.08 107.069 142.02 106.963 141.914C106.857 141.808 106.797 141.664 106.797 141.514C106.797 141.364 106.857 141.22 106.963 141.114C107.069 141.008 107.213 140.948 107.363 140.948H139.045C139.195 140.948 139.339 141.008 139.445 141.114C139.551 141.22 139.611 141.364 139.611 141.514C139.611 141.664 139.551 141.808 139.445 141.914C139.339 142.02 139.195 142.08 139.045 142.08Z" fill="#0D6963"/>
<path d="M38.9059 140.382C38.7558 140.382 38.6119 140.322 38.5057 140.216C38.3996 140.11 38.3399 139.966 38.3399 139.816V133.027C38.3399 132.877 38.3996 132.733 38.5057 132.627C38.6119 132.521 38.7558 132.461 38.9059 132.461C39.0561 132.461 39.2 132.521 39.3062 132.627C39.4123 132.733 39.4719 132.877 39.4719 133.027V139.816C39.4719 139.89 39.4573 139.964 39.4289 140.033C39.4004 140.101 39.3587 140.164 39.3062 140.216C39.2536 140.269 39.1912 140.31 39.1225 140.339C39.0539 140.367 38.9803 140.382 38.9059 140.382Z" fill="#0D6963"/>
<path d="M42.2999 140.382C42.1498 140.382 42.0059 140.322 41.8997 140.216C41.7936 140.11 41.7339 139.966 41.7339 139.816V133.027C41.7339 132.877 41.7936 132.733 41.8997 132.627C42.0059 132.521 42.1498 132.461 42.2999 132.461C42.4501 132.461 42.594 132.521 42.7002 132.627C42.8063 132.733 42.8659 132.877 42.8659 133.027V139.816C42.8659 139.966 42.8063 140.11 42.7002 140.216C42.594 140.322 42.4501 140.382 42.2999 140.382Z" fill="#0D6963"/>
<path d="M45.695 140.382C45.5448 140.382 45.4009 140.322 45.2947 140.216C45.1886 140.11 45.1289 139.966 45.1289 139.816V133.027C45.1289 132.877 45.1886 132.733 45.2947 132.627C45.4009 132.521 45.5448 132.461 45.695 132.461C45.8451 132.461 45.989 132.521 46.0952 132.627C46.2013 132.733 46.2609 132.877 46.2609 133.027V139.816C46.2609 139.966 46.2013 140.11 46.0952 140.216C45.989 140.322 45.8451 140.382 45.695 140.382Z" fill="#0D6963"/>
<path d="M49.0889 140.382C48.9388 140.382 48.7949 140.322 48.6887 140.216C48.5826 140.11 48.5229 139.966 48.5229 139.816V133.027C48.5229 132.877 48.5826 132.733 48.6887 132.627C48.7949 132.521 48.9388 132.461 49.0889 132.461C49.2391 132.461 49.383 132.521 49.4892 132.627C49.5953 132.733 49.6549 132.877 49.6549 133.027V139.816C49.6549 139.966 49.5953 140.11 49.4892 140.216C49.383 140.322 49.2391 140.382 49.0889 140.382Z" fill="#0D6963"/>
<path d="M52.4839 140.382C52.3338 140.382 52.1899 140.322 52.0837 140.216C51.9776 140.11 51.9179 139.966 51.9179 139.816V133.027C51.9179 132.877 51.9776 132.733 52.0837 132.627C52.1899 132.521 52.3338 132.461 52.4839 132.461C52.6341 132.461 52.778 132.521 52.8842 132.627C52.9903 132.733 53.0499 132.877 53.0499 133.027V139.816C53.0499 139.966 52.9903 140.11 52.8842 140.216C52.778 140.322 52.6341 140.382 52.4839 140.382Z" fill="#0D6963"/>
<path d="M55.8789 140.382C55.7288 140.382 55.5849 140.322 55.4787 140.216C55.3726 140.11 55.3129 139.966 55.3129 139.816V133.027C55.3129 132.877 55.3726 132.733 55.4787 132.627C55.5849 132.521 55.7288 132.461 55.8789 132.461C56.0291 132.461 56.173 132.521 56.2792 132.627C56.3853 132.733 56.4449 132.877 56.4449 133.027V139.816C56.4449 139.966 56.3853 140.11 56.2792 140.216C56.173 140.322 56.0291 140.382 55.8789 140.382Z" fill="#0D6963"/>
<path d="M86.4289 140.382C86.2788 140.382 86.1349 140.322 86.0287 140.216C85.9226 140.11 85.8629 139.966 85.8629 139.816V133.027C85.8629 132.877 85.9226 132.733 86.0287 132.627C86.1349 132.521 86.2788 132.461 86.4289 132.461C86.5791 132.461 86.723 132.521 86.8292 132.627C86.9353 132.733 86.9949 132.877 86.9949 133.027V139.816C86.9949 139.966 86.9353 140.11 86.8292 140.216C86.723 140.322 86.5791 140.382 86.4289 140.382Z" fill="#0D6963"/>
<path d="M89.824 140.382C89.6738 140.382 89.5299 140.322 89.4237 140.216C89.3176 140.11 89.2579 139.966 89.2579 139.816V133.027C89.2579 132.877 89.3176 132.733 89.4237 132.627C89.5299 132.521 89.6738 132.461 89.824 132.461C89.9741 132.461 90.118 132.521 90.2242 132.627C90.3303 132.733 90.3899 132.877 90.3899 133.027V139.816C90.3899 139.966 90.3303 140.11 90.2242 140.216C90.118 140.322 89.9741 140.382 89.824 140.382Z" fill="#0D6963"/>
<path d="M93.2179 140.382C93.0678 140.382 92.9239 140.322 92.8177 140.216C92.7116 140.11 92.6519 139.966 92.6519 139.816V133.027C92.6519 132.877 92.7116 132.733 92.8177 132.627C92.9239 132.521 93.0678 132.461 93.2179 132.461C93.3681 132.461 93.512 132.521 93.6182 132.627C93.7243 132.733 93.7839 132.877 93.7839 133.027V139.816C93.7839 139.966 93.7243 140.11 93.6182 140.216C93.512 140.322 93.3681 140.382 93.2179 140.382Z" fill="#0D6963"/>
<path d="M96.6129 140.382C96.4628 140.382 96.3189 140.322 96.2127 140.216C96.1066 140.11 96.0469 139.966 96.0469 139.816V133.027C96.0469 132.877 96.1066 132.733 96.2127 132.627C96.3189 132.521 96.4628 132.461 96.6129 132.461C96.7631 132.461 96.907 132.521 97.0132 132.627C97.1193 132.733 97.1789 132.877 97.1789 133.027V139.816C97.1789 139.966 97.1193 140.11 97.0132 140.216C96.907 140.322 96.7631 140.382 96.6129 140.382Z" fill="#0D6963"/>
<path d="M100.007 140.382C99.8568 140.382 99.7129 140.322 99.6067 140.216C99.5006 140.11 99.4409 139.966 99.4409 139.816V133.027C99.4409 132.877 99.5006 132.733 99.6067 132.627C99.7129 132.521 99.8568 132.461 100.007 132.461C100.157 132.461 100.301 132.521 100.407 132.627C100.513 132.733 100.573 132.877 100.573 133.027V139.816C100.573 139.966 100.513 140.11 100.407 140.216C100.301 140.322 100.157 140.382 100.007 140.382Z" fill="#0D6963"/>
<path d="M103.402 140.382C103.252 140.382 103.108 140.322 103.002 140.216C102.896 140.11 102.836 139.966 102.836 139.816V133.027C102.836 132.877 102.896 132.733 103.002 132.627C103.108 132.521 103.252 132.461 103.402 132.461C103.552 132.461 103.696 132.521 103.802 132.627C103.908 132.733 103.968 132.877 103.968 133.027V139.816C103.968 139.966 103.908 140.11 103.802 140.216C103.696 140.322 103.552 140.382 103.402 140.382Z" fill="#0D6963"/>
<path d="M42.2999 149.999H38.9049C38.7553 149.999 38.6119 149.939 38.5061 149.834C38.4002 149.728 38.3405 149.585 38.3399 149.435V144.535C38.2632 144.195 38.2639 143.843 38.342 143.504C38.42 143.165 38.5734 142.847 38.7907 142.575C39.0081 142.303 39.2838 142.084 39.5975 141.933C39.9112 141.782 40.2548 141.704 40.6029 141.704C40.951 141.704 41.2947 141.782 41.6084 141.933C41.9221 142.084 42.1978 142.303 42.4151 142.575C42.6325 142.847 42.7859 143.165 42.8639 143.504C42.9419 143.843 42.9426 144.195 42.8659 144.535V149.435C42.8654 149.585 42.8056 149.728 42.6995 149.834C42.5934 149.94 42.4497 149.999 42.2999 149.999ZM39.4709 148.867H41.7339V144.535C41.7339 143.614 41.2159 142.835 40.6019 142.835C39.9879 142.835 39.4699 143.611 39.4699 144.535L39.4709 148.867Z" fill="#0D6963"/>
<path d="M47.9579 149.999H44.5629C44.4133 149.999 44.2699 149.939 44.1641 149.834C44.0582 149.728 43.9985 149.585 43.9979 149.435V144.535C43.9213 144.195 43.9219 143.843 44 143.504C44.078 143.165 44.2314 142.847 44.4487 142.575C44.6661 142.303 44.9418 142.084 45.2555 141.933C45.5692 141.782 45.9128 141.704 46.2609 141.704C46.609 141.704 46.9527 141.782 47.2664 141.933C47.5801 142.084 47.8558 142.303 48.0731 142.575C48.2905 142.847 48.4439 143.165 48.5219 143.504C48.5999 143.843 48.6006 144.195 48.5239 144.535V149.435C48.5234 149.585 48.4636 149.728 48.3575 149.834C48.2514 149.94 48.1077 149.999 47.9579 149.999ZM45.1289 148.867H47.3919V144.535C47.3919 143.614 46.8739 142.835 46.2599 142.835C45.6459 142.835 45.1279 143.611 45.1279 144.535L45.1289 148.867Z" fill="#0D6963"/>
<path d="M53.6139 149.999H50.2189C50.0693 149.999 49.9259 149.939 49.8201 149.834C49.7142 149.728 49.6545 149.585 49.6539 149.435V144.535C49.5772 144.195 49.5779 143.843 49.656 143.504C49.734 143.165 49.8874 142.847 50.1047 142.575C50.3221 142.303 50.5978 142.084 50.9115 141.933C51.2252 141.782 51.5688 141.704 51.9169 141.704C52.265 141.704 52.6087 141.782 52.9224 141.933C53.2361 142.084 53.5118 142.303 53.7291 142.575C53.9465 142.847 54.0999 143.165 54.1779 143.504C54.2559 143.843 54.2566 144.195 54.1799 144.535V149.435C54.1794 149.585 54.1196 149.728 54.0135 149.834C53.9074 149.94 53.7637 149.999 53.6139 149.999ZM50.7849 148.867H53.0479V144.535C53.0479 143.614 52.5299 142.835 51.9159 142.835C51.3019 142.835 50.7839 143.611 50.7839 144.535L50.7849 148.867Z" fill="#0D6963"/>
<path d="M103.401 149.999H100.006C99.8563 149.999 99.7129 149.939 99.6071 149.834C99.5012 149.728 99.4415 149.585 99.4409 149.435V144.535C99.3642 144.195 99.3649 143.843 99.443 143.504C99.521 143.165 99.6744 142.847 99.8917 142.575C100.109 142.303 100.385 142.084 100.699 141.933C101.012 141.782 101.356 141.704 101.704 141.704C102.052 141.704 102.396 141.782 102.709 141.933C103.023 142.084 103.299 142.303 103.516 142.575C103.733 142.847 103.887 143.165 103.965 143.504C104.043 143.843 104.044 144.195 103.967 144.535V149.435C103.966 149.585 103.907 149.728 103.8 149.834C103.694 149.94 103.551 149.999 103.401 149.999ZM100.572 148.867H102.835V144.535C102.835 143.614 102.317 142.835 101.703 142.835C101.089 142.835 100.572 143.611 100.572 144.535V148.867Z" fill="#0D6963"/>
<path d="M97.7449 149.999H94.3499C94.2003 149.999 94.0569 149.939 93.9511 149.834C93.8452 149.728 93.7855 149.585 93.7849 149.435V144.535C93.7082 144.195 93.7089 143.843 93.787 143.504C93.865 143.165 94.0184 142.847 94.2357 142.575C94.4531 142.303 94.7288 142.084 95.0425 141.933C95.3562 141.782 95.6998 141.704 96.0479 141.704C96.396 141.704 96.7397 141.782 97.0534 141.933C97.3671 142.084 97.6428 142.303 97.8601 142.575C98.0775 142.847 98.2309 143.165 98.3089 143.504C98.3869 143.843 98.3876 144.195 98.3109 144.535V149.435C98.3104 149.585 98.2506 149.728 98.1445 149.834C98.0384 149.94 97.8947 149.999 97.7449 149.999ZM94.9159 148.867H97.1789V144.535C97.1789 143.614 96.6609 142.835 96.0469 142.835C95.4329 142.835 94.9149 143.611 94.9149 144.535L94.9159 148.867Z" fill="#0D6963"/>
<path d="M92.0869 149.999H88.6919C88.5423 149.999 88.3989 149.939 88.2931 149.834C88.1872 149.728 88.1275 149.585 88.1269 149.435V144.535C88.0502 144.195 88.0509 143.843 88.129 143.504C88.207 143.165 88.3604 142.847 88.5777 142.575C88.7951 142.303 89.0708 142.084 89.3845 141.933C89.6982 141.782 90.0418 141.704 90.3899 141.704C90.738 141.704 91.0817 141.782 91.3954 141.933C91.7091 142.084 91.9848 142.303 92.2021 142.575C92.4195 142.847 92.5729 143.165 92.6509 143.504C92.7289 143.843 92.7296 144.195 92.6529 144.535V149.435C92.6524 149.585 92.5926 149.728 92.4865 149.834C92.3804 149.94 92.2367 149.999 92.0869 149.999ZM89.2579 148.867H91.5209V144.535C91.5209 143.614 91.0029 142.835 90.3889 142.835C89.7749 142.835 89.2569 143.611 89.2569 144.535L89.2579 148.867Z" fill="#0D6963"/>
<path d="M9.48695 142.079H7.22395C7.07384 142.079 6.92986 142.019 6.82371 141.913C6.71756 141.807 6.65794 141.663 6.65794 141.513V135.855C6.65794 135.705 6.71756 135.561 6.82371 135.455C6.92986 135.349 7.07384 135.289 7.22395 135.289H9.48695C9.63706 135.289 9.78101 135.349 9.88716 135.455C9.9933 135.561 10.0529 135.705 10.0529 135.855V141.513C10.0529 141.663 9.9933 141.807 9.88716 141.913C9.78101 142.019 9.63706 142.079 9.48695 142.079ZM7.78694 140.947H8.91893V136.421H7.78694V140.947Z" fill="#0D6963"/>
<path d="M15.1429 142.079H12.8799C12.7298 142.079 12.5859 142.019 12.4797 141.913C12.3736 141.807 12.3139 141.663 12.3139 141.513V135.855C12.3139 135.705 12.3736 135.561 12.4797 135.455C12.5859 135.349 12.7298 135.289 12.8799 135.289H15.1429C15.2931 135.289 15.437 135.349 15.5432 135.455C15.6493 135.561 15.7089 135.705 15.7089 135.855V141.513C15.7089 141.663 15.6493 141.807 15.5432 141.913C15.437 142.019 15.2931 142.079 15.1429 142.079ZM13.4429 140.947H14.5749V136.421H13.4429V140.947Z" fill="#0D6963"/>
<path d="M20.8019 142.079H18.5389C18.3888 142.079 18.2449 142.019 18.1387 141.913C18.0326 141.807 17.9729 141.663 17.9729 141.513V135.855C17.9729 135.705 18.0326 135.561 18.1387 135.455C18.2449 135.349 18.3888 135.289 18.5389 135.289H20.8019C20.9521 135.289 21.096 135.349 21.2022 135.455C21.3083 135.561 21.3679 135.705 21.3679 135.855V141.513C21.3679 141.663 21.3083 141.807 21.2022 141.913C21.096 142.019 20.9521 142.079 20.8019 142.079ZM19.1019 140.947H20.2339V136.421H19.1019V140.947Z" fill="#0D6963"/>
<path d="M26.4599 142.079H24.1969C24.0468 142.079 23.9029 142.019 23.7967 141.913C23.6906 141.807 23.6309 141.663 23.6309 141.513V135.855C23.6309 135.705 23.6906 135.561 23.7967 135.455C23.9029 135.349 24.0468 135.289 24.1969 135.289H26.4599C26.6101 135.289 26.754 135.349 26.8602 135.455C26.9663 135.561 27.0259 135.705 27.0259 135.855V141.513C27.0259 141.663 26.9663 141.807 26.8602 141.913C26.754 142.019 26.6101 142.079 26.4599 142.079ZM24.7599 140.947H25.8919V136.421H24.7599V140.947Z" fill="#0D6963"/>
<path d="M32.1159 142.079H29.8529C29.7028 142.079 29.5589 142.019 29.4527 141.913C29.3466 141.807 29.2869 141.663 29.2869 141.513V135.855C29.2869 135.705 29.3466 135.561 29.4527 135.455C29.5589 135.349 29.7028 135.289 29.8529 135.289H32.1159C32.2661 135.289 32.41 135.349 32.5162 135.455C32.6223 135.561 32.6819 135.705 32.6819 135.855V141.513C32.6819 141.663 32.6223 141.807 32.5162 141.913C32.41 142.019 32.2661 142.079 32.1159 142.079ZM30.4159 140.947H31.5469V136.421H30.4159V140.947Z" fill="#0D6963"/>
<path d="M135.085 142.079H132.822C132.672 142.079 132.528 142.019 132.422 141.913C132.316 141.807 132.256 141.663 132.256 141.513V135.855C132.256 135.705 132.316 135.561 132.422 135.455C132.528 135.349 132.672 135.289 132.822 135.289H135.085C135.235 135.289 135.379 135.349 135.485 135.455C135.591 135.561 135.651 135.705 135.651 135.855V141.513C135.651 141.663 135.591 141.807 135.485 141.913C135.379 142.019 135.235 142.079 135.085 142.079ZM133.385 140.947H134.517V136.421H133.385V140.947Z" fill="#0D6963"/>
<path d="M129.427 142.079H127.164C127.014 142.079 126.87 142.019 126.764 141.913C126.658 141.807 126.598 141.663 126.598 141.513V135.855C126.598 135.705 126.658 135.561 126.764 135.455C126.87 135.349 127.014 135.289 127.164 135.289H129.427C129.577 135.289 129.721 135.349 129.827 135.455C129.933 135.561 129.993 135.705 129.993 135.855V141.513C129.993 141.663 129.933 141.807 129.827 141.913C129.721 142.019 129.577 142.079 129.427 142.079ZM127.727 140.947H128.859V136.421H127.727V140.947Z" fill="#0D6963"/>
<path d="M123.77 142.079H121.507C121.357 142.079 121.213 142.019 121.107 141.913C121.001 141.807 120.941 141.663 120.941 141.513V135.855C120.941 135.705 121.001 135.561 121.107 135.455C121.213 135.349 121.357 135.289 121.507 135.289H123.77C123.92 135.289 124.064 135.349 124.17 135.455C124.276 135.561 124.336 135.705 124.336 135.855V141.513C124.336 141.663 124.276 141.807 124.17 141.913C124.064 142.019 123.92 142.079 123.77 142.079ZM122.07 140.947H123.202V136.421H122.07V140.947Z" fill="#0D6963"/>
<path d="M118.112 142.079H115.849C115.699 142.079 115.555 142.019 115.449 141.913C115.343 141.807 115.283 141.663 115.283 141.513V135.855C115.283 135.705 115.343 135.561 115.449 135.455C115.555 135.349 115.699 135.289 115.849 135.289H118.112C118.262 135.289 118.406 135.349 118.512 135.455C118.618 135.561 118.678 135.705 118.678 135.855V141.513C118.678 141.663 118.618 141.807 118.512 141.913C118.406 142.019 118.262 142.079 118.112 142.079ZM116.412 140.947H117.544V136.421H116.412V140.947Z" fill="#0D6963"/>
<path d="M112.454 142.079H110.191C110.041 142.079 109.897 142.019 109.791 141.913C109.685 141.807 109.625 141.663 109.625 141.513V135.855C109.625 135.705 109.685 135.561 109.791 135.455C109.897 135.349 110.041 135.289 110.191 135.289H112.454C112.604 135.289 112.748 135.349 112.854 135.455C112.96 135.561 113.02 135.705 113.02 135.855V141.513C113.02 141.663 112.96 141.807 112.854 141.913C112.748 142.019 112.604 142.079 112.454 142.079ZM110.754 140.947H111.885V136.421H110.754V140.947Z" fill="#0D6963"/>
</svg>
