<svg width="242" height="140" viewBox="0 0 242 140" fill="none" xmlns="http://www.w3.org/2000/svg">
<path d="M13.704 39.3152H12.807C12.2547 39.3152 11.807 39.7629 11.807 40.3152V41.2122C11.807 41.7645 12.2547 42.2122 12.807 42.2122H13.704C14.2563 42.2122 14.704 41.7645 14.704 41.2122V40.3152C14.704 39.7629 14.2563 39.3152 13.704 39.3152Z" fill="#0D6963"/>
<path d="M96.71 62.6891C96.71 58.1891 90.119 52.3491 88.017 50.6031V45.1101H85.117V50.6031C83.017 52.3491 76.424 58.1851 76.424 62.6891V97.9421H69.024L57.973 88.8741C57.973 88.8741 53.942 42.6741 49.91 42.6741C45.878 42.6741 41.847 88.8741 41.847 88.8741L30.799 97.9431H23.399V62.6891C23.399 58.1891 16.808 52.3491 14.706 50.6031V45.1101H11.81V50.6031C9.70999 52.3491 3.10999 58.1851 3.10999 62.6891V138.316H96.71V62.6891ZM51.359 61.3451L54.54 86.0571L51.359 83.4461V61.3451ZM48.459 61.3451V83.4451L45.28 86.0561L48.459 61.3451ZM49.91 86.0051L64.454 97.9431H35.366L49.91 86.0051ZM11.81 62.6891C11.9544 60.2462 12.4422 57.8359 13.259 55.5291C14.0756 57.8359 14.5631 60.2462 14.707 62.6891V72.8951H11.81V62.6891ZM6.00998 62.6891C6.00998 61.0101 7.85699 58.5051 10.01 56.2361C9.3645 58.3301 8.99472 60.4994 8.90999 62.6891V72.8951H6.00998V62.6891ZM20.5 135.416H6.00998V113.396H20.5V135.416ZM20.5 110.497H6.00998V94.5971H20.5V110.497ZM20.5 91.6971H6.00998V75.7971H20.5V91.6971ZM20.5 72.8971H17.6V62.6891C17.5153 60.4994 17.1455 58.3301 16.5 56.2361C18.655 58.5051 20.5 61.0101 20.5 62.6891V72.8971ZM76.423 135.416H23.397V100.84H76.422L76.423 135.416ZM85.116 62.6871C85.2604 60.2442 85.7482 57.8339 86.565 55.5271C87.3816 57.8339 87.869 60.2442 88.013 62.6871V72.8951H85.113V62.6891L85.116 62.6871ZM79.316 62.6871C79.316 61.0081 81.163 58.5031 83.316 56.2341C82.6705 58.3281 82.3007 60.4974 82.216 62.6871V72.8951H79.316V62.6871ZM93.81 135.416H79.32V113.396H93.81V135.416ZM93.81 110.497H79.32V94.5971H93.81V110.497ZM93.81 91.6971H79.32V75.7971H93.81V91.6971ZM93.81 72.8971H90.91V62.6891C90.8253 60.4994 90.4555 58.3301 89.81 56.2361C91.965 58.5051 93.81 61.0101 93.81 62.6891V72.8971Z" fill="#0D6963"/>
<path d="M87.013 39.3152H86.116C85.5637 39.3152 85.116 39.7629 85.116 40.3152V41.2122C85.116 41.7645 85.5637 42.2122 86.116 42.2122H87.013C87.5653 42.2122 88.013 41.7645 88.013 41.2122V40.3152C88.013 39.7629 87.5653 39.3152 87.013 39.3152Z" fill="#0D6963"/>
<path d="M49.911 104.317C47.4782 104.32 45.1458 105.287 43.4255 107.008C41.7052 108.728 40.7376 111.06 40.735 113.493V126.339H59.089V113.493C59.0863 111.06 58.1185 108.727 56.3978 107.007C54.6771 105.287 52.3441 104.319 49.911 104.317ZM48.462 123.445H43.633V117.264H48.462V123.445ZM48.462 114.366H43.633V113.497C43.6351 112.085 44.1126 110.714 44.9887 109.606C45.8647 108.499 47.0882 107.718 48.462 107.39V114.366ZM56.189 123.445H51.359V117.264H56.189V123.445ZM56.189 114.366H51.359V107.385C52.7328 107.713 53.9563 108.494 54.8323 109.601C55.7083 110.709 56.1859 112.08 56.188 113.492L56.189 114.366Z" fill="#0D6963"/>
<path d="M59.052 129.815H58.155C57.6027 129.815 57.155 130.263 57.155 130.815V131.712C57.155 132.264 57.6027 132.712 58.155 132.712H59.052C59.6043 132.712 60.052 132.264 60.052 131.712V130.815C60.052 130.263 59.6043 129.815 59.052 129.815Z" fill="#0D6963"/>
<path d="M35.871 129.815H34.974C34.4217 129.815 33.974 130.263 33.974 130.815V131.712C33.974 132.264 34.4217 132.712 34.974 132.712H35.871C36.4233 132.712 36.871 132.264 36.871 131.712V130.815C36.871 130.263 36.4233 129.815 35.871 129.815Z" fill="#0D6963"/>
<path d="M70.641 129.815H69.744C69.1917 129.815 68.744 130.263 68.744 130.815V131.712C68.744 132.264 69.1917 132.712 69.744 132.712H70.641C71.1933 132.712 71.641 132.264 71.641 131.712V130.815C71.641 130.263 71.1933 129.815 70.641 129.815Z" fill="#0D6963"/>
<path d="M64.846 129.815H63.949C63.3967 129.815 62.949 130.263 62.949 130.815V131.712C62.949 132.264 63.3967 132.712 63.949 132.712H64.846C65.3983 132.712 65.846 132.264 65.846 131.712V130.815C65.846 130.263 65.3983 129.815 64.846 129.815Z" fill="#0D6963"/>
<path d="M41.6659 129.815H40.7689C40.2166 129.815 39.7689 130.263 39.7689 130.815V131.712C39.7689 132.264 40.2166 132.712 40.7689 132.712H41.6659C42.2182 132.712 42.6659 132.264 42.6659 131.712V130.815C42.6659 130.263 42.2182 129.815 41.6659 129.815Z" fill="#0D6963"/>
<path d="M30.076 129.815H29.179C28.6267 129.815 28.179 130.263 28.179 130.815V131.712C28.179 132.264 28.6267 132.712 29.179 132.712H30.076C30.6282 132.712 31.076 132.264 31.076 131.712V130.815C31.076 130.263 30.6282 129.815 30.076 129.815Z" fill="#0D6963"/>
<path d="M53.256 129.815H52.359C51.8067 129.815 51.359 130.263 51.359 130.815V131.712C51.359 132.264 51.8067 132.712 52.359 132.712H53.256C53.8083 132.712 54.256 132.264 54.256 131.712V130.815C54.256 130.263 53.8083 129.815 53.256 129.815Z" fill="#0D6963"/>
<path d="M47.461 129.815H46.564C46.0117 129.815 45.564 130.263 45.564 130.815V131.712C45.564 132.264 46.0117 132.712 46.564 132.712H47.461C48.0132 132.712 48.461 132.264 48.461 131.712V130.815C48.461 130.263 48.0132 129.815 47.461 129.815Z" fill="#0D6963"/>
<path d="M30.076 121.316H29.179C28.6267 121.316 28.179 121.764 28.179 122.316V123.213C28.179 123.765 28.6267 124.213 29.179 124.213H30.076C30.6282 124.213 31.076 123.765 31.076 123.213V122.316C31.076 121.764 30.6282 121.316 30.076 121.316Z" fill="#0D6963"/>
<path d="M35.871 121.316H34.974C34.4217 121.316 33.974 121.764 33.974 122.316V123.213C33.974 123.765 34.4217 124.213 34.974 124.213H35.871C36.4233 124.213 36.871 123.765 36.871 123.213V122.316C36.871 121.764 36.4233 121.316 35.871 121.316Z" fill="#0D6963"/>
<path d="M30.076 112.816H29.179C28.6267 112.816 28.179 113.264 28.179 113.816V114.713C28.179 115.265 28.6267 115.713 29.179 115.713H30.076C30.6282 115.713 31.076 115.265 31.076 114.713V113.816C31.076 113.264 30.6282 112.816 30.076 112.816Z" fill="#0D6963"/>
<path d="M35.871 112.816H34.974C34.4217 112.816 33.974 113.264 33.974 113.816V114.713C33.974 115.265 34.4217 115.713 34.974 115.713H35.871C36.4233 115.713 36.871 115.265 36.871 114.713V113.816C36.871 113.264 36.4233 112.816 35.871 112.816Z" fill="#0D6963"/>
<path d="M64.5089 121.316H63.6119C63.0597 121.316 62.6119 121.764 62.6119 122.316V123.213C62.6119 123.765 63.0597 124.213 63.6119 124.213H64.5089C65.0612 124.213 65.5089 123.765 65.5089 123.213V122.316C65.5089 121.764 65.0612 121.316 64.5089 121.316Z" fill="#0D6963"/>
<path d="M70.304 121.316H69.407C68.8547 121.316 68.407 121.764 68.407 122.316V123.213C68.407 123.765 68.8547 124.213 69.407 124.213H70.304C70.8563 124.213 71.304 123.765 71.304 123.213V122.316C71.304 121.764 70.8563 121.316 70.304 121.316Z" fill="#0D6963"/>
<path d="M70.304 112.816H69.407C68.8547 112.816 68.407 113.264 68.407 113.816V114.713C68.407 115.265 68.8547 115.713 69.407 115.713H70.304C70.8563 115.713 71.304 115.265 71.304 114.713V113.816C71.304 113.264 70.8563 112.816 70.304 112.816Z" fill="#0D6963"/>
<path d="M64.5089 112.816H63.6119C63.0597 112.816 62.6119 113.264 62.6119 113.816V114.713C62.6119 115.265 63.0597 115.713 63.6119 115.713H64.5089C65.0612 115.713 65.5089 115.265 65.5089 114.713V113.816C65.5089 113.264 65.0612 112.816 64.5089 112.816Z" fill="#0D6963"/>
<path d="M30.076 104.317H29.179C28.6267 104.317 28.179 104.765 28.179 105.317V106.214C28.179 106.766 28.6267 107.214 29.179 107.214H30.076C30.6282 107.214 31.076 106.766 31.076 106.214V105.317C31.076 104.765 30.6282 104.317 30.076 104.317Z" fill="#0D6963"/>
<path d="M35.871 104.317H34.974C34.4217 104.317 33.974 104.765 33.974 105.317V106.214C33.974 106.766 34.4217 107.214 34.974 107.214H35.871C36.4233 107.214 36.871 106.766 36.871 106.214V105.317C36.871 104.765 36.4233 104.317 35.871 104.317Z" fill="#0D6963"/>
<path d="M70.304 104.317H69.407C68.8547 104.317 68.407 104.765 68.407 105.317V106.214C68.407 106.766 68.8547 107.214 69.407 107.214H70.304C70.8563 107.214 71.304 106.766 71.304 106.214V105.317C71.304 104.765 70.8563 104.317 70.304 104.317Z" fill="#0D6963"/>
<path d="M64.5089 104.317H63.6119C63.0597 104.317 62.6119 104.765 62.6119 105.317V106.214C62.6119 106.766 63.0597 107.214 63.6119 107.214H64.5089C65.0612 107.214 65.5089 106.766 65.5089 106.214V105.317C65.5089 104.765 65.0612 104.317 64.5089 104.317Z" fill="#0D6963"/>
<path d="M97 134.974H2C0.89543 134.974 0 135.87 0 136.974C0 138.079 0.89543 138.974 2 138.974H97C98.1046 138.974 99 138.079 99 136.974C99 135.87 98.1046 134.974 97 134.974Z" fill="#0D6963"/>
<path d="M21.5 109.974H1.5C0.671573 109.974 0 110.646 0 111.474C0 112.303 0.671573 112.974 1.5 112.974H21.5C22.3284 112.974 23 112.303 23 111.474C23 110.646 22.3284 109.974 21.5 109.974Z" fill="#0D6963"/>
<path d="M59.5 123.974H40.5C39.6716 123.974 39 124.646 39 125.474C39 126.303 39.6716 126.974 40.5 126.974H59.5C60.3284 126.974 61 126.303 61 125.474C61 124.646 60.3284 123.974 59.5 123.974Z" fill="#0D6963"/>
<path d="M95 109.974H75C74.1716 109.974 73.5 110.646 73.5 111.474C73.5 112.303 74.1716 112.974 75 112.974H95C95.8284 112.974 96.5 112.303 96.5 111.474C96.5 110.646 95.8284 109.974 95 109.974Z" fill="#0D6963"/>
<path d="M24.5 91.9741H1.5C0.671573 91.9741 0 92.6457 0 93.4741C0 94.3025 0.671573 94.9741 1.5 94.9741H24.5C25.3284 94.9741 26 94.3025 26 93.4741C26 92.6457 25.3284 91.9741 24.5 91.9741Z" fill="#0D6963"/>
<path d="M98 91.9741H75C74.1716 91.9741 73.5 92.6457 73.5 93.4741C73.5 94.3025 74.1716 94.9741 75 94.9741H98C98.8284 94.9741 99.5 94.3025 99.5 93.4741C99.5 92.6457 98.8284 91.9741 98 91.9741Z" fill="#0D6963"/>
<path d="M24.5 72.9741H1.5C0.671573 72.9741 0 73.6457 0 74.4741C0 75.3025 0.671573 75.9741 1.5 75.9741H24.5C25.3284 75.9741 26 75.3025 26 74.4741C26 73.6457 25.3284 72.9741 24.5 72.9741Z" fill="#0D6963"/>
<path d="M98 72.9741H75C74.1716 72.9741 73.5 73.6457 73.5 74.4741C73.5 75.3025 74.1716 75.9741 75 75.9741H98C98.8284 75.9741 99.5 75.3025 99.5 74.4741C99.5 73.6457 98.8284 72.9741 98 72.9741Z" fill="#0D6963"/>
<path d="M14.801 51.9741V44.9741C14.801 44.1457 14.1295 43.4741 13.301 43.4741C12.4726 43.4741 11.801 44.1457 11.801 44.9741V51.9741C11.801 52.8025 12.4726 53.4741 13.301 53.4741C14.1295 53.4741 14.801 52.8025 14.801 51.9741Z" fill="#0D6963"/>
<path d="M47.9325 94.9453L50.9961 92.3736C51.6306 91.841 51.7132 90.8948 51.1806 90.2603C50.648 89.6258 49.7018 89.5432 49.0673 90.0758L46.0037 92.6476C45.3691 93.1802 45.2865 94.1263 45.8192 94.7608C46.3518 95.3953 47.2979 95.4779 47.9325 94.9453Z" fill="#0D6963"/>
<path d="M53.9962 92.6464L50.932 90.0753C50.2974 89.5428 49.3513 89.6255 48.8188 90.2601C48.2863 90.8948 48.3691 91.8409 49.0037 92.3734L52.0678 94.9445C52.7025 95.4771 53.6486 95.3943 54.1811 94.7597C54.7136 94.1251 54.6308 93.1789 53.9962 92.6464Z" fill="#0D6963"/>
<path d="M88.1 51.9741V44.9741C88.1 44.1457 87.4284 43.4741 86.6 43.4741C85.7715 43.4741 85.1 44.1457 85.1 44.9741V51.9741C85.1 52.8025 85.7715 53.4741 86.6 53.4741C87.4284 53.4741 88.1 52.8025 88.1 51.9741Z" fill="#0D6963"/>
<path d="M115.882 117.167H115.453C114.348 117.167 113.453 118.062 113.453 119.167V119.596C113.453 120.701 114.348 121.596 115.453 121.596H115.882C116.986 121.596 117.882 120.701 117.882 119.596V119.167C117.882 118.062 116.986 117.167 115.882 117.167Z" fill="#0D6963"/>
<path d="M126.956 117.167H126.527C125.422 117.167 124.527 118.062 124.527 119.167V119.596C124.527 120.701 125.422 121.596 126.527 121.596H126.956C128.06 121.596 128.956 120.701 128.956 119.596V119.167C128.956 118.062 128.06 117.167 126.956 117.167Z" fill="#0D6963"/>
<path d="M115.882 92.805H115.453C114.348 92.805 113.453 93.7004 113.453 94.805V95.234C113.453 96.3386 114.348 97.234 115.453 97.234H115.882C116.986 97.234 117.882 96.3386 117.882 95.234V94.805C117.882 93.7004 116.986 92.805 115.882 92.805Z" fill="#0D6963"/>
<path d="M126.956 92.805H126.527C125.422 92.805 124.527 93.7004 124.527 94.805V95.234C124.527 96.3386 125.422 97.234 126.527 97.234H126.956C128.06 97.234 128.956 96.3386 128.956 95.234V94.805C128.956 93.7004 128.06 92.805 126.956 92.805Z" fill="#0D6963"/>
<path d="M171.251 83.946H170.822C169.717 83.946 168.822 84.8414 168.822 85.946V95.234C168.822 96.3386 169.717 97.234 170.822 97.234H171.251C172.355 97.234 173.251 96.3386 173.251 95.234V85.946C173.251 84.8414 172.355 83.946 171.251 83.946Z" fill="#0D6963"/>
<path d="M157.963 83.946H157.534C156.429 83.946 155.534 84.8414 155.534 85.946V95.234C155.534 96.3386 156.429 97.234 157.534 97.234H157.963C159.067 97.234 159.963 96.3386 159.963 95.234V85.946C159.963 84.8414 159.067 83.946 157.963 83.946Z" fill="#0D6963"/>
<path d="M144.674 86.16H144.245C143.14 86.16 142.245 87.0554 142.245 88.16V95.234C142.245 96.3386 143.14 97.234 144.245 97.234H144.674C145.778 97.234 146.674 96.3386 146.674 95.234V88.16C146.674 87.0554 145.778 86.16 144.674 86.16Z" fill="#0D6963"/>
<path d="M197.828 86.16H197.399C196.294 86.16 195.399 87.0554 195.399 88.16V95.234C195.399 96.3386 196.294 97.234 197.399 97.234H197.828C198.932 97.234 199.828 96.3386 199.828 95.234V88.16C199.828 87.0554 198.932 86.16 197.828 86.16Z" fill="#0D6963"/>
<path d="M184.54 83.946H184.111C183.006 83.946 182.111 84.8414 182.111 85.946V95.234C182.111 96.3386 183.006 97.234 184.111 97.234H184.54C185.644 97.234 186.54 96.3386 186.54 95.234V85.946C186.54 84.8414 185.644 83.946 184.54 83.946Z" fill="#0D6963"/>
<path d="M206.472 75.087V68.442H210.901V62.529L190.969 54.321V26.362H190.309C189.173 23.9129 187.403 21.8121 185.183 20.2771C182.962 18.7422 180.371 17.8289 177.679 17.632V8.644H173.251V2H168.822V8.644H164.392V17.631C161.7 17.8281 159.109 18.7415 156.889 20.2765C154.669 21.8114 152.899 23.9122 151.764 26.361H151.104V54.321L131.172 62.529V68.443H135.601V75.087H102.379V139.315H239.694V75.087H206.472ZM135.601 134.887H106.809V130.458H135.601V134.887ZM135.601 126.028H106.809V112.737H135.601V126.028ZM135.601 108.31H128.957V101.663H124.527V108.307H117.879V101.663H113.453V108.307H106.809V88.375H135.601V108.31ZM135.601 83.948H106.809V79.516H135.601V83.948ZM185.194 26.362H181.732C181.442 25.1336 181.022 23.9395 180.479 22.8C182.366 23.4996 184.005 24.7382 185.194 26.362ZM168.822 13.074H173.251V17.5H168.822V13.074ZM168.822 21.933H173.251C175.282 21.933 176.467 24.378 177.096 26.362H164.968C165.591 24.378 166.771 21.933 168.822 21.933ZM161.597 22.803C161.051 23.9407 160.63 25.1339 160.341 26.362H156.879C158.07 24.7394 159.71 23.5011 161.597 22.8V22.803ZM155.534 30.792H186.54V35.221H155.534V30.792ZM186.54 39.651V52.5L184.325 51.588V39.651H186.54ZM179.896 39.651V49.761L171.037 46.113L162.179 49.761V39.651H179.896ZM155.534 39.651H157.749V51.586L155.534 52.498V39.651ZM144.46 134.885H140.03V130.456H144.459L144.46 134.885ZM155.534 134.885H148.889V130.456H155.533L155.534 134.885ZM168.822 134.885H159.963V130.456H168.822V134.885ZM182.11 134.885H173.252V130.456H182.111L182.11 134.885ZM193.183 134.885H186.54V130.456H193.184L193.183 134.885ZM202.042 134.885H197.614V130.456H202.043L202.042 134.885ZM202.042 126.026H197.614V119.382H193.184V126.026H186.54V117.167H182.11V126.026H173.251V117.167H168.822V126.026H159.963V117.167H155.533V126.026H148.889V119.382H144.46V126.026H140.03V110.526H202.043L202.042 126.026ZM140.03 106.093V77.3H148.889V106.092L140.03 106.093ZM153.318 106.093V77.3H162.179V106.092L153.318 106.093ZM166.606 106.093V77.3H175.465V106.092L166.606 106.093ZM179.894 106.093V77.3H188.753V106.092L179.894 106.093ZM202.041 106.093H193.184V77.3H202.043L202.041 106.093ZM202.041 72.872H140.03V68.442H202.043L202.041 72.872ZM160.391 64.013L171.037 59.754L181.679 64.013H160.391ZM193.611 64.013L171.036 54.983L148.461 64.013H139.202L171.037 50.906L202.872 64.013H193.611ZM206.472 79.513H235.264V83.942H206.473L206.472 79.513ZM206.472 88.371H235.264V108.304H228.62V101.663H224.191V108.307H217.547V101.663H213.118V108.307H206.474L206.472 88.371ZM235.264 134.881H206.473V130.452H235.265L235.264 134.881ZM235.264 126.022H206.473V112.737H235.265L235.264 126.022Z" fill="#0D6963"/>
<path d="M226.62 117.167H226.191C225.086 117.167 224.191 118.062 224.191 119.167V119.596C224.191 120.701 225.086 121.596 226.191 121.596H226.62C227.724 121.596 228.62 120.701 228.62 119.596V119.167C228.62 118.062 227.724 117.167 226.62 117.167Z" fill="#0D6963"/>
<path d="M215.546 117.167H215.117C214.012 117.167 213.117 118.062 213.117 119.167V119.596C213.117 120.701 214.012 121.596 215.117 121.596H215.546C216.65 121.596 217.546 120.701 217.546 119.596V119.167C217.546 118.062 216.65 117.167 215.546 117.167Z" fill="#0D6963"/>
<path d="M226.62 92.805H226.191C225.086 92.805 224.191 93.7004 224.191 94.805V95.234C224.191 96.3386 225.086 97.234 226.191 97.234H226.62C227.724 97.234 228.62 96.3386 228.62 95.234V94.805C228.62 93.7004 227.724 92.805 226.62 92.805Z" fill="#0D6963"/>
<path d="M215.546 92.805H215.117C214.012 92.805 213.117 93.7004 213.117 94.805V95.234C213.117 96.3386 214.012 97.234 215.117 97.234H215.546C216.65 97.234 217.546 96.3386 217.546 95.234V94.805C217.546 93.7004 216.65 92.805 215.546 92.805Z" fill="#0D6963"/>
<path d="M148.389 119.774C148.389 118.827 147.621 118.059 146.674 118.059C145.728 118.059 144.96 118.827 144.96 119.774V127.418C144.96 128.365 145.728 129.133 146.674 129.133C147.621 129.133 148.389 128.365 148.389 127.418V119.774Z" fill="#0D6963"/>
<path d="M159.463 117.774C159.463 116.827 158.695 116.059 157.748 116.059C156.802 116.059 156.034 116.827 156.034 117.774V125.418C156.034 126.365 156.802 127.133 157.748 127.133C158.695 127.133 159.463 126.365 159.463 125.418V117.774Z" fill="#0D6963"/>
<path d="M172.751 115.774C172.751 114.827 171.983 114.059 171.036 114.059C170.09 114.059 169.322 114.827 169.322 115.774V123.418C169.322 124.365 170.09 125.133 171.036 125.133C171.983 125.133 172.751 124.365 172.751 123.418V115.774Z" fill="#0D6963"/>
<path d="M186.04 117.774C186.04 116.827 185.272 116.059 184.325 116.059C183.379 116.059 182.611 116.827 182.611 117.774V125.418C182.611 126.365 183.379 127.133 184.325 127.133C185.272 127.133 186.04 126.365 186.04 125.418V117.774Z" fill="#0D6963"/>
<path d="M197.114 119.774C197.114 118.827 196.346 118.059 195.399 118.059C194.453 118.059 193.685 118.827 193.685 119.774V127.418C193.685 128.365 194.453 129.133 195.399 129.133C196.346 129.133 197.114 128.365 197.114 127.418V119.774Z" fill="#0D6963"/>
<path d="M217.045 102.345C217.045 101.398 216.277 100.63 215.33 100.63C214.384 100.63 213.616 101.398 213.616 102.345V109.989C213.616 110.936 214.384 111.704 215.33 111.704C216.277 111.704 217.045 110.936 217.045 109.989V102.345Z" fill="#0D6963"/>
<path d="M117.384 101.345C117.384 100.398 116.616 99.63 115.669 99.63C114.723 99.63 113.955 100.398 113.955 101.345V108.989C113.955 109.936 114.723 110.704 115.669 110.704C116.616 110.704 117.384 109.936 117.384 108.989V101.345Z" fill="#0D6963"/>
<path d="M112.384 71.345C112.384 70.3978 111.616 69.63 110.669 69.63C109.723 69.63 108.955 70.3978 108.955 71.345V75.989C108.955 76.9362 109.723 77.704 110.669 77.704C111.616 77.704 112.384 76.9362 112.384 75.989V71.345Z" fill="#0D6963"/>
<path d="M139.534 58.345C139.534 57.3978 138.766 56.63 137.819 56.63C136.873 56.63 136.105 57.3978 136.105 58.345V64.989C136.105 65.9362 136.873 66.704 137.819 66.704C138.766 66.704 139.534 65.9362 139.534 64.989V58.345Z" fill="#0D6963"/>
<path d="M205.984 58.345C205.984 57.3978 205.216 56.63 204.269 56.63C203.323 56.63 202.555 57.3978 202.555 58.345V64.989C202.555 65.9362 203.323 66.704 204.269 66.704C205.216 66.704 205.984 65.9362 205.984 64.989V58.345Z" fill="#0D6963"/>
<path d="M172.75 1.715C172.75 0.767832 171.982 0 171.035 0C170.089 0 169.321 0.767832 169.321 1.715V8.359C169.321 9.30617 170.089 10.074 171.035 10.074C171.982 10.074 172.75 9.30617 172.75 8.359V1.715Z" fill="#0D6963"/>
<path d="M233.384 71.345C233.384 70.3978 232.616 69.63 231.669 69.63C230.723 69.63 229.955 70.3978 229.955 71.345V75.989C229.955 76.9362 230.723 77.704 231.669 77.704C232.616 77.704 233.384 76.9362 233.384 75.989V71.345Z" fill="#0D6963"/>
<path d="M228.12 102.345C228.12 101.398 227.352 100.63 226.405 100.63C225.459 100.63 224.691 101.398 224.691 102.345V109.989C224.691 110.936 225.459 111.704 226.405 111.704C227.352 111.704 228.12 110.936 228.12 109.989V102.345Z" fill="#0D6963"/>
<path d="M128.458 101.345C128.458 100.398 127.69 99.63 126.743 99.63C125.797 99.63 125.029 100.398 125.029 101.345V108.989C125.029 109.936 125.797 110.704 126.743 110.704C127.69 110.704 128.458 109.936 128.458 108.989V101.345Z" fill="#0D6963"/>
<path d="M191.106 25.9741H151.106C150.001 25.9741 149.106 26.8696 149.106 27.9741C149.106 29.0787 150.001 29.9741 151.106 29.9741H191.106C192.211 29.9741 193.106 29.0787 193.106 27.9741C193.106 26.8696 192.211 25.9741 191.106 25.9741Z" fill="#0D6963"/>
<path d="M239.106 134.974H102.106C101.001 134.974 100.106 135.87 100.106 136.974C100.106 138.079 101.001 138.974 102.106 138.974H239.106C240.211 138.974 241.106 138.079 241.106 136.974C241.106 135.87 240.211 134.974 239.106 134.974Z" fill="#0D6963"/>
</svg>
