<svg width="20" height="21" viewBox="0 0 20 21" fill="none" xmlns="http://www.w3.org/2000/svg">
<path d="M3.22391 17.1142H4.10708V17.2918C4.10708 18.9234 5.55335 20.2504 7.33099 20.2504H16.7755C18.5537 20.2504 20 18.9234 20 17.2918V6.17927C20 4.54807 18.5537 3.22055 16.7755 3.22055H15.8924V3.04299C15.8924 1.41118 14.4466 0.0842285 12.6684 0.0842285H3.22391C1.44627 0.0842285 0 1.41124 0 3.04299V14.1554C0 15.7866 1.44627 17.1142 3.22391 17.1142ZM16.7755 4.18911C17.9735 4.18911 18.9444 5.08015 18.9444 6.17927V17.2918C18.9444 18.3909 17.9735 19.282 16.7755 19.282H7.33104C6.13351 19.282 5.16271 18.3909 5.16271 17.2918V6.17927C5.16271 5.0801 6.13351 4.18911 7.33104 4.18911H16.7755ZM1.05501 3.04299C1.05501 1.94383 2.02582 1.05279 3.22391 1.05279H12.6684C13.8665 1.05279 14.8373 1.94383 14.8373 3.04299V3.22055H7.33104C5.5534 3.22055 4.10713 4.54807 4.10713 6.17927V16.1456H3.22391C2.02582 16.1456 1.05501 15.254 1.05501 14.1554V3.04299Z" fill="white"/>
<path d="M6.97029 7.20546C6.73846 7.20546 6.55078 7.39319 6.55078 7.62502C6.55078 7.8568 6.73846 8.04454 6.97029 8.04454H15.362C15.5938 8.04454 15.7815 7.8568 15.7815 7.62502C15.7815 7.39319 15.5938 7.20546 15.362 7.20546H6.97029Z" fill="white"/>
<path d="M8.29612 10.4758C8.29612 10.7076 8.48442 10.8953 8.71625 10.8953H16.5798C16.8117 10.8953 17 10.7076 17 10.4758C17 10.2439 16.8117 10.0557 16.5798 10.0557H8.71625C8.48442 10.0557 8.29612 10.2439 8.29612 10.4758Z" fill="white"/>
<path d="M14.7599 13.3259C14.7599 13.0941 14.572 12.9064 14.3403 12.9064H6.97029C6.73846 12.9064 6.55078 13.0941 6.55078 13.3259C6.55078 13.5577 6.73846 13.7461 6.97029 13.7461H14.3403C14.572 13.7461 14.7599 13.5577 14.7599 13.3259Z" fill="white"/>
<path d="M16.5798 15.7572H9.67346C9.44168 15.7572 9.25395 15.945 9.25395 16.1768C9.25395 16.4086 9.44168 16.5962 9.67346 16.5962H16.5798C16.8117 16.5962 17 16.4086 17 16.1768C17 15.945 16.8117 15.7572 16.5798 15.7572Z" fill="white"/>
</svg>
