<svg width="30" height="32" viewBox="0 0 30 32" fill="none" xmlns="http://www.w3.org/2000/svg">
<path fill-rule="evenodd" clip-rule="evenodd" d="M8.05384 7.48584C8.18519 7.65675 8.39011 7.76998 8.60936 7.774L8.77503 7.77497C8.94312 7.84685 9.12848 7.88674 9.32317 7.88674H9.36911C7.18287 9.51714 5.76542 12.117 5.76542 15.0401C5.76542 19.0392 8.41816 22.4332 12.0638 23.5686C11.8388 23.8255 11.6011 24.1469 11.4425 24.4988C7.48496 23.1448 4.63391 19.4024 4.63391 15.0094C4.63391 12.0156 5.95816 9.32407 8.05384 7.48584ZM12.6813 21.7791C9.75271 20.9096 7.61261 18.2037 7.61261 15.0095C7.61261 11.114 10.796 7.94498 14.7086 7.94498C18.6208 7.94498 21.8039 11.114 21.8039 15.0095C21.8039 17.3426 20.6623 19.4151 18.9058 20.7012C18.7679 20.4342 18.2547 20.1293 17.723 20.0476C19.452 19.0148 20.6111 17.13 20.6111 14.9808C20.6111 11.7245 17.9498 9.07476 14.6788 9.07476C11.4069 9.07476 8.74551 11.7245 8.74551 14.9808C8.74551 17.5405 10.3898 19.7253 12.6813 20.5417V21.7791ZM21.7677 7.86112C23.6277 9.68127 24.7825 12.2135 24.7825 15.0094C24.7825 17.5009 23.8656 19.7831 22.3496 21.5389C21.8919 21.3041 21.4618 21.2447 21.1927 21.2351C22.7512 19.6287 23.7095 17.4437 23.7095 15.0401C23.7095 12.117 22.2921 9.51714 20.106 7.88674H21.5041C21.5946 7.88674 21.683 7.87808 21.7677 7.86112ZM12.6813 18.7745C11.3343 18.0529 10.417 16.636 10.417 15.0096C10.417 12.6537 12.3422 10.7372 14.7085 10.7372C17.0744 10.7372 18.9995 12.6537 18.9995 15.0096C18.9995 16.5684 18.1569 17.9349 16.9018 18.6802C16.9018 18.2758 16.899 17.8253 16.8951 17.3764C17.5298 16.7955 17.9277 15.9628 17.9277 15.0393C17.9277 13.2883 16.4969 11.8635 14.7383 11.8635C12.9792 11.8635 11.5484 13.2883 11.5484 15.0393C11.5484 16.0106 11.9886 16.8816 12.6813 17.464V18.7745Z" fill="url(#paint0_radial_1483_2012)"/>
<path fill-rule="evenodd" clip-rule="evenodd" d="M26.1452 7.84972C27.4731 9.92999 28.2425 12.3966 28.2425 15.0389C28.2425 22.4533 22.185 28.4851 14.74 28.4851C7.2941 28.4851 1.23605 22.4533 1.23605 15.0389C1.23605 12.438 1.9816 10.0073 3.27118 7.9491L3.4067 7.95596H4.65188C3.21313 9.97555 2.36707 12.4406 2.36707 15.0985C2.36707 21.9226 7.94297 27.4748 14.7979 27.4748C21.6512 27.4748 27.227 21.9226 27.227 15.0985C27.227 12.4406 26.3811 9.97555 24.9424 7.95596H25.6109C25.8 7.95596 25.9804 7.91835 26.1452 7.84972ZM6.83227 4.14709C9.05666 2.54079 11.7894 1.59363 14.74 1.59363C17.6903 1.59363 20.4227 2.54079 22.6469 4.14709H20.5812C18.8537 3.23774 16.8851 2.72278 14.7979 2.72278C12.7103 2.72278 10.7412 3.23774 9.01357 4.14709H6.83227Z" fill="#CCE6FF" fill-opacity="0.380392"/>
<path fill-rule="evenodd" clip-rule="evenodd" d="M20.2922 30.4791H14.8414C14.4178 30.4791 12.8754 27.8984 12.7159 27.3176C12.6207 27.1881 12.5435 27.0257 12.4799 26.8285C12.2407 26.087 12.398 24.6733 12.398 24.6733C12.3781 24.1491 12.8966 23.6834 13.5835 23.5808V16.1282C13.5835 15.5518 14.0528 15.0845 14.6318 15.0845H14.8938C15.4727 15.0845 15.942 15.5518 15.942 16.1282V20.8601C15.9701 20.9822 16.0507 21.182 16.2649 21.1413C16.4213 20.9415 16.6507 20.8104 16.9141 20.7874L16.9794 20.7817C17.4514 20.7406 17.8766 21.0602 18.0086 21.522C18.0952 21.572 18.225 21.6089 18.4077 21.5733C18.5582 21.4125 18.7652 21.3071 18.9988 21.2868L19.0641 21.2811C19.5108 21.2422 19.9155 21.5264 20.0675 21.9516C20.132 21.9952 20.2366 22.0399 20.3808 22.0358C20.512 21.9361 20.6702 21.8745 20.843 21.8595L20.9084 21.8538C21.4496 21.8066 21.9292 22.2338 21.9797 22.8081L22.0659 23.7886L22.0743 23.7994C22.0743 23.7994 22.0224 25.9587 21.655 27.1392C21.4629 27.7566 20.7433 30.194 20.2922 30.4791Z" fill="url(#paint1_linear_1483_2012)"/>
<mask id="mask0_1483_2012" style="mask-type:luminance" maskUnits="userSpaceOnUse" x="12" y="15" width="11" height="16">
<path d="M20.2922 30.4791H14.8414C14.4178 30.4791 12.8754 27.8984 12.7159 27.3176C12.6207 27.1881 12.5435 27.0257 12.4799 26.8285C12.2407 26.087 12.398 24.6733 12.398 24.6733C12.3781 24.1491 12.8966 23.6834 13.5835 23.5808V16.1282C13.5835 15.5518 14.0528 15.0845 14.6318 15.0845H14.8938C15.4727 15.0845 15.942 15.5518 15.942 16.1282V20.8601C15.9701 20.9822 16.0507 21.182 16.2649 21.1413C16.4213 20.9415 16.6507 20.8104 16.9141 20.7874L16.9794 20.7817C17.4514 20.7406 17.8766 21.0602 18.0086 21.522C18.0952 21.572 18.225 21.6089 18.4077 21.5733C18.5582 21.4125 18.7652 21.3071 18.9988 21.2868L19.0641 21.2811C19.5108 21.2422 19.9155 21.5264 20.0675 21.9516C20.132 21.9952 20.2366 22.0399 20.3808 22.0358C20.512 21.9361 20.6702 21.8745 20.843 21.8595L20.9084 21.8538C21.4496 21.8066 21.9292 22.2338 21.9797 22.8081L22.0659 23.7886L22.0743 23.7994C22.0743 23.7994 22.0224 25.9587 21.655 27.1392C21.4629 27.7566 20.7433 30.194 20.2922 30.4791Z" fill="white"/>
</mask>
<g mask="url(#mask0_1483_2012)">
<path fill-rule="evenodd" clip-rule="evenodd" d="M13.5311 23.3818V25.8868C13.5311 25.8868 13.1523 24.3667 13.1642 23.9037" fill="black" fill-opacity="0.144498"/>
<path d="M14.7715 17.9799C15.3026 17.9799 15.7331 17.387 15.7331 16.6558C15.7331 15.9245 15.3026 15.3317 14.7715 15.3317C14.2404 15.3317 13.8099 15.9245 13.8099 16.6558C13.8099 17.387 14.2404 17.9799 14.7715 17.9799Z" fill="url(#paint2_linear_1483_2012)"/>
<path d="M17.0951 22.3903C17.4425 22.3903 17.7241 22.1217 17.7241 21.7902C17.7241 21.4588 17.4425 21.1901 17.0951 21.1901C16.7477 21.1901 16.4662 21.4588 16.4662 21.7902C16.4662 22.1217 16.7477 22.3903 17.0951 22.3903Z" fill="url(#paint3_linear_1483_2012)"/>
<path d="M19.1916 22.8078C19.5389 22.8078 19.8205 22.5391 19.8205 22.2077C19.8205 21.8762 19.5389 21.6075 19.1916 21.6075C18.8442 21.6075 18.5626 21.8762 18.5626 22.2077C18.5626 22.5391 18.8442 22.8078 19.1916 22.8078Z" fill="url(#paint4_linear_1483_2012)"/>
<path d="M21.2269 23.434C21.5743 23.434 21.8559 23.1653 21.8559 22.8339C21.8559 22.5025 21.5743 22.2338 21.2269 22.2338C20.8796 22.2338 20.598 22.5025 20.598 22.8339C20.598 23.1653 20.8796 23.434 21.2269 23.434Z" fill="url(#paint5_linear_1483_2012)"/>
</g>
<path d="M4.76812 4.91941C4.76812 4.77606 4.65299 4.66138 4.51726 4.66138H3.13107C2.95002 4.66138 2.80197 4.80881 2.80197 4.98901V7.13098C2.80197 7.28665 2.9336 7.41768 3.08993 7.41768C3.25441 7.41768 3.38603 7.28665 3.38603 7.13098V6.26276H4.48844C4.62418 6.26276 4.73937 6.14808 4.73937 6.00881C4.73937 5.86546 4.62418 5.75078 4.48844 5.75078H3.38603V5.17329H4.51726C4.65299 5.17329 4.76812 5.05868 4.76812 4.91941Z" fill="#0FBD00"/>
<path d="M7.60225 5.54192C7.60225 5.03409 7.25262 4.66138 6.68088 4.66138H5.72659C5.54554 4.66138 5.39749 4.80881 5.39749 4.98901V7.13098C5.39749 7.28665 5.52912 7.41768 5.68545 7.41768C5.85 7.41768 5.98162 7.28665 5.98162 7.13098V6.42246H6.40935L6.87828 7.27024C6.93181 7.36442 7.0264 7.41768 7.12921 7.41768C7.30197 7.41768 7.41717 7.27024 7.41717 7.13098C7.41717 7.08596 7.40485 7.03679 7.38014 6.99178L7.00169 6.35286C7.29786 6.28319 7.60225 6.02523 7.60225 5.54192ZM6.5945 5.17329C6.82893 5.17329 7.0058 5.31255 7.0058 5.54192C7.0058 5.77128 6.82893 5.91055 6.5945 5.91055H5.98162V5.17329H6.5945Z" fill="#0FBD00"/>
<path d="M10.2554 7.13098C10.2554 6.99586 10.1402 6.88118 10.0045 6.88118H8.87331V6.26276H9.97566C10.1114 6.26276 10.2266 6.14808 10.2266 6.00881C10.2266 5.86546 10.1114 5.75078 9.97566 5.75078H8.87331V5.17329H10.0045C10.1402 5.17329 10.2554 5.05868 10.2554 4.91941C10.2554 4.77606 10.1402 4.66138 10.0045 4.66138H8.61828C8.43724 4.66138 8.28918 4.80881 8.28918 4.98901V7.06546C8.28918 7.24566 8.43724 7.39309 8.61828 7.39309H10.0045C10.1402 7.39309 10.2554 7.27841 10.2554 7.13098Z" fill="#0FBD00"/>
<path d="M12.9003 7.13098C12.9003 6.99586 12.7851 6.88118 12.6493 6.88118H11.5182V6.26276H12.6205C12.7563 6.26276 12.8715 6.14808 12.8715 6.00881C12.8715 5.86546 12.7563 5.75078 12.6205 5.75078H11.5182V5.17329H12.6493C12.7851 5.17329 12.9003 5.05868 12.9003 4.91941C12.9003 4.77606 12.7851 4.66138 12.6493 4.66138H11.2631C11.0822 4.66138 10.9341 4.80881 10.9341 4.98901V7.06546C10.9341 7.24566 11.0822 7.39309 11.2631 7.39309H12.6493C12.7851 7.39309 12.9003 7.27841 12.9003 7.13098Z" fill="#0FBD00"/>
<path d="M16.9231 4.91941C16.9231 4.77606 16.8079 4.66138 16.6722 4.66138H14.9405C14.8007 4.66138 14.6855 4.77606 14.6855 4.91124C14.6855 5.05868 14.8007 5.17329 14.9405 5.17329H15.5122V7.12689C15.5122 7.28665 15.6439 7.41768 15.8043 7.41768C15.9688 7.41768 16.1005 7.28665 16.1005 7.12689V5.17329H16.6722C16.8079 5.17329 16.9231 5.05868 16.9231 4.91941Z" fill="#0FBD00"/>
<path d="M19.7243 5.54192C19.7243 5.03409 19.3747 4.66138 18.803 4.66138H17.8487C17.6676 4.66138 17.5196 4.80881 17.5196 4.98901V7.13098C17.5196 7.28665 17.6512 7.41768 17.8076 7.41768C17.972 7.41768 18.1037 7.28665 18.1037 7.13098V6.42246H18.5314L19.0004 7.27024C19.0539 7.36442 19.1485 7.41768 19.2513 7.41768C19.4241 7.41768 19.5393 7.27024 19.5393 7.13098C19.5393 7.08596 19.5269 7.03679 19.5022 6.99178L19.1238 6.35286C19.42 6.28319 19.7243 6.02523 19.7243 5.54192ZM18.7166 5.17329C18.951 5.17329 19.1279 5.31255 19.1279 5.54192C19.1279 5.77128 18.951 5.91055 18.7166 5.91055H18.1037V5.17329H18.7166Z" fill="#0FBD00"/>
<path d="M20.9954 7.13115V4.92367C20.9954 4.76806 20.8637 4.63696 20.7075 4.63696C20.5429 4.63696 20.4113 4.76806 20.4113 4.92367V7.13115C20.4113 7.28682 20.5429 7.41785 20.6992 7.41785C20.8637 7.41785 20.9954 7.28682 20.9954 7.13115Z" fill="#0FBD00"/>
<path d="M24.212 7.10649C24.212 7.06958 24.2038 7.03274 24.1915 6.9959L23.3934 4.94403C23.3153 4.74334 23.1055 4.62048 22.8958 4.63683C22.7024 4.63683 22.5173 4.75968 22.4474 4.94403L21.6453 6.9959C21.6288 7.03274 21.6247 7.06958 21.6247 7.10649C21.6247 7.2621 21.7481 7.41771 21.9332 7.41771C22.0607 7.41771 22.1759 7.34403 22.2211 7.22526L22.3322 6.93039H23.5086L23.6156 7.22526C23.6608 7.34403 23.776 7.41771 23.8994 7.41771C24.0886 7.41771 24.212 7.25802 24.212 7.10649ZM23.3482 6.41841H22.4926L22.9204 5.24299L23.3482 6.41841Z" fill="#0FBD00"/>
<path d="M26.6142 7.13115C26.6142 6.99603 26.499 6.88135 26.3633 6.88135H25.4296V4.92367C25.4296 4.76806 25.2979 4.63696 25.1417 4.63696C24.9771 4.63696 24.8455 4.76806 24.8455 4.92367V7.06563C24.8455 7.24583 24.9935 7.39326 25.1745 7.39326H26.3633C26.499 7.39326 26.6142 7.27858 26.6142 7.13115Z" fill="#0FBD00"/>
<defs>
<radialGradient id="paint0_radial_1483_2012" cx="0" cy="0" r="1" gradientUnits="userSpaceOnUse" gradientTransform="translate(14.6939 14.894) scale(7.62285 7.58414)">
<stop stop-color="#1D98FF"/>
<stop offset="1" stop-color="#CCE6FF"/>
</radialGradient>
<linearGradient id="paint1_linear_1483_2012" x1="15.6211" y1="6.44143" x2="15.6211" y2="31.4384" gradientUnits="userSpaceOnUse">
<stop stop-color="#7AD5FE"/>
<stop offset="0.51" stop-color="#3C99FC"/>
<stop offset="1" stop-color="#2684FB"/>
</linearGradient>
<linearGradient id="paint2_linear_1483_2012" x1="14.8899" y1="13.9468" x2="14.8899" y2="17.8229" gradientUnits="userSpaceOnUse">
<stop stop-color="white" stop-opacity="0.25098"/>
<stop offset="1" stop-color="#2684FB" stop-opacity="0"/>
</linearGradient>
<linearGradient id="paint3_linear_1483_2012" x1="17.1727" y1="20.5624" x2="17.1727" y2="22.3192" gradientUnits="userSpaceOnUse">
<stop stop-color="white" stop-opacity="0.25098"/>
<stop offset="1" stop-color="#2684FB" stop-opacity="0"/>
</linearGradient>
<linearGradient id="paint4_linear_1483_2012" x1="19.2691" y1="20.9798" x2="19.2691" y2="22.7367" gradientUnits="userSpaceOnUse">
<stop stop-color="white" stop-opacity="0.25098"/>
<stop offset="1" stop-color="#2684FB" stop-opacity="0"/>
</linearGradient>
<linearGradient id="paint5_linear_1483_2012" x1="21.3044" y1="21.6061" x2="21.3044" y2="23.3629" gradientUnits="userSpaceOnUse">
<stop stop-color="white" stop-opacity="0.25098"/>
<stop offset="1" stop-color="#2684FB" stop-opacity="0"/>
</linearGradient>
</defs>
</svg>
